<svg width="50" height="35" viewBox="0 0 50 35" fill="none" xmlns="http://www.w3.org/2000/svg">
<g clip-path="url(#clip0_706_3859)">
<rect width="50" height="35" fill="white"/>
<path fill-rule="evenodd" clip-rule="evenodd" d="M-11 -2H61.6818V37H-11V-2Z" fill="#C62139"/>
<path fill-rule="evenodd" clip-rule="evenodd" d="M-9.22729 -0.227539H59.9091V35.227H-9.22729V-0.227539Z" fill="#00297B"/>
<path fill-rule="evenodd" clip-rule="evenodd" d="M25.3622 7.45117C25.3622 7.45117 18.6409 12.3483 18.6409 17.4352C18.6409 22.5229 25.3622 27.5504 25.3622 27.5504C25.3622 27.5504 32.0409 22.8899 32.0409 17.4352C32.0409 11.9823 25.3622 7.45117 25.3622 7.45117Z" fill="#92DBFC"/>
<path fill-rule="evenodd" clip-rule="evenodd" d="M19.3845 20.5399C21.1342 24.3868 25.3622 27.5493 25.3622 27.5493C25.3622 27.5493 29.6663 24.5454 31.3628 20.5391" fill="#008CE7"/>
<path fill-rule="evenodd" clip-rule="evenodd" d="M31.3867 19.4287C30.3505 20.1077 24.52 19.7815 24.52 19.7815L24.1938 20.542L31.1367 20.5615C31.1651 20.4569 31.2342 20.3328 31.2591 20.2282L31.3867 19.4287Z" fill="#CCCCCC"/>
<path fill-rule="evenodd" clip-rule="evenodd" d="M20.9543 22.5755C21.2495 22.5843 21.5438 22.6419 21.8079 22.7705C22.2803 22.9983 22.5533 22.9965 23.0621 23.0036C23.5948 23.0107 24.0132 23.3696 24.5884 23.3847C25.6485 23.4113 26.0953 23.8944 25.2709 23.8944C24.8809 23.8944 24.046 23.6551 23.6427 23.7047C23.0293 23.7614 22.6748 23.804 22.221 24.1346C21.7688 23.6399 21.3459 23.1194 20.9543 22.5755ZM23.0524 24.9961C23.3147 24.8321 23.4955 24.7036 23.7508 24.6956C24.2472 24.6824 24.4156 24.4014 24.9891 24.4014C25.6405 24.5104 26.5225 24.3305 27.0401 24.2241C27.9566 24.0309 27.5223 23.4441 26.9666 23.2305C26.5181 23.0542 25.6769 23.2216 25.1548 23.047C24.7604 22.9052 25.0857 22.6809 25.2984 22.6331C25.5121 22.5967 25.7416 22.6614 26.0093 22.7013C26.5076 22.7307 27.0077 22.71 27.5019 22.6393C28.3661 22.5179 28.3307 22.2857 28.7481 22.2803C29.0522 22.268 29.2844 22.1846 29.4927 22.049C29.7356 21.9001 29.99 21.5943 30.2851 21.6058L30.4588 21.6129C28.6356 24.8428 25.3613 26.963 25.3613 26.963C25.3613 26.963 24.303 26.2211 23.0524 24.9961Z" fill="#FFDE52"/>
<path fill-rule="evenodd" clip-rule="evenodd" d="M23.4575 19.1685C23.4823 19.1348 23.5071 19.1498 23.532 19.1685L23.5852 21.6379H23.408L23.4575 19.1685Z" fill="#8C4200"/>
<path fill-rule="evenodd" clip-rule="evenodd" d="M21.308 21.5549C21.308 21.5549 23.5461 21.7109 24.9191 21.4414C24.9191 21.4414 25.0343 21.5123 24.8694 21.6896C24.7037 21.8669 24.2844 21.905 24.054 21.9431C24.054 21.9431 23.9981 22.0565 24.0026 22.1159C24.0079 22.1753 24.1479 22.1691 24.2171 22.1558L24.2861 22.1434C24.2861 22.1434 24.2533 22.365 23.4059 22.3942C23.1277 22.4041 22.2111 22.4218 22.017 22.1727C22.017 22.1727 22.1854 22.1851 22.2288 22.1727C22.2732 22.1603 22.2405 21.9998 22.2244 21.9768C22.2084 21.9537 21.6305 21.9768 21.3256 21.7197C21.2503 21.6463 21.2148 21.5673 21.2148 21.5398C21.2148 21.5371 21.307 21.5549 21.307 21.5549H21.308ZM22.4745 21.9847C22.4745 21.9847 23.0869 22.0565 23.7916 21.9847C23.7916 21.9847 23.8103 22.1071 23.7783 22.1532C23.7463 22.2001 22.9327 22.2356 22.5223 22.1709C22.4566 22.1515 22.4541 22.0779 22.4745 21.9847Z" fill="#8C4200"/>
<path fill-rule="evenodd" clip-rule="evenodd" d="M21.7139 21.3886C21.7139 21.3886 22.423 20.4987 22.1952 18.96C23.2916 19.5698 24.2232 20.4889 24.4767 21.3425C23.4822 21.1121 22.6038 21.2716 21.7139 21.3886Z" fill="#FDF9FF"/>
<path fill-rule="evenodd" clip-rule="evenodd" d="M25.364 6.86328C25.364 6.86328 18.25 11.7127 18.25 17.4306C18.25 23.1494 25.364 28.136 25.364 28.136C25.364 28.136 32.4318 23.5607 32.4318 17.4306C32.4318 11.3014 25.364 6.86328 25.364 6.86328ZM25.3613 8.03683C25.3613 8.03683 31.6492 11.9847 31.6492 17.4385C31.6492 22.8923 25.3613 26.9625 25.3613 26.9625C25.3613 26.9625 19.0327 22.5262 19.0327 17.4385C19.0327 12.3508 25.3613 8.03683 25.3613 8.03683Z" fill="#C62139"/>
<path fill-rule="evenodd" clip-rule="evenodd" d="M27.243 22.6296C27.3565 23.0302 27.4761 23.1667 27.9362 23.2695C28.39 23.3723 29.0831 22.9682 28.6541 22.5764C28.2446 22.2112 27.8138 22.1181 27.4469 21.7893C26.8787 21.2734 26.0987 20.2062 25.7282 19.1976C25.3232 18.094 25.3932 14.9891 25.4118 13.4158C25.4118 13.3981 25.4606 13.3866 25.4668 13.3795C25.4933 13.344 25.5182 13.3901 25.4765 13.1597C25.4659 13.1003 25.4145 13.0391 25.4145 12.9797C25.4153 12.8734 25.0129 13.0958 24.9075 13.2864C24.8826 13.3298 24.9846 13.4539 24.9846 13.4779C24.9979 14.9873 24.8206 17.9673 25.2585 19.3163C25.5288 20.1513 26.0234 20.7966 26.4701 21.3931C26.7387 21.7751 27.126 22.1882 27.243 22.6296Z" fill="#8C4200" stroke="black" stroke-width="0.141"/>
<path fill-rule="evenodd" clip-rule="evenodd" d="M21.1847 12.9707C21.2139 13.0062 21.2095 13.1622 21.2095 13.1622C21.2326 13.1746 21.6119 12.8661 21.6119 12.8803C21.6119 12.945 21.6208 13.0789 21.6208 13.0789C21.6208 13.0789 22.0134 12.7376 22.0294 12.7731C22.0471 12.8139 22.0276 13.0124 22.0276 13.0124L22.337 12.7004C22.3715 12.6667 22.3662 12.7438 22.3689 12.867C22.3698 12.8892 22.797 12.579 22.8227 12.5736C22.8785 12.5621 22.8954 12.735 22.8927 12.7775C22.8901 12.8094 23.2872 12.571 23.2694 12.602L23.2987 12.7855C23.4095 12.7722 23.6727 12.6818 23.8305 12.7057C23.8819 12.7128 23.8792 12.7359 23.834 12.7536C23.0709 13.0363 22.4832 13.4627 22.1411 14.0565C22.025 14.2595 21.9895 14.4359 22.0205 14.4802C22.0205 14.4802 22.157 14.2099 22.3122 14.1673C22.3325 14.162 22.3467 14.3411 22.368 14.3304C22.368 14.3304 22.485 14.0601 22.5692 13.9599C22.5922 13.9333 22.6295 14.1017 22.6543 14.0769C22.6543 14.0769 22.7146 13.8961 22.8342 13.7694C22.8511 13.7516 22.8821 13.9413 22.9007 13.9254C23.0248 13.8208 23.14 13.5593 23.1861 13.5398C23.2189 13.5167 23.2242 13.7569 23.2552 13.7366C23.2552 13.7366 23.4316 13.4121 23.5362 13.3536C23.6045 13.3155 23.6018 13.5309 23.6018 13.5309C23.7357 13.4095 23.8837 13.2083 23.9537 13.1214C23.9865 13.0806 23.9688 13.3856 24.0024 13.398C24.0468 13.413 24.3366 13.164 24.3685 13.1586C24.3907 13.156 24.4155 13.2296 24.3596 13.2898L24.0016 13.6674C24.0707 13.6798 24.0973 13.6621 24.146 13.6736C24.2932 13.7091 23.8713 13.9307 23.8792 13.9714C23.8792 13.9714 24.0822 13.9679 24.014 14.0042C23.9652 14.0308 23.6966 14.3464 23.6966 14.3349C23.6966 14.3295 23.8314 14.3375 23.8305 14.373C23.8296 14.4386 23.608 14.7763 23.6054 14.7745C23.5938 14.7639 23.725 14.7603 23.7427 14.7931C23.7755 14.8552 23.5149 15.1281 23.5655 15.1742C23.5726 15.1813 23.7144 15.1769 23.7773 15.1893C23.8074 15.1955 23.8925 15.6857 23.8713 15.6662C23.9068 15.4634 23.9568 15.2635 24.0211 15.0679C24.0565 14.9846 24.1709 15.1946 24.1797 15.176C24.1753 15.176 24.1567 14.8773 24.1726 14.7408C24.1771 14.7027 24.2595 14.7807 24.2577 14.7444C24.2551 14.6619 24.248 14.5733 24.2666 14.4926C24.2799 14.4324 24.3499 14.6025 24.3774 14.5564C24.3774 14.5564 24.2923 14.2604 24.3277 14.1771C24.3508 14.1221 24.4075 14.31 24.4447 14.3171C24.4447 14.3171 24.4235 14.0867 24.4625 14.0282L24.5804 14.1434C24.6061 14.1062 24.6007 13.7472 24.6247 13.7144C24.6442 13.686 24.7665 13.8482 24.7842 13.8234C24.8011 13.7995 24.7328 13.5336 24.7488 13.5132C24.77 13.4822 24.9039 13.5868 24.9065 13.5841C24.9606 13.5345 24.9597 13.4086 24.9819 13.3625C25.0439 13.2367 25.3967 13.2207 25.4384 13.3093C25.4587 13.3536 25.4446 13.4095 25.4366 13.4777C25.4392 13.4795 25.6139 13.491 25.6139 13.4786C25.6139 13.4786 25.5935 13.6275 25.6059 13.7906C25.6077 13.8128 25.7823 13.7853 25.7849 13.8075C25.8 13.9608 25.7619 13.9759 25.7619 13.9759C25.7636 13.9865 25.8798 13.9581 25.8815 13.9706C25.8892 14.0603 25.8661 14.1501 25.8159 14.2249C25.8071 14.2374 25.9817 14.2125 25.9844 14.2276C26.0056 14.3428 26.0092 14.435 25.9879 14.5981C25.9861 14.6105 26.1581 14.4829 26.1607 14.4962C26.1873 14.6327 26.1563 14.7807 26.1723 14.9234C26.1758 14.9562 26.2857 14.825 26.2964 14.8631C26.3052 14.9004 26.2715 15.1716 26.2875 15.1875C26.2875 15.1875 26.4727 15.1787 26.4887 15.1929C26.6349 15.3187 26.6075 15.5385 26.6075 15.5385C26.6474 15.5111 26.6323 15.246 26.5915 15.0049C26.5871 14.9792 26.7333 14.989 26.7289 14.9651C26.7289 14.9651 26.5694 14.8764 26.5162 14.6309C26.5046 14.5786 26.6704 14.5892 26.6704 14.5892C26.6243 14.4926 26.5436 14.474 26.4754 14.3809C26.4532 14.3508 26.6474 14.3366 26.6474 14.3278C26.6474 14.2356 26.4834 14.1913 26.3983 14.0946C26.3619 14.0539 26.5756 14.0512 26.5756 14.0512C26.5135 13.9714 26.3061 13.936 26.2006 13.8314C26.1439 13.7738 26.4107 13.7171 26.4071 13.7073C26.3779 13.6231 26.1271 13.5965 26.0047 13.5008C25.9799 13.4813 26.1643 13.4148 26.1643 13.4148C26.1457 13.3794 25.7442 13.1374 25.948 13.1595C26.0349 13.1684 26.2095 13.281 26.2228 13.2641C26.2228 13.2641 26.2157 13.1223 26.2334 13.1064C26.3008 13.0425 26.5321 13.3767 26.6101 13.3634C26.6101 13.3634 26.6394 13.1241 26.6748 13.117C26.7599 13.1028 26.8627 13.4662 26.9461 13.4662C26.9576 13.4662 26.9638 13.2561 27.0063 13.2446C27.0551 13.2313 27.11 13.4804 27.1712 13.5354C27.2279 13.5859 27.2288 13.3404 27.2625 13.3873C27.3192 13.4627 27.3334 13.6196 27.4105 13.6887C27.461 13.733 27.4699 13.4724 27.5257 13.507C27.5913 13.5478 27.5763 13.6825 27.6489 13.749C27.6844 13.7809 27.7074 13.577 27.7464 13.6071C27.7819 13.6337 27.8058 13.8819 27.8439 13.9218C27.8918 13.9723 27.9476 13.7906 27.9973 13.819C28.0327 13.8403 28.0248 14.0557 28.0584 14.1026C28.1267 14.1984 28.1621 13.9865 28.2074 14.0193C28.2393 14.0415 28.3075 14.2888 28.3359 14.3083C28.3988 14.3526 28.4334 14.1957 28.4821 14.2179C28.5176 14.2338 28.5876 14.5529 28.6169 14.5449C28.6346 14.5396 28.6824 13.8172 28.3784 13.5123C27.8847 13.0159 26.9992 12.7297 26.2769 12.7226C26.2769 12.7226 26.6403 12.6561 26.6491 12.6011C26.6686 12.4912 26.8486 12.5036 26.9744 12.5302C26.9966 12.5338 26.9851 12.3352 26.9877 12.3352C27.1003 12.3317 27.2004 12.3928 27.3086 12.4522C27.3414 12.4717 27.2403 12.2537 27.2758 12.2723C27.4141 12.3459 27.5683 12.3671 27.6605 12.4558C27.6853 12.4788 27.633 12.2882 27.633 12.2882C27.7012 12.2732 27.8369 12.3636 27.8909 12.4496C27.9175 12.4912 27.8892 12.2271 27.9095 12.2741C27.9095 12.2741 28.1506 12.3485 28.1754 12.4407C28.1754 12.4407 28.1958 12.2732 28.2286 12.282C28.3244 12.3051 28.4094 12.454 28.4848 12.4762C28.4848 12.4762 28.4529 12.3264 28.4777 12.3317C28.6585 12.3742 28.8553 12.4762 28.8553 12.4762C28.7534 12.2422 28.366 11.9975 27.6853 11.9319C27.3302 11.907 26.9734 11.9272 26.6234 11.9922C26.2715 12.0667 25.9941 12.1092 26.0508 12.0587C26.2831 11.8495 26.6598 11.8238 26.7635 11.775C26.837 11.7405 26.5135 11.6261 26.5773 11.6102C26.642 11.596 26.931 11.5747 26.931 11.5747C26.993 11.5295 26.7209 11.4418 26.7617 11.3762C26.8432 11.2459 27.3254 11.3646 27.3671 11.3141C27.3804 11.2982 27.1597 11.1785 27.1685 11.1608C27.204 11.0952 27.633 11.2104 27.6436 11.1519C27.6436 11.1519 27.5133 11.0633 27.4203 10.9906C27.4096 10.9817 27.8041 10.8842 27.8041 10.8842C27.7552 10.8512 27.7022 10.825 27.6463 10.8062C27.563 10.777 27.992 10.6751 27.992 10.6751C27.4486 10.4473 26.0375 11.0943 25.7574 11.7662C25.6848 11.9266 25.6821 11.752 25.6981 11.6164C25.7122 11.4701 25.7326 11.3416 25.7158 11.2086C25.7096 11.1688 25.6006 11.3141 25.5917 11.2751C25.5642 11.1333 25.6475 10.9764 25.6094 10.8178C25.597 10.7646 25.4508 10.9746 25.4322 10.9215C25.3781 10.7752 25.4712 10.5696 25.4339 10.3675C25.4189 10.2886 25.2806 10.5359 25.2345 10.4659C25.1804 10.3843 25.2035 10.0812 25.1778 10.0351C25.1574 9.99788 25.0342 10.1805 25.0235 10.1459C24.8569 9.59015 25.0785 9.52101 24.7576 9.8339C24.747 9.84542 24.6761 9.50594 24.6637 9.51658C24.5325 9.77363 24.318 9.33399 24.2435 9.37476C24.1886 9.40579 24.3942 9.57685 24.396 9.65308C24.3969 9.69031 24.2072 9.69297 24.2072 9.69297C24.2116 9.7559 24.5679 9.93406 24.5795 10.0032C24.5883 10.0608 24.3277 10.0475 24.3277 10.0475C24.3357 10.1246 24.6327 10.1982 24.6486 10.2815C24.6575 10.3258 24.5094 10.3365 24.5148 10.3834C24.5227 10.4544 24.8019 10.5944 24.8108 10.6671C24.817 10.7167 24.6327 10.738 24.6282 10.7841C24.6229 10.8408 24.9987 11.0314 24.9996 11.0854C24.9996 11.1599 24.8489 11.1209 24.7816 11.159C24.6849 11.2122 25.0891 11.4285 25.1069 11.4905C25.1201 11.5437 24.9447 11.4967 24.9384 11.5455C24.9314 11.6102 25.137 11.7077 25.184 11.8185C25.2309 11.9275 25.1831 11.9559 25.1157 11.9124C24.9801 11.8247 24.4341 11.2937 24.2887 11.1519C23.9926 10.8847 23.6144 10.7263 23.2162 10.7025C23.1719 10.7149 23.4485 10.894 23.4502 10.9587C23.4502 10.9755 23.3261 11.0004 23.3315 11.0048C23.4077 11.0757 23.6461 11.1581 23.6461 11.1581L23.5779 11.2707C23.5938 11.3035 23.7064 11.3124 23.8863 11.3673C23.8863 11.3673 23.7516 11.4435 23.7622 11.4506C23.8571 11.5215 24.0423 11.5721 24.0423 11.5721L23.8597 11.6288C23.8491 11.6607 24.271 11.8149 24.271 11.8149C24.271 11.8149 24.1389 11.9195 24.1452 11.9248C24.1771 11.9541 24.4864 12.0197 24.4864 12.0197C24.4917 12.0241 24.2684 12.0879 24.2692 12.0897C24.3508 12.1641 24.575 12.1881 24.6273 12.3113C24.6273 12.3113 24.6575 12.3813 24.5688 12.368C24.2205 12.2519 23.6807 12.0126 22.6339 12.1065C21.5632 12.2342 20.7477 13.086 20.7619 13.1702C20.7619 13.1702 21.1448 12.9193 21.1847 12.9707Z" fill="#109421" stroke="black" stroke-width="0.141"/>
<path d="M25.0138 13.216C25.1538 13.216 25.2673 13.1025 25.2673 12.9625C25.2673 12.8225 25.1538 12.709 25.0138 12.709C24.8737 12.709 24.7603 12.8225 24.7603 12.9625C24.7603 13.1025 24.8737 13.216 25.0138 13.216Z" fill="#8C4200" stroke="black" stroke-width="0.141" stroke-miterlimit="33" stroke-linecap="round" stroke-linejoin="round"/>
<path d="M24.991 13.632C25.1311 13.632 25.2445 13.5185 25.2445 13.3785C25.2445 13.2385 25.1311 13.125 24.991 13.125C24.851 13.125 24.7375 13.2385 24.7375 13.3785C24.7375 13.5185 24.851 13.632 24.991 13.632Z" fill="#8C4200" stroke="black" stroke-width="0.141" stroke-miterlimit="33" stroke-linecap="round" stroke-linejoin="round"/>
<path d="M25.3392 13.1213C25.4792 13.1213 25.5927 13.0078 25.5927 12.8678C25.5927 12.7278 25.4792 12.6143 25.3392 12.6143C25.1992 12.6143 25.0857 12.7278 25.0857 12.8678C25.0857 13.0078 25.1992 13.1213 25.3392 13.1213Z" fill="#8C4200" stroke="black" stroke-width="0.141" stroke-miterlimit="33" stroke-linecap="round" stroke-linejoin="round"/>
<path d="M25.3773 13.4738C25.5173 13.4738 25.6308 13.3603 25.6308 13.2203C25.6308 13.0803 25.5173 12.9668 25.3773 12.9668C25.2373 12.9668 25.1238 13.0803 25.1238 13.2203C25.1238 13.3603 25.2373 13.4738 25.3773 13.4738Z" fill="#8C4200" stroke="black" stroke-width="0.141" stroke-miterlimit="33" stroke-linecap="round" stroke-linejoin="round"/>
<path fill-rule="evenodd" clip-rule="evenodd" d="M22.3185 17.649C22.3066 17.649 22.2987 17.654 22.2945 17.664C22.2904 17.6729 22.2874 17.685 22.2857 17.7003H22.2591V17.3369H22.2857C22.2886 17.3682 22.2996 17.3838 22.3185 17.3838H22.9637V17.4149C22.9401 17.4166 22.9283 17.4314 22.9283 17.4592V17.8901C22.9283 17.9019 22.9298 17.9122 22.9327 17.921C22.9357 17.9299 22.9431 17.9344 22.9549 17.9344H22.9655V17.9654C22.7676 18.0895 22.533 18.1515 22.2617 18.1515C22.1701 18.1515 22.0815 18.1388 21.9958 18.1134C21.9107 18.0856 21.8354 18.0431 21.7698 17.9858C21.7048 17.9291 21.6516 17.8573 21.6103 17.7704C21.5713 17.6818 21.5518 17.5789 21.5518 17.4619C21.5518 17.3449 21.5713 17.2427 21.6103 17.1553C21.6516 17.0673 21.7048 16.9946 21.7698 16.9372C21.8354 16.8781 21.9104 16.835 21.9949 16.8078C22.0812 16.7783 22.1702 16.7635 22.2618 16.7635C22.2984 16.7635 22.3306 16.7644 22.3583 16.7661C22.3855 16.7679 22.4121 16.7714 22.4381 16.7767C22.4647 16.782 22.4919 16.7888 22.5197 16.7972C22.5474 16.8042 22.5802 16.8139 22.6181 16.8263C22.6547 16.8381 22.6884 16.8529 22.7191 16.8706C22.7492 16.8861 22.7687 16.8938 22.7776 16.8938C22.7894 16.8938 22.7998 16.8867 22.8086 16.8725L22.8352 16.883L22.6924 17.2253L22.6658 17.2075C22.6688 17.1968 22.6703 17.1874 22.6703 17.1791C22.6703 17.1673 22.6579 17.1543 22.6331 17.1401C22.6082 17.1241 22.5769 17.1102 22.5391 17.0983C22.5012 17.0865 22.4584 17.0762 22.4105 17.0673C22.3633 17.0584 22.3172 17.054 22.2723 17.054C22.2203 17.054 22.17 17.0629 22.1216 17.0806C22.0749 17.096 22.0327 17.1208 21.9948 17.155C21.9588 17.1898 21.9298 17.2333 21.908 17.2853C21.8861 17.3355 21.8752 17.3961 21.8752 17.467C21.8752 17.5361 21.8882 17.5967 21.9142 17.6487C21.9402 17.6989 21.9731 17.7403 22.0127 17.7728C22.0534 17.8058 22.0985 17.8301 22.1482 17.8454C22.1978 17.8609 22.2466 17.8686 22.2945 17.8686C22.356 17.8686 22.4106 17.8644 22.4585 17.8562C22.5081 17.8473 22.5554 17.8352 22.6003 17.8198V17.6488L22.3185 17.649ZM24.3536 16.8433C24.3536 16.8303 24.35 16.8205 24.3429 16.814C24.3376 16.8051 24.3219 16.7989 24.2958 16.7954V16.7635H24.7195V16.7954C24.6936 16.7989 24.6773 16.8048 24.6708 16.8131C24.6649 16.8202 24.6619 16.8299 24.6619 16.8423V17.546C24.6619 17.6613 24.6471 17.7582 24.6176 17.8368C24.588 17.916 24.5473 17.9789 24.4953 18.0256C24.4445 18.0728 24.3842 18.1062 24.3145 18.1257C24.2459 18.1435 24.1723 18.1523 24.0938 18.1523C24.0158 18.1523 23.9419 18.1435 23.8722 18.1257C23.803 18.1063 23.7425 18.0729 23.6905 18.0256C23.6396 17.9783 23.5992 17.9154 23.569 17.8368C23.5401 17.7582 23.5257 17.6614 23.5257 17.5461V16.8424C23.5257 16.8306 23.5224 16.8211 23.5159 16.814C23.51 16.8051 23.4941 16.7989 23.4681 16.7953V16.7634H23.8926V16.7954C23.8666 16.7989 23.8501 16.8048 23.843 16.8131C23.8371 16.8202 23.8341 16.8299 23.8341 16.8423V17.546C23.8341 17.6471 23.8569 17.7195 23.9024 17.7632C23.948 17.8069 24.0118 17.8288 24.0938 17.8288C24.1766 17.8288 24.2404 17.8069 24.2853 17.7632C24.3303 17.7195 24.3531 17.6471 24.3537 17.546L24.3536 16.8433ZM25.9916 18.0939C25.9916 18.1028 25.9939 18.1099 25.9986 18.1152C26.0046 18.1187 26.0164 18.1205 26.0341 18.1205V18.1524H25.6193V18.1196C25.637 18.1161 25.6494 18.1108 25.6565 18.1037C25.6648 18.0948 25.6728 18.08 25.6804 18.0593L25.7035 17.9876C25.716 17.9492 25.7325 17.9008 25.7531 17.8422L25.8205 17.6445L25.8958 17.4256L25.9685 17.2067L26.0341 17.0134C26.053 16.9573 26.0678 16.9115 26.0784 16.8761L26.0971 16.8212C26.0971 16.8123 26.0918 16.806 26.0812 16.8025C26.0717 16.7989 26.0614 16.7963 26.0502 16.7946V16.7627H26.6617V16.7945C26.6499 16.7963 26.6398 16.7989 26.6315 16.8025C26.6238 16.806 26.62 16.8149 26.62 16.8291C26.62 16.8326 26.6268 16.8554 26.6405 16.8973C26.6564 16.9399 26.6762 16.9954 26.6999 17.064L26.7796 17.2935L26.8754 17.555L26.9693 17.813L27.0535 18.0407C27.0653 18.0721 27.0754 18.0931 27.0838 18.1038C27.0932 18.1144 27.105 18.1197 27.1192 18.1197V18.1515H26.6573V18.1196C26.6869 18.1178 26.7016 18.1072 26.7016 18.0877L26.6902 18.0531L26.6636 17.9796L26.637 17.8998C26.6286 17.8762 26.6235 17.8596 26.6218 17.8502H26.0669C26.0509 17.8974 26.0385 17.9361 26.0297 17.9663L26.0057 18.0372L25.9942 18.0771L25.9916 18.093V18.0939ZM26.5615 17.6401L26.3337 17.0117L26.1254 17.6401H26.5615ZM28.7366 18.1303C28.765 18.1267 28.7824 18.1217 28.7888 18.1152C28.796 18.1063 28.7997 18.0957 28.7997 18.0833V17.1118L28.7951 17.1065L28.3936 18.1303L27.9974 17.0959H27.993V18.0833C27.993 18.0951 27.9959 18.1057 28.0018 18.1152C28.0095 18.1218 28.0276 18.1268 28.056 18.1303V18.1623H27.6588V18.1303C27.6877 18.1267 27.7051 18.1217 27.7111 18.1152C27.7188 18.1063 27.7226 18.0957 27.7226 18.0833V16.8521C27.7226 16.8403 27.7188 16.8306 27.7111 16.8229C27.7052 16.8147 27.6878 16.8088 27.6589 16.8051V16.7732H28.2473V16.8051C28.2119 16.8069 28.1942 16.8226 28.1942 16.8521L28.2065 16.8947L28.2411 16.9922L28.2881 17.1189C28.3058 17.1626 28.3224 17.2058 28.3378 17.2483C28.3543 17.2886 28.3685 17.3246 28.3803 17.3565C28.3921 17.3883 28.4004 17.4093 28.4051 17.4195C28.4305 17.3527 28.4571 17.2877 28.4849 17.2245C28.5127 17.1612 28.5364 17.1033 28.5558 17.0507C28.5789 16.9975 28.5972 16.9532 28.6108 16.9177C28.6238 16.8829 28.6303 16.861 28.6303 16.8521C28.6303 16.8226 28.6125 16.8069 28.5771 16.8051V16.7732H29.1879V16.8051C29.1589 16.8087 29.1409 16.8146 29.1337 16.8229C29.1278 16.83 29.1248 16.8398 29.1248 16.8521V18.0824C29.1248 18.0942 29.1278 18.1048 29.1337 18.1143C29.1409 18.1208 29.1586 18.1258 29.1869 18.1293V18.1613H28.7367L28.7366 18.1303Z" fill="#BD0728"/>
</g>
<defs>
<clipPath id="clip0_706_3859">
<rect width="50" height="35" fill="white"/>
</clipPath>
</defs>
</svg>
