<svg width="50" height="35" viewBox="0 0 50 35" fill="none" xmlns="http://www.w3.org/2000/svg">
<g clip-path="url(#clip0_706_4128)">
<rect width="50" height="35" fill="white"/>
<path d="M-4 0H54.3334V35H-4V0Z" fill="#FF0000"/>
<path fill-rule="evenodd" clip-rule="evenodd" d="M26.678 10.6898L26.8748 6.89635C26.8753 6.88789 26.8726 6.87955 26.8672 6.873C26.8618 6.86645 26.8542 6.86217 26.8458 6.861C26.8374 6.85984 26.8289 6.86188 26.8219 6.86673C26.815 6.87157 26.8101 6.87885 26.8083 6.88713L25.8356 10.5433C25.8327 10.5555 25.8303 10.5674 25.8283 10.5792C25.8196 10.6357 25.8222 10.6934 25.8361 10.7489C25.8499 10.8043 25.8747 10.8564 25.909 10.9022C25.9434 10.9479 25.9865 10.9863 26.0358 11.0151C26.0852 11.0439 26.1399 11.0625 26.1965 11.0699C26.2532 11.0773 26.3108 11.0733 26.3659 11.058C26.421 11.0428 26.4725 11.0167 26.5174 10.9813C26.5622 10.9459 26.5996 10.9018 26.6272 10.8518C26.6547 10.8017 26.672 10.7466 26.678 10.6898ZM27.7252 11.0098L28.5168 7.29469C28.5185 7.28647 28.517 7.27793 28.5127 7.27073C28.5084 7.26352 28.5016 7.25817 28.4936 7.25572C28.4856 7.25326 28.4769 7.25387 28.4693 7.25743C28.4617 7.26099 28.4557 7.26725 28.4525 7.27498L26.9162 10.7325C26.9114 10.744 26.9072 10.7555 26.9035 10.7669C26.8854 10.8215 26.8785 10.8791 26.8831 10.9364C26.8878 10.9937 26.9039 11.0494 26.9305 11.1004C26.9571 11.1513 26.9937 11.1964 27.0381 11.2329C27.0825 11.2694 27.1338 11.2966 27.1889 11.3129C27.244 11.3292 27.3018 11.3342 27.3589 11.3277C27.416 11.3212 27.4712 11.3033 27.5213 11.275C27.5713 11.2467 27.6152 11.2087 27.6502 11.1631C27.6852 11.1176 27.7107 11.0654 27.7252 11.0098ZM28.7088 11.4908L30.0753 7.94662C30.0785 7.93872 30.0785 7.92993 30.0754 7.92201C30.0724 7.91409 30.0664 7.90762 30.0588 7.90389C30.0511 7.90017 30.0424 7.89947 30.0342 7.90193C30.0261 7.90439 30.0192 7.90983 30.0149 7.91716L27.9537 11.0896C27.9228 11.1395 27.9025 11.1952 27.894 11.2532C27.8855 11.3113 27.889 11.3704 27.9043 11.4271C27.9196 11.4837 27.9463 11.5366 27.9829 11.5825C28.0195 11.6284 28.0651 11.6662 28.1169 11.6938C28.1687 11.7213 28.2257 11.7379 28.2841 11.7425C28.3426 11.7471 28.4015 11.7397 28.457 11.7207C28.5125 11.7017 28.5635 11.6714 28.6068 11.6319C28.6501 11.5923 28.6848 11.5443 28.7088 11.4908ZM29.6047 12.1196L31.5089 8.83296C31.5134 8.82564 31.5149 8.8169 31.5131 8.80851C31.5114 8.80012 31.5065 8.79271 31.4994 8.7878C31.4924 8.78288 31.4838 8.78083 31.4753 8.78205C31.4668 8.78328 31.4591 8.78768 31.4538 8.79438L28.9215 11.6052C28.9133 11.6148 28.9057 11.6244 28.8987 11.6341C28.8652 11.6804 28.8413 11.7329 28.8284 11.7886C28.8154 11.8442 28.8138 11.9019 28.8235 11.9583C28.8332 12.0146 28.8541 12.0684 28.8849 12.1165C28.9157 12.1647 28.9559 12.2061 29.003 12.2385C29.05 12.2709 29.1031 12.2936 29.1591 12.3051C29.2151 12.3167 29.2728 12.3169 29.3289 12.3059C29.385 12.2948 29.4382 12.2726 29.4856 12.2406C29.533 12.2086 29.5735 12.1675 29.6047 12.1196ZM30.3914 12.8801L32.7839 9.92986C32.7893 9.92338 32.792 9.91515 32.7915 9.90678C32.7911 9.89841 32.7876 9.8905 32.7816 9.88461C32.7755 9.87859 32.7674 9.8751 32.7588 9.87482C32.7503 9.87455 32.7419 9.87751 32.7355 9.88312L29.7966 12.2657C29.7512 12.3039 29.7142 12.3511 29.688 12.4044C29.6618 12.4577 29.647 12.5158 29.6444 12.5751C29.6419 12.6344 29.6517 12.6936 29.6732 12.749C29.6948 12.8043 29.7276 12.8545 29.7696 12.8965C29.8107 12.9377 29.8598 12.9701 29.9139 12.9917C29.9679 13.0133 30.0258 13.0237 30.084 13.0222C30.1423 13.0206 30.1995 13.0072 30.2524 12.9828C30.3052 12.9584 30.3525 12.9234 30.3914 12.8801ZM31.0502 13.7536L33.8728 11.2117C33.8791 11.206 33.8831 11.1982 33.8839 11.1898C33.8848 11.1814 33.8824 11.1729 33.8773 11.1662C33.8722 11.1594 33.8647 11.1548 33.8564 11.1533C33.848 11.1518 33.8394 11.1535 33.8323 11.1581L30.5583 13.0542C30.5078 13.0845 30.4641 13.1249 30.43 13.1729C30.3958 13.2208 30.3718 13.2753 30.3597 13.3329C30.3475 13.3905 30.3473 13.4501 30.3591 13.5077C30.3709 13.5654 30.3945 13.6201 30.4284 13.6683C30.4623 13.7164 30.5057 13.7571 30.556 13.7877C30.6063 13.8184 30.6624 13.8383 30.7207 13.8463C30.7791 13.8543 30.8385 13.8502 30.8952 13.8343C30.9518 13.8183 31.0046 13.7908 31.0502 13.7536ZM31.5646 14.7197L34.7501 12.6506C34.7574 12.6462 34.7627 12.639 34.765 12.6308C34.7672 12.6225 34.7662 12.6136 34.7622 12.6061C34.7581 12.5985 34.7514 12.5928 34.7432 12.59C34.7351 12.5873 34.7262 12.5877 34.7184 12.5913L31.1882 13.952C31.1766 13.9567 31.1655 13.9617 31.1549 13.9671C31.1037 13.993 31.0581 14.0289 31.021 14.0727C30.9839 14.1165 30.956 14.1673 30.9389 14.2221C30.9217 14.2769 30.9158 14.3346 30.9214 14.3917C30.9271 14.4489 30.9441 14.5043 30.9716 14.5548C30.999 14.6052 31.0363 14.6496 31.0812 14.6853C31.1262 14.7211 31.1779 14.7474 31.2332 14.7628C31.2885 14.7782 31.3463 14.7823 31.4033 14.7749C31.4602 14.7675 31.5151 14.7487 31.5646 14.7197ZM31.9208 15.755L35.3922 14.2133C35.4 14.2099 35.4063 14.2038 35.4098 14.196C35.4132 14.1882 35.4136 14.1794 35.4109 14.1713C35.4081 14.1633 35.4024 14.1566 35.3949 14.1525C35.3873 14.1485 35.3786 14.1475 35.3703 14.1497L31.6699 14.9376C31.6126 14.9509 31.5588 14.9759 31.5116 15.0109C31.4645 15.046 31.425 15.0903 31.3957 15.1413C31.3664 15.1922 31.3479 15.2486 31.3413 15.307C31.3348 15.3654 31.3403 15.4245 31.3575 15.4806C31.3747 15.5368 31.4033 15.5888 31.4415 15.6335C31.4797 15.6781 31.5267 15.7145 31.5795 15.7402C31.6323 15.7659 31.6898 15.7805 31.7485 15.7831C31.8072 15.7856 31.8658 15.7761 31.9207 15.755M32.1093 16.8338L35.7802 15.8576C35.7882 15.8552 35.795 15.85 35.7994 15.8429C35.8037 15.8359 35.8053 15.8275 35.8039 15.8193C35.8025 15.8111 35.7981 15.8037 35.7916 15.7986C35.785 15.7934 35.7769 15.7908 35.7686 15.7913L31.9903 15.9869C31.9317 15.9911 31.8747 16.0073 31.8226 16.0345C31.7706 16.0617 31.7247 16.0993 31.6878 16.145C31.6509 16.1907 31.6238 16.2435 31.6081 16.3C31.5925 16.3566 31.5886 16.4158 31.5968 16.474C31.6049 16.5321 31.625 16.588 31.6556 16.6381C31.6863 16.6881 31.7269 16.7314 31.775 16.7651C31.823 16.7988 31.8775 16.8223 31.935 16.8341C31.9925 16.8459 32.0519 16.8458 32.1093 16.8337M32.1276 17.9275L35.9055 17.5331C35.9139 17.5323 35.9218 17.5284 35.9274 17.522C35.9331 17.5157 35.9361 17.5075 35.936 17.499C35.9359 17.4905 35.9325 17.4824 35.9266 17.4763C35.9208 17.4701 35.9128 17.4664 35.9043 17.4659L32.1415 17.0726C32.0829 17.0674 32.0238 17.0744 31.9679 17.093C31.9121 17.1117 31.8607 17.1417 31.8169 17.1811C31.7732 17.2205 31.738 17.2685 31.7136 17.3221C31.6892 17.3757 31.6762 17.4338 31.6752 17.4927C31.6743 17.5515 31.6855 17.61 31.7081 17.6643C31.7307 17.7187 31.7643 17.7678 31.8068 17.8086C31.8493 17.8494 31.8997 17.8811 31.9549 17.9015C32.0101 17.922 32.069 17.9308 32.1278 17.9275H32.1276ZM31.9764 19.0111L35.7699 19.2079C35.7787 19.209 35.7876 19.2066 35.7946 19.2012C35.8017 19.1958 35.8064 19.1879 35.8076 19.1791C35.8088 19.1703 35.8065 19.1613 35.8011 19.1542C35.7958 19.1471 35.7879 19.1424 35.7791 19.1411L32.1229 18.1685C32.0658 18.1544 32.0064 18.1522 31.9484 18.1621C31.8904 18.1719 31.8351 18.1936 31.7858 18.2257C31.7366 18.2579 31.6945 18.2998 31.6621 18.3489C31.6298 18.3981 31.6079 18.4533 31.5978 18.5113C31.5877 18.5692 31.5897 18.6286 31.6036 18.6858C31.6174 18.7429 31.6429 18.7966 31.6784 18.8435C31.714 18.8904 31.7587 18.9295 31.81 18.9583C31.8613 18.9871 31.9179 19.0051 31.9764 19.0111ZM31.6564 20.0582L35.3715 20.8498C35.3798 20.8517 35.3886 20.8504 35.396 20.8462C35.4034 20.8419 35.4089 20.835 35.4114 20.8268C35.4139 20.8186 35.4132 20.8098 35.4094 20.8021C35.4056 20.7945 35.3991 20.7885 35.3911 20.7855L31.9337 19.2492C31.8796 19.2263 31.8212 19.2147 31.7624 19.2153C31.7036 19.2159 31.6455 19.2286 31.5918 19.2526C31.5381 19.2766 31.4899 19.3113 31.4502 19.3548C31.4106 19.3982 31.3802 19.4493 31.3612 19.505C31.3421 19.5606 31.3347 19.6196 31.3394 19.6782C31.3441 19.7368 31.3608 19.7939 31.3885 19.8458C31.4162 19.8977 31.4542 19.9433 31.5003 19.9798C31.5464 20.0164 31.5996 20.0431 31.6564 20.0582ZM31.1754 21.0419L34.7196 22.4083C34.7355 22.4147 34.7538 22.4079 34.7619 22.3924C34.7658 22.3847 34.7666 22.3759 34.7643 22.3676C34.7619 22.3594 34.7565 22.3523 34.7491 22.3479L31.5766 20.2867C31.5267 20.2557 31.471 20.2353 31.4129 20.2268C31.3549 20.2183 31.2956 20.2217 31.239 20.237C31.1823 20.2523 31.1294 20.2791 31.0835 20.3157C31.0376 20.3523 30.9997 20.3979 30.9721 20.4498C30.9446 20.5016 30.928 20.5586 30.9234 20.6171C30.9188 20.6756 30.9262 20.7345 30.9453 20.79C30.9644 20.8455 30.9947 20.8965 31.0343 20.9398C31.0738 20.9832 31.1218 21.0179 31.1754 21.0419ZM30.5466 21.9377L33.8332 23.8419C33.8406 23.8463 33.8493 23.8478 33.8577 23.8461C33.8661 23.8443 33.8735 23.8394 33.8784 23.8324C33.8833 23.8254 33.8854 23.8168 33.8841 23.8083C33.8829 23.7998 33.8785 23.7921 33.8718 23.7868L31.0608 21.2546C31.0164 21.2161 30.9646 21.1872 30.9086 21.1697C30.8525 21.1521 30.7935 21.1462 30.735 21.1524C30.6766 21.1586 30.6201 21.1768 30.569 21.2057C30.5179 21.2347 30.4733 21.2739 30.438 21.3208C30.4027 21.3677 30.3774 21.4214 30.3636 21.4785C30.3499 21.5356 30.3481 21.5949 30.3583 21.6528C30.3684 21.7106 30.3904 21.7658 30.4228 21.8148C30.4551 21.8638 30.4974 21.9056 30.5466 21.9377ZM29.7861 22.7244L32.7363 25.1169C32.7429 25.1224 32.7512 25.1252 32.7597 25.1247C32.7682 25.1243 32.7763 25.1206 32.7822 25.1145C32.7881 25.1084 32.7915 25.1002 32.7917 25.0917C32.7918 25.0832 32.7888 25.0749 32.7831 25.0686L30.4005 22.1296C30.3626 22.0848 30.3159 22.0482 30.2633 22.0222C30.2107 21.9962 30.1533 21.9813 30.0947 21.9784C30.0361 21.9755 29.9775 21.9846 29.9225 22.0053C29.8676 22.0259 29.8175 22.0577 29.7753 22.0985C29.7331 22.1393 29.6998 22.1884 29.6774 22.2426C29.6549 22.2968 29.6439 22.3551 29.6449 22.4138C29.6459 22.4725 29.659 22.5303 29.6833 22.5838C29.7076 22.6372 29.7426 22.6851 29.7861 22.7244ZM28.9126 23.3832L31.4546 26.2057C31.4603 26.2121 31.4681 26.2161 31.4765 26.2169C31.4849 26.2177 31.4934 26.2154 31.5001 26.2103C31.5069 26.2052 31.5115 26.1977 31.513 26.1894C31.5145 26.181 31.5128 26.1724 31.5083 26.1653L29.6121 22.8913C29.5817 22.841 29.5413 22.7976 29.4933 22.7636C29.4454 22.7296 29.391 22.7059 29.3335 22.6938C29.276 22.6817 29.2166 22.6816 29.1591 22.6935C29.1015 22.7053 29.047 22.7289 28.999 22.7627C28.9509 22.7965 28.9103 22.8398 28.8797 22.89C28.8491 22.9401 28.8291 22.996 28.8211 23.0542C28.813 23.1124 28.8169 23.1716 28.8327 23.2282C28.8485 23.2848 28.8756 23.3376 28.9126 23.3832ZM27.9465 23.8976L30.0156 27.0831C30.0202 27.09 30.0273 27.095 30.0354 27.097C30.0436 27.0991 30.0522 27.098 30.0596 27.0941C30.067 27.0901 30.0726 27.0836 30.0755 27.0757C30.0783 27.0678 30.0781 27.0591 30.0749 27.0514L28.7142 23.5212C28.6922 23.4666 28.6591 23.4171 28.6171 23.3758C28.5751 23.3345 28.525 23.3024 28.47 23.2813C28.415 23.2602 28.3563 23.2507 28.2974 23.2534C28.2386 23.256 28.1809 23.2708 28.128 23.2967C28.0751 23.3226 28.0282 23.3592 27.99 23.4041C27.9519 23.449 27.9234 23.5012 27.9064 23.5576C27.8894 23.614 27.8841 23.6733 27.891 23.7318C27.8979 23.7903 27.9168 23.8467 27.9465 23.8976ZM26.9111 24.2538L28.4529 27.7254C28.4566 27.7327 28.4628 27.7385 28.4704 27.7417C28.4781 27.7448 28.4866 27.745 28.4943 27.7423C28.5021 27.7396 28.5087 27.7342 28.5128 27.727C28.5168 27.7199 28.5182 27.7115 28.5165 27.7034L27.7286 24.0029C27.7154 23.9455 27.6906 23.8915 27.6556 23.8441C27.6206 23.7967 27.5762 23.7571 27.5252 23.7276C27.4742 23.6982 27.4177 23.6796 27.3592 23.6729C27.3006 23.6663 27.2414 23.6718 27.1851 23.689C27.1288 23.7063 27.0766 23.735 27.0319 23.7733C26.9872 23.8116 26.9508 23.8588 26.9251 23.9118C26.8994 23.9647 26.8849 24.0225 26.8825 24.0813C26.8801 24.1401 26.8899 24.1989 26.9111 24.2538ZM25.8324 24.4424L26.8086 28.1132C26.8109 28.1212 26.816 28.1282 26.8231 28.1326C26.8302 28.137 26.8387 28.1387 26.8469 28.1372C26.8552 28.1358 26.8626 28.1313 26.8677 28.1247C26.8729 28.1182 26.8754 28.1099 26.8748 28.1016L26.6793 24.3234C26.6752 24.2648 26.659 24.2076 26.6319 24.1555C26.6047 24.1033 26.5671 24.0573 26.5214 24.0204C26.4757 23.9834 26.4229 23.9562 26.3663 23.9405C26.3096 23.9248 26.2504 23.9209 26.1922 23.9291C26.1339 23.9373 26.078 23.9573 26.0279 23.988C25.9778 24.0188 25.9345 24.0594 25.9008 24.1076C25.8671 24.1557 25.8436 24.2103 25.8319 24.2679C25.8201 24.3255 25.8204 24.3849 25.8326 24.4424M24.7387 24.4606L25.133 28.2385C25.1336 28.2471 25.1374 28.2551 25.1438 28.2609C25.1501 28.2668 25.1585 28.27 25.1671 28.2698C25.1757 28.2697 25.184 28.2662 25.1901 28.2602C25.1963 28.2542 25.1999 28.246 25.2003 28.2374L25.5936 24.4744C25.5946 24.462 25.5951 24.4498 25.5951 24.4378C25.5949 24.3807 25.5833 24.3242 25.5609 24.2717C25.5386 24.2191 25.506 24.1716 25.465 24.1318C25.424 24.092 25.3755 24.0609 25.3223 24.0401C25.2691 24.0194 25.2123 24.0095 25.1552 24.011C25.0981 24.0125 25.0419 24.0254 24.9898 24.049C24.9378 24.0725 24.891 24.1062 24.8522 24.1481C24.8134 24.19 24.7833 24.2392 24.7638 24.2929C24.7443 24.3466 24.7357 24.4036 24.7385 24.4606H24.7387ZM23.6551 24.3094L23.4583 28.1028C23.4576 28.1114 23.4602 28.1199 23.4656 28.1266C23.471 28.1334 23.4788 28.1378 23.4873 28.1389C23.4958 28.1401 23.5045 28.138 23.5115 28.133C23.5185 28.128 23.5233 28.1205 23.525 28.112L24.4977 24.456C24.5117 24.3989 24.5138 24.3396 24.5038 24.2817C24.4939 24.2238 24.4722 24.1686 24.4401 24.1194C24.4079 24.0703 24.366 24.0282 24.317 23.996C24.2679 23.9637 24.2127 23.9418 24.1548 23.9318C24.097 23.9217 24.0376 23.9237 23.9806 23.9375C23.9235 23.9513 23.8698 23.9767 23.823 24.0121C23.7761 24.0476 23.7371 24.0922 23.7082 24.1434C23.6793 24.1945 23.6613 24.2511 23.6552 24.3095M22.608 23.9895L21.8164 27.7046C21.8145 27.7129 21.8158 27.7217 21.82 27.7291C21.8243 27.7365 21.8312 27.742 21.8394 27.7445C21.8476 27.7469 21.8564 27.7462 21.8641 27.7425C21.8717 27.7387 21.8777 27.7322 21.8807 27.7242L23.4169 24.2667C23.4218 24.2552 23.4261 24.2437 23.4297 24.2324C23.4477 24.1778 23.4546 24.1202 23.4499 24.063C23.4453 24.0057 23.4291 23.95 23.4025 23.8991C23.3759 23.8482 23.3393 23.8032 23.2949 23.7667C23.2506 23.7303 23.1993 23.7031 23.1443 23.6868C23.0892 23.6705 23.0314 23.6654 22.9743 23.6719C22.9173 23.6784 22.8621 23.6963 22.8121 23.7245C22.762 23.7527 22.7182 23.7907 22.6831 23.8362C22.6481 23.8817 22.6225 23.9339 22.608 23.9895ZM21.6244 23.5084L20.2578 27.0527C20.2515 27.0684 20.2582 27.0869 20.274 27.0948C20.2899 27.1031 20.3093 27.0973 20.3183 27.0821L22.3795 23.9096C22.3862 23.8989 22.3922 23.8883 22.3976 23.8777C22.4234 23.8267 22.4389 23.7711 22.4429 23.7141C22.447 23.6571 22.4396 23.5998 22.4212 23.5457C22.4028 23.4916 22.3738 23.4417 22.3359 23.399C22.2979 23.3562 22.2518 23.3215 22.2002 23.2969C22.1486 23.2723 22.0926 23.2582 22.0355 23.2555C21.9784 23.2528 21.9214 23.2616 21.8677 23.2813C21.8141 23.301 21.7649 23.3313 21.7231 23.3703C21.6813 23.4093 21.6478 23.4562 21.6244 23.5084ZM20.7285 22.8795L18.8243 26.1662C18.8197 26.1735 18.818 26.1824 18.8197 26.1909C18.8214 26.1994 18.8263 26.2069 18.8334 26.2119C18.8405 26.2168 18.8493 26.2189 18.8578 26.2176C18.8664 26.2163 18.8741 26.2117 18.8794 26.2049L21.4116 23.3939C21.4199 23.3845 21.4275 23.3749 21.4344 23.3653C21.4678 23.319 21.4917 23.2665 21.5045 23.2109C21.5174 23.1553 21.519 23.0976 21.5092 23.0414C21.4995 22.9851 21.4786 22.9314 21.4478 22.8833C21.417 22.8352 21.377 22.7937 21.3299 22.7614C21.2829 22.729 21.2299 22.7064 21.1739 22.6948C21.118 22.6832 21.0604 22.6829 21.0044 22.6939C20.9483 22.7049 20.8951 22.727 20.8477 22.7589C20.8003 22.7908 20.7598 22.8318 20.7285 22.8795ZM19.9418 22.1191L17.5493 25.0694C17.544 25.0759 17.5413 25.0841 17.5417 25.0924C17.5422 25.1008 17.5457 25.1087 17.5516 25.1146C17.5644 25.1273 17.5845 25.1278 17.5976 25.1162L20.5365 22.7336C20.5462 22.7255 20.5552 22.7172 20.5635 22.7087C20.6038 22.6682 20.6356 22.62 20.6569 22.5671C20.6783 22.5141 20.6889 22.4574 20.6881 22.4003C20.6872 22.3432 20.675 22.2868 20.652 22.2345C20.6291 22.1822 20.5959 22.135 20.5545 22.0957C20.513 22.0564 20.4641 22.0257 20.4107 22.0056C20.3572 21.9855 20.3003 21.9762 20.2432 21.9784C20.1861 21.9806 20.13 21.9941 20.0783 22.0183C20.0265 22.0425 19.9801 22.0767 19.9418 22.1191ZM19.283 21.2456L16.4605 23.7875C16.4539 23.7931 16.4498 23.8009 16.4489 23.8095C16.4479 23.818 16.4503 23.8265 16.4554 23.8334C16.4606 23.8402 16.4682 23.8449 16.4766 23.8463C16.4851 23.8478 16.4938 23.846 16.5009 23.8412L19.7749 21.9451C19.7856 21.9386 19.7957 21.9318 19.8054 21.9249C19.8519 21.8912 19.8911 21.8486 19.9208 21.7996C19.9505 21.7505 19.97 21.696 19.9783 21.6393C19.9865 21.5825 19.9833 21.5247 19.9688 21.4692C19.9543 21.4138 19.9288 21.3618 19.8938 21.3163C19.8589 21.2709 19.8152 21.2329 19.7653 21.2046C19.7154 21.1764 19.6603 21.1584 19.6034 21.1518C19.5464 21.1452 19.4887 21.1501 19.4337 21.1662C19.3786 21.1823 19.3274 21.2093 19.283 21.2456ZM18.7685 20.2796L15.5832 22.3486C15.5754 22.3528 15.5695 22.36 15.5669 22.3685C15.5643 22.3771 15.5652 22.3863 15.5694 22.3941C15.5736 22.402 15.5808 22.4079 15.5893 22.4105C15.5978 22.4131 15.6071 22.4122 15.6149 22.408L19.1451 21.0473C19.1567 21.0425 19.1678 21.0374 19.1784 21.0321C19.2292 21.0059 19.2743 20.9699 19.311 20.9261C19.3477 20.8823 19.3753 20.8316 19.3921 20.777C19.4089 20.7224 19.4147 20.665 19.409 20.6081C19.4032 20.5513 19.3862 20.4961 19.3589 20.4459C19.3316 20.3957 19.2945 20.3515 19.2498 20.3159C19.2051 20.2802 19.1538 20.2539 19.0988 20.2384C19.0438 20.2229 18.9862 20.2186 18.9295 20.2256C18.8728 20.2327 18.818 20.251 18.7685 20.2796ZM18.4125 19.244L14.9411 20.7859C14.9335 20.7894 14.9274 20.7956 14.9242 20.8033C14.9209 20.811 14.9206 20.8197 14.9233 20.8276C14.926 20.8355 14.9316 20.8421 14.9389 20.8462C14.9463 20.8502 14.9548 20.8514 14.963 20.8495L18.6634 20.0616C18.7207 20.0483 18.7747 20.0234 18.8219 19.9884C18.8692 19.9534 18.9088 19.909 18.9382 19.858C18.9675 19.8071 18.9861 19.7506 18.9927 19.6921C18.9993 19.6337 18.9938 19.5745 18.9766 19.5182C18.9593 19.462 18.9307 19.4099 18.8924 19.3652C18.8542 19.3205 18.8071 19.2842 18.7542 19.2584C18.7013 19.2327 18.6437 19.2182 18.5849 19.2157C18.5261 19.2132 18.4674 19.2228 18.4125 19.244ZM18.2239 18.1656L14.5531 19.1415C14.5448 19.1436 14.5376 19.1487 14.5329 19.1559C14.5282 19.163 14.5265 19.1717 14.5279 19.1801C14.5294 19.1885 14.534 19.1961 14.5409 19.2012C14.5477 19.2064 14.5563 19.2087 14.5648 19.2078L18.3429 19.0123C18.4016 19.0081 18.4587 18.992 18.5108 18.9648C18.563 18.9377 18.609 18.9001 18.6459 18.8544C18.6829 18.8087 18.7101 18.7559 18.7258 18.6992C18.7415 18.6426 18.7454 18.5833 18.7372 18.5251C18.729 18.4669 18.709 18.411 18.6783 18.3609C18.6475 18.3108 18.6069 18.2675 18.5587 18.2338C18.5106 18.2001 18.456 18.1766 18.3984 18.1649C18.3408 18.1531 18.2814 18.1534 18.2239 18.1656ZM18.2057 17.0716L14.4278 17.466C14.4192 17.4666 14.4112 17.4705 14.4054 17.4769C14.3995 17.4832 14.3964 17.4916 14.3965 17.5002C14.3966 17.5088 14.4001 17.5171 14.4061 17.5232C14.4121 17.5294 14.4203 17.533 14.4289 17.5333L18.1919 17.9266C18.2043 17.9277 18.2165 17.9282 18.2285 17.9282C18.2856 17.928 18.3421 17.9164 18.3946 17.894C18.4472 17.8717 18.4947 17.839 18.5345 17.7981C18.5743 17.7571 18.6054 17.7086 18.6262 17.6553C18.6469 17.6021 18.6568 17.5453 18.6553 17.4882C18.6538 17.4312 18.6409 17.375 18.6173 17.3229C18.5938 17.2709 18.5601 17.2241 18.5182 17.1853C18.4763 17.1465 18.4271 17.1164 18.3734 17.0969C18.3197 17.0774 18.2627 17.0688 18.2057 17.0716ZM18.3568 15.9881L14.5635 15.7914C14.555 15.7909 14.5467 15.7936 14.5401 15.799C14.5336 15.8044 14.5293 15.812 14.5281 15.8204C14.527 15.8288 14.529 15.8373 14.5339 15.8443C14.5387 15.8512 14.546 15.8561 14.5543 15.8579L18.2103 16.8308C18.2225 16.8336 18.2345 16.836 18.2464 16.8379C18.3025 16.8458 18.3596 16.8425 18.4144 16.8282C18.4693 16.8138 18.5207 16.7888 18.5658 16.7545C18.6109 16.7201 18.6487 16.6772 18.6771 16.6282C18.7055 16.5791 18.7238 16.525 18.7312 16.4688C18.7385 16.4126 18.7346 16.3555 18.7197 16.3008C18.7048 16.2462 18.6792 16.195 18.6444 16.1503C18.6096 16.1056 18.5662 16.0682 18.5169 16.0403C18.4675 16.0125 18.4132 15.9947 18.3569 15.988M18.6769 14.941L14.9618 14.1495C14.9535 14.1476 14.9448 14.1488 14.9373 14.1531C14.9299 14.1574 14.9244 14.1643 14.922 14.1725C14.9195 14.1807 14.9202 14.1895 14.9239 14.1971C14.9277 14.2048 14.9342 14.2108 14.9422 14.2138L18.3996 15.75C18.4111 15.7548 18.4226 15.759 18.4339 15.7627C18.4883 15.7802 18.5457 15.7866 18.6026 15.7817C18.6595 15.7767 18.7149 15.7604 18.7654 15.7337C18.816 15.707 18.8606 15.6705 18.8969 15.6263C18.9331 15.582 18.9601 15.531 18.9763 15.4762C18.9925 15.4214 18.9975 15.3639 18.9912 15.3072C18.9848 15.2504 18.9672 15.1954 18.9393 15.1455C18.9114 15.0957 18.8738 15.0519 18.8287 15.0167C18.7836 14.9816 18.732 14.9559 18.6768 14.941M19.1579 13.9574L15.6138 12.5908C15.6058 12.5874 15.5969 12.5872 15.5888 12.5903C15.5807 12.5933 15.5741 12.5993 15.5704 12.6071C15.5666 12.6148 15.5659 12.6237 15.5685 12.632C15.5711 12.6402 15.5768 12.6471 15.5843 12.6513L18.7567 14.7125C18.7673 14.7192 18.778 14.7252 18.7886 14.7305C18.8396 14.7565 18.8953 14.7721 18.9524 14.7762C19.0094 14.7804 19.0668 14.7731 19.121 14.7547C19.1752 14.7364 19.2252 14.7073 19.268 14.6693C19.3108 14.6313 19.3455 14.5851 19.3702 14.5335C19.3948 14.4819 19.4089 14.4258 19.4116 14.3686C19.4142 14.3114 19.4054 14.2543 19.3856 14.2006C19.3658 14.1469 19.3354 14.0977 19.2963 14.056C19.2572 14.0142 19.2101 13.9807 19.1578 13.9574M19.7868 13.0616L16.5001 11.1573C16.4929 11.1531 16.4843 11.1517 16.4761 11.1534C16.4679 11.1552 16.4607 11.1599 16.4558 11.1667C16.4508 11.1737 16.4485 11.1822 16.4496 11.1907C16.4507 11.1992 16.4549 11.207 16.4615 11.2124L19.2724 13.7447C19.282 13.7529 19.2916 13.7605 19.3011 13.7675C19.3474 13.8011 19.3999 13.8251 19.4556 13.8381C19.5113 13.8511 19.5691 13.8528 19.6255 13.8431C19.6818 13.8335 19.7357 13.8126 19.7839 13.7818C19.8321 13.7509 19.8736 13.7108 19.906 13.6637C19.9384 13.6165 19.9611 13.5634 19.9727 13.5074C19.9842 13.4514 19.9845 13.3936 19.9734 13.3375C19.9622 13.2814 19.94 13.2281 19.908 13.1807C19.8759 13.1333 19.8347 13.0928 19.7868 13.0616ZM20.5472 12.2748L17.5967 9.88238C17.5901 9.87692 17.5818 9.87414 17.5732 9.87461C17.5647 9.87507 17.5567 9.87875 17.5508 9.88488C17.5449 9.89102 17.5415 9.89918 17.5414 9.9077C17.5412 9.91622 17.5443 9.92448 17.55 9.93081L19.9325 12.8697C19.9406 12.8792 19.9489 12.8882 19.9574 12.8966C19.9979 12.9369 20.046 12.9686 20.099 12.99C20.152 13.0114 20.2087 13.022 20.2658 13.0211C20.3229 13.0203 20.3793 13.0081 20.4316 12.9851C20.4839 12.9622 20.5311 12.929 20.5704 12.8875C20.6097 12.8461 20.6404 12.7972 20.6605 12.7438C20.6806 12.6903 20.6899 12.6334 20.6877 12.5763C20.6855 12.5192 20.6719 12.4631 20.6478 12.4114C20.6236 12.3596 20.5894 12.3132 20.547 12.2749M21.4205 11.6161L18.8785 8.79354C18.8729 8.78707 18.865 8.78298 18.8565 8.78209C18.848 8.7812 18.8395 8.78358 18.8327 8.78874C18.8259 8.7939 18.8213 8.80146 18.8198 8.80989C18.8184 8.81831 18.8202 8.82698 18.8249 8.83412L20.721 12.108C20.7276 12.1186 20.7343 12.1288 20.7412 12.1385C20.7749 12.1849 20.8175 12.2242 20.8665 12.2539C20.9156 12.2835 20.9701 12.3031 21.0268 12.3113C21.0836 12.3196 21.1414 12.3163 21.1969 12.3018C21.2523 12.2873 21.3043 12.2619 21.3498 12.2269C21.3952 12.192 21.4332 12.1482 21.4615 12.0983C21.4897 12.0484 21.5077 11.9934 21.5143 11.9364C21.5209 11.8795 21.516 11.8218 21.4999 11.7667C21.4837 11.7117 21.4568 11.6605 21.4205 11.6161ZM22.3866 11.1017L20.3176 7.91621C20.3131 7.90877 20.306 7.90333 20.2976 7.90102C20.2893 7.89871 20.2804 7.8997 20.2727 7.9038C20.2651 7.90789 20.2593 7.91476 20.2566 7.92299C20.2539 7.93122 20.2545 7.94018 20.2582 7.948L21.6188 11.4781C21.6235 11.4897 21.6286 11.5008 21.634 11.5114C21.6606 11.5613 21.6969 11.6055 21.7407 11.6414C21.7844 11.6772 21.8349 11.704 21.8891 11.7203C21.9433 11.7366 22.0002 11.7419 22.0565 11.7361C22.1128 11.7302 22.1674 11.7132 22.2171 11.6862C22.2668 11.6591 22.3106 11.6225 22.3461 11.5784C22.3815 11.5343 22.4079 11.4836 22.4237 11.4292C22.4394 11.3748 22.4443 11.3179 22.4379 11.2617C22.4315 11.2054 22.4141 11.151 22.3865 11.1016M23.422 10.7455L21.8802 7.27413C21.8769 7.26629 21.8707 7.26 21.8629 7.25654C21.8551 7.25307 21.8463 7.25268 21.8383 7.25545C21.8302 7.25822 21.8235 7.26393 21.8195 7.27145C21.8155 7.27897 21.8144 7.28773 21.8166 7.29596L22.6045 10.9964C22.6074 11.0086 22.6107 11.0203 22.6144 11.0316C22.632 11.0861 22.6604 11.1364 22.6979 11.1797C22.7353 11.223 22.7811 11.2583 22.8324 11.2836C22.8837 11.309 22.9396 11.3237 22.9968 11.3271C23.0539 11.3305 23.1111 11.3223 23.1651 11.3032C23.219 11.2841 23.2686 11.2544 23.3109 11.2158C23.3531 11.1772 23.3873 11.1306 23.4112 11.0786C23.4352 11.0266 23.4484 10.9703 23.4503 10.9131C23.4521 10.8559 23.4425 10.7989 23.422 10.7455ZM24.5007 10.5569L23.5246 6.88607C23.5225 6.87776 23.5174 6.87054 23.5102 6.86587C23.5031 6.8612 23.4944 6.85942 23.486 6.8609C23.4776 6.86239 23.47 6.86702 23.4649 6.87385C23.4597 6.88069 23.4574 6.88922 23.4583 6.89773L23.6538 10.676C23.6548 10.6885 23.6562 10.7006 23.6581 10.7123C23.667 10.7689 23.6871 10.823 23.7173 10.8717C23.7475 10.9203 23.7871 10.9624 23.8338 10.9954C23.8805 11.0285 23.9333 11.0519 23.9892 11.0642C24.0451 11.0765 24.1029 11.0775 24.1592 11.0671C24.2154 11.0567 24.2691 11.0352 24.3169 11.0038C24.3647 10.9723 24.4057 10.9316 24.4375 10.884C24.4694 10.8365 24.4914 10.783 24.5022 10.7268C24.513 10.6707 24.5126 10.6129 24.5007 10.5569ZM25.5945 10.5388L25.2 6.76081C25.1994 6.75221 25.1956 6.74416 25.1892 6.73834C25.1828 6.73251 25.1745 6.72935 25.1658 6.7295C25.1572 6.72965 25.149 6.7331 25.1428 6.73914C25.1367 6.74518 25.1331 6.75336 25.1328 6.76198L24.7395 10.5249C24.7346 10.5834 24.7419 10.6422 24.7607 10.6978C24.7795 10.7534 24.8096 10.8045 24.8489 10.848C24.8883 10.8915 24.9362 10.9264 24.9897 10.9506C25.0431 10.9749 25.101 10.9878 25.1597 10.9888C25.2183 10.9897 25.2766 10.9786 25.3308 10.9561C25.385 10.9336 25.434 10.9003 25.4748 10.8581C25.5155 10.8159 25.5472 10.7657 25.5678 10.7108C25.5884 10.6559 25.5975 10.5973 25.5946 10.5387L25.5945 10.5388ZM25.1665 10.9931C28.7599 10.9931 31.6731 13.9062 31.6731 17.4997C31.6731 21.0932 28.76 24.0063 25.1666 24.0063C21.5731 24.0063 18.6599 21.0932 18.6599 17.4997C18.6599 13.9063 21.573 10.9931 25.1665 10.9931ZM25.1665 11.7731C28.3292 11.7731 30.8931 14.337 30.8931 17.4997C30.8931 20.6624 28.3292 23.2264 25.1665 23.2264C22.0038 23.2264 19.4398 20.6624 19.4398 17.4997C19.4398 14.337 22.0038 11.7731 25.1665 11.7731ZM20.3849 19.2186C20.9703 17.9939 21.7794 16.9118 22.7151 16.0015C22.8614 16.0975 23.0062 16.1972 23.1496 16.3004C22.1671 17.2396 21.3107 18.4019 20.6646 19.826C20.5581 19.6299 20.4647 19.4269 20.3849 19.2185M25.5704 16.2626C25.7039 16.3746 25.8349 16.4896 25.963 16.6077C26.0997 16.4956 26.239 16.3866 26.3808 16.281C26.2526 16.165 26.122 16.0518 25.989 15.9414C25.8472 16.0455 25.7076 16.1526 25.5704 16.2626ZM24.7383 15.6277C24.8828 15.7278 25.0255 15.8318 25.1665 15.9394C25.3068 15.8323 25.4495 15.7284 25.5946 15.6277C25.4541 15.5204 25.3114 15.4163 25.1665 15.3153C25.0215 15.4163 24.8788 15.5204 24.7383 15.6277ZM24.7768 16.9578C24.9096 17.0777 25.0396 17.2008 25.1665 17.327C25.2934 17.2008 25.4233 17.0777 25.5562 16.9578C25.4289 16.8362 25.299 16.7173 25.1665 16.6013C25.034 16.7173 24.9041 16.8362 24.7768 16.9578ZM23.9524 16.281C24.0934 16.3861 24.2326 16.495 24.37 16.6077C24.4982 16.4897 24.6291 16.3747 24.7626 16.2628C24.6254 16.1526 24.4858 16.0455 24.344 15.9414C24.211 16.0518 24.0804 16.165 23.9522 16.281M26.514 15.0494C26.3728 14.9416 26.2293 14.8369 26.0836 14.7354C25.9185 14.8297 25.7547 14.9285 25.5924 15.0318C25.7413 15.1305 25.888 15.2326 26.0323 15.3379C26.1913 15.2376 26.3518 15.1414 26.514 15.0494ZM27.272 15.6779C27.1451 15.5637 27.0159 15.4522 26.8843 15.3435C26.7286 15.4378 26.575 15.5355 26.4237 15.6368C26.5585 15.7443 26.6908 15.8549 26.8204 15.9685C26.9688 15.8683 27.1193 15.7714 27.272 15.6779ZM24.6506 14.4676C24.8199 14.3592 24.9919 14.2551 25.1665 14.1553C25.3399 14.2544 25.5119 14.3585 25.6825 14.4676C25.5082 14.5617 25.3361 14.66 25.1665 14.7624C24.9969 14.66 24.8249 14.5617 24.6506 14.4676ZM23.819 15.0494C23.9602 14.9416 24.1036 14.8369 24.2493 14.7354C24.4145 14.8297 24.5782 14.9285 24.7407 15.0318C24.5923 15.13 24.4457 15.232 24.3008 15.3379C24.1424 15.2381 23.9818 15.1419 23.819 15.0494ZM23.061 15.6779C23.1879 15.5637 23.3171 15.4522 23.4487 15.3435C23.6035 15.4372 23.757 15.535 23.9093 15.6368C23.7745 15.7443 23.6423 15.8549 23.5126 15.9685C23.3642 15.8683 23.2137 15.7714 23.061 15.6779ZM20.6719 14.9296C21.2156 15.1485 21.7417 15.4087 22.2455 15.7081C21.4517 16.4647 20.7398 17.3665 20.1539 18.434C20.0821 18.0887 20.0459 17.737 20.0461 17.3843C20.0461 16.4948 20.273 15.6584 20.6719 14.9296ZM21.1072 14.2635C21.7314 14.4653 22.3597 14.7364 22.9746 15.071C22.8422 15.177 22.7117 15.2866 22.5829 15.3997C22.0295 15.0948 21.4547 14.8305 20.863 14.6089C20.9396 14.4904 21.021 14.3752 21.1072 14.2635ZM21.6531 13.6597C22.3589 13.8448 23.0764 14.1213 23.7794 14.4813C23.6311 14.5805 23.4844 14.6834 23.3394 14.7902C22.689 14.4571 22.0209 14.186 21.3512 13.9697C21.4475 13.8622 21.5482 13.7588 21.6531 13.6597ZM22.4494 13.0438C22.4644 13.0493 22.4802 13.0549 22.497 13.0605L22.5531 13.075C23.2719 13.262 24.003 13.5441 24.7188 13.9124C24.537 14.0117 24.3569 14.116 24.1785 14.2254C23.4858 13.8881 22.7757 13.6189 22.0666 13.4099C22.0365 13.3999 22.0065 13.3896 21.9765 13.379C22.1278 13.2585 22.2856 13.1466 22.4494 13.0438ZM27.4471 12.799C27.4196 12.8077 27.3995 12.8144 27.3934 12.8167C26.6456 13.0346 25.896 13.319 25.1665 13.6799C24.4509 13.3259 23.7158 13.0454 22.9821 12.8291L22.9395 12.8167C22.9209 12.8119 22.9025 12.8062 22.8844 12.7997C23.5931 12.4462 24.3745 12.2627 25.1666 12.2637C25.958 12.2627 26.7388 12.446 27.4471 12.799ZM28.3613 13.3829C28.3422 13.3886 28.3247 13.3937 28.3097 13.3972C27.5863 13.6079 26.8613 13.8811 26.1545 14.2254C25.9771 14.1165 25.7968 14.0121 25.6141 13.9124C26.3487 13.5344 27.0992 13.2474 27.8361 13.0604C27.8543 13.0575 27.8724 13.0534 27.8903 13.0479C28.0535 13.1506 28.2107 13.2624 28.3613 13.3829ZM28.9818 13.9697C28.3121 14.186 27.644 14.4571 26.9935 14.7902C26.8492 14.6839 26.7025 14.5809 26.5535 14.4813C27.2566 14.1213 27.974 13.8448 28.6799 13.6597C28.7848 13.7588 28.8854 13.8621 28.9818 13.9697ZM29.47 14.6089C28.8783 14.8305 28.3035 15.0948 27.7501 15.3997C27.6221 15.2872 27.4915 15.1776 27.3585 15.071C27.9731 14.7364 28.6016 14.4653 29.2259 14.2635C29.312 14.3752 29.3935 14.4905 29.47 14.609M30.179 18.434C29.5934 17.3666 28.8814 16.4647 28.0875 15.7081C28.5913 15.4087 29.1174 15.1485 29.6611 14.9296C30.0729 15.6822 30.2882 16.5265 30.2869 17.3843C30.2869 17.7441 30.2496 18.0952 30.179 18.434ZM29.6683 19.826C29.0223 18.4019 28.1659 17.2396 27.1834 16.3004C27.3268 16.1972 27.4716 16.0975 27.6178 16.0015C28.5535 16.9118 29.3628 17.9938 29.9483 19.2185C29.8684 19.4269 29.7748 19.6299 29.6683 19.826ZM28.8708 20.9194C28.247 19.3116 27.3681 18.0105 26.337 16.9684C26.4718 16.852 26.6091 16.7386 26.7489 16.6282C27.816 17.6776 28.7147 18.9521 29.2992 20.4074C29.1676 20.5871 29.0245 20.7582 28.8708 20.9194ZM27.9042 21.7119L27.8361 21.5289C27.2706 20.0016 26.4775 18.7449 25.5423 17.7194C25.6695 17.5879 25.7996 17.4593 25.9326 17.3337C27.0035 18.4514 27.8835 19.8045 28.4128 21.3441C28.2508 21.4769 28.081 21.5996 27.9042 21.7119ZM22.95 22.0014L23.0154 21.7968C23.4871 20.4112 24.2428 19.1762 25.1666 18.1268C26.0902 19.1762 26.8459 20.4112 27.3175 21.7967L27.3846 22.0006C26.6927 22.3336 25.9344 22.5059 25.1666 22.5047C24.3992 22.5059 23.6415 22.3339 22.95 22.0014ZM21.9203 21.3441C22.4496 19.8044 23.3295 18.4514 24.4004 17.3337C24.5334 17.4593 24.6635 17.5879 24.7907 17.7194C23.8555 18.7449 23.0624 20.0016 22.497 21.5291L22.4291 21.7121C22.2522 21.5998 22.0823 21.4769 21.9203 21.3441ZM21.0337 20.4074C21.6184 18.9521 22.517 17.6776 23.5841 16.6282C23.7239 16.7386 23.8612 16.852 23.996 16.9684C22.9649 18.0104 22.086 19.3116 21.4623 20.9194C21.3086 20.7581 21.1654 20.5871 21.0337 20.4074Z" fill="#FFFF00"/>
</g>
<defs>
<clipPath id="clip0_706_4128">
<rect width="50" height="35" fill="white"/>
</clipPath>
</defs>
</svg>
