<svg width="50" height="35" viewBox="0 0 50 35" fill="none" xmlns="http://www.w3.org/2000/svg">
<g clip-path="url(#clip0_705_3100)">
<rect width="50" height="35" fill="white"/>
<path fill-rule="evenodd" clip-rule="evenodd" d="M-2 0H51.0303V34.9997H-2V0Z" fill="#FECB00"/>
<path fill-rule="evenodd" clip-rule="evenodd" d="M-2 11.666H51.0303V34.9992H-2V11.666Z" fill="#34B233"/>
<path fill-rule="evenodd" clip-rule="evenodd" d="M-2 23.333H51.0303V34.9995H-2V23.333Z" fill="#EA2839"/>
<path fill-rule="evenodd" clip-rule="evenodd" d="M20.2825 18.7314L24.5154 5.83398L28.7484 18.7314H20.2825Z" fill="white"/>
<path fill-rule="evenodd" clip-rule="evenodd" d="M27.9398 21.194L16.8577 29.165L21.0907 16.2676L27.9398 21.194Z" fill="white"/>
<path fill-rule="evenodd" clip-rule="evenodd" d="M23.2071 22.7151L12.125 14.7441H25.8232L23.2071 22.7151Z" fill="white"/>
<path fill-rule="evenodd" clip-rule="evenodd" d="M23.207 14.7441H36.9053L25.8232 22.7151L23.207 14.7441Z" fill="white"/>
<path fill-rule="evenodd" clip-rule="evenodd" d="M27.9396 16.2676L32.1727 29.165L21.0906 21.194L27.9396 16.2676Z" fill="white"/>
</g>
<defs>
<clipPath id="clip0_705_3100">
<rect width="50" height="35" fill="white"/>
</clipPath>
</defs>
</svg>
