<svg width="50" height="35" viewBox="0 0 50 35" fill="none" xmlns="http://www.w3.org/2000/svg">
<g clip-path="url(#clip0_706_3598)">
<rect width="50" height="35" fill="white"/>
<path d="M-2 -3H53V38.25H-2V-3Z" fill="black"/>
<path d="M-2 -3H53V38.25L-2 -3Z" fill="#C8102E"/>
<path d="M32.0517 8.98525C31.6454 9.5099 30.6842 8.45745 29.5326 8.43339C28.3811 8.4094 27.5653 9.53697 27.2295 9.92083C26.8936 10.3048 25.814 12.3199 25.838 12.5358C25.862 12.7518 26.5098 11.9361 26.7497 11.7922C26.7737 12.0801 26.4858 12.416 26.5578 12.5119C26.6297 12.6079 27.3974 11.9361 27.6613 11.9121C27.7333 12.1041 27.5174 12.296 27.5894 12.5839C27.6853 12.6799 28.1172 12.1041 28.4051 11.9841C28.453 12.2 28.1412 12.6079 28.3091 12.8718C28.4291 12.8957 29.1487 12.0561 29.3887 11.9601C29.6286 11.8641 29.2687 12.7518 29.3887 12.8238C29.6046 12.6798 30.2764 11.9121 30.4923 11.8162C30.7082 11.7203 30.4684 12.7998 30.5642 12.7998C30.8281 12.6079 31.4999 11.6962 31.5719 11.5523C31.6438 11.4083 31.4999 12.9437 32.2436 13.7594C32.9873 14.5751 34.115 15.5108 34.2348 15.5108C34.3788 15.2469 34.1869 14.6951 34.3068 14.7191C34.6427 15.0789 35.2665 15.6067 35.4104 15.6067C35.5543 15.6067 35.3144 15.031 35.5064 15.031C35.8902 15.3908 36.9938 16.8063 39.153 17.454C39.009 17.0462 38.6971 16.6863 38.6732 16.4944C38.8171 16.5184 39.321 16.7584 39.4169 16.7343C39.5128 16.7102 38.3613 15.2949 38.4333 15.1029C38.6972 15.0789 38.8171 15.2469 38.9131 15.1268C38.7931 14.9349 37.7855 13.8074 37.7855 13.5435C37.7855 13.2795 38.0975 13.5914 38.1933 13.5435C38.2892 13.4955 37.8095 12.4879 37.9055 12.368C38.0014 12.2481 39.057 13.0157 39.3209 13.0157C39.5848 13.0157 39.3929 12.0801 39.5128 12.032C39.6328 11.984 40.5205 12.5358 40.7124 12.5358C40.9042 12.5358 40.8803 12.128 40.9523 12.176C41.0243 12.224 43.1115 14.3112 42.3917 16.7583C41.672 18.5096 40.2326 19.4453 38.1214 18.6776C38.2413 18.8695 39.3689 19.8051 40.5924 19.4693C41.816 19.1334 43.3033 18.1738 43.1355 15.7747C42.9676 13.3756 42.1758 13.0397 42.0559 12.6799C41.9359 12.32 42.2479 12.7758 42.5117 12.8718C42.7755 12.9677 42.4637 12.368 42.3917 12.1041C42.3198 11.8402 43.1834 12.6559 43.3994 12.7278C43.6153 12.7998 42.8956 10.7606 42.6796 10.6166C42.4637 10.4727 42.8956 10.6646 43.0395 10.7126C43.1834 10.7606 41.7199 8.48145 41.4081 8.48145C41.0963 8.48145 41.6719 8.36142 41.84 8.36142C42.008 8.36142 40.1607 6.87399 39.8487 6.87399C39.5368 6.87399 40.5204 6.49013 40.6164 6.46614C40.7844 6.49006 38.4812 5.2426 36.418 6.49006C36.2981 6.39424 37.3898 5.63849 37.4256 5.31465C37.4377 5.23065 37.0658 5.05068 37.0418 4.95479C37.0178 4.85882 37.6176 4.57093 37.6416 4.35501C37.4976 4.16309 37.2337 4.23506 37.0898 4.18708C37.0538 4.00718 37.5936 3.56331 37.5456 3.37139C37.5096 3.26346 37.1138 3.22744 37.0178 3.29949C36.9218 3.37153 37.2697 2.79568 37.2097 2.62774C37.1617 2.55577 36.9698 2.60375 36.7779 2.65173C36.6579 2.62774 37.4016 1.59613 37.2577 1.45219C37.1138 1.30824 35.0985 2.50772 34.3548 3.85121C33.6111 5.1947 34.1869 6.27428 34.0909 6.73011C33.9949 7.18594 33.8749 7.64176 33.5631 7.64176C33.2512 7.64176 32.5316 7.16195 32.2916 6.92204C32.0516 6.68213 32.0037 6.51419 31.6678 6.41823C31.332 6.32227 30.5642 6.61016 30.2764 6.63415C29.9885 6.65814 28.8609 6.41823 28.7889 6.4902C28.7169 6.56218 29.8925 6.99401 30.1564 7.13796C30.4203 7.2819 30.4444 7.47383 30.6362 7.59378C30.8281 7.71374 32.6275 8.24154 32.0517 8.98525ZM39.081 12.368C39.6568 12.9438 43.5433 15.5348 43.5433 18.7016C43.5433 21.8684 40.7124 21.7724 39.8967 21.6764C40.8084 22.4441 44.263 22.3002 44.263 18.7016C44.263 15.5348 39.8007 12.368 39.225 12.0801C38.6492 11.7922 38.5052 11.7922 39.081 12.368Z" fill="#FFCD00"/>
<path d="M11.7499 9.65039L12.3965 11.5105L14.3654 11.5506L12.7961 12.7403L13.3663 14.6251L11.7499 13.5004L10.1335 14.6251L10.7038 12.7403L9.13452 11.5506L11.1034 11.5105L11.7499 9.65039Z" fill="white"/>
<path d="M5.70013 17.9004L6.34671 19.7605L8.31555 19.8006L6.74629 20.9903L7.31653 22.8751L5.70013 21.7504L4.08368 22.8751L4.65398 20.9903L3.08472 19.8006L5.05355 19.7605L5.70013 17.9004Z" fill="white"/>
<path d="M11.7499 28.8994L12.3965 30.7595L14.3654 30.7997L12.7961 31.9893L13.3663 33.8742L11.7499 32.7494L10.1335 33.8742L10.7038 31.9893L9.13452 30.7997L11.1034 30.7595L11.7499 28.8994Z" fill="white"/>
<path d="M17.2502 17.3496L17.8968 19.2097L19.8656 19.2499L18.2963 20.4395L18.8666 22.3244L17.2502 21.1996L15.6337 22.3244L16.204 20.4395L14.6348 19.2499L16.6036 19.2097L17.2502 17.3496Z" fill="white"/>
<path d="M14.4998 24.2246L14.8231 25.1547L15.8076 25.1747L15.0229 25.7696L15.308 26.712L14.4998 26.1496L13.6916 26.712L13.9768 25.7696L13.1921 25.1747L14.1766 25.1547L14.4998 24.2246Z" fill="white"/>
</g>
<defs>
<clipPath id="clip0_706_3598">
<rect width="50" height="35" fill="white"/>
</clipPath>
</defs>
</svg>
