<svg width="180" height="140" viewBox="0 0 180 140" fill="none" xmlns="http://www.w3.org/2000/svg">
<rect width="180" height="140" fill="white"/>
<path d="M31.1768 106V96.1016H33.2275V100.49H33.3643L36.96 96.1016H39.4346L35.7432 100.531L39.4756 106H37.0146L34.2666 101.912L33.2275 103.17V106H31.1768ZM40.46 106V96.1016H44.3975C46.585 96.1016 47.6787 97.1543 47.6787 98.6445C47.6787 99.8066 46.9268 100.531 45.9014 100.764V100.859C47.0225 100.914 48.0752 101.803 48.0752 103.266C48.0752 104.838 46.8994 106 44.6572 106H40.46ZM44.2471 104.305C45.4365 104.305 45.9424 103.812 45.9424 103.074C45.9424 102.24 45.3135 101.652 44.3018 101.652H42.5107V104.305H44.2471ZM44.0967 100.244C44.958 100.244 45.6006 99.7656 45.6006 98.9727C45.6006 98.2617 45.0811 97.7695 44.1377 97.7695H42.5107V100.244H44.0967ZM52.6006 106V96.1016H56.5381C58.7256 96.1016 59.8193 97.1543 59.8193 98.6445C59.8193 99.8066 59.0674 100.531 58.042 100.764V100.859C59.1631 100.914 60.2158 101.803 60.2158 103.266C60.2158 104.838 59.04 106 56.7979 106H52.6006ZM56.3877 104.305C57.5771 104.305 58.083 103.812 58.083 103.074C58.083 102.24 57.4541 101.652 56.4424 101.652H54.6514V104.305H56.3877ZM56.2373 100.244C57.0986 100.244 57.7412 99.7656 57.7412 98.9727C57.7412 98.2617 57.2217 97.7695 56.2783 97.7695H54.6514V100.244H56.2373ZM61.1182 103.922C61.1182 102.268 62.458 101.721 63.8799 101.639C64.4131 101.604 65.4111 101.557 65.7256 101.543V100.941C65.7119 100.326 65.2881 99.957 64.5361 99.957C63.8525 99.957 63.415 100.271 63.3057 100.777H61.3779C61.501 99.4922 62.6221 98.4805 64.5908 98.4805C66.2041 98.4805 67.7354 99.2051 67.7354 100.996V106H65.8213V104.975H65.7666C65.3975 105.658 64.7002 106.137 63.5928 106.137C62.1709 106.137 61.1182 105.398 61.1182 103.922ZM63.0596 103.867C63.0596 104.441 63.5244 104.742 64.167 104.742C65.083 104.742 65.7393 104.127 65.7256 103.348V102.801C65.418 102.814 64.5566 102.862 64.208 102.896C63.5107 102.965 63.0596 103.293 63.0596 103.867ZM71.3037 101.707V106H69.2803V98.5762H71.208V99.875H71.29C71.6318 99.0137 72.4248 98.4805 73.5186 98.4805C75.0635 98.4805 76.0889 99.5332 76.0752 101.27V106H74.0654V101.625C74.0654 100.709 73.5596 100.162 72.7256 100.162C71.8779 100.162 71.3037 100.723 71.3037 101.707ZM77.6475 106V96.1016H79.6709V101.42H79.7803L82.1865 98.5762H84.5107L81.749 101.789L84.6611 106H82.2822L80.2451 102.979L79.6709 103.621V106H77.6475ZM88.7217 96.1016H91.2646L94.0127 102.814H94.1221L96.8701 96.1016H99.4131V106H97.417V99.5195H97.335L94.751 105.959H93.3838L90.7998 99.4922H90.7178V106H88.7217V96.1016ZM102.229 108.789C101.833 108.789 101.464 108.775 101.204 108.748V107.176C101.464 107.189 101.765 107.203 102.024 107.203C102.421 107.203 102.749 107.162 102.995 106.52L103.118 106.205L100.452 98.5762H102.571L104.13 104.045H104.212L105.784 98.5762H107.931L105.032 106.82C104.608 108.01 103.802 108.789 102.229 108.789ZM108.354 103.922C108.354 102.268 109.694 101.721 111.116 101.639C111.649 101.604 112.647 101.557 112.962 101.543V100.941C112.948 100.326 112.524 99.957 111.772 99.957C111.089 99.957 110.651 100.271 110.542 100.777H108.614C108.737 99.4922 109.858 98.4805 111.827 98.4805C113.44 98.4805 114.972 99.2051 114.972 100.996V106H113.058V104.975H113.003C112.634 105.658 111.937 106.137 110.829 106.137C109.407 106.137 108.354 105.398 108.354 103.922ZM110.296 103.867C110.296 104.441 110.761 104.742 111.403 104.742C112.319 104.742 112.976 104.127 112.962 103.348V102.801C112.654 102.814 111.793 102.862 111.444 102.896C110.747 102.965 110.296 103.293 110.296 103.867ZM118.54 101.707V106H116.517V98.5762H118.444V99.875H118.526C118.868 99.0137 119.661 98.4805 120.755 98.4805C122.3 98.4805 123.325 99.5332 123.312 101.27V106H121.302V101.625C121.302 100.709 120.796 100.162 119.962 100.162C119.114 100.162 118.54 100.723 118.54 101.707ZM124.884 106V98.5762H126.812V99.875H126.894C127.208 99.0137 127.96 98.4805 128.958 98.4805C129.983 98.4805 130.735 99.0137 130.981 99.875H131.05C131.364 99.0273 132.198 98.4805 133.292 98.4805C134.673 98.4805 135.63 99.3965 135.63 101.01V106H133.606V101.406C133.606 100.559 133.114 100.148 132.444 100.148C131.679 100.148 131.241 100.682 131.241 101.461V106H129.272V101.352C129.272 100.613 128.808 100.148 128.124 100.148C127.44 100.148 126.907 100.695 126.907 101.543V106H124.884ZM136.833 103.922C136.833 102.268 138.173 101.721 139.595 101.639C140.128 101.604 141.126 101.557 141.44 101.543V100.941C141.427 100.326 141.003 99.957 140.251 99.957C139.567 99.957 139.13 100.271 139.021 100.777H137.093C137.216 99.4922 138.337 98.4805 140.306 98.4805C141.919 98.4805 143.45 99.2051 143.45 100.996V106H141.536V104.975H141.481C141.112 105.658 140.415 106.137 139.308 106.137C137.886 106.137 136.833 105.398 136.833 103.922ZM138.774 103.867C138.774 104.441 139.239 104.742 139.882 104.742C140.798 104.742 141.454 104.127 141.44 103.348V102.801C141.133 102.814 140.271 102.862 139.923 102.896C139.226 102.965 138.774 103.293 138.774 103.867ZM144.995 106V98.5762H146.95V99.8613H147.032C147.306 98.9453 147.989 98.4668 148.823 98.4668C149.028 98.4668 149.288 98.4941 149.466 98.5352V100.34C149.274 100.285 148.892 100.23 148.604 100.23C147.688 100.23 147.019 100.873 147.019 101.775V106H144.995Z" fill="#7C7366"/>
<path d="M128.766 61.2141L128.07 60.7825C125.702 58.4272 122.431 57.4044 118.023 57.6577C114.88 57.9155 111.853 58.9542 109.216 60.6792V60.576C109.216 59.4312 109.347 58.1926 109.469 56.9915C109.621 55.7802 109.709 54.5617 109.732 53.3413C109.781 52.2108 109.605 51.0819 109.216 50.0195C109.165 49.8964 109.077 49.7923 108.964 49.7216C108.851 49.651 108.719 49.6173 108.586 49.6254C107.145 49.748 105.753 50.2008 104.516 50.9484L104.215 51.6147C104.197 53.4284 103.999 55.2358 103.623 57.0102L103.463 57.4513C102.984 62.0148 102.984 66.6159 103.463 71.1795C103.463 71.5736 104.271 72.1178 104.854 72.3806C105.437 72.6433 107.505 72.0803 108.614 71.6393L109.056 71.5736C109.143 71.5622 109.228 71.5333 109.304 71.4885C109.38 71.4438 109.447 71.3842 109.5 71.3132C109.552 71.2423 109.59 71.1614 109.611 71.0756C109.631 70.9897 109.634 70.9006 109.62 70.8135V69.6781C110.456 66.2812 113.849 62.2369 117.853 61.6176C118.84 61.4029 119.866 61.4531 120.827 61.763C121.788 62.0728 122.649 62.6314 123.324 63.3817C123.512 63.6538 123.925 66.103 122.384 68.9086C120.956 71.2464 118.734 72.9946 116.124 73.835C113.081 74.9094 109.853 75.3625 106.631 75.1675L103.115 72.7935C100.136 70.7009 96.4325 68.1017 93.0675 66.8255C92.2448 66.376 91.4782 65.8311 90.7835 65.2021L90.4357 64.9206C88.4995 63.3629 84.7962 60.9138 81.8542 58.9433L80.2563 57.8735V57.5451C80.3409 57.4513 82.1926 56.3346 82.1926 56.3346C84.8056 54.8145 86.0087 54.0638 86.2625 53.6791C86.2155 53.7448 86.6102 53.4726 86.6102 53.4726L93.0769 49.8318C99.2711 46.4255 106.292 42.5689 109.996 38.7591L110.155 38.1867L110.24 37.6331C110.483 36.9338 110.503 36.1764 110.296 35.4655C110.264 35.3463 110.201 35.2376 110.114 35.1503C110.027 35.063 109.918 35.0002 109.798 34.9682C106.922 34.6867 103.219 36.4132 99.8256 39.5755C99.1992 40.1472 98.4971 40.6303 97.739 41.0112L97.222 41.2927C93.4623 43.4134 85.0969 48.6119 80.7075 51.427C81.117 45.7234 81.864 40.0489 82.9445 34.4333L82.8223 33.7671L82.3711 32.9413L82.0234 32.3126L81.9576 32.2845C81.2859 31.9577 80.5117 31.9104 79.8051 32.1531L78.9216 32.4815L77.7561 32.9413C77.6484 32.9578 77.5466 33.0008 77.4596 33.0663C77.3727 33.1318 77.3034 33.2178 77.2579 33.3167C75.1619 38.3838 73.4136 46.7164 73.0001 53.3788C69.7793 51.362 66.4501 49.5232 63.0274 47.8706H62.971L62.736 47.8237C61.9041 47.6046 61.1179 47.2392 60.4144 46.7446L58.8353 45.6842L56.3915 44.1266L55.7524 43.9858C54.3207 44.4243 53.0494 45.2726 52.096 46.4255C52.0249 46.5445 51.9891 46.6812 51.9926 46.8197C52.0042 47.0139 52.0389 47.206 52.096 47.3921L52.2088 47.8894L52.3216 48.1897C54.4591 50.0482 56.8134 51.6424 59.3335 52.9378L62.6796 54.7019L67.8117 57.517L68.6858 58.202L69.2967 58.5492L69.4001 58.6242L60.0666 64.8455L55.1602 68.0735C54.2468 68.58 53.3054 69.0343 52.3404 69.4341C51.4054 69.7499 50.6192 70.3978 50.1316 71.2545L50 71.5361L50.1316 71.7237L50.5076 72.0052L51.0057 72.3337L51.5509 72.6996L52.0584 72.7841C52.9232 72.7841 54.2015 72.3243 56.5889 71.2827C58.7789 70.3443 64.7475 66.7223 67.2853 65.1927L68.3756 64.5359C68.886 64.4787 69.3641 64.2582 69.7385 63.9072C70.4574 63.3681 71.2289 62.9028 72.0413 62.5184L72.8027 62.0962V62.3964C72.7678 68.3688 73.2426 74.3333 74.222 80.2253V80.3003L74.2972 80.4786C74.8893 81.7859 75.3338 83.155 75.6225 84.5605L76.5624 87.8072L76.835 88.1169C77.857 88.7153 79.0247 89.0205 80.2093 88.9989H80.4913L80.6699 88.6048C80.7587 88.1126 80.7997 87.6129 80.7921 87.1128C80.7921 86.5217 80.7921 85.8648 80.6981 85.0672L80.6229 83.8943C80.2657 78.4611 79.9085 70.6165 79.9085 65.3992V64.8455L84.8808 67.9703C91.761 72.4275 102.157 79.1649 108.435 80.9384C108.596 80.9918 108.768 81.0007 108.934 80.9644C109.099 80.9281 109.252 80.8478 109.375 80.732L110.315 80.1127L110.494 80.0376C110.706 79.8648 110.875 79.6452 110.987 79.396C111.1 79.1469 111.153 78.875 111.142 78.6019C116.434 78.3392 123.822 76.3029 127.77 71.339C129.185 69.5459 129.965 67.3349 129.988 65.052C130.082 63.6447 129.62 62.2566 128.7 61.1859" fill="#F8B500"/>
</svg>
