<svg width="180" height="140" viewBox="0 0 180 140" fill="none" xmlns="http://www.w3.org/2000/svg">
<rect width="180" height="140" fill="white"/>
<path d="M84.816 86.5986H83.5261V79.774H81.5698V78.2637H83.5261V74.3938H84.816V86.5986ZM82.5275 83.1037L81.696 84.255C81.4431 84.0631 81.1977 83.8616 80.9604 83.6509C80.6549 83.3745 80.3808 83.0653 80.143 82.7288C79.9376 82.4581 79.7517 82.1731 79.5869 81.8759C79.4403 81.6045 79.3104 81.3244 79.1978 81.0373C79.0817 81.373 78.931 81.6957 78.7482 82.0003C78.5401 82.3435 78.3203 82.6796 78.0891 83.0077C77.8941 83.2905 77.6734 83.5545 77.4299 83.7966C77.1876 84.0337 76.9357 84.2608 76.6747 84.4771L75.7046 83.4359C76.1381 83.093 76.5308 82.7199 76.8826 82.313C77.2344 81.9061 77.5294 81.4495 77.771 80.9395C78.0571 80.3479 78.2507 79.7313 78.352 79.0881C78.4533 78.4449 78.5048 77.7768 78.5048 77.0857V75.0743H79.8516V77.0857C79.8516 77.6116 79.9067 78.2655 80.0169 79.0472C80.1288 79.8273 80.3545 80.5042 80.6974 81.0799C80.9923 81.5792 81.2979 81.9861 81.6124 82.3059C81.9269 82.6257 82.2308 82.8905 82.5275 83.1037Z" fill="#514E4F"/>
<path d="M93.5669 76.4876C93.5669 76.2015 93.3359 75.9581 92.874 75.7591C92.412 75.5619 91.847 75.4606 91.1824 75.4606C90.5161 75.4606 89.9511 75.5566 89.4892 75.7449C89.0272 75.935 88.7962 76.1731 88.7962 76.4592C88.7962 76.699 89.0094 76.9265 89.4341 77.1397C89.8605 77.3511 90.4415 77.4577 91.1824 77.4577C91.9216 77.4577 92.5044 77.3582 92.929 77.161C93.3537 76.962 93.5669 76.7381 93.5669 76.4876ZM95.0097 76.4592C95.0097 77.1432 94.665 77.6709 93.9756 78.0405C93.288 78.4101 92.3551 78.5967 91.1824 78.5967C90.0169 78.5967 89.0894 78.4083 88.4 78.0334C87.7124 77.6585 87.3677 77.1343 87.3677 76.4592C87.3677 75.8213 87.7124 75.3042 88.4 74.9062C89.0894 74.51 90.0169 74.3092 91.1824 74.3092C92.3551 74.3092 93.288 74.5136 93.9756 74.9205C94.665 75.3273 95.0097 75.8408 95.0097 76.4592ZM96.0633 80.5511H91.902V81.3969H94.8426V84.4903H88.9348V85.1832H95.079V86.459H87.5205V83.3656H93.4283V82.6726H87.5205V81.3969H90.5161V80.5511H86.2998V79.2327H96.0633V80.5511Z" fill="#514E4F"/>
<path d="M105.911 86.5987H104.621V74.3936H105.911V86.5987ZM103.663 83.1035L102.832 84.2542C102.579 84.0625 102.334 83.8613 102.096 83.6509C101.791 83.374 101.518 83.0648 101.28 82.7288C101.074 82.458 100.888 82.1728 100.723 81.8754C100.577 81.6044 100.447 81.3245 100.336 81.0372C100.215 81.3801 100.065 81.7001 99.8838 81.9998C99.706 82.2996 99.4851 82.6374 99.2272 83.007C99.0139 83.3118 98.7929 83.5747 98.5668 83.7957C98.3407 84.0179 98.088 84.2453 97.8111 84.4764L96.8408 83.435C97.2739 83.0921 97.6689 82.72 98.0194 82.3123C98.3712 81.9059 98.6672 81.4486 98.9072 80.9394C99.1929 80.3475 99.3873 79.7315 99.4901 79.0876C99.5917 78.445 99.6413 77.7769 99.6413 77.0848V75.0743H100.988V77.0848C100.988 77.6118 101.043 78.2659 101.155 79.047C101.264 79.8268 101.493 80.5037 101.833 81.0791C102.128 81.5782 102.434 81.9859 102.748 82.3059C103.063 82.626 103.369 82.8901 103.663 83.1035ZM116.411 86.5987H115.164V74.3936H116.411V86.5987ZM110.725 77.2639H109.379V82.5612H110.725V77.2639ZM112.014 78.7625H113.082V74.6704H114.315V86.0437H113.083V80.3843H112.014V83.9633H108.09V75.863H112.014V78.7625Z" fill="#514E4F"/>
<path d="M119.198 82.148V75.4761H126.453V76.8496H120.531V78.1395H126.41V79.4988H120.531V80.7745H126.522V82.148H119.198ZM127.686 85.1152H117.92V83.7151H127.686V85.1152Z" fill="#514E4F"/>
<path d="M138.227 85.4062H128.463V84.0061H132.625V82.2453H129.808V78.029H135.592V76.5844H129.794V75.1843H136.868V79.4149H131.098V80.8292H137.076V82.2453H134.039V84.0061H138.227V85.4062Z" fill="#514E4F"/>
<path d="M142.596 80.012C142.844 79.6318 142.969 79.1645 142.969 78.6101C142.969 78.0469 142.844 77.5849 142.596 77.2242C142.49 77.0558 142.342 76.9176 142.167 76.8227C141.992 76.7277 141.796 76.6794 141.597 76.6823C141.199 76.6823 140.87 76.8617 140.613 77.2171C140.353 77.5725 140.224 78.038 140.224 78.6101C140.224 79.1733 140.353 79.6442 140.613 80.0191C140.87 80.394 141.199 80.5788 141.597 80.5788C142.013 80.5788 142.345 80.3905 142.596 80.012ZM143.248 76.0586C143.672 76.5401 143.978 77.1371 144.163 77.8479C144.348 78.4946 144.433 79.3404 144.419 80.3869C144.406 81.4317 144.298 82.3005 144.093 82.9935C143.871 83.7433 143.55 84.3349 143.129 84.7685C142.924 84.982 142.678 85.1504 142.404 85.2627C142.131 85.375 141.837 85.4288 141.542 85.4206C140.856 85.4206 140.284 85.1292 139.82 84.5464C139.358 83.9654 139.104 83.3115 139.058 82.5919H140.169C140.206 82.9153 140.344 83.244 140.584 83.5834C140.692 83.7441 140.839 83.8749 141.011 83.9635C141.183 84.0521 141.375 84.0955 141.569 84.0897C141.967 84.0897 142.267 83.9441 142.471 83.6527C142.674 83.3613 142.827 83.0485 142.928 82.7145C143.031 82.3929 143.09 82.0997 143.109 81.835C143.127 81.572 143.136 81.3251 143.136 81.0923C142.923 81.333 142.675 81.5413 142.402 81.7106C142.098 81.8954 141.744 81.9805 141.389 81.954C140.686 81.9149 140.113 81.5703 139.669 80.9128C139.225 80.2572 139.003 79.4896 139.003 78.6101C139.003 77.6862 139.243 76.9097 139.724 76.2807C140.206 75.6517 140.815 75.3372 141.556 75.3372C142.258 75.3372 142.821 75.5789 143.248 76.0586Z" fill="#514E4F"/>
<path d="M152.005 80.9119C152.005 80.6151 151.799 80.3913 151.387 80.2385C150.949 80.081 150.487 80.0034 150.022 80.0093C149.532 80.0093 149.079 80.0857 148.663 80.2385C148.245 80.3913 148.039 80.6151 148.039 80.9119C148.039 81.1979 148.245 81.42 148.663 81.5782C149.079 81.7345 149.532 81.8145 150.022 81.8145C150.522 81.8145 150.976 81.7345 151.387 81.5782C151.799 81.42 152.005 81.1979 152.005 80.9119ZM152.186 75.9457H147.817V74.5865H152.186V75.9457ZM154.141 78.22H145.888V76.8483H154.141V78.22ZM154.903 85.6133H145.14V84.2114H149.342V83.0209C148.528 82.9463 147.865 82.726 147.352 82.36C146.838 81.9957 146.582 81.5124 146.582 80.9119C146.582 80.2278 146.909 79.7001 147.567 79.3305C148.224 78.9609 149.041 78.7762 150.022 78.7762C151.021 78.7762 151.844 78.9645 152.49 79.3447C153.137 79.7232 153.46 80.2456 153.46 80.9119C153.466 81.1979 153.398 81.4806 153.265 81.7338C153.132 81.9869 152.937 82.2023 152.698 82.36C152.19 82.726 151.529 82.9463 150.715 83.0209V84.2114H154.903V85.6133Z" fill="#514E4F"/>
<path d="M164.778 83.2145H163.502V78.1648H161.534V76.667H163.502V74.3927H164.778V83.2145ZM165 86.3203H157.664V82.5073H158.966V84.9202H165V86.3203ZM162.337 80.217L161.574 81.4394C161.319 81.3127 161.076 81.1641 160.846 80.9952C160.335 80.6187 159.882 80.1698 159.501 79.6627C159.338 79.4433 159.191 79.2117 159.064 78.9697C158.947 79.2328 158.808 79.4854 158.648 79.7248C158.463 80.0041 158.259 80.2707 158.039 80.5226C157.802 80.8038 157.54 81.062 157.255 81.2938C157.028 81.4763 156.794 81.6494 156.553 81.8126L155.638 80.6754C155.962 80.4729 156.296 80.2206 156.637 79.9203C156.98 79.62 157.289 79.2611 157.566 78.8453C157.889 78.3816 158.104 77.9143 158.211 77.4381C158.318 76.9601 158.371 76.468 158.371 75.9598V74.7267H159.73V75.9598C159.73 76.4502 159.791 76.9282 159.91 77.3972C160.03 77.8628 160.229 78.2856 160.507 78.6641C160.784 79.0425 161.089 79.3659 161.422 79.6271C161.754 79.8919 162.06 80.0891 162.337 80.217Z" fill="#514E4F"/>
<path d="M84.816 86.5986H83.5261V79.774H81.5698V78.2637H83.5261V74.3938H84.816V86.5986ZM82.5275 83.1037L81.696 84.255C81.4431 84.0631 81.1977 83.8616 80.9604 83.6509C80.6549 83.3745 80.3808 83.0653 80.143 82.7288C79.9376 82.4581 79.7517 82.1731 79.5869 81.8759C79.4403 81.6045 79.3104 81.3244 79.1978 81.0373C79.0817 81.373 78.931 81.6957 78.7482 82.0003C78.5401 82.3435 78.3203 82.6796 78.0891 83.0077C77.8941 83.2905 77.6734 83.5545 77.4299 83.7966C77.1876 84.0337 76.9357 84.2608 76.6747 84.4771L75.7046 83.4359C76.1381 83.093 76.5308 82.7199 76.8826 82.313C77.2344 81.9061 77.5294 81.4495 77.771 80.9395C78.0571 80.3479 78.2507 79.7313 78.352 79.0881C78.4533 78.4449 78.5048 77.7768 78.5048 77.0857V75.0743H79.8516V77.0857C79.8516 77.6116 79.9067 78.2655 80.0169 79.0472C80.1288 79.8273 80.3545 80.5042 80.6974 81.0799C80.9923 81.5792 81.2979 81.9861 81.6124 82.3059C81.9269 82.6257 82.2308 82.8905 82.5275 83.1037Z" fill="#514E4F"/>
<path d="M93.5669 76.4876C93.5669 76.2015 93.3359 75.9581 92.874 75.7591C92.412 75.5619 91.847 75.4606 91.1824 75.4606C90.5161 75.4606 89.9511 75.5566 89.4892 75.7449C89.0272 75.935 88.7962 76.1731 88.7962 76.4592C88.7962 76.699 89.0094 76.9265 89.4341 77.1397C89.8605 77.3511 90.4415 77.4577 91.1824 77.4577C91.9216 77.4577 92.5044 77.3582 92.929 77.161C93.3537 76.962 93.5669 76.7381 93.5669 76.4876ZM95.0097 76.4592C95.0097 77.1432 94.665 77.6709 93.9756 78.0405C93.288 78.4101 92.3551 78.5967 91.1824 78.5967C90.0169 78.5967 89.0894 78.4083 88.4 78.0334C87.7124 77.6585 87.3677 77.1343 87.3677 76.4592C87.3677 75.8213 87.7124 75.3042 88.4 74.9062C89.0894 74.51 90.0169 74.3092 91.1824 74.3092C92.3551 74.3092 93.288 74.5136 93.9756 74.9205C94.665 75.3273 95.0097 75.8408 95.0097 76.4592ZM96.0633 80.5511H91.902V81.3969H94.8426V84.4903H88.9348V85.1832H95.079V86.459H87.5205V83.3656H93.4283V82.6726H87.5205V81.3969H90.5161V80.5511H86.2998V79.2327H96.0633V80.5511Z" fill="#514E4F"/>
<path d="M105.911 86.5987H104.621V74.3936H105.911V86.5987ZM103.663 83.1035L102.832 84.2542C102.579 84.0625 102.334 83.8613 102.096 83.6509C101.791 83.374 101.518 83.0648 101.28 82.7288C101.074 82.458 100.888 82.1728 100.723 81.8754C100.577 81.6044 100.447 81.3245 100.336 81.0372C100.215 81.3801 100.065 81.7001 99.8838 81.9998C99.706 82.2996 99.4851 82.6374 99.2272 83.007C99.0139 83.3118 98.7929 83.5747 98.5668 83.7957C98.3407 84.0179 98.088 84.2453 97.8111 84.4764L96.8408 83.435C97.2739 83.0921 97.6689 82.72 98.0194 82.3123C98.3712 81.9059 98.6672 81.4486 98.9072 80.9394C99.1929 80.3475 99.3873 79.7315 99.4901 79.0876C99.5917 78.445 99.6413 77.7769 99.6413 77.0848V75.0743H100.988V77.0848C100.988 77.6118 101.043 78.2659 101.155 79.047C101.264 79.8268 101.493 80.5037 101.833 81.0791C102.128 81.5782 102.434 81.9859 102.748 82.3059C103.063 82.626 103.369 82.8901 103.663 83.1035ZM116.411 86.5987H115.164V74.3936H116.411V86.5987ZM110.725 77.2639H109.379V82.5612H110.725V77.2639ZM112.014 78.7625H113.082V74.6704H114.315V86.0437H113.083V80.3843H112.014V83.9633H108.09V75.863H112.014V78.7625Z" fill="#514E4F"/>
<path d="M119.198 82.148V75.4761H126.453V76.8496H120.531V78.1395H126.41V79.4988H120.531V80.7745H126.522V82.148H119.198ZM127.686 85.1152H117.92V83.7151H127.686V85.1152Z" fill="#514E4F"/>
<path d="M138.227 85.4062H128.463V84.0061H132.625V82.2453H129.808V78.029H135.592V76.5844H129.794V75.1843H136.868V79.4149H131.098V80.8292H137.076V82.2453H134.039V84.0061H138.227V85.4062Z" fill="#514E4F"/>
<path d="M142.596 80.012C142.844 79.6318 142.969 79.1645 142.969 78.6101C142.969 78.0469 142.844 77.5849 142.596 77.2242C142.49 77.0558 142.342 76.9176 142.167 76.8227C141.992 76.7277 141.796 76.6794 141.597 76.6823C141.199 76.6823 140.87 76.8617 140.613 77.2171C140.353 77.5725 140.224 78.038 140.224 78.6101C140.224 79.1733 140.353 79.6442 140.613 80.0191C140.87 80.394 141.199 80.5788 141.597 80.5788C142.013 80.5788 142.345 80.3905 142.596 80.012ZM143.248 76.0586C143.672 76.5401 143.978 77.1371 144.163 77.8479C144.348 78.4946 144.433 79.3404 144.419 80.3869C144.406 81.4317 144.298 82.3005 144.093 82.9935C143.871 83.7433 143.55 84.3349 143.129 84.7685C142.924 84.982 142.678 85.1504 142.404 85.2627C142.131 85.375 141.837 85.4288 141.542 85.4206C140.856 85.4206 140.284 85.1292 139.82 84.5464C139.358 83.9654 139.104 83.3115 139.058 82.5919H140.169C140.206 82.9153 140.344 83.244 140.584 83.5834C140.692 83.7441 140.839 83.8749 141.011 83.9635C141.183 84.0521 141.375 84.0955 141.569 84.0897C141.967 84.0897 142.267 83.9441 142.471 83.6527C142.674 83.3613 142.827 83.0485 142.928 82.7145C143.031 82.3929 143.09 82.0997 143.109 81.835C143.127 81.572 143.136 81.3251 143.136 81.0923C142.923 81.333 142.675 81.5413 142.402 81.7106C142.098 81.8954 141.744 81.9805 141.389 81.954C140.686 81.9149 140.113 81.5703 139.669 80.9128C139.225 80.2572 139.003 79.4896 139.003 78.6101C139.003 77.6862 139.243 76.9097 139.724 76.2807C140.206 75.6517 140.815 75.3372 141.556 75.3372C142.258 75.3372 142.821 75.5789 143.248 76.0586Z" fill="#514E4F"/>
<path d="M152.005 80.9119C152.005 80.6151 151.799 80.3913 151.387 80.2385C150.949 80.081 150.487 80.0034 150.022 80.0093C149.532 80.0093 149.079 80.0857 148.663 80.2385C148.245 80.3913 148.039 80.6151 148.039 80.9119C148.039 81.1979 148.245 81.42 148.663 81.5782C149.079 81.7345 149.532 81.8145 150.022 81.8145C150.522 81.8145 150.976 81.7345 151.387 81.5782C151.799 81.42 152.005 81.1979 152.005 80.9119ZM152.186 75.9457H147.817V74.5865H152.186V75.9457ZM154.141 78.22H145.888V76.8483H154.141V78.22ZM154.903 85.6133H145.14V84.2114H149.342V83.0209C148.528 82.9463 147.865 82.726 147.352 82.36C146.838 81.9957 146.582 81.5124 146.582 80.9119C146.582 80.2278 146.909 79.7001 147.567 79.3305C148.224 78.9609 149.041 78.7762 150.022 78.7762C151.021 78.7762 151.844 78.9645 152.49 79.3447C153.137 79.7232 153.46 80.2456 153.46 80.9119C153.466 81.1979 153.398 81.4806 153.265 81.7338C153.132 81.9869 152.937 82.2023 152.698 82.36C152.19 82.726 151.529 82.9463 150.715 83.0209V84.2114H154.903V85.6133Z" fill="#514E4F"/>
<path d="M164.778 83.2145H163.502V78.1648H161.534V76.667H163.502V74.3927H164.778V83.2145ZM165 86.3203H157.664V82.5073H158.966V84.9202H165V86.3203ZM162.337 80.217L161.574 81.4394C161.319 81.3127 161.076 81.1641 160.846 80.9952C160.335 80.6187 159.882 80.1698 159.501 79.6627C159.338 79.4433 159.191 79.2117 159.064 78.9697C158.947 79.2328 158.808 79.4854 158.648 79.7248C158.463 80.0041 158.259 80.2707 158.039 80.5226C157.802 80.8038 157.54 81.062 157.255 81.2938C157.028 81.4763 156.794 81.6494 156.553 81.8126L155.638 80.6754C155.962 80.4729 156.296 80.2206 156.637 79.9203C156.98 79.62 157.289 79.2611 157.566 78.8453C157.889 78.3816 158.104 77.9143 158.211 77.4381C158.318 76.9601 158.371 76.468 158.371 75.9598V74.7267H159.73V75.9598C159.73 76.4502 159.791 76.9282 159.91 77.3972C160.03 77.8628 160.229 78.2856 160.507 78.6641C160.784 79.0425 161.089 79.3659 161.422 79.6271C161.754 79.8919 162.06 80.0891 162.337 80.217Z" fill="#514E4F"/>
<path d="M98.3631 54.9408L95.1597 70.8647H105.602L106.112 68.3457H99.5092L100.415 63.8473H106.518L107.025 61.3366H100.921L101.701 57.4599H107.937L108.446 54.9408H98.3631Z" fill="#514E4F"/>
<path d="M140.459 68.495C139.75 68.495 139.249 68.3003 138.93 67.9164C138.311 67.1597 138.272 65.5865 138.8 62.959C139.608 58.946 140.772 57.3102 142.827 57.3102C143.535 57.3102 144.035 57.5022 144.351 57.8861C144.97 58.6428 145.012 60.2201 144.479 62.8491C143.678 66.8592 142.511 68.495 140.459 68.495ZM143.234 54.723C138.528 54.723 135.929 57.2281 134.796 62.8491C134.17 65.9579 134.397 68.1125 135.484 69.4381C136.392 70.5439 137.89 71.0864 140.053 71.0864C144.756 71.0864 147.354 68.5799 148.486 62.959C149.111 59.8557 148.891 57.6983 147.803 56.3755C146.892 55.2613 145.398 54.723 143.234 54.723Z" fill="#514E4F"/>
<path d="M82.1541 70.8652H84.6884L90.2954 61.0129L88.3161 70.8652H91.9549L95.1625 54.9413H90.9311L84.8108 65.6713L83.0568 54.9413H78.9089L75.7041 70.8652H78.4888L80.4918 60.9045L82.1541 70.8652Z" fill="#514E4F"/>
<path d="M126.075 61.6445H125.425C125.514 61.2105 126.211 57.7469 126.289 57.3644H127.093C128.051 57.3644 128.662 57.5411 128.964 57.9097C129.138 58.1225 129.223 58.4104 129.223 58.7874C129.22 59.0306 129.193 59.2729 129.142 59.5107C128.85 60.967 127.876 61.6445 126.075 61.6445ZM129.185 63.5278C130.767 63.1008 132.535 62.1869 133.106 59.3396C133.167 59.0419 133.197 58.7623 133.197 58.4869C133.197 57.7581 132.98 57.1182 132.542 56.5869C131.661 55.5061 129.903 54.9413 127.466 54.9413H122.931L119.725 70.8652H123.57C123.57 70.8652 124.858 64.4793 124.94 64.0634H125.275L128.082 70.8652H132.4L129.185 63.5278Z" fill="#514E4F"/>
<path d="M110.422 70.8652H114.269L116.97 57.459H121.524L122.032 54.9413H109.072L108.567 57.459H113.123L110.422 70.8652Z" fill="#514E4F"/>
<path d="M158.911 62.1666C158.467 62.1666 158.151 62.0428 157.932 61.7785C157.413 61.1456 157.616 59.8826 157.69 59.5056C157.873 58.6237 158.158 57.9143 158.54 57.4066C158.955 56.8586 159.448 56.5929 160.093 56.5929C160.58 56.5929 160.897 56.7111 161.116 56.9838C161.383 57.3023 161.512 57.8448 161.512 58.6015C161.512 59.2024 161.427 59.9424 161.264 60.8145C160.691 61.8146 159.644 62.1666 158.911 62.1666ZM164.732 56.6277C164.184 54.8764 162.796 53.989 160.6 53.989C157.112 53.989 154.798 55.9336 154.091 59.4528C153.743 61.1817 153.956 62.5755 154.698 63.4838C155.357 64.292 156.388 64.6967 157.759 64.6967C158.712 64.6967 159.693 64.4825 160.54 64.1125C160.323 64.8706 159.992 65.7706 159.435 66.505C158.537 67.6915 157.16 68.2674 155.232 68.2674H153.554L153.051 70.8657H155.715C160.295 70.8657 163.437 67.7805 164.567 62.1763C165.083 59.6225 165.136 57.9102 164.732 56.6277Z" fill="#514E4F"/>
<path d="M45.4344 46.8195C32.5149 43.3824 19.2541 51.0739 15.8181 63.9946C13.1372 74.0827 17.2367 84.3782 25.3118 90.0423C29.3009 89.3854 32.5193 87.9691 35.0731 86.3153C36.4245 85.4412 37.687 84.4368 38.8425 83.3165C41.8881 80.3702 43.2118 77.6011 43.2888 77.4695C43.2888 77.4695 44.6393 74.9102 45.1857 72.2895C45.2225 72.1188 45.2527 71.9504 45.2794 71.7832C45.372 71.2323 45.4233 70.6825 45.411 70.1672H45.4077C45.3972 68.8104 44.9411 67.4946 44.1098 66.4223C43.2784 65.3499 42.1178 64.5804 40.8064 64.2322C40.0206 64.0228 39.2012 63.9704 38.3952 64.0779C37.5891 64.1854 36.8122 64.4507 36.1087 64.8587C35.4053 65.2666 34.7891 65.8092 34.2955 66.4555C33.8019 67.1017 33.4405 67.8389 33.2319 68.6249C32.8949 69.8912 32.9684 71.2318 33.4419 72.4536C33.9155 73.6754 34.7645 74.7155 35.8669 75.4239C36.9693 76.1323 38.2681 76.4726 39.5762 76.3957C40.8843 76.3188 42.1343 75.8287 43.146 74.996C41.6784 77.4049 38.6975 81.3582 34.0828 83.2652C32.6955 82.9831 31.3339 82.4422 30.1785 81.5166C25.8382 78.0416 23.716 72.2159 25.236 66.4994C27.2879 58.7788 35.2103 54.1842 42.9319 56.2351C48.9607 57.8376 53.0836 63.0199 53.6233 68.8903L53.6278 68.9405C53.9746 71.9371 53.5854 75.0551 53.2977 76.612C51.7855 84.8388 48.567 90.1962 45.411 93.6221C53.5285 91.463 60.2989 85.1354 62.6118 76.4346C66.0466 63.5117 58.3573 50.2543 45.4344 46.8195Z" fill="#244BA6"/>
<path d="M47.7774 72.1824C47.5388 70.0446 47.1897 69.7457 47.0191 69.7245C46.9176 69.7145 46.8518 69.7948 46.8741 69.9598C46.9009 70.1516 46.912 70.4672 46.912 70.4672C47.0135 74.1987 46.1202 76.9822 45.5336 78.9795C43.8218 84.8076 39.3376 91.2936 34.6895 94.1652C36.7177 94.5497 38.7869 94.6726 40.8465 94.531C43.0456 92.0976 46.0901 86.9632 47.2722 80.3144C47.7216 77.7974 48.0975 75.0351 47.7774 72.1824Z" fill="#244BA6"/>
</svg>
