<svg width="180" height="140" viewBox="0 0 180 140" fill="none" xmlns="http://www.w3.org/2000/svg">
<rect width="180" height="140" fill="white"/>
<path d="M90 29C96.1377 29 101.959 30.3514 107.187 32.7686C104.794 42.0384 97.3561 61.2887 84 73.5C90.4882 67.985 104.615 52.6503 110.529 34.5029C111.891 35.2922 113.203 36.1571 114.46 37.0928C110.325 45.2879 99.5183 62.4203 85 73.5C90.3424 70.2622 103.704 58.6894 115.463 37.8662C115.927 38.2343 116.384 38.6106 116.831 38.998C103.016 67.6047 79.2694 83.4738 68.5 88C94.8589 86.4719 101.425 100.936 101.526 109.354C97.8696 110.423 94.0023 111 90 111C85.153 111 80.5036 110.156 76.1875 108.611L78.5 91.5H67.5L65.7236 103.04C55.5823 95.5761 49 83.5577 49 70C49 52.1612 60.3935 36.9858 76.2998 31.3477L68.5 84L80.5 77L88.4111 29.0332C88.9383 29.0131 89.4679 29 90 29Z" fill="black"/>
<path d="M90 29C96.1377 29 101.959 30.3514 107.187 32.7686C104.794 42.0384 97.3561 61.2887 84 73.5C90.4882 67.985 104.615 52.6503 110.529 34.5029C111.891 35.2922 113.203 36.1571 114.46 37.0928C110.325 45.2879 99.5183 62.4203 85 73.5C90.3424 70.2622 103.704 58.6894 115.463 37.8662C115.927 38.2343 116.384 38.6106 116.831 38.998C103.016 67.6047 79.2694 83.4738 68.5 88C94.8589 86.4719 101.425 100.936 101.526 109.354C97.8696 110.423 94.0023 111 90 111C85.153 111 80.5036 110.156 76.1875 108.611L78.5 91.5H67.5L65.7236 103.04C55.5823 95.5761 49 83.5577 49 70C49 52.1612 60.3935 36.9858 76.2998 31.3477L68.5 84L80.5 77L88.4111 29.0332C88.9383 29.0131 89.4679 29 90 29Z" fill="#364C9F"/>
<path d="M129.464 57.2158C130.783 61.2391 131.5 65.5356 131.5 70C131.5 82.6969 125.728 94.0449 116.665 101.565C110.416 87.5718 97.8781 83.6547 92 83.5C111.24 76.5737 124.617 63.5381 129.464 57.2158Z" fill="#EE4551"/>
</svg>
