<svg width="180" height="140" viewBox="0 0 180 140" fill="none" xmlns="http://www.w3.org/2000/svg">
<rect width="180" height="140" fill="white"/>
<path d="M132.357 54.0793L128.877 50.5987C128.687 50.4094 128.462 50.2594 128.215 50.1572C127.967 50.055 127.702 50.0025 127.434 50.0029H80.4095C68.765 50.0029 59.3242 58.9583 59.3242 70.0016C59.3242 71.9901 59.6331 73.9125 60.2013 75.7273H64.8155C64.078 73.9085 63.6996 71.9642 63.7012 70.0016C63.7012 61.2089 71.1811 54.0793 80.4068 54.0793H132.355H132.357Z" fill="#00A73C"/>
<path d="M145.974 89.9997H152.089L134.652 69.2206L139.313 63.6659C139.641 63.2749 139.81 62.7755 139.787 62.266C139.765 61.7566 139.552 61.274 139.192 60.9133L136.434 58.1553H80.4068C73.5999 58.1553 68.0811 63.4562 68.0811 69.9983C68.0811 72.0752 68.6382 74.0251 69.6173 75.7241H75.0424C73.4565 74.3037 72.4636 72.2655 72.4636 69.9983C72.4636 65.7096 76.0215 62.2344 80.4095 62.2344H122.172L98.8747 89.997H104.989L128.287 62.2344H134.401L111.104 89.997H117.218L125.482 80.148L133.745 89.997H139.859L128.538 76.5046L131.593 72.8612L145.971 89.997L145.974 89.9997Z" fill="#00A73C"/>
<path d="M100.618 64.2754H96.0034C96.7409 66.0941 97.1193 68.0385 97.1176 70.0011C97.1176 78.7938 89.6378 85.9233 80.4121 85.9233H35.1553L38.6359 89.404C38.8254 89.5932 39.0503 89.7432 39.2979 89.8455C39.5454 89.9477 39.8106 90.0001 40.0784 89.9997H80.4094C92.0538 89.9997 101.495 81.0443 101.495 70.0011C101.495 68.0125 101.186 66.0902 100.618 64.2754Z" fill="#003894"/>
<path d="M91.2019 64.2757H85.7768C87.3627 65.6961 88.3556 67.7343 88.3556 70.0014C88.3556 74.2901 84.7977 77.7653 80.4096 77.7653H40.1393V50H35.7596V77.7625H31.3798V50H27V76.9186C27 77.4591 27.2151 77.9777 27.5957 78.361L31.0764 81.8417H80.4069C87.2137 81.8417 92.7326 76.5407 92.7326 69.9986C92.7326 67.9218 92.1755 65.9719 91.1964 64.2729L91.2019 64.2757Z" fill="#003894"/>
</svg>
