<svg width="180" height="140" viewBox="0 0 180 140" fill="none" xmlns="http://www.w3.org/2000/svg">
<rect width="180" height="140" fill="white"/>
<path d="M93.0414 71.1925L125.394 69.5998C125.471 69.5956 125.471 69.4833 125.394 69.4791L93.0414 67.892L91.4585 30.0621C91.4557 29.9793 91.3336 29.9793 91.3308 30.0621L89.7423 67.892L55.0684 69.4678C54.9772 69.4721 54.9772 69.6068 55.0684 69.611L89.7409 71.1911L91.3448 109.365C91.3462 109.428 91.4417 109.428 91.4431 109.365L93.0414 71.1925Z" fill="#02227A"/>
<path d="M99.5232 77.4912V108.745H99.5246H123.813V104.425H104.039V94.8499H121.458V90.5278H104.039V81.8119H123.813V77.4912H99.5246H99.5232Z" fill="#02227A"/>
<path d="M122.108 57.3195H113.927V34.7953H122.108V30.4746H101.231V34.7953H109.411V57.3195H101.231V61.6417H122.108V57.3195Z" fill="#02227A"/>
<path d="M61.4659 37.6019L77.8914 61.6403H83.2436V30.4746H78.7292V54.381L62.4061 30.4746H56.9487V61.6403H61.4659V37.6019Z" fill="#02227A"/>
<path d="M70.7305 80.7107C70.7305 80.7107 73.1273 80.663 75.3024 81.6242C77.921 82.7805 79.6765 84.9093 80.4918 88.0162H85.2363C83.979 81.5695 80.1353 78.6872 77.1309 77.3653C73.9244 75.955 70.7572 76.0728 70.7389 76.0742C65.5945 76.0742 61.6723 77.8003 59.072 81.2061C56.8534 84.1123 55.6774 88.2029 55.6704 93.0358C55.676 97.8659 56.8534 101.956 59.072 104.866C61.6737 108.271 65.5945 109.997 70.7389 109.997C70.7586 109.997 73.9244 110.117 77.1309 108.706C80.1353 107.386 83.979 104.502 85.2363 98.0539H80.4918C79.6765 101.162 77.921 103.288 75.3024 104.447C73.1273 105.409 70.7305 105.359 70.7305 105.359C65.2731 105.359 63.3689 102.866 62.743 102.046C61.1446 99.954 60.2985 96.8387 60.2928 93.0358C60.2985 89.2329 61.1446 86.1162 62.743 84.0239C63.3675 83.2043 65.2731 80.7107 70.7305 80.7107Z" fill="#02227A"/>
</svg>
