<svg width="180" height="140" viewBox="0 0 180 140" fill="none" xmlns="http://www.w3.org/2000/svg">
<rect width="180" height="140" fill="white"/>
<path d="M91.6784 83.0357C106.852 83.0357 116.836 70.9998 124.463 60.4202C130.875 51.6748 141.97 36.4449 159.42 33.6773C160.322 33.5325 160.112 32.8406 159.203 32.7762C154.642 32.4544 146.258 32.905 136.869 38.4965C125.123 45.496 116.329 59.9696 106.707 67.0978C101.397 71.032 92.668 74.9823 84.5019 70.5654C84.5019 70.5654 76.7622 66.953 77.1001 56.9124C77.1001 56.9124 77.1323 46.4856 87.1971 44.434C87.1971 44.434 94.3494 43.1709 97.6883 48.7383C98.0262 49.2934 98.1066 50.0899 97.1573 49.3578C96.0551 48.513 94.3736 47.8131 91.7749 48.0544C91.7749 48.0544 86.7466 48.4326 85.2904 53.4529C85.2904 53.4529 83.7295 58.1433 87.4626 61.8925C87.4626 61.8925 89.6912 64.7083 94.5184 64.475C104.342 64.475 113.626 51.4254 116.394 48.6659C122.412 42.6479 132.734 32.382 151.021 31.1752C151.954 31.1109 151.85 30.4833 150.908 30.3465C142.573 29.1478 123.136 30.1535 105.428 48.7624C103.264 41.3446 96.0631 36.4128 87.358 36.5898C79.6183 36.7507 66.4883 42.7203 66.4883 58.626C66.4883 75.5133 81.0987 83.0357 91.6784 83.0357Z" fill="#00AAB4"/>
<path d="M69.9881 76.0834C65.7569 71.2526 63.429 65.0468 63.4392 58.625C63.4392 58.3192 63.4392 58.0216 63.4553 57.7158C57.3649 50.7405 50.7918 43.0894 43.1005 38.5035C33.792 32.9522 25.465 32.4614 20.8791 32.7671C19.8332 32.8395 19.6643 33.5314 20.678 33.6923C38.048 36.5163 49.1104 51.6979 55.5064 60.4191C59.513 65.9785 63.9782 71.932 69.618 76.3409C70.2778 76.8477 70.5111 76.6788 69.9881 76.0834Z" fill="#5786C5"/>
<path d="M29.0934 30.3385C28.1118 30.4833 28.0635 31.1189 29.0209 31.1752C47.284 32.3177 58.2578 43.364 63.5758 48.6659C63.9057 48.9957 64.3401 49.4624 64.8551 50.0416C65.7159 47.5315 66.9388 45.1903 68.4594 43.0824C52.5859 29.9765 36.4951 29.2846 29.0934 30.3385Z" fill="#F99D1B"/>
<path d="M21.0562 93.6152H23.7835V106.721H21.0562V93.6152Z" fill="#5E6062"/>
<path d="M26.6799 106.721V96.9946H29.3027V98.8289C29.7774 98.0807 30.3003 97.5497 30.8716 97.244C31.4428 96.9302 32.0221 96.7773 32.6174 96.7773C33.3817 96.7773 34.0414 97.0268 34.5885 97.5175C35.1437 98.0083 35.4172 98.7887 35.4172 99.8507V106.721H32.7944V100.494C32.7944 99.9633 32.7461 99.6013 32.6496 99.4162C32.553 99.2231 32.4163 99.0783 32.2554 98.9818C32.0864 98.8852 31.8933 98.837 31.6922 98.837C31.3301 98.837 30.952 98.9576 30.5658 99.199C30.1797 99.4404 29.7613 99.907 29.3027 100.599V106.721H26.6799Z" fill="#5E6062"/>
<path d="M45.2809 106.496C44.2108 106.794 43.2052 106.939 42.2799 106.939C40.6306 106.939 39.3916 106.448 38.563 105.466C37.7343 104.485 37.324 103.278 37.324 101.846C37.324 100.349 37.7584 99.1346 38.6354 98.1853C39.5123 97.252 40.7996 96.7773 42.4972 96.7773C43.2856 96.7773 44.1867 96.9061 45.2085 97.1555V99.0542C44.1545 98.7082 43.3097 98.5393 42.6822 98.5393C41.7892 98.5393 41.1375 98.8772 40.7272 99.5691C40.3169 100.253 40.1077 101.009 40.1077 101.838C40.1077 102.473 40.2284 103.069 40.4697 103.616C40.703 104.171 41.0329 104.573 41.4674 104.823C41.8857 105.08 42.3684 105.201 42.8994 105.201C43.6718 105.201 44.4683 105.024 45.2809 104.678V106.496Z" fill="#5E6062"/>
<path d="M47.4611 106.721V92.7383H50.0839V98.8286C50.5585 98.0804 51.0815 97.5494 51.6527 97.2437C52.2239 96.9299 52.8112 96.7771 53.3986 96.7771C54.1709 96.7771 54.8226 97.0265 55.3777 97.5172C55.9248 98.008 56.2064 98.7884 56.2064 99.8504V106.721H53.5836V100.494C53.5836 99.963 53.5273 99.601 53.4307 99.4159C53.3463 99.2346 53.2088 99.0831 53.0365 98.9815C52.8675 98.8849 52.6825 98.8367 52.4733 98.8367C52.1193 98.8367 51.7412 98.9574 51.355 99.1987C50.9688 99.4401 50.5424 99.9067 50.0839 100.599V106.721H47.4611Z" fill="#5E6062"/>
<path d="M60.6071 100.897H64.0666C64.0666 100.012 63.9138 99.376 63.6161 98.9979C63.3265 98.6117 62.9403 98.4186 62.4736 98.4186C61.9668 98.4186 61.5484 98.6358 61.2186 99.0542C60.8968 99.4725 60.6876 100.084 60.6071 100.897ZM66.6331 106.384C65.3941 106.754 64.2276 106.939 63.1173 106.939C62.0633 106.939 61.1462 106.746 60.3577 106.351C59.5693 105.957 58.9578 105.346 58.5314 104.509C58.109 103.665 57.8912 102.733 57.8958 101.79C57.8958 100.88 58.0728 100.036 58.4349 99.2714C58.7756 98.5248 59.3228 97.8911 60.0118 97.4451C60.7037 97.0026 61.5565 96.7773 62.5622 96.7773C63.8011 96.7773 64.7907 97.1716 65.5309 97.9681C66.263 98.7565 66.6331 100.229 66.6331 102.377H60.6554C60.7197 103.037 60.8646 103.552 61.0979 103.93C61.3393 104.3 61.6611 104.605 62.0633 104.823C62.4656 105.04 63.0046 105.153 63.6885 105.153C64.5574 105.153 65.547 104.951 66.6331 104.541V106.384Z" fill="#5E6062"/>
<path d="M73.1579 105.289C73.8981 105.289 74.4612 104.968 74.8394 104.316C75.2175 103.664 75.4025 102.844 75.4025 101.854C75.4025 100.872 75.2175 100.06 74.8394 99.4001C74.4612 98.7485 73.8981 98.4266 73.1579 98.4266C72.4177 98.4266 71.8626 98.7485 71.4845 99.4001C71.1063 100.06 70.9213 100.872 70.9213 101.854C70.9213 102.844 71.1063 103.664 71.4845 104.316C71.8626 104.968 72.4177 105.289 73.1579 105.289ZM73.1579 106.939C72.1039 106.939 71.2029 106.729 70.4546 106.319C69.7014 105.913 69.0959 105.28 68.7249 104.509C68.3306 103.712 68.1376 102.827 68.1376 101.854C68.1376 100.889 68.3307 100.012 68.7168 99.2151C69.1111 98.4186 69.6823 97.8152 70.4385 97.4049C71.1948 96.9865 72.1039 96.7773 73.1579 96.7773C74.2199 96.7773 75.129 96.9865 75.8853 97.4049C76.6415 97.8152 77.2128 98.4186 77.5989 99.2151C77.9932 100.012 78.1943 100.889 78.1943 101.854C78.1943 102.827 77.9932 103.712 77.5989 104.509C77.2047 105.305 76.6254 105.909 75.8772 106.319C75.121 106.729 74.2199 106.939 73.1579 106.939Z" fill="#5E6062"/>
<path d="M79.892 106.721V96.9946H82.5148V98.8289C82.9894 98.0807 83.5124 97.5497 84.0836 97.244C84.6549 96.9302 85.2341 96.7773 85.8214 96.7773C86.5938 96.7773 87.2535 97.0268 87.8006 97.5175C88.3557 98.0083 88.6293 98.7887 88.6293 99.8507V106.721H86.0065V100.494C86.0065 99.9633 85.9582 99.6013 85.8617 99.4162C85.7742 99.2343 85.634 99.083 85.4594 98.9818C85.2985 98.8852 85.1054 98.837 84.9042 98.837C84.5422 98.837 84.1641 98.9576 83.7779 99.199C83.3917 99.4404 82.9653 99.907 82.5148 100.599V106.721H79.892Z" fill="#5E6062"/>
<path d="M99.8122 101.476H103.883L101.848 96.2541L99.8122 101.476ZM95.7896 106.721L100.898 93.6152H103.626L108.727 106.721H105.927L104.559 103.221H99.1364L97.7687 106.721H95.7896Z" fill="#5E6062"/>
<path d="M110.094 96.9946H112.717V106.721H110.094V96.9946ZM110.094 93.165H112.717V95.3453H110.094V93.165Z" fill="#5E6062"/>
<path d="M115.501 106.721V96.9946H118.124V98.8289C118.437 98.2014 118.864 97.7026 119.411 97.3325C119.95 96.9624 120.553 96.7773 121.221 96.7773C121.382 96.7773 121.551 96.7934 121.712 96.8256V99.1668C121.342 99.0301 121.004 98.9657 120.674 98.9657C120.151 98.9657 119.684 99.0944 119.258 99.3599C118.832 99.6174 118.453 100.02 118.124 100.543V106.721H115.501Z" fill="#5E6062"/>
<path d="M125.871 104.179C126.233 104.589 126.571 104.871 126.885 105.024C127.207 105.169 127.529 105.241 127.85 105.241C128.55 105.241 129.065 104.895 129.403 104.203C129.741 103.511 129.91 102.715 129.91 101.822C129.91 100.897 129.749 100.164 129.427 99.6335C129.105 99.1025 128.639 98.837 128.043 98.837C127.673 98.837 127.295 98.9737 126.917 99.2392C126.539 99.5047 126.193 99.8748 125.871 100.333V104.179ZM123.248 110.229V96.9946H125.871V98.837C126.201 98.1531 126.627 97.6382 127.15 97.2922C127.673 96.9543 128.293 96.7773 129.001 96.7773C130.175 96.7773 131.093 97.2198 131.736 98.1048C132.38 98.9898 132.702 100.156 132.702 101.588C132.702 103.117 132.34 104.388 131.624 105.41C130.9 106.424 129.894 106.939 128.599 106.939C128.253 106.939 127.939 106.898 127.641 106.826C127.352 106.754 127.07 106.641 126.804 106.488C126.539 106.335 126.225 106.086 125.871 105.74V110.229H123.248Z" fill="#5E6062"/>
<path d="M139.122 105.289C139.87 105.289 140.434 104.968 140.804 104.316C141.182 103.664 141.367 102.844 141.367 101.854C141.367 100.872 141.182 100.06 140.804 99.4001C140.434 98.7485 139.87 98.4266 139.122 98.4266C138.39 98.4266 137.827 98.7485 137.449 99.4001C137.079 100.06 136.886 100.872 136.886 101.854C136.886 102.844 137.079 103.664 137.449 104.316C137.827 104.968 138.39 105.289 139.122 105.289ZM139.122 106.939C138.076 106.939 137.175 106.729 136.419 106.319C135.663 105.909 135.091 105.305 134.697 104.509C134.295 103.712 134.102 102.827 134.102 101.854C134.102 100.889 134.295 100.012 134.681 99.2151C135.075 98.4186 135.647 97.8152 136.403 97.4049C137.159 96.9865 138.068 96.7773 139.122 96.7773C140.192 96.7773 141.101 96.9865 141.85 97.4049C142.606 97.8152 143.177 98.4186 143.571 99.2151C143.965 100.012 144.159 100.889 144.159 101.854C144.159 102.827 143.965 103.712 143.563 104.509C143.169 105.305 142.598 105.909 141.841 106.319C141.085 106.729 140.184 106.939 139.122 106.939Z" fill="#5E6062"/>
<path d="M145.856 106.721V96.9946H148.479V98.8289C148.793 98.2014 149.227 97.7026 149.766 97.3325C150.313 96.9624 150.916 96.7773 151.584 96.7773C151.745 96.7773 151.906 96.7934 152.075 96.8256V99.1668C151.744 99.0387 151.392 98.9706 151.037 98.9657C150.514 98.9657 150.04 99.0944 149.613 99.3599C149.187 99.6174 148.809 100.02 148.479 100.543V106.721H145.856Z" fill="#5E6062"/>
<path d="M158.946 106.664C158.318 106.841 157.828 106.938 157.466 106.938C156.605 106.938 155.937 106.817 155.47 106.576C154.996 106.335 154.642 106.005 154.4 105.586C154.167 105.176 154.046 104.557 154.046 103.752V98.6351H152.952V96.9939H154.046V95.3445L156.677 95.0469V96.9939H158.761V98.6351H156.677V103.398C156.677 104.098 156.798 104.565 157.047 104.814C157.297 105.055 157.659 105.176 158.133 105.176C158.359 105.176 158.632 105.144 158.946 105.079V106.664Z" fill="#5E6062"/>
</svg>
