<svg width="180" height="140" viewBox="0 0 180 140" fill="none" xmlns="http://www.w3.org/2000/svg">
<rect width="180" height="140" fill="white"/>
<mask id="mask0_710_1344" style="mask-type:luminance" maskUnits="userSpaceOnUse" x="37" y="18" width="106" height="105">
<path d="M37 18H142.831V123H37V18Z" fill="white"/>
</mask>
<g mask="url(#mask0_710_1344)">
<path d="M90.2129 40.5098V108.247H88.6472V40.5098H90.2129Z" fill="#CE1126"/>
<path fill-rule="evenodd" clip-rule="evenodd" d="M78.8909 119.279C78.8909 119.279 75.3597 121.983 74.7783 122.066C74.1968 122.149 74.8614 122.773 74.8614 122.773C74.8614 122.773 78.6417 122.732 78.8909 122.857C79.1401 122.982 83.1282 119.903 83.1282 119.903C83.1282 119.903 79.8465 118.697 78.8909 119.279ZM99.8322 119.279C99.8322 119.279 103.364 121.983 103.945 122.066C104.527 122.149 103.862 122.773 103.862 122.773C103.862 122.773 100.081 122.732 99.8322 122.857C99.5829 122.982 95.5952 119.903 95.5952 119.903C95.5952 119.903 98.8765 118.697 99.8322 119.279Z" fill="#07A64F"/>
<path d="M48.0615 71.0805C48.0615 52.3465 61.919 36.725 80.3889 32.823C80.8119 32.7337 81.2273 33.0042 81.3167 33.4272C81.406 33.8501 81.1355 34.2654 80.7125 34.3548C62.8937 38.1192 49.6272 53.1584 49.6272 71.0805C49.6272 91.8235 67.4068 108.711 89.4314 108.711C111.456 108.711 129.236 91.8235 129.236 71.0805C129.236 53.15 115.957 38.1053 98.1254 34.3496C97.7023 34.2605 97.4316 33.8453 97.5207 33.4223C97.6098 32.9993 98.025 32.7287 98.448 32.8177C116.931 36.7107 130.801 52.3377 130.801 71.0805C130.801 92.7682 112.238 110.277 89.4314 110.277C66.6245 110.277 48.0616 92.7682 48.0615 71.0805Z" fill="#CE1126"/>
<path d="M121.201 71.8847C121.201 71.753 121.2 71.6215 121.198 71.4901H91.2457L113.776 91.5402C118.411 86.2203 121.201 79.3615 121.201 71.8847ZM68.8462 95.1884C74.3869 99.7322 81.5709 102.477 89.4304 102.477C98.6391 102.477 106.92 98.709 112.718 92.6945L89.4064 71.949L68.8462 95.1884ZM91.1977 69.9245H121.136C120.577 61.4098 116.396 53.8305 110.053 48.6122L91.1977 69.9245ZM66.0542 51.1674C61.2707 56.171 58.1988 62.7122 57.7246 69.9245H87.1313L66.0542 51.1674ZM89.4304 41.2922C80.7507 41.2922 72.8948 44.6401 67.1663 50.0612L89.2742 69.7356L108.817 47.646C103.456 43.6634 96.7352 41.2922 89.4304 41.2922ZM57.6604 71.8847C57.6604 80.6591 61.5014 88.5823 67.6606 94.166L87.7222 71.4901H57.6631C57.6614 71.6215 57.6604 71.753 57.6604 71.8847ZM122.766 71.8847C122.766 79.7746 119.824 86.9921 114.946 92.5815L119.595 96.7188L118.554 97.8884L113.888 93.7361C107.795 100.078 99.0862 104.043 89.4304 104.043C81.1869 104.043 73.6334 101.153 67.8086 96.3613L63.6976 101.008L62.525 99.971L66.6233 95.3385C60.146 89.4761 56.0948 81.1433 56.0948 71.8847C56.0948 71.753 56.0958 71.6215 56.0974 71.4901H48.8435V69.9245H56.156C56.6308 62.3 59.8564 55.3995 64.8838 50.1258L59.4049 45.2499L60.4457 44.0803L65.9927 49.0166C72.0186 43.2704 80.3015 39.7266 89.4304 39.7266C97.1212 39.7266 104.211 42.2418 109.858 46.4701L114.609 41.0989L115.782 42.1362L111.09 47.4393C117.753 52.9368 122.145 60.9266 122.705 69.9245H130.018V71.4901H122.763C122.765 71.6215 122.766 71.753 122.766 71.8847Z" fill="#CE1126"/>
<path d="M92.043 19.2139V24.4017H97.9835V28.91H92.043V37.8413H86.9585V28.91H81.0183V24.4016H86.9585V19.2139H92.043ZM87.8552 25.2982H81.9149V28.0136H87.8552V36.9447H91.1464V28.0136H97.0869V25.2983H91.1464V20.1105H87.8552V25.2982Z" fill="#CE1126"/>
<path fill-rule="evenodd" clip-rule="evenodd" d="M61.2258 109.595C59.6133 108.632 54.7312 98.7588 54.7312 98.7588C54.7312 98.7588 63.0744 104.475 63.8737 109.694C63.8737 109.694 61.4759 109.744 61.2258 109.595Z" fill="#07A64F"/>
<path fill-rule="evenodd" clip-rule="evenodd" d="M58.3818 105.558C58.3818 105.558 51.8515 104.111 50.7135 102.914C50.7135 102.914 51.5053 107.205 60.3114 109.949C60.3114 109.949 62.8344 110.349 61.3009 108.203C59.767 106.057 59.8661 106.008 58.3818 105.558ZM47.8836 89.3389C47.8836 89.3389 49.5358 92.7528 49.4859 94.0391C49.436 95.3254 49.9367 96.7598 49.9367 96.7598C49.9367 96.7598 43.1263 93.4451 42.1252 91.9608C42.1252 91.9608 44.2287 96.9584 49.6366 99.5307C49.6366 99.5307 53.342 102.053 53.893 102.498C53.893 102.498 54.3435 94.1872 47.8839 89.3389H47.8836Z" fill="#07A64F"/>
<path fill-rule="evenodd" clip-rule="evenodd" d="M44.2112 78.6719C44.2112 78.6719 43.4702 83 44.0136 85.1393C44.0136 85.1393 38.8771 82.1541 37.6919 79.4181C37.6919 79.4181 37.6919 83.7466 42.6802 88.8211C47.6687 93.8958 46.5818 92.8507 46.5818 92.8507C46.5818 92.8507 46.8783 85.3881 46.8288 84.2935C46.7792 83.1991 45.693 80.1645 44.2112 78.6719Z" fill="#07A64F"/>
<path fill-rule="evenodd" clip-rule="evenodd" d="M37.5876 65.374C37.5876 65.374 39.0434 69.7231 39.3984 70.2312C39.7535 70.7391 40.5241 73.4525 40.5241 73.4525C40.5241 73.4525 41.65 71.2724 42.335 70.3304C43.0201 69.3884 43.7052 68.0506 43.7052 67.4556C43.7052 67.4556 44.6356 72.2138 43.5096 75.3857C42.3836 78.5576 41.7475 81.5811 41.7475 81.5811C41.7475 81.5811 37.3425 75.0391 37.1959 72.0156C37.0492 68.9922 37.196 66.7123 37.5876 65.374Z" fill="#07A64F"/>
<path fill-rule="evenodd" clip-rule="evenodd" d="M42.8301 52.2139C42.8301 52.2139 43.2789 59.3787 42.8301 60.2189C42.8301 60.2189 47.5169 56.9576 47.6665 56.2659C47.6665 56.2659 47.2179 62.8384 42.8301 66.2972C42.8301 66.2972 41.4342 68.1254 41.4841 69.1136C41.4841 69.1136 36.847 61.8492 42.8301 52.2139Z" fill="#07A64F"/>
<path fill-rule="evenodd" clip-rule="evenodd" d="M49.6713 41.9639C49.6713 41.9639 48.0062 47.8439 48.0062 48.8814C48.0062 48.8814 52.5604 47.9919 53.3438 46.8555C53.3438 46.8555 50.6019 51.6977 47.2721 53.9211C43.9424 56.1445 44.0894 57.4784 44.0894 57.4784C44.0894 57.4784 42.4243 47.0529 49.6713 41.9639Z" fill="#07A64F"/>
<path fill-rule="evenodd" clip-rule="evenodd" d="M49.4663 46.9509C49.4663 46.9509 51.0054 37.8002 60.6865 36.7002C60.6865 36.7002 57.2606 44.4007 49.4663 46.9509ZM116.943 109.594C118.555 108.632 123.437 98.7582 123.437 98.7582C123.437 98.7582 115.095 104.474 114.295 109.693C114.295 109.693 116.693 109.744 116.943 109.594Z" fill="#07A64F"/>
<path fill-rule="evenodd" clip-rule="evenodd" d="M119.787 105.558C119.787 105.558 126.318 104.111 127.456 102.914C127.456 102.914 126.664 107.205 117.858 109.949C117.858 109.949 115.335 110.349 116.868 108.203C118.402 106.057 118.303 106.008 119.787 105.558ZM130.353 89.3389C130.353 89.3389 128.72 92.7528 128.769 94.0391C128.819 95.3254 128.324 96.7598 128.324 96.7598C128.324 96.7598 135.054 93.4451 136.044 91.9608C136.044 91.9608 133.965 96.9584 128.621 99.5307C128.621 99.5307 124.959 102.053 124.415 102.498C124.415 102.498 123.969 94.1872 130.353 89.3389Z" fill="#07A64F"/>
<path fill-rule="evenodd" clip-rule="evenodd" d="M133.997 78.6719C133.997 78.6719 134.749 83 134.197 85.1393C134.197 85.1393 139.412 82.1541 140.614 79.4181C140.614 79.4181 140.614 83.7466 135.551 88.8211C130.487 93.8958 131.59 92.8507 131.59 92.8507C131.59 92.8507 131.289 85.3881 131.339 84.2935C131.39 83.1991 132.493 80.1645 133.997 78.6719Z" fill="#07A64F"/>
<path fill-rule="evenodd" clip-rule="evenodd" d="M140.713 65.374C140.713 65.374 139.228 69.7231 138.866 70.2312C138.503 70.7391 137.718 73.4525 137.718 73.4525C137.718 73.4525 136.569 71.2724 135.871 70.3304C135.172 69.3884 134.473 68.0506 134.473 67.4556C134.473 67.4556 133.524 72.2138 134.673 75.3857C135.821 78.5576 136.47 81.5811 136.47 81.5811C136.47 81.5811 140.963 75.0389 141.112 72.0156C141.262 68.9922 141.112 66.7123 140.713 65.374Z" fill="#07A64F"/>
<path fill-rule="evenodd" clip-rule="evenodd" d="M135.394 52.2139C135.394 52.2139 134.954 59.3787 135.394 60.2189C135.394 60.2189 130.79 56.9576 130.643 56.2659C130.643 56.2659 131.084 62.8384 135.394 66.2972C135.394 66.2972 136.766 68.1254 136.717 69.1136C136.717 69.1136 141.272 61.8492 135.394 52.2139Z" fill="#07A64F"/>
<path fill-rule="evenodd" clip-rule="evenodd" d="M128.551 41.9639C128.551 41.9639 130.241 47.8439 130.241 48.8814C130.241 48.8814 125.62 47.9919 124.825 46.8555C124.825 46.8555 127.607 51.6977 130.986 53.9211C134.364 56.1445 134.216 57.4784 134.216 57.4784C134.216 57.4784 135.905 47.0529 128.551 41.9639Z" fill="#07A64F"/>
<path fill-rule="evenodd" clip-rule="evenodd" d="M128.702 46.9509C128.702 46.9509 127.162 37.8002 117.481 36.7002C117.481 36.7002 120.907 44.4007 128.702 46.9509Z" fill="#07A64F"/>
<path d="M85.5479 31.7029C85.6302 31.5847 85.7927 31.5555 85.911 31.6377C86.0293 31.72 86.0585 31.8825 85.9762 32.0008L83.7598 35.1868C83.6775 35.3051 83.515 35.3343 83.3968 35.252C83.2785 35.1698 83.2493 35.0073 83.3316 34.889L85.5479 31.7029ZM92.8163 31.6377C92.9346 31.5555 93.0971 31.5847 93.1794 31.7029L95.3957 34.889C95.478 35.0073 95.4488 35.1698 95.3305 35.252C95.2122 35.3343 95.0497 35.3051 94.9674 35.1868L92.7511 32.0008C92.6688 31.8825 92.698 31.72 92.8163 31.6377ZM85.7161 29.8666C85.818 29.7647 85.9832 29.7647 86.0851 29.8666C86.187 29.9685 86.187 30.1337 86.0851 30.2356L82.345 33.9757C82.2431 34.0776 82.0779 34.0776 81.976 33.9757C81.8741 33.8738 81.8741 33.7086 81.976 33.6067L85.7161 29.8666ZM92.6422 29.8666C92.7441 29.7647 92.9093 29.7647 93.0112 29.8666L96.7513 33.6067C96.8532 33.7086 96.8532 33.8738 96.7513 33.9757C96.6494 34.0776 96.4842 34.0776 96.3823 33.9757L92.6422 30.2356C92.5403 30.1337 92.5403 29.9685 92.6422 29.8666ZM84.2279 29.6984C84.3462 29.6161 84.5087 29.6453 84.591 29.7636C84.6732 29.8819 84.6441 30.0444 84.5258 30.1267L81.3398 32.3431C81.2215 32.4253 81.059 32.3962 80.9767 32.2779C80.8944 32.1596 80.9236 31.9971 81.0419 31.9148L84.2279 29.6984ZM94.1363 29.7636C94.2186 29.6453 94.3811 29.6161 94.4994 29.6984L97.6854 31.9148C97.8037 31.9971 97.8329 32.1596 97.7506 32.2779C97.6683 32.3962 97.5058 32.4253 97.3875 32.3431L94.2015 30.1267C94.0832 30.0444 94.054 29.8819 94.1363 29.7636ZM81.2507 21.1794C81.3307 21.0595 81.4927 21.0271 81.6126 21.1071L84.5216 23.0464C84.6415 23.1263 84.6739 23.2883 84.5939 23.4082C84.514 23.5281 84.352 23.5605 84.2321 23.4806L81.3231 21.5413C81.2032 21.4614 81.1708 21.2993 81.2507 21.1794ZM97.1147 21.1071C97.2346 21.0271 97.3966 21.0595 97.4765 21.1794C97.5565 21.2993 97.5241 21.4614 97.4042 21.5413L94.4952 23.4806C94.3753 23.5605 94.2133 23.5281 94.1333 23.4082C94.0534 23.2883 94.0858 23.1263 94.2057 23.0464L97.1147 21.1071ZM81.8277 19.3492C81.9239 19.2419 82.0889 19.2329 82.1962 19.3291L86.2133 22.9307C86.3206 23.0269 86.3295 23.1919 86.2334 23.2992C86.1372 23.4065 85.9721 23.4154 85.8649 23.3192L81.8477 19.7176C81.7405 19.6214 81.7315 19.4564 81.8277 19.3492ZM96.5311 19.3291C96.6384 19.2329 96.8034 19.2419 96.8996 19.3492C96.9958 19.4564 96.9868 19.6214 96.8796 19.7176L92.8624 23.3192C92.7551 23.4154 92.5901 23.4065 92.4939 23.2992C92.3977 23.1919 92.4067 23.0269 92.5139 22.9307L96.5311 19.3291ZM83.3876 18.2077C83.5022 18.1204 83.6659 18.1425 83.7532 18.2571L85.9696 21.166C86.0569 21.2807 86.0348 21.4444 85.9202 21.5317C85.8056 21.619 85.6419 21.5969 85.5545 21.4823L83.3382 18.5733C83.2509 18.4587 83.2729 18.295 83.3876 18.2077ZM94.9741 18.2571C95.0614 18.1425 95.2251 18.1204 95.3397 18.2077C95.4543 18.295 95.4764 18.4587 95.3891 18.5733L93.1727 21.4823C93.0854 21.5969 92.9217 21.619 92.8071 21.5317C92.6925 21.4444 92.6704 21.2807 92.7577 21.166L94.9741 18.2571Z" fill="#CE1126"/>
<path fill-rule="evenodd" clip-rule="evenodd" d="M134.582 102.359C134.651 102.405 134.716 102.439 134.781 102.473L134.76 102.521C137.168 103.602 139.149 104.881 139.088 105.313C139.081 105.356 138.952 105.483 138.436 105.555C137.495 105.684 136.129 105.729 134.683 105.776C134.325 105.788 133.99 105.8 133.667 105.812C133.867 105.057 134.424 102.955 134.582 102.359ZM129.56 107.83L130.063 108.158C131.224 108.91 132.668 109.846 132.556 110.267C132.508 110.447 132.055 110.883 128.891 111.055C128.688 111.066 128.484 111.067 128.28 111.072L129.224 107.581C129.333 107.674 129.451 107.759 129.56 107.83ZM50.4386 111.072C50.2346 111.067 50.0314 111.066 49.8274 111.055C46.664 110.883 46.2108 110.447 46.1631 110.268C46.0504 109.846 47.4947 108.91 48.6554 108.158L49.1593 107.831C49.2764 107.755 49.3885 107.672 49.4949 107.582L50.4386 111.072ZM39.6313 105.313C39.5691 104.881 41.551 103.602 43.959 102.521L43.9378 102.473C44.0024 102.439 44.0674 102.405 44.1372 102.359C44.2948 102.955 44.8519 105.057 45.0518 105.812C44.7288 105.8 44.3938 105.788 44.0355 105.776C42.5897 105.729 41.2242 105.685 40.2829 105.555C39.7666 105.483 39.6375 105.356 39.6313 105.313ZM43.9369 114.237C43.6857 114.021 43.5583 113.783 43.5583 113.53C43.5583 112.383 41.0096 107.799 40.0053 106.038C40.087 106.053 40.1609 106.064 40.2113 106.071C41.1796 106.205 42.5583 106.25 44.0182 106.297C45.8417 106.357 49.2356 106.468 49.3568 106.935C49.3568 106.936 49.3475 107.084 48.8728 107.394L48.3707 107.72C46.6739 108.82 45.4479 109.614 45.658 110.402C45.6767 110.471 45.7086 110.536 45.7486 110.598L45.6918 110.623C45.7076 110.66 46.6846 112.894 47.448 115.008C46.0725 115.127 44.6145 114.821 43.9369 114.237ZM129.858 118.187C129.851 118.313 129.782 118.427 129.648 118.537C128.324 119.623 122.35 119.317 119.445 118.912L118.211 118.732C114.963 118.25 109.526 117.442 105.742 118.118L103.596 118.511C99.3015 119.308 93.4197 120.399 89.3611 120.367C85.1469 120.333 79.0763 119.227 74.6436 118.42L72.9764 118.118C69.1927 117.442 63.7565 118.25 60.5075 118.732L59.2735 118.912C56.3688 119.317 50.3939 119.623 49.07 118.537C48.9363 118.427 48.8677 118.313 48.8606 118.187C48.7755 116.684 47.1402 112.692 46.46 111.089C47.1161 111.336 48.1907 111.489 49.7983 111.576C52.8382 111.741 55.79 111.252 58.9145 110.734C62.4533 110.148 66.1128 109.542 70.4577 109.742C74.7179 109.938 78.2979 110.582 81.4562 111.151C84.4263 111.686 86.9913 112.148 89.364 112.099C91.5965 112.053 93.9881 111.639 96.7578 111.16C100.044 110.593 103.77 109.948 108.26 109.742C112.605 109.542 116.264 110.148 119.803 110.734C122.928 111.252 125.879 111.741 128.919 111.576C130.526 111.489 131.602 111.336 132.258 111.089C131.578 112.692 129.942 116.684 129.858 118.187ZM135.16 113.53C135.16 113.783 135.032 114.021 134.782 114.237C134.103 114.821 132.646 115.127 131.27 115.008C132.034 112.895 133.011 110.66 133.026 110.623L132.97 110.599C133.01 110.536 133.042 110.471 133.06 110.402C133.271 109.614 132.044 108.82 130.347 107.72L129.845 107.394C129.371 107.084 129.362 106.936 129.362 106.934C129.483 106.468 132.877 106.357 134.7 106.297C136.16 106.25 137.539 106.205 138.507 106.071C138.557 106.064 138.631 106.053 138.713 106.038C137.708 107.799 135.16 112.383 135.16 113.53Z" fill="white"/>
<path d="M135.227 113.485C135.227 113.274 135.301 112.991 135.408 112.683C135.517 112.367 135.672 111.992 135.856 111.586C136.223 110.773 136.711 109.815 137.197 108.903C137.683 107.989 138.169 107.117 138.533 106.474C138.715 106.152 138.867 105.887 138.974 105.703C139.027 105.611 139.069 105.539 139.097 105.489C139.111 105.465 139.122 105.446 139.13 105.433C139.134 105.427 139.136 105.422 139.138 105.419C139.139 105.417 139.14 105.416 139.14 105.415C139.141 105.415 139.141 105.415 139.141 105.414L139.141 105.414C139.141 105.414 139.141 105.414 139.367 105.546C139.593 105.678 139.593 105.678 139.592 105.678L139.592 105.678C139.592 105.678 139.592 105.679 139.592 105.679C139.591 105.68 139.591 105.681 139.59 105.683C139.588 105.686 139.585 105.69 139.582 105.697C139.574 105.709 139.563 105.728 139.549 105.752C139.521 105.801 139.48 105.872 139.427 105.964C139.321 106.147 139.17 106.411 138.988 106.732C138.625 107.373 138.142 108.24 137.658 109.148C137.174 110.057 136.693 111.003 136.332 111.801C136.152 112.2 136.004 112.559 135.902 112.855C135.796 113.159 135.75 113.37 135.75 113.485C135.75 113.904 135.547 114.257 135.242 114.536C134.94 114.812 134.527 115.025 134.065 115.181C133.139 115.491 131.955 115.588 130.878 115.428L130.956 114.91C131.957 115.06 133.058 114.967 133.898 114.685C134.319 114.544 134.659 114.36 134.89 114.15C135.117 113.942 135.227 113.72 135.227 113.485Z" fill="black"/>
<path d="M50.9688 111.3L50.4616 111.427L49.3535 106.994L49.8608 106.867L50.9688 111.3ZM134.712 101.805C134.712 101.759 134.689 101.751 134.723 101.789C134.749 101.819 134.792 101.855 134.845 101.892C134.896 101.929 134.949 101.961 134.99 101.984C135.01 101.995 135.026 102.004 135.038 102.01C135.043 102.013 135.048 102.015 135.05 102.016L135.053 102.018C135.053 102.019 135.047 102.031 134.937 102.252C134.828 102.471 134.821 102.485 134.821 102.486L134.82 102.486C134.82 102.486 134.82 102.486 134.82 102.486L134.813 102.482C134.808 102.48 134.802 102.477 134.794 102.473C134.779 102.465 134.757 102.453 134.732 102.439C134.692 102.416 134.64 102.385 134.585 102.348L133.667 106.024L133.159 105.898L134.197 101.742L134.712 101.805Z" fill="#010101"/>
<path d="M42.9702 113.485C42.9702 113.37 42.9236 113.159 42.818 112.854C42.7156 112.559 42.5676 112.2 42.3875 111.801C42.0273 111.003 41.5454 110.057 41.0616 109.148C40.5782 108.24 40.0945 107.373 39.7316 106.732C39.5502 106.411 39.399 106.147 39.2933 105.964C39.2404 105.872 39.1989 105.801 39.1706 105.752C39.1565 105.728 39.1457 105.709 39.1384 105.697C39.1348 105.69 39.132 105.686 39.1301 105.683C39.1292 105.681 39.1286 105.68 39.1281 105.679C39.1279 105.679 39.1277 105.678 39.1276 105.678L39.1274 105.678C39.1274 105.678 39.1274 105.678 39.3531 105.546C39.5788 105.414 39.5788 105.414 39.5789 105.414L39.579 105.414C39.5791 105.415 39.5793 105.415 39.5795 105.415C39.58 105.416 39.5808 105.417 39.5817 105.419C39.5836 105.422 39.5864 105.427 39.5901 105.433C39.5975 105.446 39.6084 105.465 39.6227 105.489C39.6512 105.539 39.693 105.611 39.7462 105.703C39.8525 105.887 40.0045 106.152 40.1867 106.474C40.551 107.117 41.0369 107.989 41.5232 108.903C42.009 109.815 42.4968 110.773 42.8639 111.586C43.0473 111.992 43.2024 112.367 43.3121 112.683C43.4186 112.991 43.4932 113.274 43.4932 113.485C43.4932 113.72 43.6026 113.942 43.83 114.15C44.0605 114.36 44.4006 114.544 44.8212 114.685C45.6619 114.967 46.7627 115.06 47.7644 114.91L47.8415 115.428C46.7651 115.588 45.5802 115.491 44.6548 115.181C44.1924 115.025 43.7793 114.812 43.4774 114.536C43.1725 114.257 42.9702 113.904 42.9702 113.485Z" fill="black"/>
<path d="M45.5662 105.898L45.0589 106.024L44.1409 102.348C44.0859 102.385 44.034 102.416 43.9937 102.439C43.9683 102.453 43.9468 102.465 43.9315 102.473C43.9238 102.477 43.9176 102.48 43.9131 102.482L43.9053 102.486C43.9052 102.486 43.9051 102.486 43.7889 102.252C43.6792 102.031 43.6732 102.019 43.6729 102.018L43.6756 102.016C43.6782 102.015 43.6825 102.013 43.6881 102.01C43.6994 102.004 43.716 101.995 43.736 101.984C43.7768 101.961 43.8296 101.929 43.881 101.892C43.9342 101.855 43.9766 101.819 44.0032 101.789C44.0364 101.751 44.0136 101.759 44.0136 101.805L44.5286 101.742L45.5662 105.898Z" fill="#010101"/>
<path d="M134.994 101.983C134.995 101.984 134.996 101.984 134.998 101.985C135.001 101.986 135.006 101.989 135.013 101.992C135.026 101.998 135.046 102.007 135.071 102.018C135.121 102.041 135.194 102.075 135.285 102.117C135.468 102.203 135.726 102.326 136.024 102.475C136.62 102.773 137.385 103.176 138.05 103.596C138.383 103.806 138.695 104.023 138.95 104.235C139.2 104.444 139.417 104.665 139.534 104.888C139.594 105.002 139.637 105.132 139.63 105.271C139.623 105.416 139.563 105.547 139.459 105.653C139.27 105.847 138.943 105.952 138.527 106.01C137.697 106.124 136.545 106.174 135.345 106.215C134.139 106.256 132.879 106.289 131.81 106.366C131.276 106.405 130.796 106.454 130.399 106.521C129.996 106.588 129.701 106.67 129.523 106.761C129.435 106.807 129.397 106.845 129.384 106.864C129.378 106.873 129.378 106.872 129.38 106.881C129.386 106.903 129.409 106.955 129.49 107.039C129.569 107.121 129.69 107.218 129.863 107.331H129.863C130.584 107.803 131.308 108.257 131.875 108.672C132.16 108.879 132.414 109.083 132.613 109.28C132.809 109.474 132.973 109.68 133.051 109.896C133.136 110.129 133.119 110.374 132.954 110.589C132.804 110.785 132.553 110.928 132.236 111.041C131.596 111.27 130.533 111.427 128.936 111.513C125.712 111.689 122.587 111.128 119.263 110.58C115.932 110.031 112.384 109.491 108.27 109.68C104.144 109.869 100.647 110.431 97.5679 110.96C94.4959 111.487 91.8199 111.986 89.3684 112.037C86.9096 112.088 84.2285 111.587 81.1562 111.035C78.0757 110.481 74.58 109.869 70.4555 109.68C66.3419 109.491 62.7942 110.031 59.463 110.58C56.1388 111.128 53.0134 111.689 49.7891 111.513C48.1923 111.427 47.1297 111.27 46.4897 111.041C46.1721 110.928 45.9215 110.785 45.772 110.589C45.6068 110.374 45.5895 110.129 45.6743 109.896C45.7526 109.68 45.9166 109.474 46.1126 109.28C46.3123 109.083 46.5659 108.879 46.8505 108.672C47.418 108.257 48.1414 107.803 48.8629 107.331C49.0356 107.218 49.1562 107.121 49.2354 107.039C49.3166 106.955 49.3398 106.903 49.3453 106.881C49.3475 106.872 49.3481 106.873 49.3419 106.864C49.3287 106.845 49.291 106.807 49.2024 106.761C49.0247 106.67 48.7299 106.588 48.3266 106.521C47.9294 106.454 47.4493 106.405 46.9156 106.366C45.8473 106.289 44.587 106.256 43.3803 106.215C42.1804 106.174 41.0288 106.124 40.1982 106.01V106.01C39.7825 105.952 39.4556 105.847 39.2661 105.653C39.1627 105.547 39.1025 105.416 39.0954 105.271C39.0887 105.132 39.1312 105.002 39.1911 104.888C39.3083 104.665 39.5255 104.444 39.7753 104.235C40.0305 104.023 40.3428 103.806 40.6752 103.596C41.3403 103.176 42.1054 102.773 42.7012 102.475C42.9998 102.326 43.2572 102.203 43.4401 102.117C43.5315 102.075 43.6044 102.041 43.6545 102.018C43.6796 102.007 43.6991 101.998 43.7123 101.992C43.7188 101.989 43.7238 101.986 43.7273 101.985C43.729 101.984 43.7303 101.984 43.7312 101.983L43.7325 101.982C43.7326 101.982 43.7327 101.982 43.8397 102.221C43.9405 102.446 43.9464 102.459 43.9467 102.459L43.9466 102.46C43.9464 102.46 43.9461 102.46 43.9457 102.46C43.945 102.46 43.9438 102.461 43.9422 102.461C43.9391 102.463 43.9343 102.465 43.928 102.468C43.9154 102.474 43.8967 102.482 43.8723 102.493C43.8235 102.516 43.752 102.549 43.6622 102.591C43.4824 102.675 43.2289 102.796 42.9348 102.943C42.3453 103.237 41.5979 103.632 40.9543 104.038C40.6322 104.242 40.3409 104.445 40.1099 104.637C39.8736 104.834 39.7217 105.002 39.6537 105.131C39.621 105.194 39.6168 105.23 39.6176 105.245C39.618 105.254 39.6195 105.266 39.6403 105.287C39.6956 105.344 39.8497 105.426 40.1975 105.481L40.2698 105.492L40.4233 105.512C41.2096 105.608 42.268 105.654 43.3981 105.693C44.5968 105.734 45.872 105.766 46.9533 105.845C47.4944 105.884 47.9927 105.935 48.413 106.005C48.8271 106.074 49.189 106.166 49.4424 106.297C49.5694 106.363 49.691 106.449 49.7726 106.568C49.8613 106.697 49.8923 106.849 49.8526 107.008C49.816 107.154 49.7247 107.286 49.611 107.403C49.4952 107.522 49.3403 107.644 49.149 107.769C48.4143 108.249 47.7118 108.69 47.1589 109.094C46.8834 109.295 46.6532 109.481 46.4799 109.652C46.3029 109.827 46.2045 109.968 46.1658 110.074C46.1335 110.163 46.1444 110.216 46.187 110.271C46.2452 110.347 46.3819 110.448 46.6656 110.549C47.2283 110.75 48.2244 110.905 49.8174 110.991C52.9728 111.163 56.0365 110.615 59.3779 110.064C62.7122 109.515 66.3068 108.966 70.4796 109.157C74.6415 109.349 78.1667 109.966 81.2487 110.52C84.339 111.076 86.9624 111.564 89.3577 111.514C91.7602 111.464 94.3888 110.975 97.4794 110.445C100.563 109.915 104.086 109.349 108.247 109.157C112.419 108.966 116.014 109.515 119.348 110.064C122.689 110.615 125.753 111.163 128.908 110.991C130.501 110.905 131.497 110.75 132.06 110.549C132.344 110.448 132.48 110.347 132.539 110.271C132.581 110.216 132.592 110.163 132.56 110.074C132.521 109.968 132.423 109.827 132.246 109.652C132.073 109.481 131.842 109.295 131.567 109.094C131.014 108.69 130.312 108.249 129.577 107.769H129.577C129.385 107.644 129.23 107.522 129.115 107.403C129.001 107.286 128.91 107.154 128.873 107.008C128.834 106.849 128.864 106.697 128.953 106.568C129.035 106.449 129.156 106.363 129.283 106.297C129.537 106.166 129.899 106.074 130.313 106.005C130.733 105.935 131.231 105.884 131.772 105.845C132.854 105.766 134.129 105.734 135.328 105.693C136.533 105.651 137.657 105.602 138.456 105.492C138.855 105.437 139.026 105.348 139.085 105.287C139.106 105.266 139.107 105.254 139.108 105.245C139.109 105.23 139.104 105.194 139.072 105.131C139.004 105.002 138.852 104.834 138.616 104.637C138.385 104.445 138.093 104.242 137.771 104.038C137.127 103.632 136.38 103.237 135.791 102.943C135.496 102.796 135.243 102.675 135.063 102.591C134.973 102.549 134.902 102.516 134.853 102.493C134.829 102.482 134.81 102.474 134.797 102.468C134.791 102.465 134.786 102.463 134.783 102.461C134.781 102.461 134.78 102.46 134.78 102.46C134.779 102.46 134.779 102.46 134.779 102.46L134.779 102.459C134.779 102.459 134.785 102.445 134.886 102.221C134.993 101.982 134.993 101.982 134.993 101.982L134.994 101.983Z" fill="black"/>
<path d="M132.858 110.533C133.082 110.631 133.096 110.637 133.097 110.638V110.638C133.097 110.638 133.097 110.638 133.097 110.639L133.09 110.654C133.085 110.665 133.078 110.682 133.069 110.703C133.05 110.746 133.022 110.81 132.987 110.891C132.917 111.054 132.817 111.289 132.696 111.577C132.454 112.152 132.131 112.938 131.804 113.781C131.477 114.625 131.149 115.522 130.896 116.322C130.64 117.129 130.47 117.81 130.446 118.232C130.427 118.565 130.235 118.823 129.97 119.015C129.708 119.204 129.355 119.345 128.953 119.454C128.145 119.671 127.063 119.775 125.909 119.807C123.597 119.873 120.926 119.655 119.422 119.445C117.921 119.236 115.59 118.849 113.094 118.607C110.673 118.373 108.125 118.279 106.06 118.614L105.862 118.648C101.612 119.405 94.2166 120.944 89.3599 120.906H89.3598C84.8096 120.869 78.0304 119.583 73.6948 118.797L72.8617 118.648C70.7633 118.273 68.1283 118.365 65.63 118.607C63.1335 118.849 60.8029 119.236 59.3014 119.445C57.7973 119.655 55.1269 119.873 52.8142 119.807C51.6603 119.775 50.5782 119.671 49.7709 119.454C49.3685 119.346 49.0153 119.204 48.7539 119.015C48.4887 118.823 48.2967 118.565 48.2779 118.232C48.2539 117.81 48.0836 117.129 47.8279 116.322C47.5748 115.522 47.2461 114.625 46.9194 113.781C46.593 112.938 46.2697 112.152 46.0278 111.577C45.9069 111.289 45.8065 111.054 45.7363 110.891C45.7012 110.81 45.6736 110.746 45.6549 110.703C45.6455 110.682 45.6384 110.665 45.6336 110.654L45.6269 110.639C45.6267 110.638 45.6265 110.638 45.6265 110.638V110.638C45.6273 110.637 45.6414 110.631 45.8658 110.533C46.1051 110.428 46.1052 110.428 46.1052 110.428L46.1053 110.428C46.1054 110.428 46.1054 110.428 46.1056 110.429C46.1059 110.43 46.1065 110.431 46.1071 110.432C46.1084 110.435 46.1102 110.439 46.1126 110.445C46.1176 110.456 46.1249 110.473 46.1344 110.495C46.1534 110.538 46.1811 110.602 46.2164 110.684C46.2871 110.848 46.3882 111.085 46.5098 111.374C46.7529 111.953 47.0782 112.744 47.407 113.593C47.7355 114.441 48.0686 115.35 48.3264 116.164C48.5817 116.969 48.7718 117.707 48.7999 118.203L48.8019 118.226C48.8161 118.345 48.8879 118.466 49.0604 118.591C49.2482 118.727 49.5321 118.848 49.9069 118.949C50.6541 119.15 51.6874 119.253 52.829 119.285C55.1072 119.349 57.748 119.134 59.2293 118.928C60.7132 118.721 63.0688 118.33 65.5796 118.087C68.0886 117.844 70.782 117.746 72.9534 118.133C77.2381 118.897 84.5674 120.344 89.3641 120.383C94.1577 120.421 101.481 118.898 105.77 118.133C107.942 117.746 110.635 117.844 113.144 118.087C115.655 118.33 118.01 118.721 119.494 118.928C120.975 119.134 123.616 119.349 125.895 119.285C127.036 119.252 128.069 119.15 128.817 118.949C129.191 118.848 129.475 118.727 129.663 118.591C129.847 118.458 129.917 118.329 129.924 118.203L129.931 118.107C129.976 117.615 130.158 116.919 130.397 116.164C130.655 115.35 130.988 114.441 131.316 113.593C131.645 112.744 131.971 111.953 132.214 111.374C132.335 111.085 132.436 110.848 132.507 110.684C132.542 110.602 132.57 110.538 132.589 110.495C132.599 110.473 132.606 110.456 132.611 110.445C132.613 110.439 132.615 110.435 132.616 110.432C132.617 110.431 132.618 110.429 132.618 110.429C132.618 110.428 132.618 110.428 132.618 110.428V110.428C132.618 110.428 132.618 110.428 132.858 110.533Z" fill="black"/>
<path d="M129.371 106.994L128.263 111.427L127.756 111.3L128.864 106.867L129.371 106.994Z" fill="#010101"/>
<path fill-rule="evenodd" clip-rule="evenodd" d="M88.5288 55.9541H90.0526V63.1573H88.5288V55.9541Z" fill="#995037"/>
<path fill-rule="evenodd" clip-rule="evenodd" d="M50.6591 112.887L53.3455 113.032L53.297 113.956L51.7338 113.871L51.6922 114.656L53.1628 114.736L53.1146 115.653L51.644 115.574L51.5594 117.181L50.4365 117.121L50.6591 112.887ZM54.6673 116.254L54.4841 117.259L53.3455 117.32L54.33 112.965L55.7912 112.887L57.2241 117.114L56.0367 117.177L55.7267 116.197L54.6673 116.254ZM55.5332 115.353L55.307 114.592C55.2344 114.353 55.1381 114.007 55.0647 113.756L55.0525 113.757C55.0042 114.014 54.9604 114.374 54.9112 114.62L54.772 115.393L55.5332 115.353ZM58.1938 112.61C58.0619 113.235 57.8602 113.843 57.5925 114.423L56.9471 114.549C57.0878 113.94 57.1824 113.353 57.2108 112.774L58.1938 112.61ZM59.7441 115.733L59.6502 116.733L58.4708 116.904L59.0781 112.553L60.5917 112.333L62.488 116.321L61.2583 116.5L60.8415 115.573L59.7441 115.733ZM60.5589 114.767L60.2504 114.046C60.1519 113.82 60.0185 113.492 59.9181 113.253L59.9054 113.255C59.8797 113.511 59.8691 113.868 59.8414 114.112L59.7704 114.881L60.5589 114.767ZM63.7165 116.212L61.9339 112.089L63.1616 111.952L63.7809 113.582C63.9751 114.058 64.1442 114.544 64.2877 115.038L64.3001 115.037C64.3494 114.5 64.4141 113.992 64.4896 113.522L64.7607 111.773L65.951 111.64L65.0368 116.064L63.7165 116.212ZM67.7636 114.785L67.546 115.77L66.3666 115.796L67.5073 111.535L69.0208 111.502L70.3838 115.706L69.1541 115.734L68.8607 114.76L67.7636 114.785ZM68.6844 113.922L68.4719 113.167C68.4034 112.93 68.3137 112.586 68.2447 112.336H68.2321C68.1749 112.589 68.1196 112.942 68.062 113.183L67.8962 113.94L68.6844 113.922ZM73.8823 114.524L72.3621 114.276L72.231 115.032L73.9334 115.31L73.777 116.212L70.9378 115.749L71.6497 111.64L74.4009 112.089L74.2458 112.985L72.6317 112.722L72.5166 113.386L74.0367 113.634L73.8823 114.524ZM78.2795 112.797L77.5835 116.904L76.4787 116.718L77.175 112.61L78.2795 112.797ZM80.9191 113.164L82.0069 113.32L81.5712 116.573L83.1278 116.796L83.0019 117.735L80.3574 117.356L80.9191 113.164ZM86.4163 116.395L84.9375 116.255L84.8692 117.048L86.5252 117.204L86.4439 118.151L83.6819 117.89L84.0529 113.58L86.7294 113.832L86.6486 114.772L85.0784 114.624L85.0181 115.321L86.4971 115.461L86.4163 116.395ZM90.5274 117.243L90.3615 118.211L89.2228 118.29L90.1323 114.097L91.5938 113.995L93.1014 118.021L91.9144 118.103L91.5868 117.17L90.5274 117.243ZM91.3784 116.364L91.1383 115.639C91.0614 115.411 90.9591 115.081 90.8818 114.842L90.8691 114.842C90.8255 115.09 90.7878 115.436 90.743 115.672L90.6169 116.416L91.3784 116.364ZM93.6214 114.657L92.5341 114.796L92.4088 113.867L95.7469 113.441L95.8719 114.37L94.7658 114.511L95.1995 117.728L94.055 117.874L93.6214 114.657ZM97.275 113.16L97.6775 115.517C97.7853 116.146 98.0641 116.468 98.5058 116.393C98.9536 116.318 99.1157 115.955 99.0028 115.294L98.6001 112.938L99.7264 112.749L100.118 115.043C100.337 116.327 99.8012 117.083 98.6253 117.281C97.4747 117.475 96.7644 116.953 96.5358 115.614L96.1489 113.35L97.275 113.16ZM102.052 115.671L101.997 116.688L100.859 116.904L101.29 112.473L102.751 112.195L104.737 116.166L103.55 116.392L103.112 115.469L102.052 115.671ZM102.808 114.662L102.483 113.943C102.379 113.718 102.237 113.39 102.131 113.152L102.119 113.154C102.103 113.415 102.105 113.776 102.088 114.024L102.047 114.806L102.808 114.662ZM106.754 114.643C107.014 114.767 107.438 114.886 107.858 114.877C108.246 114.869 108.432 114.736 108.427 114.527C108.422 114.324 108.232 114.211 107.752 114.061C107.031 113.831 106.552 113.453 106.539 112.838C106.522 112.106 107.136 111.526 108.202 111.503C108.71 111.492 109.07 111.576 109.354 111.694L109.136 112.584C108.843 112.46 108.528 112.4 108.21 112.408C107.865 112.415 107.68 112.542 107.684 112.727C107.689 112.936 107.916 113.017 108.453 113.202C109.219 113.457 109.572 113.849 109.585 114.427C109.602 115.141 109.045 115.768 107.809 115.795C107.302 115.807 106.803 115.682 106.562 115.564L106.754 114.643ZM111.505 114.88L111.181 115.831L110.001 115.73L111.605 111.64L113.118 111.769L114.018 116.073L112.788 115.968L112.602 114.974L111.505 114.88ZM112.518 114.127L112.389 113.357C112.346 113.115 112.295 112.766 112.253 112.511L112.24 112.51C112.155 112.753 112.062 113.096 111.978 113.328L111.73 114.059L112.518 114.127ZM118.384 115.24C118.441 114.76 118.51 114.2 118.611 113.548L118.592 113.545C118.383 114.079 118.12 114.681 117.917 115.12L117.293 116.519L116.425 116.39L116.285 114.885C116.247 114.416 116.208 113.776 116.199 113.191L116.187 113.189C116.076 113.775 115.961 114.393 115.873 114.868L115.594 116.356L114.572 116.205L115.433 112.056L116.929 112.277L117.042 113.443C117.085 113.925 117.127 114.502 117.139 115.024L117.163 115.028C117.355 114.536 117.576 113.966 117.763 113.543L118.234 112.471L119.698 112.687L119.298 116.904L118.215 116.744L118.384 115.24ZM124.127 115.023C124.061 116.404 123.205 117.242 121.903 117.178C120.594 117.113 119.921 116.078 119.978 114.888C120.038 113.641 120.893 112.688 122.183 112.752C123.542 112.818 124.182 113.877 124.127 115.023ZM121.175 114.928C121.137 115.73 121.457 116.244 122.002 116.271C122.547 116.297 122.893 115.772 122.929 115.002C122.965 114.264 122.666 113.688 122.121 113.661C121.582 113.634 121.213 114.139 121.175 114.928ZM125.813 116.176L125.587 117.164L124.408 117.181L125.584 112.909L127.097 112.887L128.425 117.125L127.195 117.142L126.91 116.161L125.813 116.176ZM126.74 115.317L126.535 114.556C126.468 114.317 126.381 113.971 126.314 113.719L126.302 113.72C126.242 113.973 126.184 114.328 126.124 114.568L125.952 115.329L126.74 115.317Z" fill="#CE1126"/>
<path fill-rule="evenodd" clip-rule="evenodd" d="M90.8 20.4932V25.6531H96.7027V27.6783H90.8V36.5618H88.199V27.6783H82.2964V25.6531H88.199V20.4932H90.8Z" fill="#0B295E"/>
<path d="M91.0628 20.2314V25.3914H96.9656V27.9385H91.0628V36.8219H87.94V27.9385H82.0374V25.3914H87.94V20.2314H91.0628ZM88.4617 25.9133H82.5592V27.4166H88.4617V36.3H90.5409V27.4166H96.4437V25.9133H90.5409V20.7533H88.4617V25.9133Z" fill="white"/>
<mask id="mask1_710_1344" style="mask-type:luminance" maskUnits="userSpaceOnUse" x="58" y="44" width="62" height="66">
<path d="M58.1929 44.1807H119.974V109.979H58.1929V44.1807Z" fill="white"/>
</mask>
<g mask="url(#mask1_710_1344)">
<mask id="mask2_710_1344" style="mask-type:luminance" maskUnits="userSpaceOnUse" x="58" y="44" width="62" height="66">
<path d="M58.1929 44.1807H119.974V109.979H58.1929V44.1807Z" fill="white"/>
</mask>
<g mask="url(#mask2_710_1344)">
<mask id="mask3_710_1344" style="mask-type:luminance" maskUnits="userSpaceOnUse" x="58" y="44" width="62" height="66">
<path d="M58.1929 44.1807H119.974V109.979H58.1929V44.1807Z" fill="white"/>
</mask>
<g mask="url(#mask3_710_1344)">
<path d="M89.0695 45.0593C93.8217 44.9874 99.0603 47.2006 102.594 47.444C106.127 47.6878 110.998 45.1125 110.998 45.1125L118.869 51.4876C118.869 51.4876 111.848 58.9256 114.189 68.701C116.529 78.4762 127.166 93.7768 102.488 101.64C92.0639 104.615 89.1067 109.29 89.1067 109.29H89.1027C89.1027 109.29 86.1454 104.615 75.7212 101.64C51.0439 93.7768 61.6807 78.4762 64.0205 68.701C66.3607 58.9256 59.3403 51.4876 59.3403 51.4876L67.2118 45.1127C67.2118 45.1127 72.0819 47.6878 75.6156 47.4441C79.1491 47.2003 84.3881 44.9874 89.1403 45.0595L89.0695 45.0593Z" fill="white"/>
<path d="M120.016 51.4113L119.437 52.0246L119.437 52.0245C119.437 52.0249 119.436 52.0255 119.435 52.0263C119.433 52.0286 119.429 52.0328 119.424 52.0387C119.413 52.0505 119.396 52.0693 119.373 52.095C119.327 52.1464 119.258 52.2253 119.169 52.3304C118.992 52.5405 118.738 52.8551 118.439 53.2643C117.84 54.0836 117.063 55.2767 116.357 56.7642C114.944 59.7417 113.833 63.8582 114.949 68.5194L115.004 68.7462C115.592 71.0977 116.627 73.7123 117.562 76.6275C118.509 79.579 119.321 82.7555 119.251 85.9051C119.181 89.0823 118.214 92.2252 115.636 95.0753C113.074 97.9065 108.971 100.395 102.725 102.385L102.714 102.388L102.703 102.392C97.5774 103.854 94.32 105.726 92.3589 107.205C91.3777 107.945 90.7183 108.589 90.3102 109.039C90.1061 109.264 89.9646 109.44 89.877 109.556C89.8333 109.613 89.803 109.656 89.7851 109.682C89.7761 109.695 89.7701 109.704 89.7672 109.708L89.7667 109.709C89.7666 109.709 89.7664 109.71 89.7663 109.71C89.766 109.71 89.7658 109.711 89.7656 109.711C89.7652 109.711 89.765 109.712 89.765 109.712L89.537 110.072H88.672L88.4441 109.712C88.4441 109.712 88.4439 109.711 88.4435 109.711C88.4433 109.711 88.4431 109.71 88.4428 109.71C88.4427 109.71 88.4424 109.709 88.4423 109.709C88.4422 109.709 88.4421 109.709 88.4419 109.708C88.439 109.704 88.433 109.695 88.424 109.682C88.4061 109.656 88.3757 109.613 88.3319 109.556C88.2444 109.44 88.1029 109.264 87.8988 109.039C87.4907 108.589 86.8313 107.945 85.85 107.205C83.889 105.726 80.6316 103.855 75.5066 102.392L75.4951 102.388L75.4837 102.385C69.2382 100.395 65.135 97.9065 62.5734 95.0753C59.9946 92.2252 59.0278 89.0822 58.9577 85.9051C58.8883 82.7555 59.7 79.579 60.6469 76.6275C61.6124 73.6182 62.6833 70.9293 63.2602 68.5195C64.376 63.8584 63.265 59.7417 61.8517 56.7642C61.1457 55.2767 60.3686 54.0837 59.7695 53.2644C59.4703 52.8553 59.2165 52.5406 59.0394 52.3304C58.9509 52.2253 58.8817 52.1464 58.8357 52.095C58.8127 52.0693 58.7955 52.0505 58.7847 52.0387C58.7793 52.0328 58.7755 52.0286 58.7733 52.0263C58.7722 52.0251 58.7714 52.0244 58.7712 52.0241L58.1929 51.4113L67.1207 44.1808L67.5767 44.4221H67.577C67.5773 44.4223 67.5779 44.4225 67.5787 44.4229C67.5804 44.4239 67.5833 44.4255 67.5872 44.4275C67.5953 44.4317 67.6079 44.4382 67.6248 44.4469C67.6587 44.4643 67.7098 44.4905 67.7769 44.524C67.911 44.591 68.1085 44.6873 68.357 44.8027C68.8546 45.0337 69.554 45.3393 70.3594 45.637C71.998 46.2427 73.9683 46.7746 75.5616 46.6647L75.7203 46.6526C77.3722 46.5123 79.4109 45.944 81.7347 45.3746C84.064 44.8039 86.627 44.2494 89.0957 44.2779C91.57 44.2466 94.1396 44.8024 96.4746 45.3746C98.8732 45.9624 100.968 46.5489 102.648 46.6646C104.241 46.7745 106.211 46.2426 107.85 45.6369C108.655 45.3392 109.354 45.0336 109.852 44.8025C110.1 44.6872 110.298 44.5908 110.432 44.5239C110.499 44.4904 110.55 44.4642 110.584 44.4468C110.601 44.438 110.614 44.4316 110.622 44.4274C110.626 44.4253 110.629 44.4237 110.63 44.4228C110.631 44.4224 110.632 44.4222 110.632 44.422L111.088 44.1807L120.016 51.4113ZM89.1386 45.8408V45.8416L89.0678 45.8414L89.0677 45.8409C86.8191 45.8165 84.4298 46.3239 82.1068 46.8931C79.8146 47.4547 77.5234 48.0965 75.6692 48.2245C73.7288 48.3583 71.4973 47.7244 69.8174 47.1034C68.9636 46.7878 68.2245 46.4648 67.6986 46.2206C67.5531 46.1531 67.4237 46.0913 67.3124 46.0373L60.4552 51.5907C60.6201 51.795 60.8155 52.0462 61.0315 52.3416C61.6756 53.2224 62.5074 54.4998 63.264 56.0937C64.7522 59.2292 65.9664 63.6291 64.8361 68.6441L64.7805 68.8834C64.1875 71.3611 63.0513 74.2505 62.1355 77.105C61.2011 80.0174 60.4572 82.9904 60.5207 85.8706C60.5836 88.7234 61.4385 91.4909 63.7327 94.0266C66.0427 96.5797 69.8609 98.9511 75.948 100.892C81.24 102.404 84.6695 104.356 86.7915 105.957C87.8526 106.757 88.5841 107.468 89.0563 107.988C89.0727 108.006 89.0887 108.024 89.1045 108.042C89.1203 108.024 89.1364 108.006 89.1528 107.988C89.625 107.468 90.3564 106.757 91.4174 105.957C93.5392 104.356 96.9684 102.404 102.26 100.892C108.348 98.9514 112.166 96.5799 114.476 94.0266C116.771 91.4909 117.625 88.7234 117.688 85.8706C117.752 82.9904 117.008 80.0174 116.073 77.105C115.158 74.2505 114.021 71.3611 113.428 68.8834C112.204 63.7692 113.433 59.279 114.945 56.0937C115.701 54.4998 116.533 53.2224 117.177 52.3416C117.393 52.0463 117.589 51.795 117.753 51.5907L110.897 46.0371C110.785 46.091 110.656 46.1529 110.51 46.2205C109.984 46.4647 109.245 46.7877 108.392 47.1033C106.712 47.7243 104.48 48.358 102.54 48.2242C100.686 48.0965 98.3946 47.4548 96.1024 46.8931C93.7784 46.3236 91.388 45.8159 89.1386 45.8408Z" fill="#0B295E"/>
<path d="M69.1245 58.5831H75.7621C74.1022 58.5831 72.442 57.1455 72.442 57.1455C72.442 57.1455 70.7835 58.5831 69.1244 58.5831H69.1245ZM66.5254 58.5831H69.1245C67.6922 58.5831 66.2624 57.5148 65.8962 57.2213L66.5254 58.5831ZM75.7621 58.5831H82.4011C80.7414 58.5831 79.0815 57.1455 79.0815 57.1455C79.0815 57.1455 77.4217 58.5831 75.7621 58.5831ZM82.4011 58.5831H89.0399C87.3804 58.5831 85.721 57.1455 85.721 57.1455C85.721 57.1455 84.0612 58.5831 82.4011 58.5831ZM102.042 58.5831H108.68C107.019 58.5831 105.36 57.1455 105.36 57.1455C105.36 57.1455 103.701 58.5831 102.042 58.5831ZM108.679 58.5831H111.493L111.948 57.1875C111.669 57.4166 110.176 58.5831 108.679 58.5831ZM95.5431 58.5758C93.9294 58.4982 92.3618 57.1455 92.3618 57.1455C92.3618 57.1455 90.7008 58.5831 89.0399 58.5831H102.042C100.382 58.5831 98.7212 57.1455 98.7212 57.1455C98.7212 57.1455 97.1547 58.4982 95.5431 58.5758ZM111.251 60.3263C109.591 60.3263 108.826 58.8887 108.826 58.8887C108.826 58.8887 107.166 60.3263 105.507 60.3263C103.847 60.3263 102.187 58.8887 102.187 58.8887C102.187 58.8887 100.528 60.3263 98.8694 60.3263C97.2094 60.3263 95.5485 58.8887 95.5485 58.8887C95.5485 58.8887 93.8886 60.3263 92.2287 60.3263H92.5132C90.8511 60.3263 89.1893 58.8887 89.1893 58.8887C89.1893 58.8887 87.5285 60.3263 85.8676 60.3263C84.2081 60.3263 82.5486 58.8887 82.5486 58.8887C82.5486 58.8887 80.8891 60.3263 79.2289 60.3263C77.5691 60.3263 75.9092 58.8887 75.9092 58.8887C75.9092 58.8887 74.2493 60.3263 72.5899 60.3263C70.93 60.3263 69.2698 58.8887 69.2698 58.8887C69.2698 58.8887 68.5913 60.3263 66.9324 60.3263H111.251ZM111.251 63.8417C109.591 63.8417 108.826 62.4041 108.826 62.4041C108.826 62.4041 107.166 63.8417 105.507 63.8417C103.847 63.8417 102.187 62.4041 102.187 62.4041C102.187 62.4041 100.528 63.8417 98.8694 63.8417C97.2094 63.8417 95.5485 62.4041 95.5485 62.4041C95.5485 62.4041 93.8886 63.8417 92.2287 63.8417H92.5132C90.8511 63.8417 89.1893 62.4041 89.1893 62.4041C89.1893 62.4041 87.5285 63.8417 85.8676 63.8417C84.2081 63.8417 82.5486 62.4041 82.5486 62.4041C82.5486 62.4041 80.8891 63.8417 79.2289 63.8417C77.5691 63.8417 75.9092 62.4041 75.9092 62.4041C75.9092 62.4041 74.2493 63.8417 72.5899 63.8417C70.93 63.8417 69.2698 62.4041 69.2698 62.4041C69.2698 62.4041 68.5913 63.8417 66.9324 63.8417H111.251ZM69.2819 61.9033H75.8945C74.241 61.9033 72.5867 60.4658 72.5867 60.4658C72.5867 60.4658 70.9342 61.9033 69.2819 61.9033ZM67.7314 61.8382L69.2819 61.9033C67.8548 61.9033 66.4304 60.8352 67.1043 60.4764L67.7314 61.8382ZM75.8945 61.9033H82.5085C80.855 61.9033 79.2016 60.4658 79.2016 60.4658C79.2016 60.4658 77.5476 61.9033 75.8945 61.9033ZM82.5085 61.9033H89.1229C87.4695 61.9033 85.8159 60.4658 85.8159 60.4658C85.8159 60.4658 84.1631 61.9033 82.5085 61.9033ZM102.076 61.9033H108.689C107.035 61.9033 105.381 60.4658 105.381 60.4658C105.381 60.4658 103.729 61.9033 102.076 61.9033ZM108.689 61.9033H110.648L111.101 60.5077C111.668 60.737 110.181 61.9033 108.689 61.9033ZM95.6016 61.8959C93.9943 61.8183 92.432 60.4656 92.432 60.4656C92.432 60.4656 90.7778 61.9032 89.1231 61.9032L102.076 61.9033C100.423 61.9033 98.7679 60.4656 98.7679 60.4656C98.7679 60.4656 97.207 61.8186 95.6016 61.8959Z" fill="#07A64F"/>
<path d="M111.253 60.1358V60.3964H66.6736V60.1358H111.253ZM111.253 58.5732V58.8338H66.6736V58.5732H111.253Z" fill="#07A64F"/>
<path d="M110.551 63.5889V63.8452H67.3765V63.5889H110.551ZM110.551 61.6357V61.8922H67.3765V61.6357H110.551Z" fill="#07A64F"/>
<path d="M110.191 64.6536C110.191 59.2505 112.3 54.8272 114.036 52.0983C112.591 50.9278 111.588 50.1161 110.484 49.2212C108.431 50.0756 105.225 51.1504 102.354 50.9525C100.566 50.8291 98.6168 50.3394 96.6004 49.8342C94.0331 49.1908 91.445 48.5453 89.1481 48.5757H89.067C86.7698 48.5456 84.1819 49.1911 81.6143 49.8343C79.5978 50.3397 77.6488 50.8291 75.8601 50.9525C72.9892 51.1505 69.7835 50.0755 67.7305 49.2212L64.1782 52.0984C65.9147 54.8276 68.0235 59.2505 68.0235 64.6536C68.0235 66.1534 67.8612 67.728 67.4831 69.3614L67.4459 69.5195C67.076 71.0651 66.5457 72.6561 65.9765 74.3087L65.7306 75.0207C64.4889 78.6094 63.2521 82.1963 63.2521 85.4989C63.2521 87.085 63.5387 88.5928 64.242 89.9948C65.9162 93.3317 70.069 96.1407 76.7434 98.2748C82.908 100.042 86.7852 102.403 89.1075 104.295C91.4297 102.403 95.307 100.042 101.471 98.2748C108.146 96.1406 112.298 93.3318 113.973 89.995C114.676 88.5929 114.962 87.0851 114.962 85.4989C114.962 82.1966 113.725 78.6093 112.484 75.0206C111.824 73.1117 111.192 71.2859 110.768 69.5196L110.768 69.5194C110.364 67.83 110.191 66.2022 110.191 64.6536ZM110.973 64.6536C110.973 66.1433 111.139 67.7098 111.529 69.3374L111.568 69.4991C111.98 71.1715 112.58 72.9077 113.223 74.7651C114.452 78.3197 115.744 82.0394 115.744 85.4989C115.744 87.1808 115.44 88.8135 114.672 90.3453C112.854 93.9673 108.452 96.8577 101.745 99.0077L101.746 99.0092L101.655 99.0371L101.654 99.0356C95.3813 100.838 91.5568 103.254 89.359 105.102L89.1075 105.313L88.856 105.102C86.658 103.254 82.8337 100.838 76.5607 99.0356L76.5602 99.0371L76.4692 99.0092L76.4696 99.0077C69.7623 96.8579 65.3606 93.9675 63.5433 90.3455C62.7749 88.8137 62.4705 87.1809 62.4705 85.4989C62.4705 82.039 63.7619 78.3198 64.9919 74.7651C65.6551 72.8474 66.2736 71.0596 66.6857 69.3375L66.7216 69.1851C67.0858 67.6119 67.2419 66.0965 67.2419 64.6536C67.2419 59.2585 65.0558 54.8587 63.3328 52.2296L63.1391 51.934L67.603 48.3188L67.8193 48.4106C69.8415 49.2701 73.0289 50.3642 75.8064 50.1726C77.5124 50.0549 79.3897 49.5859 81.4244 49.0759C83.9651 48.4395 86.6582 47.7624 89.0772 47.7941H89.1378C91.5565 47.7621 94.2499 48.4393 96.7905 49.0759C98.8252 49.5858 100.702 50.055 102.408 50.1726C105.186 50.364 108.373 49.2702 110.395 48.4106L110.611 48.3188L110.794 48.4666C112.041 49.4771 113.124 50.3537 114.801 51.7116L115.075 51.934L114.882 52.2296C113.159 54.8584 110.973 59.2585 110.973 64.6536Z" fill="#0B295E"/>
<path d="M89.6363 55.5353C89.6363 55.5353 91.7224 54.1897 93.7642 55.7957C93.7642 55.7957 92.4602 53.9728 90.7223 54.0163C90.7223 54.0163 92.2865 52.3239 95.1107 53.6691C95.1107 53.6691 93.5458 51.6292 90.4613 52.5406C90.4613 52.5406 92.938 51.0649 94.502 51.8895C94.502 51.8895 92.6774 50.6306 91.4608 51.1082C91.4608 51.1082 91.722 49.9365 92.8514 49.3723C92.8514 49.3723 90.0273 49.8061 89.3319 50.8477C89.3319 50.8477 88.854 49.7625 87.5068 49.2852C87.5068 49.2852 88.2022 50.6743 87.9416 51.3253C87.9416 51.3253 85.5517 48.9815 83.3357 50.1102C83.3357 50.1102 82.7276 50.6309 82.7276 51.2821C82.7276 51.2821 84.4654 50.3273 85.4213 51.4123C85.4213 51.4123 83.249 51.1519 82.0322 53.3653C82.0322 53.3653 85.2041 52.0635 87.2897 53.4088C87.2897 53.4088 84.161 53.452 83.8136 55.7091C83.8136 55.7091 86.6547 54.2384 87.898 55.4054C87.898 55.4054 88.8108 56.4468 89.6363 55.5353Z" fill="#07A64F"/>
<path d="M88.2861 56.0186H89.8703V63.1173H88.2861V56.0186Z" fill="#995037"/>
<path d="M89.9393 54.9277C89.9393 55.4845 89.2009 55.9356 89.2009 55.9356C89.2009 55.9356 88.4622 55.4845 88.4622 54.9277C88.4622 54.3708 88.7929 53.9199 89.2009 53.9199C89.6088 53.9199 89.9393 54.371 89.9393 54.9277Z" fill="#F6C906"/>
<path d="M89.2482 56.0128L89.2008 56.0418L89.1531 56.0128L89.2008 55.9349L89.2482 56.0128ZM89.8479 54.9271C89.8479 54.6661 89.7703 54.4334 89.6493 54.2683C89.5283 54.1032 89.3687 54.0105 89.2008 54.0105C89.0328 54.0105 88.873 54.1032 88.7519 54.2683C88.6309 54.4334 88.5532 54.666 88.5532 54.9271C88.5532 55.1671 88.7146 55.3964 88.8954 55.5749C88.9838 55.6622 89.0726 55.7332 89.1394 55.7823C89.1629 55.7997 89.1837 55.8142 89.2006 55.8257C89.2175 55.8142 89.2384 55.7997 89.262 55.7823C89.3288 55.7332 89.4175 55.6622 89.5058 55.5749C89.6865 55.3964 89.8479 55.1671 89.8479 54.9271ZM90.0304 54.9271C90.0304 55.2439 89.8225 55.5185 89.6341 55.7047C89.5378 55.7997 89.4418 55.8764 89.3701 55.9292C89.3342 55.9557 89.3041 55.9763 89.2829 55.9904C89.2723 55.9974 89.2639 56.003 89.258 56.0067C89.255 56.0086 89.2527 56.0101 89.2511 56.0111C89.2503 56.0116 89.2497 56.012 89.2492 56.0123C89.249 56.0124 89.2487 56.0125 89.2485 56.0126L89.2484 56.0127L89.2008 55.9349L89.1531 56.0127L89.1523 56.0123C89.1519 56.012 89.1512 56.0116 89.1504 56.0111C89.1488 56.0101 89.1465 56.0086 89.1435 56.0067C89.1376 56.003 89.1292 55.9974 89.1185 55.9904C89.0973 55.9762 89.0672 55.9557 89.0313 55.9292C88.9595 55.8764 88.8636 55.7997 88.7673 55.7047C88.5788 55.5185 88.3709 55.2439 88.3708 54.9271C88.3708 54.6314 88.4586 54.36 88.6049 54.1605C88.7511 53.961 88.9608 53.8281 89.2008 53.8281C89.4408 53.8281 89.6503 53.961 89.7965 54.1605C89.9427 54.3601 90.0304 54.6314 90.0304 54.9271Z" fill="#754438"/>
<path d="M88.8979 56.6205C88.6333 57.1106 87.769 57.1575 87.769 57.1575C87.769 57.1575 87.3331 56.4101 87.5977 55.92C87.8624 55.4302 88.3677 55.19 88.7269 55.3832C89.0859 55.5767 89.1623 56.1304 88.8979 56.6205Z" fill="#F6C906"/>
<path d="M88.0884 55.3135C88.2979 55.2139 88.5285 55.1921 88.7307 55.2835L88.7707 55.3032L88.8093 55.3258C88.9968 55.4443 89.1055 55.6489 89.1372 55.8786C89.171 56.1236 89.1192 56.4039 88.9788 56.6641C88.8283 56.9429 88.5148 57.0862 88.2605 57.1607C88.1306 57.1988 88.0098 57.2207 87.9216 57.2332C87.8774 57.2395 87.8411 57.2434 87.8157 57.2458C87.8029 57.247 87.7929 57.2477 87.7859 57.2482C87.7824 57.2485 87.7797 57.2486 87.7778 57.2488C87.7768 57.2488 87.776 57.2489 87.7755 57.2489H87.7745L87.7188 57.252L87.6908 57.2039V57.2037H87.6907L87.6905 57.2036C87.6905 57.2034 87.6904 57.2031 87.6903 57.2029C87.69 57.2024 87.6896 57.2018 87.6892 57.201C87.6882 57.1993 87.6868 57.1969 87.6851 57.1938C87.6817 57.1878 87.6769 57.179 87.6709 57.1677C87.6589 57.1452 87.6422 57.1127 87.6232 57.0724C87.5851 56.9919 87.5371 56.8789 87.4975 56.7496C87.42 56.4963 87.3676 56.1559 87.5181 55.8771V55.8769C87.6587 55.6168 87.8648 55.4198 88.0884 55.3135ZM88.6843 55.4638C88.5364 55.3843 88.3517 55.3901 88.1666 55.4781C87.9815 55.5661 87.8026 55.734 87.6785 55.9636C87.5644 56.1749 87.5976 56.4534 87.6719 56.6963C87.7082 56.815 87.7527 56.9195 87.7881 56.9944C87.8006 57.0209 87.812 57.0435 87.8213 57.0617C87.8417 57.0595 87.867 57.0567 87.896 57.0526C87.9781 57.041 88.0899 57.0206 88.2092 56.9857C88.4531 56.9142 88.7041 56.7888 88.8182 56.5775C88.9422 56.3477 88.9845 56.1062 88.9564 55.9034C88.9284 55.7007 88.832 55.5434 88.6843 55.4638Z" fill="#754438"/>
<path d="M90.4843 55.6064C90.9283 55.9428 90.8422 56.8032 90.8422 56.8032C90.8422 56.8032 90.0357 57.1185 89.5917 56.782C89.1476 56.4458 88.9877 55.9099 89.2342 55.5852C89.4807 55.2603 90.0403 55.2699 90.4843 55.6064Z" fill="#F6C906"/>
<path d="M89.7885 55.258C90.036 55.2622 90.3053 55.3563 90.5411 55.535C90.7937 55.7264 90.8872 56.0579 90.9219 56.3204C90.9396 56.4545 90.9429 56.5771 90.9417 56.666C90.9411 56.7106 90.9395 56.747 90.9379 56.7725C90.9371 56.7852 90.9363 56.7953 90.9357 56.8023C90.9355 56.8057 90.9352 56.8085 90.9351 56.8104C90.935 56.8113 90.9348 56.8121 90.9348 56.8127V56.8136L90.9291 56.8692L90.8772 56.8895H90.877L90.8769 56.8897C90.8767 56.8897 90.8765 56.8897 90.8762 56.8898C90.8757 56.89 90.8749 56.8903 90.874 56.8906C90.8723 56.8913 90.8697 56.8924 90.8665 56.8936C90.8599 56.896 90.8504 56.8994 90.8383 56.9036C90.8142 56.912 90.7796 56.9235 90.7367 56.9361C90.6513 56.9612 90.5322 56.9913 90.3981 57.0105C90.1357 57.048 89.7909 57.0475 89.5383 56.8561C89.3025 56.6776 89.1392 56.4438 89.0684 56.2068C88.9976 55.9698 89.0183 55.7225 89.1634 55.5314C89.3084 55.3402 89.5411 55.2538 89.7885 55.258ZM89.7853 55.4403C89.5804 55.4368 89.4101 55.508 89.3086 55.6416C89.2073 55.7752 89.1846 55.9584 89.2432 56.1546C89.3017 56.3507 89.4403 56.5531 89.6485 56.7107H89.6486C89.84 56.8557 90.1206 56.8659 90.3723 56.8299C90.4954 56.8123 90.6057 56.7846 90.6853 56.7611C90.7134 56.7529 90.7375 56.7449 90.7569 56.7384C90.7579 56.718 90.759 56.6928 90.7593 56.6636C90.7604 56.5808 90.7573 56.4673 90.7411 56.3442C90.7078 56.0925 90.6225 55.8255 90.431 55.6804C90.2228 55.5226 89.9902 55.4438 89.7853 55.4403Z" fill="#754438"/>
<path d="M101.63 98.6353C101.606 98.6417 101.585 98.6492 101.561 98.6556C101.554 98.6582 101.546 98.6606 101.539 98.6632L101.63 98.6353ZM112.852 74.893C112.19 72.9797 111.565 71.173 111.147 69.4286C110.879 68.3071 110.707 67.1651 110.631 66.0147L110.529 65.8687C93.9959 68.2078 89.1416 62.3574 89.1416 62.3574C79.6656 69.6473 67.6941 65.8687 67.6941 65.8687C67.6625 65.8597 67.6276 65.8558 67.5952 65.8486C67.5242 67.0552 67.3466 68.2532 67.0647 69.4286C66.6472 71.173 66.0219 72.9799 65.36 74.893C64.1244 78.4648 62.8601 82.1177 62.8601 85.4991C62.8601 87.1331 63.1554 88.7034 63.8915 90.1702C65.6414 93.6574 69.9346 96.5124 76.6514 98.6556C82.983 100.473 86.8626 102.916 89.1064 104.802C91.3499 102.916 95.2299 100.473 101.561 98.6556C108.278 96.5124 112.571 93.6574 114.321 90.1702C115.057 88.7034 115.352 87.1331 115.352 85.4991C115.352 82.1179 114.088 78.4648 112.852 74.893ZM76.6731 98.6632L76.651 98.6556C76.6274 98.6492 76.6057 98.6417 76.5819 98.6353L76.6731 98.6632Z" fill="#0B295E"/>
<path d="M74.7305 78.262L75.9907 74.238L77.2755 78.2551L81.4337 78.1641L78.069 80.6708L79.3782 84.5483L76.0143 82.1711L72.6638 84.568L73.951 80.6827L70.571 78.1956L74.7305 78.262ZM87.885 68.1494L89.1451 64.125L90.4299 68.1422L94.5883 68.0511L91.2236 70.5576L92.5329 74.4354L89.1688 72.058L85.8185 74.4552L87.1055 70.5699L83.7256 68.0827L87.885 68.1494ZM87.885 94.4298L89.1451 90.4057L90.4299 94.4228L94.5883 94.3318L91.2236 96.8383L92.5329 100.716L89.1688 98.3389L85.8185 100.736L87.1055 96.8505L83.7256 94.3633L87.885 94.4298ZM103.106 75.1669L104.366 71.1425L105.65 75.1596L109.809 75.0687L106.444 77.5751L107.754 81.4529L104.389 79.0754L101.039 81.4729L102.326 77.5873L98.9464 75.1001L103.106 75.1669ZM94.7379 84.0642L95.7359 80.8761L96.7537 84.0585L100.048 83.9863L97.3819 85.9721L98.4197 89.0437L95.7548 87.1607L93.1005 89.0593L94.1204 85.9818L91.4431 84.0113L94.7379 84.0642Z" fill="white"/>
</g>
</g>
</g>
</g>
</svg>
