<svg width="180" height="140" viewBox="0 0 180 140" fill="none" xmlns="http://www.w3.org/2000/svg">
<rect width="180" height="140" fill="white"/>
<path d="M109.934 31.3192L104.198 28.0057L96.0698 32.6991V23.3123L90.3314 20L84.594 23.3123V32.6991L76.4659 28.0057L70.7285 31.3192V37.9428L78.8578 42.6373L70.7285 47.3307V53.9553L76.4659 57.2677L90.3314 49.2619L104.198 57.2677L109.934 53.9553V47.3307L101.806 42.6373L109.934 37.9428V31.3192Z" fill="#724598"/>
<path d="M82.2022 67.6182V60.8554L76.4649 57.542L70.7275 60.8554V83.4916L90.3315 94.8097L109.935 83.4618V60.8554L104.198 57.542L98.4619 60.8554V67.6182L90.3326 62.9138L82.2022 67.6182ZM98.3371 78.649L90.3304 83.2828L82.3249 78.649L90.3304 74.0164L98.3371 78.649Z" fill="#00AEBB"/>
<path d="M116.833 115.273V111.826H121.718V109.657H111.969V104.495H121.52V102.327H109.52L109.527 110.728C109.527 111.335 110.017 111.824 110.623 111.824H114.384V115.272H107.554V117.437H123.661V115.272L116.833 115.273Z" fill="#001655"/>
<path d="M94.174 109.227H104.781V101.55H102.334V103.445H95.4611V101.55H93.0139V108.067C93.0139 108.708 93.5332 109.227 94.174 109.227ZM95.4611 105.401H102.334V107.27H95.4611V105.401Z" fill="#001655"/>
<path d="M106.953 112.599V110.642H90.8459V112.599H97.676V114.056H92.6623V116.014H102.69V119.589H105.137V114.056H100.123V112.599H106.953Z" fill="#001655"/>
<path d="M86.4509 111.714H88.8981V101.55H86.4509V105.271H84.0093V107.438H86.4509V111.714Z" fill="#001655"/>
<path d="M89.214 116.132C89.214 118.267 86.4299 119.999 82.837 119.999C79.2441 119.999 76.46 118.267 76.46 116.132C76.46 113.995 79.2441 112.264 82.837 112.264C86.4299 112.264 89.214 113.995 89.214 116.132ZM82.837 114.397C80.6472 114.397 79.0408 115.174 79.0408 116.132C79.0408 117.09 80.6472 117.866 82.837 117.866C85.0268 117.866 86.6332 117.09 86.6332 116.132C86.6332 115.174 85.0257 114.397 82.837 114.397Z" fill="#001655"/>
<path d="M79.5586 108.227C79.805 108.614 80.2491 109.126 81.0435 109.669L83.5227 111.344L84.7082 109.531L82.219 107.851C81.3219 107.264 80.7828 106.263 80.7828 105.192V104.455H84.1889V102.288H80.7828V100.692H78.2936V102.288H74.9283V104.454H78.2936V105.191C78.2936 106.263 77.982 107.116 76.8982 107.85L74.4102 109.53L75.5956 111.343L78.0737 109.668C78.8681 109.126 79.3123 108.613 79.5586 108.227Z" fill="#001655"/>
<path d="M73.1072 111.497V109.33H57V111.497H63.83V112.335C60.847 112.678 58.676 114.246 58.676 116.133C58.676 118.269 61.4602 120 65.0531 120C68.6459 120 71.4301 118.269 71.4301 116.133C71.4301 114.247 69.258 112.678 66.2761 112.335V111.497H73.1072ZM68.8492 116.132C68.8492 117.089 67.2428 117.866 65.0531 117.866C62.8633 117.866 61.2569 117.089 61.2569 116.132C61.2569 115.174 62.8633 114.397 65.0531 114.397C67.2428 114.397 68.8492 115.174 68.8492 116.132Z" fill="#001655"/>
<path d="M66.275 100.691V102.287H71.0401V104.453H66.275V104.533C66.275 105.136 66.5468 105.528 68.32 106.122L71.4997 107.044L70.8899 109.089L67.5224 108.114C66.0938 107.711 65.4431 107.229 65.01 106.802C64.5769 107.229 63.9262 107.709 62.4976 108.114L59.1301 109.089L58.5203 107.044L61.6999 106.122C63.4732 105.528 63.7461 105.135 63.7461 104.533V104.453H58.981V102.288H63.7461V100.693L66.275 100.691Z" fill="#001655"/>
</svg>
