<svg width="180" height="140" viewBox="0 0 180 140" fill="none" xmlns="http://www.w3.org/2000/svg">
<rect width="180" height="140" fill="white"/>
<path d="M115.16 106.866V106.895C115.162 107.233 115.078 107.565 114.917 107.861C114.755 108.163 114.538 108.432 114.276 108.654C114 108.889 113.682 109.069 113.338 109.185C112.968 109.313 112.58 109.377 112.188 109.376C111.768 109.376 111.377 109.312 111.016 109.185C110.67 109.07 110.35 108.89 110.073 108.654C109.813 108.434 109.6 108.164 109.446 107.861C109.294 107.562 109.214 107.231 109.213 106.895V106.865C109.215 106.522 109.294 106.202 109.446 105.899C109.6 105.596 109.81 105.329 110.073 105.104C110.332 104.878 110.649 104.701 111.016 104.571C111.393 104.443 111.79 104.378 112.188 104.381C112.59 104.381 112.974 104.446 113.338 104.571C113.681 104.689 113.999 104.87 114.276 105.104C114.539 105.329 114.754 105.596 114.917 105.899C115.08 106.202 115.16 106.522 115.16 106.866ZM116.852 105.357L116.671 105.086C116.419 104.735 116.109 104.43 115.754 104.183C115.304 103.858 114.767 103.6 114.152 103.418C113.545 103.237 112.879 103.144 112.188 103.144C111.479 103.144 110.812 103.239 110.206 103.423C109.6 103.612 109.068 103.876 108.618 104.21C108.174 104.517 107.805 104.92 107.539 105.389C107.287 105.843 107.156 106.354 107.157 106.873C107.157 107.416 107.288 107.917 107.539 108.371C107.793 108.828 108.157 109.223 108.618 109.551C109.1 109.899 109.637 110.164 110.206 110.335C110.85 110.524 111.517 110.618 112.188 110.613C112.879 110.613 113.539 110.521 114.152 110.341C114.767 110.158 115.304 109.902 115.755 109.578C116.114 109.323 116.424 109.019 116.671 108.673L116.852 108.4L117.035 108.036C117.181 107.679 117.258 107.292 117.258 106.883C117.258 106.466 117.181 106.08 117.035 105.719L116.852 105.357Z" fill="#4A4949"/>
<path d="M57.0383 109.849H59.0371V95H57.0383V109.849Z" fill="#4A4949"/>
<path d="M117.16 99.8035C117.236 99.2974 117.274 98.7793 117.274 98.2525V95.3304H106.985V96.6528H115.274V98.2338C115.274 98.7653 115.239 99.2814 115.17 99.7895C115.111 100.25 115.006 100.703 114.857 101.142H112.053V98.6089H110.086V101.142H105.26V102.463H119.158V101.142H116.874C116.988 100.754 117.083 100.31 117.16 99.8035Z" fill="#4A4949"/>
<path d="M72.5375 99.6521C72.6157 99.1474 72.6525 98.6306 72.6525 98.1018V95.3281H62.3633V96.6511H70.6536V98.0865C70.6536 98.6119 70.6195 99.1307 70.5473 99.6381C70.4902 100.099 70.3858 100.553 70.2358 100.993H60.6345V102.312H74.535V100.993H72.2527C72.3664 100.606 72.4606 100.16 72.5375 99.6521Z" fill="#4A4949"/>
<path d="M80.0734 102.759C79.8434 102.759 79.6415 102.691 79.4597 102.555C79.2859 102.414 79.197 102.231 79.197 101.998V99.7762H85.8601V102.759H80.0734ZM83.5163 104.082H87.857V95.3306H85.8601V98.4579H79.197V95.3306H77.1981V102.145C77.1981 102.698 77.3826 103.156 77.749 103.527C78.1173 103.892 78.5485 104.082 79.0446 104.082H81.5007V106.766H75.2734V108.084H89.7409V106.766H83.5163V104.082Z" fill="#4A4949"/>
<path d="M94.9956 105.998H101.092V108.53H95.8887C95.646 108.53 95.4368 108.474 95.2603 108.365C95.1769 108.316 95.1082 108.246 95.0616 108.161C95.015 108.076 94.9922 107.981 94.9956 107.884V105.998ZM92.9927 107.901C92.9927 108.452 93.1611 108.915 93.4794 109.289C93.8049 109.662 94.1953 109.85 94.6519 109.85H103.089V104.677H92.9927V107.901Z" fill="#4A4949"/>
<path d="M64.5372 105.449H70.6308V108.529H65.4317C65.1904 108.529 64.9811 108.473 64.8013 108.364C64.7179 108.315 64.6493 108.245 64.6028 108.16C64.5563 108.076 64.5336 107.98 64.5372 107.884V105.449ZM62.541 107.9C62.541 108.451 62.7015 108.915 63.0237 109.288C63.3479 109.661 63.737 109.849 64.1936 109.849H72.631V104.126H62.541V107.9Z" fill="#4A4949"/>
<path d="M126.443 102.05C125.853 101.027 125.566 99.8451 125.579 98.5001V95.3286H123.483V98.468C123.474 99.1091 123.388 99.7468 123.227 100.367C123.077 100.951 122.849 101.512 122.551 102.035C122.277 102.523 121.927 102.963 121.513 103.34C121.115 103.702 120.653 103.987 120.151 104.179V105.568C120.63 105.503 121.097 105.363 121.533 105.154C122.01 104.936 122.449 104.669 122.854 104.363C123.245 104.068 123.597 103.724 123.901 103.34C124.195 102.961 124.391 102.589 124.495 102.216C124.581 102.579 124.776 102.948 125.072 103.323C125.388 103.712 125.75 104.061 126.15 104.363C126.565 104.678 127.016 104.943 127.493 105.154C127.941 105.364 128.418 105.503 128.908 105.568V104.179C127.856 103.784 127.033 103.074 126.443 102.05Z" fill="#4A4949"/>
<path d="M132.714 99.672V95.0004H130.72V109.85H132.714V100.995H135V99.672H132.714Z" fill="#4A4949"/>
<path d="M53.6823 102.512H52.263C52.4054 101.925 52.477 101.295 52.4683 100.614C52.4802 99.975 52.4117 99.3372 52.2644 98.7154H53.6823V98.8992V102.512ZM49.97 103.404C49.6398 104.074 49.23 104.411 48.7339 104.411C48.2386 104.411 47.8274 104.074 47.4985 103.404C47.1669 102.731 47.0011 101.801 47.0011 100.614C47.0011 99.4801 47.1749 98.5643 47.5139 97.865C47.8602 97.1651 48.264 96.8181 48.7339 96.8181C49.2052 96.8181 49.611 97.1651 49.9533 97.865C50.2956 98.5643 50.4661 99.4801 50.4661 100.614C50.4661 101.801 50.3016 102.731 49.97 103.404ZM53.6823 97.3937H51.7603C51.6712 97.2268 51.5705 97.0664 51.4588 96.9137C51.1446 96.4815 50.7384 96.1244 50.2695 95.8681C49.7968 95.6176 49.2689 95.4896 48.7339 95.4958C48.1777 95.4958 47.6643 95.6188 47.2024 95.8681C46.7319 96.1224 46.3251 96.4798 46.0124 96.9137C45.6795 97.3556 45.4288 97.8911 45.2516 98.5262C45.0725 99.1573 44.9902 99.8539 45.0023 100.614C44.9852 101.304 45.0646 101.993 45.2382 102.66C45.4121 103.287 45.6641 103.827 45.993 104.279C46.2938 104.727 46.6995 105.096 47.1749 105.352C47.6369 105.602 48.1577 105.73 48.7339 105.731C49.3135 105.73 49.829 105.602 50.2956 105.352C50.7699 105.095 51.1751 104.726 51.4769 104.279C51.5765 104.141 51.6714 103.99 51.7523 103.835H53.6823V109.85H55.6825V95.0004H53.6823V97.3937Z" fill="#4A4949"/>
<path d="M96.163 101.918C95.792 102.337 95.3414 102.548 94.8053 102.548C94.2684 102.548 93.8165 102.337 93.4482 101.918C93.0778 101.498 92.8973 100.961 92.8973 100.302C92.8973 99.6425 93.0778 99.105 93.4482 98.6858C93.8165 98.2667 94.2684 98.0541 94.8053 98.0541C95.3414 98.0541 95.792 98.2667 96.163 98.6858C96.53 99.105 96.7166 99.6425 96.7166 100.302C96.7166 100.961 96.53 101.498 96.163 101.918ZM101.092 99.129H98.5196C98.4888 99.0355 98.4494 98.9399 98.4113 98.8496C98.2175 98.4183 97.9313 98.0349 97.5729 97.7265C97.4905 97.6552 97.4054 97.5871 97.3176 97.5226H99.1821V96.2002H95.8889V95.0016H93.7751V96.2002H90.4846V97.5226H92.293C92.206 97.5873 92.1214 97.6553 92.0396 97.7265C91.6808 98.0349 91.3942 98.4183 91.1999 98.8496C90.9974 99.2888 90.8971 99.7715 90.8971 100.302C90.8971 100.829 90.9974 101.312 91.1999 101.752C91.3937 102.184 91.6804 102.567 92.0396 102.875C92.4042 103.192 92.826 103.437 93.2824 103.595C93.7715 103.768 94.2867 103.854 94.8053 103.851C95.3428 103.851 95.8495 103.765 96.3288 103.595C96.7857 103.437 97.208 103.193 97.5729 102.875C97.9317 102.567 98.218 102.184 98.4113 101.752C98.5931 101.355 98.6853 100.92 98.7054 100.449H101.092V103.851H103.09V95.0016H101.092V99.129Z" fill="#4A4949"/>
<path d="M122.461 34.2461V47.2822H127.5V28.9999H52.5V47.2822H57.5338V34.2461H122.461Z" fill="#D51224"/>
<path d="M57.5338 81.4424V68.4139H52.5V86.6924H127.5V68.4139H122.461V81.4424H57.5338Z" fill="#1E3371"/>
<path d="M97.8274 66.3415H102.178V49.3232H97.8274V66.3415Z" fill="#1E3371"/>
<path d="M76.4297 49.3237H70.5118L61.9873 57.2429V49.3237H57.5332V66.3418H61.9873V58.406L70.5118 66.3418H76.5026L67.5752 57.8353L76.5026 49.3237H76.4297Z" fill="#1E3371"/>
<path d="M113.287 53.7223H122.461V49.3232H113.499C111.074 49.3232 109.008 50.105 107.437 51.6558C105.854 53.2181 105.087 55.2322 105.087 57.8284C105.087 60.4195 105.854 62.4297 107.437 63.9971C109.008 65.5518 111.074 66.3311 113.499 66.3311H122.461V61.9396H113.287C110.885 61.9396 109.448 59.9614 109.448 57.8284C109.448 55.7018 110.885 53.7223 113.287 53.7223Z" fill="#1E3371"/>
<path d="M87.3259 61.9711H81.9006V53.7294H87.3259C89.7225 53.7294 91.1518 55.7166 91.1518 57.8483C91.1518 59.9801 89.7225 61.9711 87.3259 61.9711ZM87.1033 49.3239L77.5437 49.3226V66.374H87.1033C89.5383 66.374 91.5996 65.5922 93.1684 64.0337C94.7512 62.4599 95.5176 60.4522 95.5176 57.8483C95.5176 55.2444 94.7512 53.2304 93.1684 51.6617C91.5996 50.1057 89.5383 49.3239 87.1033 49.3239Z" fill="#1E3371"/>
</svg>
