<svg width="180" height="140" viewBox="0 0 180 140" fill="none" xmlns="http://www.w3.org/2000/svg">
<rect width="180" height="140" fill="white"/>
<path d="M52.9453 90.2609C52.9453 92.0225 51.5177 93.4502 49.7563 93.4502C47.9948 93.4502 46.5672 92.0225 46.5672 90.2609C46.5672 88.4993 47.9948 87.0716 49.7563 87.0716C50.5255 87.0716 51.2216 87.3553 51.7727 87.8089V84.6401C51.1417 84.4138 50.4648 84.2842 49.7563 84.2842C46.4557 84.2842 43.78 86.9601 43.78 90.2609C43.78 93.5617 46.4557 96.2376 49.7563 96.2376C53.0568 96.2376 55.7325 93.5617 55.7325 90.2609C55.7325 89.4547 55.5708 88.6863 55.2813 87.9845H51.9856C52.5765 88.5629 52.9453 89.3677 52.9453 90.2609Z" fill="#58595B"/>
<path d="M82.9419 104.864H94.2547V109.079H97.1672V102.281H82.9419V104.864Z" fill="#58595B"/>
<path d="M113.518 89.8724H111.671V92.4966H113.518V95.8759H111.671V98.5002H113.518V107.636H116.389V85.9678H113.518V89.8724Z" fill="#58595B"/>
<path d="M120.229 85.9678H117.359V107.636H120.229V85.9678Z" fill="#58595B"/>
<path d="M105.208 100.127V95.9166H110.615V86.9199H102.296V89.5442H107.744V93.2918H102.344L102.338 102.751H110.808V100.127H105.208Z" fill="#58595B"/>
<path d="M96.932 94.5623H85.956V93.1265H96.0857V90.5438H85.956V89.1076H96.932V86.5254H83.0435V97.1449H96.932V94.5623Z" fill="#58595B"/>
<path d="M99.5808 98.4883H80.6265V101.071H99.5808V98.4883Z" fill="#58595B"/>
<path d="M140 85.9678H137.099V107.636H140V85.9678Z" fill="#58595B"/>
<path d="M130.292 91.6495H130.291V86.8301H127.246V91.6495H127.246C127.246 95.1962 125.112 98.2324 122.086 99.4993L123.243 101.549C125.546 100.723 127.499 99.0553 128.769 96.9013C130.038 99.0553 131.991 100.723 134.294 101.549L135.452 99.4993C132.424 98.2324 130.292 95.1962 130.292 91.6495Z" fill="#58595B"/>
<path d="M55.7824 83.9814H52.8823V86.8818H55.7824V83.9814Z" fill="#C63E96"/>
<path d="M67.0583 86.166C63.7138 86.166 61.0027 88.8778 61.0027 92.2226C61.0027 95.5674 63.7138 98.2788 67.0583 98.2788C70.4029 98.2788 73.114 95.5674 73.114 92.2226C73.114 88.8774 70.4029 86.166 67.0583 86.166ZM67.0583 95.488C65.2547 95.488 63.7927 94.0259 63.7927 92.2217C63.7927 90.418 65.2547 88.9558 67.0583 88.9558C68.8619 88.9558 70.3239 90.418 70.3239 92.2217C70.3239 94.0264 68.8619 95.488 67.0583 95.488Z" fill="#58595B"/>
<path d="M49.7636 98.4775C46.5415 98.4775 43.9294 101.09 43.9294 104.312C43.9294 107.534 46.5415 110.147 49.7636 110.147C52.9856 110.147 55.5977 107.534 55.5977 104.312C55.5977 101.09 52.9856 98.4775 49.7636 98.4775ZM49.7636 107.38C48.07 107.38 46.6965 106.007 46.6965 104.313C46.6965 102.619 48.07 101.246 49.7636 101.246C51.4571 101.246 52.8306 102.619 52.8306 104.313C52.8306 106.007 51.4571 107.38 49.7636 107.38Z" fill="#58595B"/>
<path d="M78.3366 108.949H65.7134V100.93H68.6082V106.35H78.3366V108.949Z" fill="#58595B"/>
<path d="M77.9968 85.9131H75.0522V100.992H77.9968V85.9131Z" fill="#58595B"/>
<path d="M55.6778 97.5087V95.0117H52.7844V97.5087H46.7723V95.0117H43.8693V97.5087H40V100.135H59.5328V97.5087H55.6778Z" fill="#58595B"/>
<mask id="mask0_720_2054" style="mask-type:luminance" maskUnits="userSpaceOnUse" x="70" y="43" width="40" height="21">
<path d="M100.601 43.6562C99.964 43.6562 99.4298 44.1331 99.3531 44.766C98.8056 49.2702 94.9685 52.7592 90.3168 52.7592C85.6652 52.7592 81.8281 49.2702 81.2806 44.766C81.2034 44.1331 80.6697 43.6562 80.0326 43.6562H71.3848C71.1509 43.6562 70.9601 43.8466 70.9652 44.0804C71.1908 54.574 79.7681 63.0118 90.3168 63.0118C100.866 63.0118 109.443 54.574 109.669 44.0804C109.674 43.8466 109.483 43.6562 109.249 43.6562H100.601V43.6562Z" fill="white"/>
</mask>
<g mask="url(#mask0_720_2054)">
<path d="M109.672 43.6562H70.9583V63.0118H109.672V43.6562Z" fill="url(#paint0_linear_720_2054)"/>
</g>
<path d="M100.558 65.276C100.558 70.9319 95.9727 75.5169 90.3166 75.5169C84.6606 75.5169 80.0759 70.9319 80.0759 65.276C80.0759 59.6201 84.6606 55.0352 90.3166 55.0352C95.9727 55.0352 100.558 59.6201 100.558 65.276Z" fill="#0BB89C"/>
<path d="M90.3207 55.0352C86.3066 55.0352 82.8344 57.3458 81.155 60.7079C83.8833 62.1774 87.0045 63.0119 90.3207 63.0119C93.6369 63.0119 96.7581 62.1774 99.4864 60.7079C97.8071 57.3458 94.3348 55.0352 90.3207 55.0352Z" fill="#482F92"/>
<mask id="mask1_720_2054" style="mask-type:luminance" maskUnits="userSpaceOnUse" x="82" y="30" width="16" height="15">
<path d="M82.9424 37.3838C82.9424 41.4622 86.2483 44.7675 90.3264 44.7675C94.4045 44.7675 97.7104 41.4622 97.7104 37.3838C97.7104 33.3058 94.4045 30 90.3264 30C86.2483 30 82.9424 33.3058 82.9424 37.3838Z" fill="white"/>
</mask>
<g mask="url(#mask1_720_2054)">
<path d="M97.7099 30H82.9419V44.7675H97.7099V30Z" fill="url(#paint1_linear_720_2054)"/>
</g>
<defs>
<linearGradient id="paint0_linear_720_2054" x1="90.3441" y1="75.6594" x2="90.3441" y2="30.4431" gradientUnits="userSpaceOnUse">
<stop stop-color="#EF5BA1"/>
<stop offset="1" stop-color="#91278F"/>
</linearGradient>
<linearGradient id="paint1_linear_720_2054" x1="90.355" y1="75.6599" x2="90.355" y2="30.4436" gradientUnits="userSpaceOnUse">
<stop stop-color="#EF5BA1"/>
<stop offset="1" stop-color="#91278F"/>
</linearGradient>
</defs>
</svg>
