<svg width="180" height="140" viewBox="0 0 180 140" fill="none" xmlns="http://www.w3.org/2000/svg">
<rect width="180" height="140" fill="white"/>
<path fill-rule="evenodd" clip-rule="evenodd" d="M64.3791 69.6895C64.3791 76.2376 61.7779 82.5175 57.1477 87.1477C52.5175 91.7779 46.2376 94.3791 39.6895 94.3791C33.1415 94.3791 26.8616 91.7779 22.2314 87.1477C17.6012 82.5175 15 76.2376 15 69.6895C15 63.1415 17.6012 56.8616 22.2314 52.2314C26.8616 47.6012 33.1415 45 39.6895 45C42.9318 45 46.1424 45.6386 49.1378 46.8794C52.1333 48.1201 54.8551 49.9388 57.1477 52.2314C59.4403 54.524 61.2589 57.2458 62.4997 60.2413C63.7405 63.2367 64.3791 66.4473 64.3791 69.6895Z" fill="white"/>
<path d="M51.2959 67.9693C47.3706 65.3009 42.3423 66.3892 39.7031 70.402C38.9678 71.5466 37.9593 72.4903 36.7685 73.1482C35.5776 73.8061 34.2419 74.1574 32.8815 74.1706C28.6832 74.1706 25.8079 71.2164 24.957 68.1588H24.9543L24.9324 68.0741C24.9242 68.0394 24.9128 68.0066 24.9046 67.9702C24.5696 66.6954 24.4876 66.0857 24.4876 64.7303C24.4876 57.4197 31.9869 49.2801 42.7908 49.2801C53.8526 49.2801 60.1806 57.7018 61.8117 62.3818C61.7839 62.3002 61.7584 62.2173 61.7297 62.1334C58.5901 52.9793 49.91 46.3979 39.6908 46.3979C26.8283 46.3979 16.3972 56.8249 16.3972 69.6906C16.3972 81.1895 24.6913 91.0322 36.1957 91.0322C45.3717 91.0322 51.5374 85.8873 54.3667 78.7987C55.9181 74.9212 54.8193 70.3628 51.2959 67.9693Z" fill="#003863"/>
<path d="M61.9571 62.8352C60.5981 58.2705 54.2199 49.2795 42.7907 49.2795C31.9868 49.2795 24.4875 57.4187 24.4875 64.7293C24.4875 66.0851 24.57 66.6949 24.9046 67.9696C24.7656 67.4264 24.6937 66.8682 24.6904 66.3075C24.6904 58.6952 32.3141 53.4195 40.1483 53.4195C50.7567 53.4195 59.3552 62.019 59.3552 72.6241C59.3552 80.9397 54.5708 88.1354 47.6175 91.5936L47.6203 91.5986C56.5811 88.3533 62.9816 79.7698 62.9816 69.6901C62.9816 67.3047 62.6621 65.201 61.9571 62.8352Z" fill="#E4032E"/>
<path d="M99.1058 73.1058H95.6263V55.7147H99.1058V62.5457H102.678V65.8678H99.1058V73.1058ZM80.5243 74.3598V80.0305H99.857V83.1016H77.0449V74.3598H80.5243ZM88.1379 66.5266V59.381H76.5749V56.2785H91.5216V66.5266H88.1379ZM92.4937 69.0948V72.1351H75.7922V69.0948H81.4321V63.0171H84.7228V69.0948H92.4937Z" fill="#575756"/>
<path d="M130.058 55.7139H133.411V83.6643H130.058V55.7139ZM124.198 55.7455H127.426V83.5076H124.198V69.0625H120.72V65.9291H124.198V55.7455ZM114.798 55.902L122.6 78.6518L119.687 79.8412L114.798 65.4906L109.973 80.0617L106.994 78.8707L114.798 55.902Z" fill="#575756"/>
<path d="M161.522 70.5998V65.2726H156.633V62.2959H161.522V55.7147H165V70.5998H161.522ZM159.204 77.6819C159.204 76.6379 158.822 75.7376 158.059 74.9857C157.297 74.2339 156.382 73.8583 155.318 73.8583C154.272 73.8583 153.375 74.2339 152.622 74.9857C151.871 75.7376 151.495 76.6379 151.495 77.6819C151.495 78.747 151.871 79.6501 152.622 80.3924C153.375 81.1326 154.272 81.5034 155.318 81.5034C156.382 81.5034 157.297 81.1326 158.059 80.3924C158.822 79.6501 159.204 78.747 159.204 77.6819ZM162.618 77.712C162.624 78.6274 162.426 79.5325 162.039 80.3623C161.659 81.1763 161.133 81.9137 160.487 82.5378C159.821 83.1763 159.04 83.6819 158.185 84.0271C157.285 84.3942 156.321 84.5804 155.349 84.5751C154.367 84.5751 153.427 84.3911 152.528 84.0271C151.629 83.6618 150.857 83.1637 150.209 82.5378C149.564 81.9133 149.038 81.176 148.658 80.3623C148.272 79.5325 148.074 78.6273 148.08 77.712C148.074 76.7979 148.272 75.894 148.658 75.0658C149.037 74.2503 149.563 73.5116 150.209 72.8868C150.857 72.2595 151.629 71.7635 152.528 71.3996C153.424 71.0341 154.382 70.8475 155.349 70.8502C156.351 70.8502 157.297 71.0336 158.185 71.3996C159.04 71.7431 159.822 72.248 160.487 72.8868C161.134 73.5112 161.66 74.25 162.039 75.0658C162.426 75.894 162.624 76.7978 162.618 77.712ZM140.308 60.9475V58.0345H146.856V55.3699H150.555V58.0345H156.79V60.9475H149.991L157.04 68.0925L154.785 70.2222L148.705 63.8927L142.689 70.7243L140.37 68.5625L147.453 60.9475H140.308Z" fill="#575756"/>
</svg>
