<svg width="180" height="140" viewBox="0 0 180 140" fill="none" xmlns="http://www.w3.org/2000/svg">
<rect width="180" height="140" fill="white"/>
<path d="M120.319 60.3176C120.319 77.0609 106.743 90.6351 90.0012 90.6351C73.2545 90.6351 59.6809 77.0609 59.6809 60.3176C59.6809 43.5743 73.2545 30 90.0012 30C106.743 30 120.319 43.5743 120.319 60.3176Z" fill="white"/>
<path d="M104.231 58.2049C99.4073 54.928 93.2334 56.2625 89.9867 61.1905C87.2863 65.308 83.1999 65.8231 81.6254 65.8231C76.4615 65.8231 72.9386 62.1914 71.8923 58.4397H71.8893C71.8761 58.3984 71.8691 58.3662 71.859 58.3329C71.8489 58.2906 71.8409 58.2502 71.8278 58.2059C71.4155 56.6375 71.3117 55.8936 71.3117 54.2285C71.3117 45.2556 80.5247 35.2626 93.7817 35.2626C107.364 35.2626 115.136 45.6013 117.145 51.3477C117.106 51.2409 117.072 51.1441 117.04 51.0423C113.186 39.8015 102.528 31.7236 89.9736 31.7236C74.1895 31.7236 61.385 44.5218 61.385 60.3186C61.385 74.4351 71.5667 86.5166 85.6947 86.5166C96.9549 86.5166 104.529 80.2047 107.995 71.4989C109.9 66.7353 108.554 61.1421 104.231 58.2049Z" fill="#003668"/>
<path d="M117.32 51.9013C115.644 46.295 107.821 35.2598 93.7811 35.2598C80.524 35.2598 71.311 45.2537 71.311 54.2256C71.311 55.8898 71.4159 56.6347 71.8271 58.2031C71.6548 57.5166 71.5661 56.8332 71.5661 56.164C71.5661 46.8181 80.9222 40.3449 90.5414 40.3449C103.567 40.3449 114.122 50.8994 114.122 63.9182C114.122 74.1239 108.248 82.9617 99.7171 87.2063V87.2133C110.718 83.2298 118.574 72.6916 118.574 60.3168C118.574 57.3876 118.181 54.8062 117.32 51.9013Z" fill="#E6002D"/>
<path d="M53.1893 95.6735V94.3662H55.2496V95.6735H58.1163V97.2863H50V95.6735H53.1893ZM57.7756 100.958C57.7756 101.413 57.6799 101.837 57.4894 102.231C57.2978 102.625 57.0408 102.971 56.7182 103.271C56.3967 103.57 56.0227 103.805 55.5984 103.978C55.174 104.152 54.7174 104.238 54.2275 104.238C53.7376 104.238 53.281 104.152 52.8566 103.978C52.4323 103.805 52.0593 103.57 51.7368 103.271C51.4142 102.971 51.1572 102.624 50.9667 102.231C50.7762 101.838 50.6804 101.413 50.6804 100.958C50.6804 100.506 50.7762 100.077 50.9667 99.6772C51.1572 99.277 51.4142 98.9283 51.7368 98.6289C52.0593 98.3305 52.4323 98.0947 52.8566 97.9213C53.28 97.7489 53.7376 97.6612 54.2275 97.6612C54.7174 97.6612 55.174 97.7489 55.5984 97.9213C56.0217 98.0947 56.3967 98.3305 56.7182 98.6289C57.0408 98.9283 57.2978 99.278 57.4894 99.6772C57.6809 100.077 57.7756 100.506 57.7756 100.958ZM55.9663 100.941C55.9663 100.475 55.7959 100.072 55.4562 99.7316C55.1155 99.3919 54.7063 99.2216 54.2285 99.2216C53.7507 99.2216 53.3445 99.3919 53.0109 99.7316C52.6762 100.072 52.5089 100.475 52.5089 100.941C52.5089 101.408 52.6762 101.807 53.0109 102.142C53.3455 102.476 53.7517 102.643 54.2285 102.643C54.7063 102.643 55.1155 102.476 55.4562 102.142C55.7959 101.807 55.9663 101.407 55.9663 100.941ZM62.8105 107.266C62.8105 107.744 62.7087 108.195 62.5061 108.618C62.3025 109.042 62.0344 109.416 61.6997 109.738C61.353 110.06 60.9528 110.316 60.4992 110.51C60.0456 110.699 59.5608 110.795 59.0477 110.795C58.5336 110.795 58.0468 110.699 57.5871 110.51C57.1275 110.317 56.7243 110.061 56.3775 109.738C56.0429 109.416 55.7738 109.042 55.5711 108.618C55.3675 108.195 55.2657 107.744 55.2657 107.266C55.2657 106.788 55.3675 106.335 55.5711 105.904C55.7738 105.474 56.0429 105.098 56.3775 104.775C56.7243 104.453 57.1275 104.196 57.5871 104.004C58.0468 103.813 58.5336 103.718 59.0477 103.718C59.5608 103.718 60.0456 103.814 60.4992 104.004C60.9528 104.195 61.353 104.452 61.6997 104.775C62.0344 105.098 62.3025 105.474 62.5061 105.904C62.7097 106.335 62.8105 106.788 62.8105 107.266ZM60.9115 107.248C60.9115 106.746 60.726 106.311 60.3561 105.94C59.9861 105.571 59.5436 105.383 59.0306 105.383C58.5165 105.383 58.077 105.571 57.7131 105.94C57.3492 106.311 57.1668 106.746 57.1668 107.248C57.1668 107.749 57.3492 108.183 57.7131 108.546C58.077 108.91 58.5165 109.093 59.0306 109.093C59.5436 109.093 59.9861 108.91 60.3561 108.546C60.726 108.183 60.9115 107.749 60.9115 107.248ZM60.8762 103.235H59.084V94.7069H60.8762V98.0916H62.4718V94.6888H64.3346V103.449H62.4718V99.8475H60.8762V103.235Z" fill="#595757"/>
<path d="M66.5904 96.8041V95.1389H75.5494V96.8041H71.7332L75.7107 101.66L74.3489 102.771L71.1596 98.7938L67.9885 103.041L66.5723 101.893L70.5326 96.8041H66.5904ZM78.9907 106.983C78.9907 107.508 78.8828 108.002 78.6681 108.46C78.4534 108.92 78.1661 109.323 77.8083 109.67C77.4374 110.016 77.0039 110.29 76.509 110.492C76.0131 110.696 75.4909 110.798 74.9416 110.798C74.3922 110.798 73.8671 110.696 73.3651 110.492C72.8631 110.29 72.4267 110.015 72.0567 109.67C71.6989 109.323 71.4116 108.92 71.1969 108.46C70.9822 108.002 70.8744 107.509 70.8744 106.983C70.8744 106.456 70.9822 105.961 71.1969 105.495C71.4116 105.028 71.6989 104.623 72.0567 104.276C72.4277 103.929 72.8631 103.655 73.3651 103.453C73.8671 103.25 74.3922 103.147 74.9416 103.147C75.4909 103.147 76.0131 103.25 76.509 103.453C77.0039 103.655 77.4374 103.93 77.8083 104.276C78.1661 104.623 78.4534 105.028 78.6681 105.495C78.8828 105.961 78.9907 106.456 78.9907 106.983ZM77.0906 106.964C77.0906 106.379 76.8749 105.874 76.4455 105.45C76.0151 105.026 75.5071 104.813 74.9224 104.813C74.3368 104.813 73.8318 105.026 73.4084 105.45C72.9841 105.874 72.7724 106.379 72.7724 106.964C72.7724 107.549 72.9841 108.051 73.4084 108.469C73.8328 108.887 74.3368 109.095 74.9224 109.095C75.5071 109.095 76.0151 108.887 76.4455 108.469C76.8759 108.051 77.0906 107.549 77.0906 106.964ZM78.3808 102.968V99.582H75.4778V97.9159H78.3808V94.6924H80.3152V102.969L78.3808 102.968Z" fill="#595757"/>
<path d="M91.4595 99.0619C91.4595 99.6476 91.3436 100.197 91.1108 100.711C90.8779 101.225 90.5574 101.679 90.1522 102.073C89.746 102.455 89.2772 102.76 88.745 102.986C88.2138 103.215 87.6433 103.327 87.0345 103.327C86.4256 103.327 85.8551 103.215 85.3239 102.986C84.7927 102.759 84.323 102.455 83.9168 102.073C83.5105 101.679 83.191 101.225 82.9582 100.711C82.7253 100.197 82.6084 99.6476 82.6084 99.0619C82.6084 98.4773 82.7253 97.928 82.9582 97.4139C83.191 96.8999 83.5105 96.4463 83.9168 96.0522C84.322 95.6691 84.7917 95.3647 85.3239 95.1379C85.8551 94.9111 86.4256 94.7972 87.0345 94.7972C87.6433 94.7972 88.2138 94.9111 88.745 95.1379C89.2772 95.3657 89.746 95.6691 90.1522 96.0522C90.5574 96.4463 90.8779 96.8999 91.1108 97.4139C91.3436 97.928 91.4595 98.4773 91.4595 99.0619ZM85.5306 104.778V108.272H96.0298V109.991H83.5952V104.778H85.5306ZM89.5978 99.0801C89.5978 98.7333 89.5282 98.4047 89.3912 98.0943C89.2531 97.7838 89.0716 97.5087 88.8448 97.2708C88.6059 97.044 88.3348 96.8616 88.0294 96.7245C87.7239 96.5874 87.3994 96.5188 87.0526 96.5188C86.7059 96.5188 86.3783 96.5874 86.0678 96.7245C85.7563 96.8616 85.4822 97.044 85.2433 97.2708C85.0165 97.5087 84.834 97.7849 84.6969 98.0943C84.5589 98.4047 84.4903 98.7333 84.4903 99.0801C84.4903 99.4268 84.5589 99.7514 84.6969 100.057C84.834 100.362 85.0165 100.633 85.2433 100.873C85.4822 101.1 85.7563 101.281 86.0678 101.42C86.3783 101.557 86.7059 101.625 87.0526 101.625C87.3984 101.625 87.7249 101.557 88.0294 101.42C88.3338 101.281 88.6059 101.1 88.8448 100.873C89.0716 100.634 89.2541 100.362 89.3912 100.057C89.5272 99.7514 89.5978 99.4268 89.5978 99.0801ZM95.6356 104.688H93.7003V94.6914H95.6356V98.0943H97.8744V100.011H95.6356V104.688Z" fill="#595757"/>
<path d="M99.2716 96.8041V95.1389H108.232V96.8041H104.431L108.393 102.645L106.922 103.632L103.841 98.938L100.758 103.757L99.2534 102.754L103.195 96.8051L99.2716 96.8041ZM100.347 109.991V104.778H102.282V108.272H113.14V109.991H100.347ZM111.062 104.688V100.083H108.159V98.3634H111.062V94.6914H112.997V104.688H111.062Z" fill="#595757"/>
<path d="M115.667 104.562H130V106.281H123.801V110.293H121.848V106.281H115.667V104.562ZM118.731 96.9286H126.937V94.958H128.854V102.464H116.814V94.958H118.731V96.9286ZM126.937 98.6129H118.731V100.763H126.937V98.6129Z" fill="#595757"/>
</svg>
