<svg width="50" height="35" viewBox="0 0 50 35" fill="none" xmlns="http://www.w3.org/2000/svg">
<g clip-path="url(#clip0_706_3162)">
<rect width="50" height="35" fill="white"/>
<path d="M-1 0H51.5V35H-1V0Z" fill="#20603D"/>
<path d="M-1 0H51.5V26.25H-1V0Z" fill="#FAD201"/>
<path d="M-1 0H51.5V17.5H-1V0Z" fill="#00A1DE"/>
<path d="M47.7375 9.14334L43.8288 9.37176L47.5452 10.6041L43.7106 9.81305L46.9814 11.9652L43.4821 10.2087L46.0845 13.1341L43.159 10.5317L44.9156 14.031L42.7635 10.7601L43.5545 14.5948L42.3222 10.8784L42.0938 14.7871L42.0452 9.09473L47.7375 9.14334Z" fill="#E5BE01"/>
<path d="M47.7375 9.14377L43.8288 8.91535L47.5452 7.68306L43.7106 8.47406L46.9814 6.3219L43.4821 8.07846L46.0845 5.15304L43.159 7.75539L44.9156 4.25612L42.7635 7.52697L43.5545 3.69233L42.3222 7.40874L42.0938 3.50002L42.0452 9.19238L47.7375 9.14377Z" fill="#E5BE01"/>
<path d="M36.45 9.14334L40.3587 9.37176L36.6423 10.6041L40.4769 9.81305L37.2061 11.9652L40.7054 10.2087L38.103 13.1341L41.0285 10.5317L39.2719 14.031L41.424 10.7601L40.633 14.5948L41.8653 10.8784L42.0937 14.7871L42.1423 9.09473L36.45 9.14334Z" fill="#E5BE01"/>
<path d="M36.45 9.14377L40.3587 8.91535L36.6423 7.68306L40.4769 8.47406L37.2061 6.3219L40.7054 8.07846L38.103 5.15304L41.0285 7.75539L39.2719 4.25612L41.424 7.52697L40.633 3.69233L41.8653 7.40874L42.0937 3.50002L42.1423 9.19238L36.45 9.14377Z" fill="#E5BE01"/>
<path d="M42.0936 10.8113C43.0145 10.8113 43.761 10.0648 43.761 9.14392C43.761 8.22307 43.0145 7.47656 42.0936 7.47656C41.1728 7.47656 40.4263 8.22307 40.4263 9.14392C40.4263 10.0648 41.1728 10.8113 42.0936 10.8113Z" fill="#E5BE01"/>
<path d="M43.6785 9.14355C43.6785 8.26834 42.969 7.55885 42.0938 7.55885C41.2185 7.55886 40.5091 8.26834 40.509 9.14355C40.509 10.0188 41.2185 10.7283 42.0938 10.7283C42.969 10.7283 43.6785 10.0188 43.6785 9.14355ZM43.8438 9.14355C43.8438 10.1101 43.0602 10.8936 42.0938 10.8936C41.1273 10.8935 40.3438 10.11 40.3438 9.14355C40.3438 8.17706 41.1273 7.39356 42.0938 7.39355C43.0602 7.39355 43.8437 8.17706 43.8438 9.14355Z" fill="#00A1DE"/>
</g>
<defs>
<clipPath id="clip0_706_3162">
<rect width="50" height="35" fill="white"/>
</clipPath>
</defs>
</svg>
