<svg width="50" height="35" viewBox="0 0 50 35" fill="none" xmlns="http://www.w3.org/2000/svg">
<g clip-path="url(#clip0_706_3583)">
<rect width="50" height="35" fill="white"/>
<path d="M-10 0H60V35H-10V0Z" fill="#CE1126"/>
<path d="M-6 0H29V17.5H-6V0Z" fill="#002B7F"/>
<path d="M11.4999 12.1475L13.002 16.7704L9.06934 13.912H13.9304L9.99781 16.7704L11.4999 12.1475Z" fill="white"/>
<path d="M6.1527 5.10449L7.35436 8.80283L4.20825 6.51616H8.09714L4.95103 8.80283L6.1527 5.10449Z" fill="white"/>
<path d="M11.5001 0.729492L12.7018 4.42783L9.55566 2.14116H13.4446L10.2984 4.42783L11.5001 0.729492Z" fill="white"/>
<path d="M16.9687 4.375L18.0952 7.84219L15.1458 5.69844H18.7916L15.8421 7.84219L16.9687 4.375Z" fill="white"/>
<path d="M14.1735 8.86914L14.9246 11.1806L12.9583 9.75143H15.3888L13.4225 11.1806L14.1735 8.86914Z" fill="white"/>
</g>
<defs>
<clipPath id="clip0_706_3583">
<rect width="50" height="35" fill="white"/>
</clipPath>
</defs>
</svg>
