<svg width="50" height="35" viewBox="0 0 50 35" fill="none" xmlns="http://www.w3.org/2000/svg">
<g clip-path="url(#clip0_706_3619)">
<rect width="50" height="35" fill="white"/>
<path d="M-10 0H60V35H-10V0Z" fill="#308738"/>
<path d="M-10 0H60V17.5H-10V0Z" fill="#3081F7"/>
<path d="M-10 11.2002H60V23.8002H-10V11.2002Z" fill="#EE162E"/>
<path d="M-10 11.9004H60V23.1004H-10V11.9004Z" fill="white"/>
<path d="M8.8001 9.80039C11.1197 9.80039 13.0001 7.91999 13.0001 5.60039C13.0001 3.28079 11.1197 1.40039 8.8001 1.40039C6.4805 1.40039 4.6001 3.28079 4.6001 5.60039C4.6001 7.91999 6.4805 9.80039 8.8001 9.80039Z" fill="white"/>
<path d="M10.2 9.80039C12.5196 9.80039 14.4 7.91999 14.4 5.60039C14.4 3.28079 12.5196 1.40039 10.2 1.40039C7.8804 1.40039 6 3.28079 6 5.60039C6 7.91999 7.8804 9.80039 10.2 9.80039Z" fill="#3081F7"/>
<path d="M18.04 8.12012L17.7805 8.919L18.1799 9.04879" fill="white"/>
<path d="M18.04 8.12012L18.2996 8.919L17.9002 9.04879" fill="white"/>
<path d="M18.8389 8.7002H17.9989V9.1202" fill="white"/>
<path d="M18.8389 8.7002L18.1593 9.19393L17.9124 8.85415" fill="white"/>
<path d="M17.2412 8.7002L17.9208 9.19393L18.1677 8.85415" fill="white"/>
<path d="M17.2412 8.7002H18.0812V9.1202" fill="white"/>
<path d="M18.5342 9.64062L18.2746 8.84174L17.8752 8.97152" fill="white"/>
<path d="M18.5342 9.64062L17.8546 9.14689L18.1015 8.8071" fill="white"/>
<path d="M17.5466 9.63965L18.2262 9.14591L17.9793 8.80612" fill="white"/>
<path d="M17.5466 9.63965L17.8062 8.84076L18.2056 8.97055" fill="white"/>
<path d="M18.04 4.75977L17.7805 5.55865L18.1799 5.68844" fill="white"/>
<path d="M18.04 4.75977L18.2996 5.55865L17.9002 5.68844" fill="white"/>
<path d="M18.8389 5.34082H17.9989V5.76082" fill="white"/>
<path d="M18.8389 5.34082L18.1593 5.83456L17.9124 5.49477" fill="white"/>
<path d="M17.2412 5.34082L17.9208 5.83456L18.1677 5.49477" fill="white"/>
<path d="M17.2412 5.34082H18.0812V5.76082" fill="white"/>
<path d="M18.5337 6.2793L18.2741 5.48041L17.8747 5.6102" fill="white"/>
<path d="M18.5337 6.2793L17.8541 5.78556L18.101 5.44577" fill="white"/>
<path d="M17.5464 6.2793L18.226 5.78556L17.9791 5.44577" fill="white"/>
<path d="M17.5464 6.2793L17.806 5.48041L18.2054 5.6102" fill="white"/>
<path d="M18.04 1.40039L17.7805 2.19928L18.1799 2.32907" fill="white"/>
<path d="M18.04 1.40039L18.2996 2.19928L17.9002 2.32907" fill="white"/>
<path d="M18.8389 1.98047H17.9989V2.40047" fill="white"/>
<path d="M18.8389 1.98047L18.1593 2.47421L17.9124 2.13442" fill="white"/>
<path d="M17.2412 1.98047L17.9208 2.47421L18.1677 2.13442" fill="white"/>
<path d="M17.2412 1.98047H18.0812V2.40047" fill="white"/>
<path d="M18.5342 2.91992L18.2746 2.12103L17.8752 2.25082" fill="white"/>
<path d="M18.5342 2.91992L17.8546 2.42618L18.1015 2.0864" fill="white"/>
<path d="M17.5466 2.91992L18.2262 2.42618L17.9793 2.0864" fill="white"/>
<path d="M17.5466 2.91992L17.8062 2.12103L18.2056 2.25082" fill="white"/>
<path d="M21.3999 8.12012L21.1403 8.919L21.5398 9.04879" fill="white"/>
<path d="M21.3999 8.12012L21.6595 8.919L21.26 9.04879" fill="white"/>
<path d="M22.199 8.7002H21.359V9.1202" fill="white"/>
<path d="M22.199 8.7002L21.5194 9.19393L21.2725 8.85415" fill="white"/>
<path d="M20.6008 8.7002L21.2804 9.19393L21.5273 8.85415" fill="white"/>
<path d="M20.6008 8.7002H21.4408V9.1202" fill="white"/>
<path d="M21.8938 9.64062L21.6342 8.84174L21.2348 8.97152" fill="white"/>
<path d="M21.8938 9.64062L21.2142 9.14689L21.4611 8.8071" fill="white"/>
<path d="M20.9062 9.63965L21.5858 9.14591L21.339 8.80612" fill="white"/>
<path d="M20.9062 9.63965L21.1658 8.84076L21.5653 8.97055" fill="white"/>
<path d="M21.3999 4.75977L21.1403 5.55865L21.5398 5.68844" fill="white"/>
<path d="M21.3999 4.75977L21.6595 5.55865L21.26 5.68844" fill="white"/>
<path d="M22.199 5.34082H21.359V5.76082" fill="white"/>
<path d="M22.199 5.34082L21.5194 5.83456L21.2725 5.49477" fill="white"/>
<path d="M20.6008 5.34082L21.2804 5.83456L21.5273 5.49477" fill="white"/>
<path d="M20.6008 5.34082H21.4408V5.76082" fill="white"/>
<path d="M21.8938 6.2793L21.6342 5.48041L21.2348 5.6102" fill="white"/>
<path d="M21.8938 6.2793L21.2142 5.78556L21.4611 5.44577" fill="white"/>
<path d="M20.9062 6.2793L21.5858 5.78556L21.339 5.44577" fill="white"/>
<path d="M20.9062 6.2793L21.1658 5.48041L21.5653 5.6102" fill="white"/>
<path d="M21.3999 1.40039L21.1403 2.19928L21.5398 2.32907" fill="white"/>
<path d="M21.3999 1.40039L21.6595 2.19928L21.26 2.32907" fill="white"/>
<path d="M22.199 1.98047H21.359V2.40047" fill="white"/>
<path d="M22.199 1.98047L21.5194 2.47421L21.2725 2.13442" fill="white"/>
<path d="M20.6008 1.98047L21.2804 2.47421L21.5273 2.13442" fill="white"/>
<path d="M20.6008 1.98047H21.4408V2.40047" fill="white"/>
<path d="M21.894 2.91992L21.6345 2.12103L21.235 2.25082" fill="white"/>
<path d="M21.894 2.91992L21.2145 2.42618L21.4613 2.0864" fill="white"/>
<path d="M20.9062 2.91992L21.5858 2.42618L21.339 2.0864" fill="white"/>
<path d="M20.9062 2.91992L21.1658 2.12103L21.5653 2.25082" fill="white"/>
<path d="M24.76 8.12012L24.5004 8.919L24.8999 9.04879" fill="white"/>
<path d="M24.76 8.12012L25.0196 8.919L24.6201 9.04879" fill="white"/>
<path d="M25.5588 8.7002H24.7188V9.1202" fill="white"/>
<path d="M25.5588 8.7002L24.8793 9.19393L24.6324 8.85415" fill="white"/>
<path d="M23.9612 8.7002L24.6408 9.19393L24.8876 8.85415" fill="white"/>
<path d="M23.9612 8.7002H24.8012V9.1202" fill="white"/>
<path d="M25.2542 9.64062L24.9946 8.84174L24.5951 8.97152" fill="white"/>
<path d="M25.2542 9.64062L24.5746 9.14689L24.8214 8.8071" fill="white"/>
<path d="M24.2666 9.63965L24.9462 9.14591L24.6993 8.80612" fill="white"/>
<path d="M24.2666 9.63965L24.5262 8.84076L24.9256 8.97055" fill="white"/>
<path d="M24.76 4.75977L24.5004 5.55865L24.8999 5.68844" fill="white"/>
<path d="M24.76 4.75977L25.0196 5.55865L24.6201 5.68844" fill="white"/>
<path d="M25.5588 5.34082H24.7188V5.76082" fill="white"/>
<path d="M25.5588 5.34082L24.8793 5.83456L24.6324 5.49477" fill="white"/>
<path d="M23.9612 5.34082L24.6408 5.83456L24.8876 5.49477" fill="white"/>
<path d="M23.9612 5.34082H24.8012V5.76082" fill="white"/>
<path d="M25.2537 6.2793L24.9941 5.48041L24.5946 5.6102" fill="white"/>
<path d="M25.2537 6.2793L24.5741 5.78556L24.821 5.44577" fill="white"/>
<path d="M24.2664 6.2793L24.9459 5.78556L24.6991 5.44577" fill="white"/>
<path d="M24.2664 6.2793L24.5259 5.48041L24.9254 5.6102" fill="white"/>
<path d="M24.76 1.40039L24.5004 2.19928L24.8999 2.32907" fill="white"/>
<path d="M24.76 1.40039L25.0196 2.19928L24.6201 2.32907" fill="white"/>
<path d="M25.5588 1.98047H24.7188V2.40047" fill="white"/>
<path d="M25.5588 1.98047L24.8793 2.47421L24.6324 2.13442" fill="white"/>
<path d="M23.9612 1.98047L24.6408 2.47421L24.8876 2.13442" fill="white"/>
<path d="M23.9612 1.98047H24.8012V2.40047" fill="white"/>
<path d="M25.2542 2.91992L24.9946 2.12103L24.5951 2.25082" fill="white"/>
<path d="M25.2542 2.91992L24.5746 2.42618L24.8214 2.0864" fill="white"/>
<path d="M24.2666 2.91992L24.9462 2.42618L24.6993 2.0864" fill="white"/>
<path d="M24.2666 2.91992L24.5262 2.12103L24.9256 2.25082" fill="white"/>
<path d="M11.3201 8.12012L11.0605 8.919L11.4599 9.04879" fill="white"/>
<path d="M11.3201 8.12012L11.5796 8.919L11.1802 9.04879" fill="white"/>
<path d="M12.1189 8.7002H11.2789V9.1202" fill="white"/>
<path d="M12.1189 8.7002L11.4393 9.19393L11.1925 8.85415" fill="white"/>
<path d="M10.521 8.7002L11.2006 9.19393L11.4474 8.85415" fill="white"/>
<path d="M10.521 8.7002H11.361V9.1202" fill="white"/>
<path d="M11.814 9.64062L11.5544 8.84174L11.1549 8.97152" fill="white"/>
<path d="M11.814 9.64062L11.1344 9.14689L11.3813 8.8071" fill="white"/>
<path d="M10.8262 9.63965L11.5057 9.14591L11.2589 8.80612" fill="white"/>
<path d="M10.8262 9.63965L11.0857 8.84076L11.4852 8.97055" fill="white"/>
<path d="M14.6799 8.12012L14.4204 8.919L14.8198 9.04879" fill="white"/>
<path d="M14.6799 8.12012L14.9395 8.919L14.5401 9.04879" fill="white"/>
<path d="M15.479 8.7002H14.639V9.1202" fill="white"/>
<path d="M15.479 8.7002L14.7994 9.19393L14.5526 8.85415" fill="white"/>
<path d="M13.8811 8.7002L14.5607 9.19393L14.8075 8.85415" fill="white"/>
<path d="M13.8811 8.7002H14.7211V9.1202" fill="white"/>
<path d="M15.1738 9.64062L14.9143 8.84174L14.5148 8.97152" fill="white"/>
<path d="M15.1738 9.64062L14.4943 9.14689L14.7411 8.8071" fill="white"/>
<path d="M14.1863 9.63965L14.8659 9.14591L14.619 8.80612" fill="white"/>
<path d="M14.1863 9.63965L14.4459 8.84076L14.8453 8.97055" fill="white"/>
<path d="M14.6799 4.75977L14.4204 5.55865L14.8198 5.68844" fill="white"/>
<path d="M14.6799 4.75977L14.9395 5.55865L14.5401 5.68844" fill="white"/>
<path d="M15.479 5.34082H14.639V5.76082" fill="white"/>
<path d="M15.479 5.34082L14.7994 5.83456L14.5526 5.49477" fill="white"/>
<path d="M13.8811 5.34082L14.5607 5.83456L14.8075 5.49477" fill="white"/>
<path d="M13.8811 5.34082H14.7211V5.76082" fill="white"/>
<path d="M15.1738 6.2793L14.9143 5.48041L14.5148 5.6102" fill="white"/>
<path d="M15.1738 6.2793L14.4943 5.78556L14.7411 5.44577" fill="white"/>
<path d="M14.1863 6.2793L14.8659 5.78556L14.619 5.44577" fill="white"/>
<path d="M14.1863 6.2793L14.4459 5.48041L14.8453 5.6102" fill="white"/>
</g>
<defs>
<clipPath id="clip0_706_3619">
<rect width="50" height="35" fill="white"/>
</clipPath>
</defs>
</svg>
