<svg width="520" height="220" viewBox="0 0 520 220" fill="none" xmlns="http://www.w3.org/2000/svg">
<path d="M298.499 93.4774V81H312.789V139.441H298.499V93.4774ZM235.578 81H290.714V93.5841H264.799V139.548H250.615V93.5841H235.578V81ZM520 81V93.5841H494.085V139.548H479.902V93.5841H464.865V81H520ZM0 81H61.854V93.5841H14.2904V106.062H54.8154V118.646H14.2904V139.441H0V81ZM399.385 81H456.973V93.5841H413.675V104.035H449.188V116.619H413.675V127.071H457.719V139.655H399.385V81ZM388.4 97.5299V139.441H374.11V97.5299C374.11 95.2904 372.404 93.5841 370.164 93.5841H338.171V139.548H323.88V81H371.87C380.935 81 388.4 88.4651 388.4 97.5299ZM213.61 81H164.873V139.441H179.163V118.646H211.157C212.863 118.752 214.249 120.139 214.249 121.845V139.548H228.54V121.632C228.54 118.539 226.833 115.873 224.274 114.38C227.367 111.5 229.286 107.341 229.286 102.862V96.6768C229.393 88.0386 222.354 81 213.61 81ZM215.103 102.862C215.103 104.569 213.716 106.062 211.903 106.062H179.163V93.5841H211.903C213.61 93.5841 215.103 94.9705 215.103 96.7834V102.862Z" fill="black"/>
<path d="M153.782 102.756V117.899H130.107V102.756H153.782ZM100.14 139.441H123.708V124.298H100.14V139.441ZM153.782 93.6907C153.782 86.6522 148.13 81 141.091 81H130.214V96.1436H153.782V93.6907ZM100.14 81V96.1436H123.708V81H100.14ZM70.0659 102.756V117.899H93.6344V102.756H70.0659ZM130.107 139.441H140.985C148.023 139.441 153.675 133.789 153.675 126.751V124.298H130.107V139.441ZM70.0659 126.751C70.0659 133.789 75.7181 139.441 82.7566 139.441H93.6344V124.298H70.0659V126.751ZM70.0659 93.6907V96.1436H93.6344V81H82.7566C75.7181 81 70.0659 86.6522 70.0659 93.6907Z" fill="#DA291C"/>
</svg>
