<svg width="520" height="220" viewBox="0 0 520 220" fill="none" xmlns="http://www.w3.org/2000/svg">
<path d="M257.356 140.422C256.91 140.301 250.049 138.531 242.759 138.531C228.956 138.531 220.646 145.985 220.646 157.084C220.646 166.909 227.598 171.809 235.941 174.444C236.866 174.75 238.229 175.176 239.137 175.477C242.851 176.645 245.815 178.381 245.815 181.389C245.815 184.752 242.389 186.929 234.94 186.929C228.395 186.929 222.119 185.057 220.797 184.723V198.379C221.534 198.536 228.992 200 236.959 200C248.419 200 261.528 194.992 261.528 180.086C261.528 172.855 257.101 166.199 247.382 163.109L243.251 161.794C240.786 161.016 236.385 159.756 236.385 156.143C236.385 153.289 239.646 151.28 245.649 151.28C250.829 151.28 257.133 153.02 257.356 153.09V140.422ZM383.908 169.266C383.908 177.901 377.295 184.886 368.42 184.886C359.536 184.886 352.939 177.901 352.939 169.266C352.939 160.649 359.536 153.661 368.42 153.661C377.295 153.661 383.908 160.649 383.908 169.266ZM368.42 138.55C350.168 138.55 337.078 152.317 337.078 169.266C337.078 186.243 350.168 200 368.42 200C386.671 200 399.779 186.243 399.779 169.266C399.779 152.317 386.671 138.55 368.42 138.55ZM200.564 198.944H185.588V139.602H200.564" fill="#049FD9"/>
<path d="M165.003 140.676C163.596 140.259 158.394 138.55 151.349 138.55C133.125 138.55 119.747 151.543 119.747 169.266C119.747 188.386 134.515 199.999 151.349 199.999C158.037 199.999 163.142 198.415 165.003 197.887V181.957C164.359 182.315 159.464 185.107 152.422 185.107C142.445 185.107 136.01 178.085 136.01 169.266C136.01 160.178 142.724 153.437 152.422 153.437C159.584 153.437 164.4 156.291 165.003 156.606" fill="#049FD9"/>
<path d="M321.311 140.676C319.904 140.259 314.702 138.55 307.657 138.55C289.433 138.55 276.055 151.543 276.055 169.266C276.055 188.386 290.823 199.999 307.657 199.999C314.345 199.999 319.45 198.415 321.311 197.887V181.957C320.667 182.315 315.772 185.107 308.73 185.107C298.753 185.107 292.318 178.085 292.318 169.266C292.318 160.178 299.032 153.437 308.73 153.437C315.893 153.437 320.709 156.291 321.311 156.606" fill="#049FD9"/>
<path d="M185.544 27.4075C185.544 23.3172 182.203 20 178.108 20C174.014 20 170.673 23.3172 170.673 27.4075V106.21C170.674 108.181 171.458 110.071 172.852 111.464C174.246 112.857 176.137 113.64 178.108 113.639C179.084 113.64 180.05 113.448 180.952 113.075C181.854 112.701 182.674 112.154 183.364 111.464C184.055 110.775 184.603 109.955 184.977 109.054C185.35 108.152 185.543 107.186 185.544 106.21V27.4075ZM144.705 55.3803C144.705 51.2916 141.366 47.9697 137.271 47.9697C133.176 47.9697 129.837 51.2916 129.837 55.3803V91.4057C129.837 93.3768 130.621 95.2667 132.015 96.66C133.409 98.0533 135.3 98.8358 137.271 98.8354C139.242 98.8358 141.132 98.0533 142.527 96.66C143.921 95.2667 144.704 93.3768 144.705 91.4057V55.3803ZM103.869 75.8271C103.869 71.7368 100.529 68.4213 96.4343 68.4213C92.344 68.4213 89 71.7368 89 75.8271V91.4057C89.0401 93.3509 89.841 95.2029 91.2308 96.5643C92.6207 97.9258 94.4888 98.6883 96.4343 98.6883C98.3799 98.6883 100.248 97.9258 101.638 96.5643C103.028 95.2029 103.829 93.3509 103.869 91.4057" fill="#049FD9"/>
<path d="M170.673 27.4075C170.673 23.3172 174.014 20 178.109 20C182.202 20 185.543 23.3172 185.543 27.4075V106.21C185.542 108.181 184.759 110.071 183.364 111.464C181.97 112.857 180.08 113.64 178.109 113.639C177.133 113.64 176.166 113.448 175.264 113.075C174.362 112.701 173.543 112.154 172.852 111.464C172.162 110.775 171.614 109.955 171.24 109.054C170.866 108.152 170.673 107.186 170.673 106.21V27.4075ZM211.511 55.3803C211.511 51.2916 214.85 47.9697 218.945 47.9697C223.04 47.9697 226.38 51.2916 226.38 55.3803V91.4057C226.379 93.3768 225.595 95.2667 224.201 96.66C222.807 98.0533 220.916 98.8358 218.945 98.8354C216.974 98.8358 215.084 98.0533 213.69 96.66C212.296 95.2667 211.512 93.3768 211.511 91.4057V55.3803ZM252.348 75.8271C252.348 71.7368 255.687 68.4213 259.782 68.4213C263.872 68.4213 267.216 71.7368 267.216 75.8271V91.4057C267.176 93.3509 266.375 95.2029 264.985 96.5643C263.596 97.9258 261.728 98.6883 259.782 98.6883C257.836 98.6883 255.968 97.9258 254.578 96.5643C253.189 95.2029 252.388 93.3509 252.348 91.4057" fill="#049FD9"/>
<path d="M333.974 27.4075C333.974 23.3172 337.315 20 341.41 20C345.503 20 348.844 23.3172 348.844 27.4075V106.21C348.843 108.181 348.06 110.071 346.666 111.464C345.271 112.857 343.381 113.64 341.41 113.639C340.434 113.64 339.467 113.448 338.565 113.075C337.663 112.701 336.844 112.154 336.153 111.464C335.463 110.775 334.915 109.955 334.541 109.054C334.167 108.152 333.974 107.186 333.974 106.21V27.4075ZM374.812 55.3803C374.812 51.2916 378.152 47.9697 382.247 47.9697C386.342 47.9697 389.681 51.2916 389.681 55.3803V91.4057C389.68 93.3768 388.896 95.2667 387.502 96.66C386.108 98.0533 384.218 98.8358 382.247 98.8354C380.276 98.8358 378.385 98.0533 376.991 96.66C375.597 95.2667 374.813 93.3768 374.812 91.4057V55.3803ZM415.649 75.8271C415.649 71.7368 418.988 68.4213 423.083 68.4213C427.174 68.4213 430.518 71.7368 430.518 75.8271V91.4057C430.477 93.3509 429.677 95.2029 428.287 96.5643C426.897 97.9258 425.029 98.6883 423.083 98.6883C421.138 98.6883 419.27 97.9258 417.88 96.5643C416.49 95.2029 415.689 93.3509 415.649 91.4057" fill="#049FD9"/>
<path d="M348.845 27.4075C348.845 23.3172 345.504 20 341.409 20C337.315 20 333.975 23.3172 333.975 27.4075V106.21C333.975 108.181 334.759 110.071 336.153 111.464C337.547 112.857 339.438 113.64 341.409 113.639C342.385 113.64 343.352 113.448 344.254 113.075C345.155 112.701 345.975 112.154 346.666 111.464C347.356 110.775 347.904 109.955 348.278 109.054C348.652 108.152 348.844 107.186 348.845 106.21V27.4075ZM308.007 55.3803C308.007 51.2916 304.667 47.9697 300.572 47.9697C296.477 47.9697 293.138 51.2916 293.138 55.3803V91.4057C293.139 93.3768 293.922 95.2667 295.317 96.66C296.711 98.0533 298.601 98.8358 300.572 98.8354C302.543 98.8358 304.434 98.0533 305.828 96.66C307.222 95.2667 308.006 93.3768 308.007 91.4057V55.3803ZM267.17 75.8271C267.17 71.7368 263.831 68.4213 259.736 68.4213C255.645 68.4213 252.301 71.7368 252.301 75.8271V91.4057C252.341 93.3509 253.142 95.2029 254.532 96.5643C255.922 97.9258 257.79 98.6883 259.736 98.6883C261.681 98.6883 263.549 97.9258 264.939 96.5643C266.329 95.2029 267.13 93.3509 267.17 91.4057" fill="#049FD9"/>
</svg>
