<svg width="520" height="220" viewBox="0 0 520 220" fill="none" xmlns="http://www.w3.org/2000/svg">
<path d="M20.6049 136.58H10V87.0902H20.6049V106.729H39.8507V87.0902H50.4556V136.58H39.8507V116.155H20.6049V136.58ZM74.8075 137.365C63.8099 137.365 56.74 130.295 56.74 119.298C56.74 108.3 63.8099 100.837 73.6292 100.837C84.2341 100.837 89.3401 107.907 89.3401 118.512V122.44H66.9521C68.1304 127.939 72.4509 129.51 76.7714 129.51C80.3064 129.51 83.0558 128.724 86.5907 126.76H86.9835V135.009C83.8413 136.187 79.9136 137.365 74.8075 137.365ZM66.9521 114.584H79.5208C79.128 111.049 77.9497 108.3 73.6292 108.3C70.487 108.693 67.7376 109.871 66.9521 114.584ZM116.834 115.763L111.335 136.58H101.909L91.304 101.623V101.23H101.516L107.408 122.047L112.907 101.23H121.155L126.654 122.047L132.545 101.23H142.364V101.623L131.76 136.58H122.333L116.834 115.763ZM160.039 137.365C151.398 137.365 148.256 133.83 148.256 125.975V87.0902H158.468V125.189C158.468 127.546 159.254 128.331 161.61 128.331C162.396 128.331 163.181 127.939 163.967 127.939V136.58C163.181 136.972 161.61 137.365 160.039 137.365ZM185.177 137.365C174.179 137.365 167.109 130.295 167.109 119.298C167.109 108.3 174.179 100.837 183.998 100.837C194.603 100.837 199.709 107.907 199.709 118.512V122.44H177.321C178.5 127.939 182.82 129.51 187.141 129.51C190.676 129.51 193.425 128.724 196.96 126.76V135.009C193.818 136.187 189.89 137.365 185.177 137.365ZM176.929 114.584H189.497C189.104 111.049 187.926 108.3 183.606 108.3C180.463 108.693 177.714 109.871 176.929 114.584ZM241.736 101.23H249.592V109.478H241.736V123.618C241.736 126.76 242.914 127.939 246.057 127.939C246.842 127.939 248.02 127.939 249.199 127.546H249.592V135.794C248.413 136.187 246.057 136.972 243.307 136.972C235.059 136.972 231.524 133.045 231.524 124.011V109.086H218.17V123.225C218.17 126.368 219.348 127.546 222.49 127.546C223.276 127.546 224.454 127.546 225.632 127.153H226.025V135.401C224.847 135.794 222.49 136.58 219.741 136.58C211.493 136.58 207.958 132.652 207.958 123.618V108.693H202.459V100.445H207.958V90.6252H218.17V100.445H231.524V90.6252H241.736V101.23ZM303.401 103.587C303.401 114.192 296.331 120.083 285.334 120.083H277.871V136.187H267.266V87.0902H285.727C296.331 87.0902 303.401 92.9818 303.401 103.587ZM284.548 111.442C290.047 111.442 292.404 108.3 292.404 103.979C292.404 99.2662 289.654 96.124 284.548 96.124H277.871V111.442H284.548ZM326.575 133.045C324.218 135.794 321.076 136.972 317.148 136.972C310.471 136.972 304.58 132.652 304.58 125.189C304.58 118.119 310.079 113.799 318.327 113.799C320.683 113.799 323.433 114.192 326.182 114.977V114.192C326.182 110.264 324.218 108.693 318.327 108.693C314.792 108.693 311.257 109.871 308.507 111.442H308.115V103.194C310.864 101.623 315.577 100.445 320.291 100.445C330.896 100.445 336.394 105.551 336.394 114.192V136.187H326.575V133.045ZM326.182 125.189V122.047C324.611 121.261 322.647 120.869 320.291 120.869C316.756 120.869 314.792 122.047 314.792 124.796C314.792 127.546 316.756 129.117 319.898 129.117C323.04 129.51 325.397 127.939 326.182 125.189ZM341.893 118.905C341.893 107.514 349.749 100.445 360.353 100.445C363.888 100.445 367.423 101.23 370.173 103.194V112.228H369.78C367.423 110.657 364.674 109.478 361.925 109.478C356.819 109.478 352.891 113.013 352.891 118.905C352.891 124.796 356.819 128.331 361.925 128.331C365.067 128.331 367.816 127.153 369.78 125.582V134.616C367.031 136.58 363.888 137.365 359.961 137.365C349.749 137.365 341.893 130.295 341.893 118.905ZM386.669 120.476V136.58H376.457V87.0902H386.669V115.37L397.274 101.623H409.057V102.016L396.489 118.119L409.057 136.58V136.972H397.274L386.669 120.476ZM432.624 133.045C430.267 135.794 427.125 136.972 423.197 136.972C416.52 136.972 410.628 132.652 410.628 125.189C410.628 118.119 416.127 113.799 424.375 113.799C426.732 113.799 429.482 114.192 432.231 114.977V114.192C432.231 110.264 430.267 108.693 424.375 108.693C420.841 108.693 417.306 109.871 414.556 111.442H414.163V103.194C416.913 101.623 421.626 100.445 426.339 100.445C436.944 100.445 442.443 105.551 442.443 114.192V136.187H432.624V133.045ZM432.231 125.189V122.047C430.66 121.261 428.696 120.869 426.339 120.869C422.804 120.869 420.841 122.047 420.841 124.796C420.841 127.546 422.804 129.117 425.947 129.117C429.089 129.51 431.445 127.939 432.231 125.189ZM460.118 106.729C462.082 102.801 464.831 100.445 468.759 100.445C470.33 100.445 471.508 100.837 472.294 101.23V111.049H471.901C470.723 110.657 469.152 110.264 467.188 110.264C464.046 110.264 461.296 112.228 460.511 115.763V136.187H450.299V100.837H460.511V106.729H460.118ZM499.788 132.652C497.431 135.401 494.289 136.972 489.576 136.972C480.542 136.972 475.043 128.724 475.043 118.512C475.043 108.3 480.935 100.052 489.576 100.052C494.289 100.052 497.431 101.623 499.788 103.979V86.3047H510V135.794H499.788V132.652ZM499.395 124.404V113.013C497.824 110.657 495.467 109.478 492.718 109.478C488.005 109.478 485.255 112.62 485.255 118.905C485.255 124.796 488.398 128.331 492.718 128.331C495.467 128.331 497.824 127.153 499.395 124.404ZM10 152.683H40.2435V158.575H16.6771V173.893H37.8869V179.785H17.0699V196.281H40.6363V202.173H10V152.683ZM65.381 166.43C73.2365 166.43 77.557 171.536 77.557 180.177V202.173H71.2726V180.57C71.2726 176.25 68.9159 172.715 64.2027 172.715C60.2749 172.715 56.74 175.464 55.5617 178.999V202.173H48.8845V167.216H55.5617V172.322C57.1328 169.18 60.6677 166.43 65.381 166.43ZM95.2317 167.216H104.266V172.715H95.2317V191.568C95.2317 195.496 97.1956 197.067 101.123 197.067C102.302 197.067 103.087 197.067 103.873 196.674H104.266V202.173C103.48 202.566 101.909 202.958 100.338 202.958C92.0896 202.958 88.9474 199.423 88.9474 192.353V173.108H83.0558V167.609H88.9474V158.182H95.6245V167.216H95.2317ZM125.082 202.958C114.87 202.958 108.193 196.281 108.193 185.283C108.193 174.286 114.478 166.823 123.904 166.823C133.331 166.823 138.437 173.893 138.437 184.105V187.247H114.87C115.656 194.317 119.976 197.852 126.261 197.852C130.189 197.852 132.938 197.067 136.08 194.71H136.473V200.602C133.331 201.78 129.403 202.958 125.082 202.958ZM114.87 181.356H132.152C131.76 176.25 129.403 172.322 123.904 172.322C119.191 172.322 116.049 175.857 114.87 181.356ZM152.577 172.715C154.148 169.18 157.29 166.823 161.218 166.823C162.789 166.823 163.967 167.216 164.753 167.216V173.893H164.36C163.574 173.5 162.003 173.108 160.432 173.108C156.897 173.108 153.755 175.464 152.969 179.392V202.173H146.292V167.216H152.969V172.715H152.577ZM186.748 166.43C196.96 166.43 202.459 175.071 202.459 184.498C202.459 194.317 196.96 202.565 186.748 202.565C182.427 202.565 178.892 200.209 176.929 197.852V215.134H170.251V167.216H176.929V171.144C178.892 168.787 182.427 166.43 186.748 166.43ZM185.57 197.067C191.854 197.067 195.782 191.961 195.782 184.891C195.782 177.821 191.854 172.715 185.57 172.715C182.035 172.715 178.892 174.679 176.929 178.214V191.568C178.892 194.71 182.035 197.067 185.57 197.067ZM216.991 172.715C218.562 169.18 221.705 166.823 225.632 166.823C227.203 166.823 228.382 167.216 229.167 167.216V173.893H228.382C227.596 173.108 226.025 173.108 224.454 173.108C220.919 173.108 217.777 175.464 216.991 179.392V202.173H210.314V167.216H216.991V172.715ZM238.201 153.076C240.558 153.076 242.522 155.04 242.522 157.004C242.522 159.36 240.558 160.932 238.201 160.932C235.844 160.932 233.881 158.968 233.881 157.004C233.881 155.04 235.844 153.076 238.201 153.076ZM235.059 167.216H241.736V202.173H235.059V167.216ZM264.91 181.749C270.016 183.32 275.515 185.283 275.515 191.961C275.515 199.031 269.623 202.565 262.16 202.565C257.447 202.565 253.126 201.387 250.377 199.423V193.139H250.77C253.519 195.888 257.84 197.067 262.16 197.067C265.695 197.067 269.23 195.496 269.23 192.746C269.23 189.604 266.481 188.818 260.982 187.247C256.269 185.676 250.77 183.712 250.77 177.428C250.77 170.751 256.269 166.823 263.339 166.823C267.266 166.823 271.194 167.609 273.943 169.573V175.857H273.551C270.801 173.5 267.266 172.322 263.339 172.322C259.411 172.322 257.054 174.286 257.054 176.642C256.661 178.999 259.018 179.785 264.91 181.749ZM297.903 202.958C287.69 202.958 281.013 196.281 281.013 185.283C281.013 174.286 287.298 166.823 296.724 166.823C306.151 166.823 311.257 173.893 311.257 184.105V187.247H287.69C288.476 194.317 292.797 197.852 299.081 197.852C303.009 197.852 305.758 197.067 308.9 194.71H309.293V200.602C305.758 201.78 302.223 202.958 297.903 202.958ZM287.69 181.356H304.973C304.58 176.25 302.223 172.322 296.724 172.322C291.618 172.322 288.476 175.857 287.69 181.356Z" fill="black"/>
<path d="M10 54.4894H181.249V5H10V54.4894ZM20.6049 15.9976H170.251V43.8845H20.6049V15.9976Z" fill="#01A982"/>
</svg>
