<svg width="520" height="220" viewBox="0 0 520 220" fill="none" xmlns="http://www.w3.org/2000/svg">
<path d="M122.375 67L78.5556 100.722C74.0486 83.8611 59.4445 71.4861 41.4653 71.4861H10V149.035H41.4653C59.4514 149.035 75.1806 136.674 78.5486 119.813L122.368 153.521L166.208 119.813V149.028H215.653V133.299H183.07V71.4931H165.083V100.708L123.5 134.431L114.507 126.583L134.743 110.833L156.09 93.9861L143.729 83.8819L102.153 116.465L93.1598 108.597L134.743 77.1319L122.375 67.0208V67ZM26.8611 87.2222H40.3403C43.1528 87.2222 45.8958 87.8542 48.4236 89.0139C50.9583 90.1736 53.2708 91.8611 55.2361 93.9653C57.2014 96.0694 58.8195 98.5903 59.9445 101.438C61.0695 104.285 61.6945 107.451 61.6945 110.826C61.6945 113.917 61.125 116.931 60.0972 119.715C59.0824 122.479 57.5767 125.036 55.6528 127.264C53.7737 129.44 51.4726 131.212 48.8889 132.472C46.3056 133.722 43.4375 134.41 40.3472 134.41H26.8542L26.8611 87.2222ZM271.84 133.299V149.035H222.396V71.4931H240.375V133.299H271.84Z" fill="#007DB8"/>
<path d="M480.048 150.458C495.257 150.458 507.618 142.854 510 126.215L509.048 125.263H504.771L503.819 126.215C501.437 138.097 493.833 144.756 480.528 144.756C463.889 144.756 452 132.395 452 110.52C452 88.6453 464.361 76.2981 480.521 76.2981C493.833 76.2981 501.444 82.9578 503.819 93.8883L504.771 94.8397H509.048L510 93.8883C507.625 78.68 495.736 70.5967 480.048 70.5967C461.507 70.5967 444.868 83.9092 444.868 110.055C444.868 137.152 461.507 150.458 480.048 150.458ZM431.562 148.083V72.9717L430.611 72.0203H423L422.055 72.9717L393.528 139.999H392.576L363.104 72.9717L362.153 72.0203H354.548L353.597 72.9717V148.083L354.548 149.034H358.826L359.778 148.083V84.3814H360.729L388.298 148.083L389.25 149.034H394.958L395.909 148.083L423.479 84.3814H424.903V148.083L425.854 149.034H430.132L431.562 148.083ZM338.868 148.083V144.749L337.916 143.805H297.034L296.083 142.854V114.333L297.034 113.381H335.534L336.486 112.43V108.624L335.534 107.673H297.034L296.083 106.722V78.6731L297.034 77.7286H337.916L338.868 76.7772V72.9717L337.916 72.0203H290.375L289.423 72.9717V148.083L290.375 149.034H337.916L338.868 148.083Z" fill="#808080"/>
</svg>
