<svg width="520" height="220" viewBox="0 0 520 220" fill="none" xmlns="http://www.w3.org/2000/svg">
<path d="M373.3 60.9638L366.822 64.7208V100.348V135.911L373.818 136.105L380.749 136.3V96.7209C380.749 75.0204 380.555 57.2067 380.295 57.2067C379.972 57.2067 376.862 58.8909 373.3 60.9638Z" fill="#01213E"/>
<path d="M262.012 83.1173C255.988 84.672 248.862 89.7894 245.559 95.0364C244.652 96.3967 243.291 99.1821 242.579 101.19C241.283 104.623 241.219 106.178 240.959 135.069C240.765 159.814 240.895 165.385 241.607 165.32C242.061 165.32 245.235 163.636 248.603 161.563L254.757 157.87L254.951 146.081C255.016 139.603 255.21 134.291 255.34 134.291C255.47 134.291 257.154 135.069 259.032 136.04C262.206 137.725 263.113 137.854 269.656 137.854C276.393 137.854 277.04 137.725 281.51 135.652C298.417 127.684 302.887 105.53 290.32 91.6679C287.729 88.753 285.461 87.0687 281.899 85.3198C277.559 83.1173 276.522 82.923 270.757 82.7287C267.324 82.5991 263.372 82.7934 262.012 83.1173ZM275.421 97.6922C280.603 99.8947 283.194 104.559 282.806 111.295C282.611 115.117 282.287 116.413 280.733 118.615C278.271 122.178 274.385 124.057 269.397 123.992C261.947 123.992 257.348 120.364 255.793 113.368C253.202 101.903 264.279 93.093 275.421 97.6922Z" fill="#01213E"/>
<path d="M324.198 83.117C317.462 84.8012 310.919 89.5947 307.162 95.5543C299.518 107.603 302.822 124.639 314.482 132.996C326.077 141.287 343.632 139.344 352.636 128.85C361.122 119.004 361.64 104.17 353.996 93.6757C350.951 89.6595 345.769 85.7081 341.105 84.0239C337.802 82.7931 327.632 82.2749 324.198 83.117ZM337.737 98.0158C347.583 102.226 347.389 118.356 337.478 122.826C333.526 124.51 328.02 124.445 324.458 122.696C315.518 118.097 314.935 103.911 323.421 98.6636C327.632 96.0725 332.619 95.8134 337.737 98.0158Z" fill="#01213E"/>
<path d="M387.227 85.0604C387.227 85.773 388.781 89.4005 401.542 118.162C405.429 126.907 408.603 134.55 408.603 135.133C408.603 135.716 406.854 140.056 404.652 144.785C402.449 149.514 399.988 154.955 399.146 156.769L397.656 160.202H405.235H412.878L417.348 149.967C419.81 144.396 424.02 134.68 426.806 128.461C429.526 122.243 433.218 113.757 435.032 109.676C436.781 105.595 439.891 98.4694 441.899 93.9349C443.907 89.4005 445.526 85.3843 445.526 85.0604C445.526 84.6718 442.482 84.4127 438.206 84.4127H430.886L428.749 89.4005C427.583 92.186 424.474 99.3762 421.947 105.465C419.356 111.49 417.024 116.348 416.7 116.154C416.312 115.959 413.915 111.036 411.324 105.141C408.733 99.2467 405.688 92.2507 404.457 89.5949L402.32 84.7366L394.806 84.5422C389.623 84.4127 387.227 84.607 387.227 85.0604Z" fill="#01213E"/>
<path d="M75 39.9757V50.0162L89.251 58.2429C97.0891 62.8421 103.502 66.8583 103.502 67.2469C103.502 67.6356 102.401 68.4777 101.105 69.1255C90.7409 74.0486 81.2186 85.1255 77.9798 96.0729C75.3239 105.012 75 110.389 75 150.939C75 172.445 75.1296 190 75.2591 190C75.3887 190 77.332 188.964 79.4696 187.733C81.6721 186.502 85.2348 184.429 87.502 183.134C89.7045 181.838 91.9069 180.478 92.3603 180.154C93.0081 179.571 93.2024 175.749 93.0729 163.312C93.0729 154.437 93.1377 146.988 93.332 146.794C93.5263 146.664 95.5992 147.636 97.9312 149.061C100.263 150.486 104.733 152.429 107.842 153.466C112.96 155.15 114.449 155.344 121.964 155.344C129.089 155.344 131.097 155.085 134.919 153.789C141.202 151.652 149.688 147.377 164.069 139.085C170.87 135.134 182.206 128.591 189.332 124.445C196.458 120.3 203.583 116.219 205.202 115.247C206.822 114.275 209.348 112.915 210.903 112.138C212.393 111.36 213.624 110.518 213.624 110.259C213.624 109.87 210.968 108.057 207.47 106.113C206.757 105.725 204.036 104.17 201.51 102.68C198.984 101.19 196.652 99.9595 196.393 99.9595C196.069 99.9595 189.202 103.846 183.826 107.085C182.53 107.862 173.785 112.915 170.611 114.664C169.251 115.441 167.891 115.96 167.632 115.83C167.372 115.636 167.113 112.785 167.113 109.482C166.984 92.7044 159.47 79.9433 143.405 69.3198C140.555 67.4413 125.332 58.4372 109.656 49.4332C93.9798 40.4291 80.0526 32.332 78.7571 31.4899C77.3968 30.7125 76.0364 30 75.6478 30C75.2591 30 75 33.6275 75 39.9757ZM130.061 83.5061C137.381 85.5789 144.7 92.251 147.615 99.7652C148.781 102.81 149.105 104.753 149.105 110C149.105 118.615 147.227 123.474 141.591 129.174C132.717 138.243 120.085 140.381 108.814 134.745C104.215 132.478 98.7085 127.036 96.7004 122.891C91.4534 111.814 93.332 99.3117 101.623 90.5668C108.879 82.8583 118.919 80.3967 130.061 83.5061Z" fill="#FF3800"/>
</svg>
