<svg width="520" height="220" viewBox="0 0 520 220" fill="none" xmlns="http://www.w3.org/2000/svg">
<path d="M440.367 178.001C436.137 178.001 433.358 176.117 433.05 172.999H436.415C436.724 174.574 438.206 175.345 440.398 175.345C443.022 175.345 444.689 174.234 444.689 171.61V168.306H444.473C443.887 169.386 442.682 171.115 439.595 171.115C435.643 171.115 432.586 168.151 432.586 162.81C432.586 157.468 435.581 154.381 439.626 154.381C442.744 154.381 443.887 156.264 444.504 157.314H444.72V154.597H447.931V171.733C447.931 176.025 444.689 178.001 440.367 178.001ZM440.336 168.398C443.146 168.398 444.72 166.33 444.72 162.872C444.72 159.475 443.176 157.191 440.336 157.191C437.403 157.191 435.952 159.661 435.952 162.872C435.952 166.145 437.465 168.398 440.336 168.398Z" fill="black"/>
<path d="M418.6 161.421V171.362H415.296V154.597H418.476V157.345H418.662C419.464 155.554 421.101 154.381 423.602 154.381C427.06 154.381 429.313 156.542 429.313 160.71V171.362H426.041V161.112C426.041 158.673 424.713 157.221 422.49 157.221C420.236 157.221 418.6 158.734 418.6 161.421Z" fill="black"/>
<path d="M407.978 171.362V154.597H411.282V171.362H407.978Z" fill="black"/>
<path d="M409.645 152.84C408.503 152.84 407.545 151.975 407.545 150.894C407.545 149.814 408.503 148.949 409.645 148.949C410.756 148.949 411.713 149.814 411.713 150.894C411.713 151.975 410.756 152.84 409.645 152.84Z" fill="#71140B"/>
<path d="M396.492 171.365V154.6H399.672V157.255H399.858C400.475 155.464 402.142 154.353 404.118 154.353C404.52 154.353 405.168 154.383 405.508 154.414V157.564C405.23 157.502 404.458 157.378 403.779 157.378C401.494 157.378 399.796 158.953 399.796 161.145V171.365H396.492Z" fill="black"/>
<path d="M385.995 171.702C381.055 171.702 378.029 168.306 378.029 163.088C378.029 157.932 381.117 154.381 385.779 154.381C389.607 154.381 393.22 156.758 393.22 162.81V163.983H381.302C381.395 167.163 383.263 168.985 386.026 168.985C387.909 168.985 389.113 168.182 389.669 167.163H393.003C392.262 169.88 389.669 171.702 385.995 171.702ZM381.333 161.513H389.978C389.978 158.95 388.341 157.098 385.81 157.098C383.17 157.098 381.456 159.136 381.333 161.513Z" fill="black"/>
<path d="M368.273 171.702C363.333 171.702 360.308 168.306 360.308 163.088C360.308 157.932 363.395 154.381 368.057 154.381C371.886 154.381 375.498 156.758 375.498 162.81V163.983H363.58C363.673 167.163 365.541 168.985 368.304 168.985C370.187 168.985 371.392 168.182 371.947 167.163H375.282C374.541 169.88 371.947 171.702 368.273 171.702ZM363.611 161.513H372.256C372.256 158.95 370.62 157.098 368.088 157.098C365.448 157.098 363.735 159.136 363.611 161.513Z" fill="black"/>
<path d="M346.321 161.421V171.362H343.018V154.597H346.198V157.345H346.383C347.186 155.554 348.822 154.381 351.323 154.381C354.781 154.381 357.035 156.542 357.035 160.71V171.362H353.762V161.112C353.762 158.673 352.434 157.221 350.211 157.221C347.958 157.221 346.321 158.734 346.321 161.421Z" fill="black"/>
<path d="M335.7 171.362V154.597H339.003V171.362H335.7Z" fill="black"/>
<path d="M337.368 152.84C336.226 152.84 335.269 151.975 335.269 150.894C335.269 149.814 336.226 148.949 337.368 148.949C338.48 148.949 339.437 149.814 339.437 150.894C339.437 151.975 338.48 152.84 337.368 152.84Z" fill="#71140B"/>
<path d="M324.124 178.001C319.894 178.001 317.115 176.117 316.806 172.999H320.172C320.48 174.574 321.962 175.345 324.155 175.345C326.779 175.345 328.446 174.234 328.446 171.61V168.306H328.23C327.643 169.386 326.439 171.115 323.352 171.115C319.4 171.115 316.343 168.151 316.343 162.81C316.343 157.468 319.338 154.381 323.383 154.381C326.501 154.381 327.643 156.264 328.261 157.314H328.477V154.597H331.688V171.733C331.688 176.025 328.446 178.001 324.124 178.001ZM324.093 168.398C326.902 168.398 328.477 166.33 328.477 162.872C328.477 159.475 326.933 157.191 324.093 157.191C321.16 157.191 319.709 159.661 319.709 162.872C319.709 166.145 321.221 168.398 324.093 168.398Z" fill="black"/>
<path d="M302.355 161.421V171.362H299.052V154.597H302.232V157.345H302.417C303.22 155.554 304.856 154.381 307.357 154.381C310.815 154.381 313.069 156.542 313.069 160.71V171.362H309.796V161.112C309.796 158.673 308.468 157.221 306.246 157.221C303.992 157.221 302.355 158.734 302.355 161.421Z" fill="black"/>
<path d="M281.146 171.364V149.01H295.164V151.943H284.543V158.705H294.423V161.607H284.543V168.431H295.287V171.364H281.146Z" fill="black"/>
<path d="M262.097 171.702C257.342 171.702 254.254 168.244 254.254 163.057C254.254 157.839 257.342 154.381 262.097 154.381C266.82 154.381 269.908 157.839 269.908 163.057C269.908 168.244 266.82 171.702 262.097 171.702ZM262.097 168.954C265.122 168.954 266.573 166.268 266.573 163.057C266.573 159.846 265.122 157.098 262.097 157.098C259.009 157.098 257.558 159.846 257.558 163.057C257.558 166.268 259.009 168.954 262.097 168.954Z" fill="black"/>
<path d="M247.678 171.362V154.597H250.981V171.362H247.678Z" fill="black"/>
<path d="M247.678 171.362V154.597H250.981V171.362H247.678Z" fill="black"/>
<path d="M249.345 152.84C248.202 152.84 247.245 151.975 247.245 150.894C247.245 149.814 248.202 148.949 249.345 148.949C250.456 148.949 251.413 149.814 251.413 150.894C251.413 151.975 250.456 152.84 249.345 152.84Z" fill="#71140B"/>
<path d="M235.051 171.703C231.006 171.703 228.042 168.431 228.042 163.027C228.042 157.562 231.037 154.382 235.081 154.382C238.2 154.382 239.342 156.266 239.929 157.315H240.083V149.01H243.387V171.364H240.176V168.739H239.929C239.311 169.851 238.107 171.703 235.051 171.703ZM235.792 168.894C238.601 168.894 240.176 166.485 240.176 162.966C240.176 159.477 238.632 157.192 235.792 157.192C232.858 157.192 231.407 159.662 231.407 162.966C231.407 166.331 232.92 168.894 235.792 168.894Z" fill="black"/>
<path d="M221.495 164.384V154.597H224.768V171.362H221.557V168.46H221.371C220.6 170.251 218.871 171.578 216.37 171.578C213.128 171.578 210.843 169.417 210.843 165.249V154.597H214.147V164.847C214.147 167.132 215.536 168.583 217.543 168.583C219.365 168.583 221.495 167.256 221.495 164.384Z" fill="black"/>
<path d="M192.907 166.639C192.907 162.81 196.149 161.822 199.174 161.606C200.286 161.529 202.802 161.39 203.589 161.359L203.558 160.031C203.558 158.148 202.416 157.036 200.162 157.036C198.217 157.036 197.044 157.932 196.704 159.167H193.432C193.74 156.388 196.334 154.381 200.286 154.381C202.941 154.381 206.862 155.369 206.862 160.216V171.363H203.651V169.078H203.528C202.879 170.344 201.335 171.733 198.557 171.733C195.377 171.733 192.907 169.911 192.907 166.639ZM196.118 166.669C196.118 168.275 197.445 169.109 199.298 169.109C201.984 169.109 203.589 167.318 203.589 165.311V163.767L199.637 164.045C197.476 164.199 196.118 165.002 196.118 166.669Z" fill="black"/>
<path d="M171.233 161.421V171.362H167.93V154.597H171.11V157.345H171.295C172.098 155.554 173.734 154.381 176.235 154.381C179.693 154.381 181.947 156.542 181.947 160.71V171.362H178.674V161.112C178.674 158.673 177.346 157.221 175.123 157.221C172.87 157.221 171.233 158.734 171.233 161.421Z" fill="black"/>
<path d="M149.991 166.639C149.991 162.81 153.233 161.822 156.259 161.606C157.37 161.529 159.887 161.39 160.674 161.359L160.643 160.031C160.643 158.148 159.501 157.036 157.247 157.036C155.302 157.036 154.128 157.932 153.789 159.167H150.516C150.825 156.388 153.418 154.381 157.37 154.381C160.025 154.381 163.947 155.369 163.947 160.216V171.363H160.736V169.078H160.612C159.964 170.344 158.42 171.733 155.641 171.733C152.461 171.733 149.991 169.911 149.991 166.639ZM153.202 166.669C153.202 168.275 154.53 169.109 156.382 169.109C159.068 169.109 160.674 167.318 160.674 165.311V163.767L156.722 164.045C154.561 164.199 153.202 165.002 153.202 166.669Z" fill="black"/>
<path d="M123.933 171.362V154.597H127.113V157.345H127.298C128.008 155.462 129.644 154.381 131.867 154.381C134.09 154.381 135.665 155.492 136.375 157.345H136.56C137.363 155.523 139.154 154.381 141.593 154.381C144.619 154.381 146.78 156.295 146.78 160.124V171.362H143.476V160.432C143.476 158.179 142.056 157.221 140.327 157.221C138.197 157.221 136.993 158.673 136.993 160.68V171.362H133.72V160.247C133.72 158.426 132.454 157.221 130.663 157.221C128.811 157.221 127.236 158.765 127.236 161.019V171.362H123.933Z" fill="black"/>
<path d="M112.446 171.365V154.6H115.626V157.255H115.812C116.429 155.464 118.096 154.353 120.072 154.353C120.474 154.353 121.122 154.383 121.462 154.414V157.564C121.184 157.502 120.412 157.378 119.733 157.378C117.448 157.378 115.75 158.953 115.75 161.145V171.365H112.446Z" fill="black"/>
<path d="M101.949 171.702C97.0086 171.702 93.9829 168.306 93.9829 163.088C93.9829 157.932 97.0704 154.381 101.732 154.381C105.561 154.381 109.173 156.758 109.173 162.81V163.983H97.2556C97.3482 167.163 99.2161 168.985 101.979 168.985C103.863 168.985 105.067 168.182 105.623 167.163H108.957C108.216 169.88 105.623 171.702 101.949 171.702ZM97.2865 161.513H105.931C105.931 158.95 104.295 157.098 101.763 157.098C99.1235 157.098 97.41 159.136 97.2865 161.513Z" fill="black"/>
<path d="M87.4392 156.081C86.6056 153.426 84.5988 151.821 81.6348 151.821C77.8681 151.821 74.9659 154.785 74.9659 160.188C74.9659 165.591 77.8372 168.555 81.7892 168.555C85.3552 168.555 87.7171 166.301 87.7789 162.72H82.2832V159.91H91.0824V162.442C91.0824 168.092 87.1922 171.674 81.7583 171.674C75.7069 171.674 71.6006 167.258 71.6006 160.188C71.6006 153.056 75.8304 148.702 81.6039 148.702C86.4512 148.702 90.1562 151.728 90.9281 156.081H87.4392Z" fill="black"/>
<path d="M234.384 86.6662C215.698 110.733 200.378 130.584 200.346 130.772C200.283 130.961 200.849 131.496 201.604 131.936C202.328 132.408 204.624 133.95 206.701 135.365C215.069 141.091 215.886 141.657 216.17 141.657C216.327 141.657 219.001 138.7 222.115 135.082L227.778 128.476H268.359H308.94L313.973 134.61C316.742 137.976 319.164 140.965 319.384 141.217C319.667 141.626 320.926 140.839 327.563 136.12C331.842 133.069 335.491 130.458 335.617 130.332C335.868 130.112 330.992 123.568 320.737 110.355C318.723 107.744 307.902 93.6816 296.671 79.053C270.058 44.4162 269.051 43.0949 268.673 43.0005C268.516 42.9376 253.07 62.5997 234.384 86.6662ZM281.477 92.7693L293.651 108.782L268.61 108.877C254.832 108.908 243.507 108.877 243.412 108.814C243.35 108.719 247.565 103.245 252.818 96.6073C258.041 89.9694 263.766 82.7652 265.496 80.5316C267.226 78.3294 268.799 76.5677 268.957 76.6306C269.145 76.6935 274.776 83.9607 281.477 92.7693Z" fill="black"/>
<path d="M131.673 44.3516C128.999 44.5404 123.336 45.3898 120.348 46.0504C105.594 49.2907 93.8597 55.1737 84.7054 63.9508C77.061 71.2809 72.94 78.3593 71.43 86.8848C69.1021 99.9404 76.306 113.908 91.0914 125.014C99.5537 131.4 110.47 135.458 124.594 137.472C130.509 138.289 147.339 138.289 153.221 137.472C169.139 135.206 182.257 130.393 192.607 123L194.904 121.364V102.08V82.8265H184.051H173.197V96.354V109.85L171.184 110.983C154.197 120.483 126.922 120.704 108.551 111.517C94.08 104.313 89.1096 93.6485 95.2439 83.204C96.691 80.7187 101.441 76.0627 104.618 73.9549C114.496 67.4743 127.268 63.9508 140.795 63.9508C147.056 63.9508 154.826 64.989 159.639 66.4676C160.74 66.8136 161.778 67.0024 161.904 66.8766C162.187 66.562 169.139 48.1582 169.045 48.0324C168.982 48.0009 167.157 47.529 164.955 46.9942C159.954 45.7673 154.574 44.855 149.918 44.446C146.584 44.1629 135.039 44.0999 131.673 44.3516Z" fill="black"/>
<path d="M344.331 87.3903V129.389H396.394H448.458V119.479V109.569H407.09H365.723V103.749V97.9293H399.698H433.672V87.233V76.5368H399.698H365.723V71.0314V65.526H405.36H444.997V55.459V45.392H394.664H344.331V87.3903Z" fill="black"/>
</svg>
