<svg width="520" height="220" viewBox="0 0 520 220" fill="none" xmlns="http://www.w3.org/2000/svg">
<path d="M61.1635 71.7353C60.1696 72.0491 58.5479 73.1477 57.5017 74.1939C56.0892 75.6587 10.7871 146.541 10.0024 148.582C9.8978 148.791 13.1935 149 17.3261 149H24.8067L31.8688 137.491L38.9309 126.035L54.363 125.878L69.795 125.721L73.5614 119.705L77.3802 113.689L62.2621 113.428L47.1439 113.166L55.3046 99.9837C59.8557 92.7123 63.6222 86.7488 63.7791 86.8011C63.936 86.8011 72.7244 100.664 83.2915 117.613L102.595 148.477H110.18H117.765L116.823 147.012C116.3 146.227 108.14 133.359 98.6712 118.398C89.2027 103.436 79.1588 87.5335 76.334 83.0869C70.7366 74.2985 69.7427 73.0954 66.8132 71.8399C64.6161 70.9506 63.7268 70.9506 61.1635 71.7353Z" fill="#0E2E5B"/>
<path d="M123.415 109.975V149H130.738H138.062L138.167 116.148L138.323 83.3485H163.956H189.589L192.205 84.6563C195.291 86.1734 196.913 88.4228 197.436 91.7184C198.116 96.2696 196.285 100.507 192.78 102.495C190.635 103.75 190.583 103.75 168.717 104.012L146.746 104.273L169.763 126.349L192.728 148.477L201.621 148.425H210.514L194.088 132.365L177.662 116.253L181.428 116.776C192.571 118.293 202.981 113.271 207.48 104.116C209.415 100.193 209.468 100.036 209.468 94.1248C209.468 88.3705 209.363 87.8473 207.794 84.5517C204.864 78.3789 199.11 73.8801 191.682 72.1014C189.851 71.6306 179.493 71.3691 156.266 71.2121L123.415 70.9506V109.975Z" fill="#0E2E5B"/>
<path d="M225.423 110.028V149H232.485H239.547V110.028V71.0552H232.485H225.423V110.028Z" fill="#0E2E5B"/>
<path d="M270.307 72.0496C262.564 74.5605 257.124 80.001 254.979 87.4816C253.671 91.9281 254.09 98.624 255.868 102.443C258.536 108.249 263.924 112.644 270.882 114.684C273.288 115.364 277.055 115.521 294.736 115.521C306.82 115.521 316.969 115.73 318.59 116.044C324.606 117.195 327.745 121.17 327.327 127.029C327.065 130.691 325.339 133.255 322.043 135.033C319.846 136.184 319.584 136.184 291.964 136.446L264.134 136.707L260.524 142.723L256.915 148.739L288.04 148.896C314.144 149 319.689 148.896 322.514 148.216C332.505 145.914 338.783 138.381 339.777 127.5C340.561 119.549 336.795 112.068 329.838 107.569C324.031 103.803 324.188 103.855 297.613 103.489C271.614 103.175 271.719 103.227 268.737 100.036C266.226 97.2639 265.651 91.9804 267.534 88.3186C268.476 86.54 270.882 84.3429 272.765 83.5059C273.968 82.9828 280.664 82.8258 301.275 82.6689L328.216 82.512L331.25 76.7577L334.284 71.0556L303.786 71.108C275.747 71.108 273.027 71.2126 270.307 72.0496Z" fill="#0E2E5B"/>
<path d="M347.153 76.6526L343.229 82.3023L359.812 82.5638L376.343 82.8254L376.5 115.887L376.605 149H383.667H390.729L390.833 115.939L390.99 82.8254L406.318 82.6685L421.593 82.5638V76.8095V71.0552H386.335H351.024L347.153 76.6526Z" fill="#0E2E5B"/>
<path d="M452.195 72.0491C451.358 72.5723 450.103 73.5662 449.475 74.2462C448.69 75.1355 410.137 135.608 402.499 147.954C402.29 148.268 404.905 148.477 409.718 148.477H417.303L424.47 136.968L431.584 125.46H447.121H462.658L466.32 119.601C468.36 116.41 470.034 113.585 470.138 113.323C470.243 113.114 463.547 112.852 455.229 112.8L440.111 112.643L448.272 99.4606C452.718 92.1892 456.485 86.278 456.642 86.278C456.799 86.278 465.483 100.402 475.997 117.613L495.091 149H502.572C506.652 149 510 148.895 510 148.791C510 148.686 505.71 141.781 500.427 133.463C495.143 125.198 484.733 108.772 477.305 96.9496C469.877 85.1271 463.181 74.8217 462.448 74.037C461.716 73.2 460.461 72.2061 459.676 71.7876C457.688 70.7413 454.079 70.846 452.195 72.0491Z" fill="#0E2E5B"/>
</svg>
