<svg width="110" height="110" viewBox="0 0 110 110" fill="none" xmlns="http://www.w3.org/2000/svg">
<rect width="54" height="54" rx="27" fill="#EFF1F6"/>
<rect x="37.4854" y="49.2744" width="23.5784" height="22.6716" fill="#007ADF"/>
<path d="M59.6981 47.2549H39.3363C37.6966 47.2549 36.3672 48.5889 36.3672 50.223V70.5839C36.3672 72.2217 37.6976 73.553 39.3363 73.553H59.6971C61.334 73.553 62.6671 72.2208 62.6671 70.5839V50.223C62.668 48.5889 61.334 47.2549 59.6981 47.2549ZM60.1197 70.5839C60.1197 70.8188 59.9293 71.0083 59.6971 71.0083H39.3363C39.1023 71.0083 38.9109 70.8188 38.9109 70.5839V50.223C38.9109 49.9891 39.1023 49.7995 39.3363 49.7995H59.6971C59.9293 49.7995 60.1197 49.9891 60.1197 50.223V70.5839Z" fill="black"/>
<path d="M84.7447 13H25.269H25.2662C18.5101 13.0009 13.0136 18.4947 13.0136 25.2472V47.6258C13.0118 47.6413 13.0118 47.6585 13.0091 47.6775C12.9683 48.3495 13.4625 48.9381 14.1272 49.0188C14.1825 49.026 14.2342 49.0297 14.285 49.0297C14.3086 49.0297 14.3304 49.0297 14.3494 49.0278H29.5802V54.9669H14.2732C13.5731 54.9669 13 55.5373 13 56.2383C13 56.9411 13.5731 57.5106 14.2732 57.5106H29.5811V63.4497H14.2732C13.5731 63.4497 13 64.021 13 64.7202C13 65.4248 13.5731 65.9953 14.2732 65.9953H29.5811V71.9325H14.2732C13.6013 71.9325 13.0517 72.4548 13.0091 73.1259C13.0045 73.1967 13.0063 73.2647 13.0136 73.3363V95.6324C13.0136 96.3362 13.5813 96.9039 14.285 96.9057L36.7879 96.9483H36.7906C37.1271 96.9483 37.4517 96.8132 37.6921 96.5756C37.9288 96.3362 38.0639 96.0115 38.0639 95.6751V80.34H44.0002V95.6751C44.0002 96.377 44.5706 96.9483 45.2743 96.9483C45.9744 96.9483 46.5476 96.377 46.5476 95.6751V80.34H52.4839V95.6751C52.4839 96.377 53.0543 96.9483 53.7571 96.9483C54.4582 96.9483 55.0286 96.377 55.0286 95.6751V80.34H60.9676V95.6751C60.9676 96.377 61.5353 96.9447 62.2381 96.9483L84.7419 96.9855C85.0802 96.9855 85.4039 96.8531 85.6406 96.6173C85.8791 96.3743 86.0152 96.0523 86.0152 95.7141V73.2057C86.0152 72.5029 85.4448 71.9325 84.7419 71.9325H69.4504V65.9953H84.7437C85.4466 65.9953 86.017 65.4248 86.017 64.7202C86.017 64.021 85.4466 63.4497 84.7437 63.4497H69.4504V57.5106H84.7437C85.4466 57.5106 86.017 56.9411 86.017 56.2383C86.017 55.5373 85.4466 54.9669 84.7437 54.9669H69.4504V49.0278H84.7437C85.4466 49.0278 86.017 48.4583 86.017 47.7546V26.5186H95.7295C96.4287 26.5186 97 25.9473 97 25.2481C97.0009 18.4929 91.5035 13 84.7447 13ZM35.5183 94.4009L15.5592 94.3637V74.479H29.5811V75.6751C29.5811 78.247 31.6732 80.3409 34.2469 80.3409H35.5183V94.4009ZM34.246 77.7945C33.0779 77.7945 32.123 76.845 32.123 75.676V45.1347C32.123 43.9639 33.0779 43.0135 34.246 43.0135H64.7855C65.9563 43.0135 66.9085 43.9639 66.9085 45.1347V75.676C66.9085 76.845 65.9563 77.7945 64.7855 77.7945H34.246ZM83.4723 74.479V94.4399L63.5141 94.4046V80.3409H64.7846C67.3583 80.3409 69.4504 78.247 69.4504 75.6751V74.479H83.4723ZM83.4723 46.4823H69.4504V45.1347C69.4504 42.561 67.3583 40.468 64.7846 40.468H63.5141V33.3056H69.0278C69.7315 33.3056 70.301 32.737 70.301 32.0323C70.301 31.3322 69.7315 30.7609 69.0278 30.7609H62.2399C61.5398 30.7609 60.9694 31.3322 60.9694 32.0323V40.4689H55.0304V32.0323C55.0304 31.3322 54.46 30.7609 53.759 30.7609C53.0561 30.7609 52.4857 31.3322 52.4857 32.0323V40.4689H46.5494V32.0323C46.5494 31.3322 45.9763 30.7609 45.2762 30.7609C44.5724 30.7609 44.002 31.3322 44.002 32.0323V40.4689H38.0648V32.0323C38.0648 31.3322 37.4926 30.7609 36.7916 30.7609H30.0064C29.3009 30.7609 28.7332 31.3322 28.7332 32.0323C28.7332 32.737 29.3009 33.3056 30.0064 33.3056H35.5183V40.468H34.2469C31.6732 40.468 29.5811 42.5619 29.5811 45.1347V46.4823H15.5592V25.2472C15.5592 19.8976 19.9148 15.5465 25.269 15.5465C31.0176 15.5465 35.5183 19.8051 35.5183 25.2472C35.5183 25.9464 36.0878 26.5177 36.7916 26.5177H83.4732L83.4723 46.4823ZM38.0004 23.9739C37.6413 20.5179 35.8421 17.5271 33.1659 15.5465H84.7447C89.668 15.5465 93.7462 19.2247 94.3728 23.9739H38.0004Z" fill="black"/>
</svg>
