<svg width="110" height="110" viewBox="0 0 110 110" fill="none" xmlns="http://www.w3.org/2000/svg">
<rect width="54" height="54" rx="27" fill="#EFF1F6"/>
<rect x="14.8137" y="14.8135" width="80.7099" height="12.6959" fill="#007ADF"/>
<path d="M22.7577 88.5151H44.8124C45.5161 88.5151 46.0883 87.9465 46.0883 87.2419V79.9036C46.792 79.987 47.503 80.0306 48.214 80.0306C57.6108 80.0306 65.4133 72.9888 66.3628 63.651C66.4317 62.9518 65.9239 62.3261 65.2247 62.2571C64.5328 62.1782 63.9007 62.6942 63.8291 63.3943C63.0138 71.4263 56.3022 77.4859 48.214 77.4859C45.614 77.4859 43.0286 76.8239 40.737 75.5752C40.4622 75.4265 40.1402 75.3802 39.8401 75.4528L32.9407 77.057L34.5286 70.1187C34.5976 69.8158 34.5522 69.5002 34.4071 69.2281C33.172 66.9465 32.5154 64.3728 32.5154 61.7892C32.5154 53.1333 39.5571 46.0925 48.2149 46.0925C51.787 46.0925 55.1532 47.2614 57.9481 49.4741C58.4986 49.9112 59.3002 49.8169 59.7373 49.2665C60.1744 48.716 60.081 47.9144 59.5297 47.4791C56.2804 44.9063 52.3673 43.546 48.214 43.546C47.4939 43.546 46.7857 43.5995 46.0883 43.6803V36.3338C46.0883 35.631 45.5161 35.0615 44.8124 35.0615H22.7577C22.0576 35.0615 21.4872 35.631 21.4872 36.3338V57.5479C21.4872 58.2489 22.0576 58.8184 22.7577 58.8184H30.2356C30.0751 59.7869 29.9708 60.7744 29.9708 61.7874C29.9708 62.7849 30.0851 63.7743 30.2501 64.7573H22.7577C22.0576 64.7573 21.4872 65.3277 21.4872 66.0287V87.2409C21.4863 87.9465 22.0567 88.5151 22.7577 88.5151ZM24.0318 56.2737V37.6062H43.5419V44.1727C37.5194 45.7733 32.7068 50.3665 30.8269 56.2737H24.0318ZM24.0318 67.3029H30.8622C31.1579 68.2279 31.5016 69.1374 31.9396 70.0053L30.0025 78.4726C29.9055 78.8997 30.0334 79.3468 30.3435 79.6587C30.5875 79.8982 30.9094 80.0297 31.2431 80.0297C31.3374 80.0297 31.4335 80.0197 31.5288 79.997L39.9507 78.0382C41.0979 78.6231 42.3022 79.0639 43.54 79.3939V85.9695H24.0318V67.3029Z" fill="black"/>
<path d="M95.7268 13H14.2741C13.5704 13 13 13.5713 13 14.2732V95.7268C13 96.4278 13.5704 96.9991 14.2741 96.9991H95.7268C96.4278 96.9991 97 96.4278 97 95.7268V14.2741C97.0009 13.5713 96.4287 13 95.7268 13ZM94.4536 94.4563H15.5446V29.122H94.4536V94.4563ZM94.4536 26.5765H15.5446V15.5474H94.4536V26.5765Z" fill="black"/>
<path d="M88.9388 22.3372C89.278 22.3372 89.6017 22.2021 89.8384 21.9645C90.0742 21.7269 90.213 21.3869 90.213 21.0658C90.213 20.7258 90.0742 20.4029 89.8384 20.1472C89.3641 19.6901 88.5144 19.6901 88.0401 20.1653C87.8016 20.4029 87.6683 20.7258 87.6683 21.0658C87.6683 21.405 87.8016 21.7269 88.0401 21.9645C88.2786 22.2021 88.6006 22.3372 88.9388 22.3372Z" fill="black"/>
<path d="M80.167 22.3367C80.8798 22.3367 81.4375 21.7581 81.4375 21.0653C81.4375 20.3507 80.8798 19.793 80.167 19.793C79.4696 19.793 78.8938 20.3507 78.8938 21.0653C78.8938 21.759 79.4706 22.3367 80.167 22.3367Z" fill="black"/>
<path d="M71.4112 22.3372C71.7504 22.3372 72.0723 22.2021 72.3081 21.9645C72.5466 21.7269 72.6826 21.4049 72.6826 21.0658C72.6826 20.7257 72.5466 20.4029 72.3081 20.1653C71.8338 19.691 71.0031 19.6729 70.4926 20.1653C70.2731 20.4029 70.1371 20.7257 70.1371 21.0658C70.1371 21.3868 70.2722 21.7269 70.5116 21.9645C70.7483 22.2021 71.0702 22.3372 71.4112 22.3372Z" fill="black"/>
<path d="M64.2853 52.3942L48.2077 68.4727L40.2891 60.5541C39.7912 60.0562 38.985 60.0562 38.489 60.5541C37.9929 61.051 37.9929 61.8563 38.489 62.3533L47.3072 71.1715C47.5575 71.42 47.8822 71.546 48.2086 71.546C48.5324 71.546 48.8598 71.42 49.1073 71.1715L66.0827 54.1943C66.5815 53.6964 66.5815 52.8912 66.0827 52.3942C65.5867 51.8972 64.7805 51.8972 64.2853 52.3942Z" fill="black"/>
<path d="M79.5493 43.9703H87.2412C87.9441 43.9703 88.5145 43.399 88.5145 42.698C88.5145 41.9952 87.9441 41.4248 87.2412 41.4248H79.5493C78.8483 41.4248 78.2788 41.9952 78.2788 42.698C78.2779 43.399 78.8474 43.9703 79.5493 43.9703Z" fill="black"/>
<path d="M61.7852 43.9703H72.7617C73.4655 43.9703 74.0359 43.399 74.0359 42.698C74.0359 41.9952 73.4655 41.4248 72.7617 41.4248H61.7852C61.0851 41.4248 60.512 41.9952 60.512 42.698C60.5111 43.399 61.0842 43.9703 61.7852 43.9703Z" fill="black"/>
<path d="M87.2415 49.9102H71.9691C71.2663 49.9102 70.6959 50.4815 70.6959 51.1825C70.6959 51.8853 71.2663 52.4566 71.9691 52.4566H87.2415C87.9443 52.4566 88.5147 51.8853 88.5147 51.1825C88.5147 50.4815 87.9443 49.9102 87.2415 49.9102Z" fill="black"/>
<path d="M87.2416 71.1211H70.1873C69.4872 71.1211 68.9141 71.6924 68.9141 72.3934C68.9141 73.0962 69.4872 73.6666 70.1873 73.6666H87.2416C87.9444 73.6666 88.5148 73.0962 88.5148 72.3934C88.5148 71.6924 87.9444 71.1211 87.2416 71.1211Z" fill="black"/>
<path d="M82.1492 79.6064H76.4387C75.7359 79.6064 75.1655 80.1769 75.1655 80.8797C75.1655 81.5816 75.7359 82.1529 76.4387 82.1529H82.1492C82.852 82.1529 83.4224 81.5816 83.4224 80.8797C83.4224 80.1769 82.852 79.6064 82.1492 79.6064Z" fill="black"/>
<path d="M69.6494 79.6064H61.7852C61.0851 79.6064 60.512 80.1769 60.512 80.8797C60.512 81.5816 61.0851 82.1529 61.7852 82.1529H69.6494C70.3522 82.1529 70.9226 81.5816 70.9226 80.8797C70.9226 80.1769 70.3522 79.6064 69.6494 79.6064Z" fill="black"/>
</svg>
