<svg width="110" height="110" viewBox="0 0 110 110" fill="none" xmlns="http://www.w3.org/2000/svg">
<rect width="54" height="54" rx="27" fill="#EFF1F6"/>
<rect x="59.2495" y="47.46" width="6.34797" height="6.34797" fill="#007ADF"/>
<rect x="71.9454" y="38.3916" width="6.34797" height="6.34797" fill="#007ADF"/>
<rect x="82.8276" y="52.9014" width="6.34797" height="6.34797" fill="#007ADF"/>
<path d="M31.137 31.5903V14.8135L14.3602 31.5903H31.137Z" fill="#007ADF"/>
<path d="M63.9072 45.8473V38.0312C63.9072 37.3293 63.334 36.7598 62.633 36.7598C61.933 36.7598 61.3625 37.3293 61.3625 38.0312V45.8473C59.1707 46.4168 57.5465 48.3947 57.5465 50.757C57.5465 53.123 59.1707 55.1 61.3625 55.6677V63.4847C61.3625 64.1875 61.933 64.757 62.633 64.757C63.334 64.757 63.9072 64.1875 63.9072 63.4847V55.6677C66.0963 55.1 67.7232 53.123 67.7232 50.757C67.7232 48.3947 66.0963 46.4168 63.9072 45.8473ZM62.633 53.3026C61.2311 53.3026 60.0884 52.1599 60.0884 50.757C60.0884 49.3541 61.2311 48.2133 62.633 48.2133C64.0387 48.2133 65.1786 49.3541 65.1786 50.757C65.1786 52.1599 64.0387 53.3026 62.633 53.3026Z" fill="black"/>
<path d="M87.6647 50.9384V38.0312C87.6647 37.3293 87.0971 36.7598 86.3961 36.7598C85.6905 36.7598 85.1201 37.3293 85.1201 38.0312V50.9384C82.9328 51.5079 81.3041 53.484 81.3041 55.8481C81.3041 58.2132 82.9328 60.1883 85.1201 60.7587V63.4847C85.1201 64.1875 85.6905 64.757 86.3961 64.757C87.0971 64.757 87.6647 64.1875 87.6647 63.4847V60.7587C89.8539 60.1883 91.4853 58.2132 91.4853 55.8481C91.4853 53.484 89.8539 51.5079 87.6647 50.9384ZM86.3961 58.3946C84.9904 58.3946 83.8478 57.2537 83.8478 55.8481C83.8478 54.4452 84.9904 53.3017 86.3961 53.3017C87.7962 53.3017 88.9407 54.4452 88.9407 55.8481C88.9407 57.2537 87.7962 58.3946 86.3961 58.3946Z" fill="black"/>
<path d="M74.5126 36.7578C71.705 36.7578 69.4207 39.0413 69.4207 41.848C69.4207 44.214 71.0503 46.1891 73.2421 46.7595V63.4846C73.2421 64.1874 73.8116 64.7569 74.5126 64.7569C75.2164 64.7569 75.7859 64.1874 75.7859 63.4846V46.7595C77.9759 46.1891 79.6046 44.214 79.6046 41.848C79.6055 39.0404 77.3203 36.7578 74.5126 36.7578ZM74.5126 44.3935C73.1106 44.3935 71.968 43.2518 71.968 41.848C71.968 40.4442 73.1106 39.3024 74.5126 39.3024C75.9183 39.3024 77.0582 40.4442 77.0582 41.848C77.0582 43.2518 75.9183 44.3935 74.5126 44.3935Z" fill="black"/>
<path d="M90.6348 29.9709H80.0255V14.2723C80.0255 13.5695 79.456 13 78.755 13H31.2432C30.9022 13 30.5803 13.1342 30.339 13.3745L13.3718 30.3427C13.1333 30.5803 13 30.9049 13 31.2423V95.7259C13 96.4269 13.5695 96.9973 14.2705 96.9973H78.7541C79.4551 96.9973 80.0246 96.4269 80.0246 95.7259V71.5455H90.6339C94.1416 71.5455 97 68.6908 97 65.1831V36.3342C97 32.8256 94.1425 29.9709 90.6348 29.9709ZM29.9663 17.3456V29.9681H17.3447L29.9663 17.3456ZM77.4827 94.4527H15.5437V32.5146H31.2432C31.9442 32.5146 32.5119 31.9433 32.5119 31.2423V15.5437H77.4827V29.9709H58.3953C54.8839 29.9709 52.0282 32.8247 52.0282 36.3342V77.0601C52.0282 77.529 52.2885 77.9588 52.7039 78.181C52.8898 78.2826 53.0947 78.3324 53.2997 78.3324C53.5472 78.3324 53.7957 78.2599 54.0052 78.1184L63.8699 71.5455H77.4818L77.4827 94.4527ZM94.4527 65.1831C94.4527 67.2879 92.7405 69.0009 90.6348 69.0009H63.4845C63.2315 69.0009 62.9885 69.0744 62.779 69.2122L54.5765 74.6814V36.3342C54.5765 34.2285 56.2886 32.5164 58.3953 32.5164H90.6348C92.7405 32.5164 94.4527 34.2285 94.4527 36.3342V65.1831Z" fill="black"/>
<path d="M38.0312 32.5142H46.513C47.2185 32.5142 47.7862 31.9429 47.7862 31.2419C47.7862 30.5391 47.2185 29.9678 46.513 29.9678H38.0312C37.3256 29.9678 36.7579 30.5391 36.7579 31.2419C36.7579 31.9429 37.3256 32.5142 38.0312 32.5142Z" fill="black"/>
<path d="M24.4545 42.697H46.5119C47.2175 42.697 47.7851 42.1266 47.7851 41.4256C47.7851 40.7228 47.2175 40.1523 46.5119 40.1523H24.4545C23.749 40.1523 23.1786 40.7228 23.1786 41.4256C23.1786 42.1266 23.749 42.697 24.4545 42.697Z" fill="black"/>
<path d="M46.5126 50.333H36.6859C35.9849 50.333 35.4154 50.9016 35.4154 51.6062C35.4154 52.3081 35.9849 52.8776 36.6859 52.8776H46.5126C47.2181 52.8776 47.7858 52.3081 47.7858 51.6062C47.7858 50.9016 47.2181 50.333 46.5126 50.333Z" fill="black"/>
<path d="M24.4545 52.8786H29.8975C30.6012 52.8786 31.1689 52.3091 31.1689 51.6072C31.1689 50.9026 30.6012 50.334 29.8975 50.334H24.4545C23.749 50.334 23.1786 50.9026 23.1786 51.6072C23.1786 52.3091 23.749 52.8786 24.4545 52.8786Z" fill="black"/>
<path d="M24.4545 63.0614H41.4227C42.1237 63.0614 42.6959 62.4928 42.6959 61.7891C42.6959 61.0871 42.1237 60.5186 41.4227 60.5186H24.4545C23.749 60.5186 23.1786 61.0871 23.1786 61.7891C23.1786 62.4928 23.749 63.0614 24.4545 63.0614Z" fill="black"/>
<path d="M46.5127 70.6992H41.1414C40.4377 70.6992 39.87 71.2705 39.87 71.9697C39.87 72.6743 40.4377 73.2448 41.1414 73.2448H46.5127C47.2182 73.2448 47.7859 72.6743 47.7859 71.9697C47.7859 71.2705 47.2182 70.6992 46.5127 70.6992Z" fill="black"/>
<path d="M24.4545 73.2457H34.3528C35.0566 73.2457 35.6242 72.6753 35.6242 71.9707C35.6242 71.2715 35.0566 70.7002 34.3528 70.7002H24.4545C23.749 70.7002 23.1786 71.2715 23.1786 71.9707C23.1786 72.6753 23.749 73.2457 24.4545 73.2457Z" fill="black"/>
<path d="M23.1786 82.1551C23.1786 82.857 23.749 83.4283 24.4545 83.4283H68.1476C68.8532 83.4283 69.4208 82.857 69.4208 82.1551C69.4208 81.4522 68.8532 80.8818 68.1476 80.8818H24.4545C23.749 80.8818 23.1786 81.4522 23.1786 82.1551Z" fill="black"/>
</svg>
