<svg width="110" height="110" viewBox="0 0 110 110" fill="none" xmlns="http://www.w3.org/2000/svg">
<rect width="54" height="54" rx="27" fill="#EFF1F6"/>
<path d="M88.9588 30.1916H71.7345C67.3008 30.1916 63.6942 33.7991 63.6942 38.2292V59.6568C63.6942 62.2241 65.7845 64.3145 68.351 64.3145C69.1128 64.3145 69.8256 64.1104 70.4622 63.784V75.7882H15.5456V19.3644C15.5456 17.2587 17.2578 15.5465 19.3626 15.5465H74.9122C73.8348 16.8043 73.1583 18.414 73.1583 20.1969C73.1583 24.1672 76.3877 27.3966 80.3553 27.3966C84.3274 27.3966 87.5549 24.1663 87.5549 20.1969C87.5549 16.2285 84.3265 13 80.3553 13H19.3626C15.853 13 13 15.8539 13 19.3644V82.15C13 85.6605 15.853 88.5153 19.3626 88.5153H36.137L33.7737 94.4553H26.1497C25.4477 94.4553 24.8782 95.0257 24.8782 95.7268C24.8782 96.4287 25.4477 97 26.1497 97H76.0231C76.0304 97 76.0358 97.0018 76.0395 97.0018C77.7743 97.0018 79.3196 96.2137 80.348 94.9831C81.37 96.2128 82.9217 97.0018 84.6511 97.0018C87.7309 97.0018 90.232 94.5206 90.232 91.469V63.7831C90.8677 64.1095 91.5769 64.3136 92.3432 64.3136C94.9097 64.3136 97 62.2232 97 59.6559V38.2292C97 33.7991 93.3916 30.1916 88.9588 30.1916ZM80.3553 15.5465C82.9226 15.5465 85.0084 17.6314 85.0084 20.1969C85.0084 22.7625 82.9226 24.8501 80.3553 24.8501C77.7906 24.8501 75.7066 22.7616 75.7066 20.1969C75.7066 17.6323 77.7906 15.5465 80.3553 15.5465ZM19.3626 85.9688C17.2569 85.9688 15.5456 84.2557 15.5456 82.15V78.332H70.4622V85.9688H19.3626ZM36.5116 94.4553L38.8785 88.5153H70.4622V91.4699C70.4622 92.5708 70.7959 93.5911 71.3564 94.4553H36.5116ZM87.6837 91.4699C87.6837 93.1177 86.3261 94.4553 84.6502 94.4553C82.9788 94.4553 81.6158 93.1177 81.6158 91.4699V66.1264C81.6158 65.4227 81.0472 64.8541 80.3471 64.8541C79.6452 64.8541 79.0729 65.4227 79.0729 66.1264V91.469C79.0729 93.1168 77.7135 94.4544 76.0385 94.4544C74.3663 94.4544 73.0041 93.1168 73.0041 91.469V61.7299H87.6837V91.4699ZM94.4544 59.6568C94.4544 60.8212 93.5067 61.7689 92.3432 61.7689C91.1779 61.7689 90.232 60.8212 90.232 59.6568V39.4036C90.232 38.7008 89.6598 38.1304 88.9588 38.1304C88.2577 38.1304 87.6846 38.7008 87.6846 39.4036V59.1852H73.0051V39.4036C73.0051 38.7008 72.4364 38.1304 71.7345 38.1304C71.0308 38.1304 70.4622 38.7008 70.4622 39.4036V59.6568C70.4622 60.8212 69.5127 61.7689 68.351 61.7689C67.1875 61.7689 66.2389 60.8212 66.2389 59.6568V38.2292C66.2389 35.2012 68.7056 32.7363 71.7354 32.7363H79.1609C79.3341 33.2287 79.7948 33.586 80.3489 33.586C80.9003 33.586 81.3573 33.2287 81.5351 32.7363H88.9606C91.9913 32.7363 94.4571 35.2012 94.4571 38.2292V59.6568H94.4544Z" fill="black"/>
<path d="M80.3476 41.5986C79.6457 41.5986 79.0735 42.1691 79.0735 42.8737V44.3809C79.0735 45.0856 79.6457 45.656 80.3476 45.656C81.0477 45.656 81.6164 45.0856 81.6164 44.3809V42.8737C81.6164 42.1691 81.0477 41.5986 80.3476 41.5986Z" fill="black"/>
<path d="M80.3476 35.5664C79.6457 35.5664 79.0735 36.1377 79.0735 36.8387V38.3478C79.0735 39.0497 79.6457 39.621 80.3476 39.621C81.0477 39.621 81.6164 39.0506 81.6164 38.3478V36.8387C81.6164 36.1377 81.0477 35.5664 80.3476 35.5664Z" fill="black"/>
<path d="M80.3476 47.6328C79.6457 47.6328 79.0735 48.2014 79.0735 48.9061V50.4151C79.0735 51.117 79.6457 51.6883 80.3476 51.6883C81.0477 51.6883 81.6164 51.1179 81.6164 50.4151V48.9061C81.6164 48.2014 81.0477 47.6328 80.3476 47.6328Z" fill="black"/>
<path d="M80.3476 53.668C79.6457 53.668 79.0735 54.2384 79.0735 54.943V55.791C79.0735 56.4938 79.6457 57.0624 80.3476 57.0624C81.0477 57.0624 81.6164 56.4938 81.6164 55.791V54.943C81.6164 54.2384 81.0477 53.668 80.3476 53.668Z" fill="black"/>
<path d="M54.9991 83.4254C55.7023 83.4254 56.2723 82.8554 56.2723 82.1522C56.2723 81.449 55.7023 80.8789 54.9991 80.8789C54.2959 80.8789 53.7258 81.449 53.7258 82.1522C53.7258 82.8554 54.2959 83.4254 54.9991 83.4254Z" fill="black"/>
<rect x="22.9762" y="22.0684" width="16.3237" height="17.2306" fill="#007ADF"/>
<rect x="22.9762" y="51.0889" width="16.3237" height="17.2306" fill="#007ADF"/>
<path d="M39.7262 21.3184H22.7568C22.0567 21.3184 21.4854 21.887 21.4854 22.5898V39.5601C21.4854 40.262 22.0558 40.8315 22.7568 40.8315H39.7262C40.4299 40.8315 41.0013 40.262 41.0013 39.5601V22.5898C41.0003 21.8879 40.4299 21.3184 39.7262 21.3184ZM38.4557 38.2869H24.0319V23.864H38.4557V38.2869Z" fill="black"/>
<path d="M41.0003 63.7668C41.0003 63.0649 40.4299 62.4953 39.7253 62.4953C39.0243 62.4953 38.4548 63.0649 38.4548 63.7668V66.5681H24.0319V52.1443H38.0303C38.7332 52.1443 39.3018 51.5757 39.3018 50.871C39.3018 50.1691 38.7332 49.5996 38.0303 49.5996H22.7568C22.0567 49.5996 21.4854 50.1682 21.4854 50.871V67.8414C21.4854 68.5442 22.0558 69.1137 22.7568 69.1137H39.7262C40.4299 69.1137 41.0013 68.5442 41.0013 67.8414V63.7668H41.0003Z" fill="black"/>
<path d="M46.3307 49.9714C45.8356 49.4744 45.0266 49.4744 44.5297 49.9714L32.7104 61.7952L27.9792 57.0667C27.4823 56.5698 26.6788 56.5698 26.1818 57.0667C25.683 57.5637 25.683 58.369 26.1818 58.866L31.8081 64.494C32.0575 64.7416 32.3821 64.8667 32.7113 64.8667C33.0351 64.8667 33.3606 64.7416 33.6082 64.494L46.3316 51.7715C46.8259 51.2736 46.8259 50.4683 46.3307 49.9714Z" fill="black"/>
<path d="M64.5417 27.0009C64.5417 26.2998 63.9694 25.7285 63.2693 25.7285H50.8533C50.1523 25.7285 49.5819 26.2998 49.5819 27.0009C49.5819 27.7046 50.1523 28.2759 50.8533 28.2759H63.2693C63.9694 28.2759 64.5417 27.7046 64.5417 27.0009Z" fill="black"/>
<path d="M58.178 34.2129H47.4615C46.7595 34.2129 46.1864 34.7833 46.1864 35.488C46.1864 36.1881 46.7586 36.7594 47.4615 36.7594H58.178C58.8808 36.7594 59.4494 36.189 59.4494 35.488C59.4503 34.7842 58.8817 34.2129 58.178 34.2129Z" fill="black"/>
<path d="M58.178 54.5811H47.4615C46.7595 54.5811 46.1864 55.1515 46.1864 55.8525C46.1864 56.5553 46.7586 57.1267 47.4615 57.1267H58.178C58.8808 57.1267 59.4494 56.5553 59.4494 55.8525C59.4503 55.1515 58.8817 54.5811 58.178 54.5811Z" fill="black"/>
<path d="M58.178 63.0664H47.4615C46.7595 63.0664 46.1864 63.6359 46.1864 64.3387C46.1864 65.0398 46.7586 65.6102 47.4615 65.6102H58.178C58.8808 65.6102 59.4494 65.0398 59.4494 64.3387C59.4503 63.6359 58.8817 63.0664 58.178 63.0664Z" fill="black"/>
</svg>
