<svg width="58" height="58" viewBox="0 0 58 58" fill="none" xmlns="http://www.w3.org/2000/svg">
<path d="M28.4461 15.388H39.0001C39.4596 15.388 39.8343 15.0145 39.8343 14.5527C39.8343 14.0944 39.4607 13.7197 39.0001 13.7197H28.4461C27.9866 13.7197 27.6119 14.0933 27.6119 14.5527C27.6119 15.0145 27.9866 15.388 28.4461 15.388Z" fill="white" stroke="white" stroke-width="0.4"/>
<path d="M17.891 15.388H24.0016C24.4611 15.388 24.8358 15.0145 24.8358 14.5527C24.8358 14.0944 24.4623 13.7197 24.0016 13.7197H17.891C17.4304 13.7197 17.0569 14.0933 17.0569 14.5527C17.0569 15.0145 17.4304 15.388 17.891 15.388Z" fill="white" stroke="white" stroke-width="0.4"/>
<path d="M17.891 26.4994H22.3333C22.7917 26.4994 23.1663 26.1258 23.1663 25.6663C23.1663 25.2057 22.7928 24.8311 22.3333 24.8311H17.891C17.4304 24.8311 17.0569 25.2046 17.0569 25.6663C17.0569 26.1258 17.4304 26.4994 17.891 26.4994Z" fill="white" stroke="white" stroke-width="0.4"/>
<path d="M13.4441 10.9443H7.8892C7.42859 10.9443 7.05505 11.3179 7.05505 11.7773V17.3345C7.05505 17.7928 7.42744 18.1675 7.8892 18.1675H13.4441C13.9047 18.1675 14.2794 17.794 14.2794 17.3345V11.7773C14.2794 11.3179 13.9058 10.9443 13.4441 10.9443ZM12.6122 16.4992H8.72221V12.6115H12.6122V16.4992Z" fill="white" stroke="white" stroke-width="0.4"/>
<path d="M13.4441 22.0547H7.8892C7.42859 22.0547 7.05505 22.4282 7.05505 22.89V28.4449C7.05505 28.9055 7.42744 29.2779 7.8892 29.2779H13.4441C13.9047 29.2779 14.2794 28.9066 14.2794 28.4449V22.89C14.2794 22.4294 13.9058 22.0547 13.4441 22.0547ZM12.6122 27.6119H8.72221V23.7218H12.6122V27.6119Z" fill="white" stroke="white" stroke-width="0.4"/>
<path d="M17.891 37.6136H21.2208C21.6814 37.6136 22.0561 37.2401 22.0561 36.7783C22.0561 36.32 21.6825 35.9453 21.2208 35.9453H17.891C17.4304 35.9453 17.0569 36.3188 17.0569 36.7783C17.0569 37.2389 17.4304 37.6136 17.891 37.6136Z" fill="white" stroke="white" stroke-width="0.4"/>
<path d="M13.4441 33.1689H7.8892C7.42859 33.1689 7.05505 33.5402 7.05505 34.002V39.5568C7.05505 40.0174 7.42744 40.3921 7.8892 40.3921H13.4441C13.9047 40.3921 14.2794 40.0186 14.2794 39.5568V34.0008C14.2794 33.5402 13.9058 33.1689 13.4441 33.1689ZM12.6122 38.7227H8.72221V34.8327H12.6122V38.7227Z" fill="white" stroke="white" stroke-width="0.4"/>
<path d="M30.1122 47.0566H17.891C17.4304 47.0566 17.0569 47.4302 17.0569 47.8919C17.0569 48.3503 17.4293 48.7249 17.891 48.7249H30.1122C30.5706 48.7249 30.9452 48.3514 30.9452 47.8919C30.9452 47.4302 30.5706 47.0566 30.1122 47.0566Z" fill="white" stroke="white" stroke-width="0.4"/>
<path d="M13.4441 44.2803H7.8892C7.42859 44.2803 7.05505 44.6538 7.05505 45.1133V50.6705C7.05505 51.1288 7.42744 51.5035 7.8892 51.5035H13.4441C13.9047 51.5035 14.2794 51.1299 14.2794 50.6705V45.1133C14.2794 44.6538 13.9058 44.2803 13.4441 44.2803ZM12.6122 49.8352H8.72221V45.9474H12.6122V49.8352Z" fill="white" stroke="white" stroke-width="0.4"/>
<path d="M55.2293 43.4744L51.0952 39.3415C52.1791 37.2664 52.7509 34.9599 52.7509 32.6282C52.7509 27.2257 49.7787 22.513 45.3879 20.0128V5.66502C45.3879 3.36882 43.5191 1.5 41.2218 1.5H5.66731C3.36996 1.5 1.5 3.36882 1.5 5.66502V52.3327C1.5 54.6289 3.36996 56.5 5.66731 56.5H41.2218C43.5191 56.5 45.3879 54.6289 45.3879 52.3327V45.9208L49.0855 49.6183C49.907 50.4398 50.9967 50.8913 52.1562 50.8913C53.3158 50.8913 54.4055 50.4387 55.2304 49.616C56.9205 47.9213 56.9205 45.168 55.2293 43.4744ZM12.6121 3.16486H34.2793V4.55473C34.2793 5.93314 33.1576 7.05489 31.7792 7.05489H15.1111C13.7327 7.05489 12.6109 5.93314 12.6109 4.55473L12.6121 3.16486ZM43.7219 52.3315C43.7219 53.71 42.6002 54.8317 41.2218 54.8317H5.66731C4.2889 54.8317 3.16715 53.71 3.16715 52.3315V5.66502C3.16715 4.28661 4.2889 3.16486 5.66731 3.16486H10.9438V4.55473C10.9438 6.85322 12.8149 8.72204 15.1111 8.72204H31.7792C34.0754 8.72204 35.9465 6.85322 35.9465 4.55473V3.16486H41.2218C42.599 3.16486 43.7219 4.28661 43.7219 5.66502V19.197C42.0284 18.5015 40.1779 18.1119 38.2381 18.1119C30.2346 18.1119 23.723 24.6247 23.723 32.6271C23.723 40.6294 30.2346 47.1399 38.2381 47.1399C40.1206 47.1399 41.9814 46.7503 43.7219 46.0342V52.3315ZM54.0468 48.4404C53.0385 49.4498 51.2763 49.4521 50.2645 48.4404L45.6858 43.8617C45.5243 43.7002 45.3123 43.6177 45.0969 43.6177C44.9537 43.6177 44.8082 43.6532 44.6787 43.73C42.7159 44.8712 40.4896 45.4727 38.2381 45.4727C31.1524 45.4727 25.3901 39.7105 25.3901 32.6271C25.3901 25.5414 31.1524 19.7791 38.2381 19.7791C45.3215 19.7791 51.0838 25.5414 51.0838 32.6271C51.0838 34.8786 50.4822 37.1072 49.341 39.0677C49.1508 39.3942 49.2046 39.8079 49.4727 40.0748L54.0514 44.6535C55.0941 45.6962 55.0941 47.3931 54.0468 48.4404Z" fill="white" stroke="white" stroke-width="0.4"/>
<path d="M38.238 23.7041C33.3167 23.7041 29.3156 27.7053 29.3156 32.6265C29.3156 37.5455 33.3167 41.5489 38.238 41.5489C43.1569 41.5489 47.1592 37.5455 47.1592 32.6265C47.1592 27.7053 43.1569 23.7041 38.238 23.7041ZM38.238 39.8818C34.2368 39.8818 30.9816 36.6254 30.9816 32.6265C30.9816 28.6254 34.2368 25.3713 38.238 25.3713C42.2368 25.3713 45.4932 28.6254 45.4932 32.6265C45.4932 36.6254 42.2368 39.8818 38.238 39.8818Z" fill="white" stroke="white" stroke-width="0.4"/>
</svg>
