<svg width="58" height="58" viewBox="0 0 58 58" fill="none" xmlns="http://www.w3.org/2000/svg">
<path d="M38.9954 48.1659C38.5371 48.1659 38.1625 48.5394 38.1625 49.0011V53.0983L36.4301 54.8329H4.89941L3.16476 53.0983V44.9017L4.89941 43.167H25.3863C25.8446 43.167 26.2193 42.7935 26.2193 42.3341C26.2193 41.8735 25.8458 41.4989 25.3863 41.4989H4.9017L3.16705 39.7642V31.5676L4.9017 29.833H19C19.4606 29.833 19.833 29.4594 19.833 29C19.833 28.5394 19.4617 28.1648 19 28.1648H4.9017L3.16705 26.4324V18.2335L4.9017 16.4989H25.3886C25.8469 16.4989 26.2216 16.1276 26.2216 15.6659C26.2216 15.2042 25.8481 14.833 25.3886 14.833H4.9017L3.16705 13.0983V4.8994L4.9017 3.16476H36.4324L38.1648 4.8994V8.99885C38.1648 9.45944 38.5383 9.83181 38.9977 9.83181C39.4583 9.83181 39.833 9.46058 39.833 8.99885V4.55454C39.833 4.33341 39.7459 4.12259 39.5889 3.96563L37.3673 1.74404C37.2104 1.58708 36.9984 1.5 36.7784 1.5H4.55683C4.3357 1.5 4.1226 1.58708 3.96792 1.74404L1.74404 3.96563C1.58937 4.12259 1.5 4.33226 1.5 4.55454V13.4432C1.5 13.6643 1.58937 13.8751 1.74404 14.0321L3.37786 15.6659L1.74404 17.2997C1.58937 17.4544 1.5 17.6664 1.5 17.8886V26.7773C1.5 26.9961 1.58937 27.2092 1.74404 27.3662L3.37786 29L1.74404 30.6315C1.58937 30.7885 1.5 31.0005 1.5 31.2227V40.1114C1.5 40.3302 1.58937 40.5433 1.74404 40.7003L3.37786 42.3341L1.74404 43.9656C1.58937 44.1226 1.5 44.3346 1.5 44.5568V53.4432C1.5 53.6643 1.58937 53.8774 1.74404 54.0344L3.96792 56.256C4.1226 56.4129 4.33685 56.5 4.55683 56.5H36.7761C36.995 56.5 37.2081 56.4129 37.365 56.256L39.5866 54.0344C39.7436 53.8774 39.8307 53.6654 39.8307 53.4432V49.0011C39.8307 48.5406 39.4572 48.1659 38.9954 48.1659Z" fill="white" stroke="white" stroke-width="0.4"/>
<path d="M54.8308 26.0836H53.2863C53.1695 25.513 53.0159 24.9424 52.8303 24.3833L54.1663 23.6111C54.5535 23.39 54.8285 23.0291 54.9454 22.5994C55.0599 22.1698 54.9992 21.7195 54.7781 21.3345L53.5269 19.1679C53.0709 18.3739 52.0478 18.1001 51.2515 18.5595L49.9133 19.334C49.5237 18.8929 49.1055 18.477 48.6667 18.0875L49.4412 16.747C49.8995 15.953 49.6268 14.9298 48.8306 14.4715L46.664 13.2227C46.2813 12.9993 45.8287 12.9408 45.4014 13.0554C44.9717 13.1723 44.6119 13.4472 44.3897 13.8322L43.6174 15.1704C43.056 14.9825 42.4877 14.8302 41.9149 14.7121V13.17C41.9149 12.25 41.1679 11.5029 40.2478 11.5029H37.7478C36.8278 11.5029 36.0831 12.25 36.0831 13.17V14.7121C35.5102 14.8313 34.9419 14.9825 34.3805 15.1704L33.6083 13.8322C33.15 13.0382 32.1268 12.7621 31.3328 13.2238L29.1663 14.4727C28.37 14.931 28.0961 15.9541 28.5556 16.7481L29.3301 18.0886C28.8913 18.4782 28.4754 18.8941 28.0858 19.3352L26.7453 18.5607C25.949 18.1001 24.9282 18.3751 24.4699 19.1691L23.2187 21.3357C22.9953 21.7206 22.9369 22.1709 23.0526 22.6005C23.1683 23.0302 23.4444 23.39 23.8294 23.6122L25.1653 24.3845C24.9797 24.9436 24.8273 25.5142 24.7093 26.0847H23.1672C22.2471 26.0847 21.5001 26.834 21.5001 27.7518V30.2518C21.5001 31.1718 22.2471 31.9188 23.1672 31.9188H24.7093C24.8285 32.4917 24.9797 33.06 25.1653 33.6214L23.8294 34.3936C23.4444 34.6148 23.1695 34.9757 23.0526 35.4053C22.9357 35.835 22.9942 36.2852 23.2187 36.6702L24.4699 38.8345C24.9282 39.6308 25.9536 39.9046 26.7453 39.4452L28.0881 38.6707C28.4754 39.1095 28.8913 39.5254 29.3301 39.9149L28.5556 41.2555C28.0973 42.0517 28.37 43.0726 29.1663 43.5332L31.3328 44.782C31.7155 45.0055 32.1658 45.0639 32.5954 44.9493C33.0274 44.8324 33.3871 44.5575 33.6094 44.1702L34.3817 42.8343C34.9431 43.0222 35.5114 43.1746 36.0842 43.2903V44.8347C36.0842 45.7525 36.829 46.4995 37.749 46.4995H40.249C41.169 46.4995 41.916 45.7525 41.916 44.8347V43.2903C42.4889 43.1734 43.0572 43.0222 43.6186 42.8343L44.3908 44.1702C44.6119 44.5575 44.9729 44.8324 45.4025 44.9493C45.8322 45.0639 46.2824 45.0055 46.6651 44.782L48.8317 43.5332C49.628 43.0726 49.9018 42.0517 49.4424 41.2555L48.6679 39.9149C49.1067 39.5254 49.5226 39.1095 49.9121 38.6707L51.2526 39.4452C52.0489 39.9058 53.0721 39.6308 53.5281 38.8345L54.7792 36.6702C55.2375 35.8739 54.9648 34.8531 54.1685 34.3948L52.8326 33.6225C53.0182 33.0611 53.1729 32.4928 53.2886 31.92H54.8331C55.7531 31.92 56.4978 31.173 56.4978 30.2529V27.7529C56.4955 26.8329 55.7497 26.0836 54.8308 26.0836ZM54.8308 30.2506H52.5909C52.1773 30.2506 51.8278 30.5531 51.7648 30.9599C51.6262 31.8822 51.3775 32.7988 51.0304 33.6901C50.8826 34.0728 51.035 34.5093 51.3901 34.7156L53.3322 35.8373L52.0833 38.0016L50.1367 36.8799C49.7804 36.6736 49.3289 36.7573 49.0712 37.0792C48.48 37.8159 47.8063 38.4873 47.0707 39.0774C46.751 39.3352 46.6651 39.7889 46.8713 40.1452L47.9942 42.0896L45.8276 43.3384L44.7059 41.3964C44.4997 41.0401 44.0654 40.8888 43.6805 41.0378C42.7925 41.3849 41.8748 41.6313 40.9525 41.7699C40.5457 41.8329 40.2432 42.1835 40.2432 42.596V44.8359H37.7432V42.596C37.7432 42.1846 37.4431 41.8329 37.0363 41.7699C36.1117 41.6313 35.1951 41.3849 34.3037 41.0378C34.2075 40.9977 34.1044 40.9793 34.0013 40.9793C33.7102 40.9793 33.433 41.1317 33.2806 41.3952L32.1589 43.3373L29.9946 42.0884L31.1163 40.1441C31.3225 39.7878 31.2366 39.3341 30.9169 39.0763C30.1802 38.4851 29.5077 37.8137 28.9165 37.0781C28.6587 36.7561 28.205 36.6725 27.8509 36.8787L25.9066 38.0004L24.6578 35.8361L26.5975 34.7144C26.9538 34.5082 27.1074 34.0717 26.9573 33.689C26.6101 32.7988 26.3615 31.881 26.2229 30.9587C26.1598 30.552 25.8115 30.2495 25.3991 30.2495H23.1592V27.7495H25.3991C25.8104 27.7495 26.1598 27.4493 26.2229 27.0426C26.3615 26.1203 26.6101 25.2014 26.9573 24.3123C27.1074 23.9273 26.9527 23.4931 26.5975 23.2868L24.6555 22.1652L25.9066 20.0009L27.8509 21.1225C28.2073 21.3288 28.6587 21.2451 28.9165 20.9232C29.5077 20.1865 30.1814 19.5139 30.9169 18.9227C31.2366 18.6672 31.3225 18.2135 31.1163 17.8572L29.9946 15.9129L32.1589 14.6617L33.2806 16.6038C33.4868 16.9624 33.9211 17.1113 34.3037 16.9635C35.194 16.6164 36.1117 16.37 37.0363 16.2291C37.4431 16.1661 37.7432 15.8178 37.7432 15.4053V13.1654H40.2432V15.4053C40.2432 15.8166 40.5457 16.1661 40.9525 16.2291C41.8748 16.37 42.7914 16.6164 43.6805 16.9635C44.0654 17.1113 44.4997 16.9612 44.7059 16.6038L45.8276 14.6617L47.9942 15.9129L46.8713 17.8572C46.6651 18.2135 46.751 18.6672 47.0707 18.9227C47.8074 19.5139 48.48 20.1876 49.0712 20.9232C49.3289 21.2451 49.7827 21.3288 50.139 21.1225L52.0833 20.0009L53.3322 22.1652L51.3901 23.2868C51.0338 23.4931 50.8826 23.9273 51.0304 24.3123C51.3775 25.2002 51.6262 26.1203 51.7648 27.0426C51.8278 27.4493 52.1761 27.7495 52.5909 27.7495H54.8308V30.2506Z" fill="white" stroke="white" stroke-width="0.4"/>
<path d="M38.9951 20.5615C34.3423 20.5615 30.5591 24.3482 30.5591 29.0022C30.5591 33.655 34.3435 37.4405 38.9951 37.4405C43.6503 37.4405 47.4358 33.6539 47.4358 29.0022C47.4369 24.347 43.6503 20.5615 38.9951 20.5615ZM38.9951 35.7735C35.2623 35.7735 32.2238 32.7373 32.2238 29.0022C32.2238 25.2671 35.2623 22.2286 38.9951 22.2286C42.7325 22.2286 45.7688 25.2671 45.7688 29.0022C45.7688 32.7373 42.7325 35.7735 38.9951 35.7735Z" fill="white" stroke="white" stroke-width="0.4"/>
<path d="M5.39087 9.00297C5.39087 10.9943 7.00865 12.6143 8.99995 12.6143C10.9912 12.6143 12.609 10.9943 12.609 9.00297C12.609 7.01168 10.9912 5.3916 8.99995 5.3916C7.00865 5.3916 5.39087 7.01168 5.39087 9.00297ZM10.9454 9.00297C10.9454 10.0754 10.0724 10.9473 9.00109 10.9473C7.92983 10.9473 7.05906 10.0742 7.05906 9.00297C7.05906 7.9317 7.92983 7.05865 9.00109 7.05865C10.0724 7.05865 10.9454 7.93056 10.9454 9.00297Z" fill="white" stroke="white" stroke-width="0.4"/>
<path d="M5.39087 22.336C5.39087 24.3273 7.00865 25.945 8.99995 25.945C10.9912 25.945 12.609 24.3273 12.609 22.336C12.609 20.3447 10.9912 18.7246 8.99995 18.7246C7.00865 18.7246 5.39087 20.3435 5.39087 22.336ZM10.9454 22.336C10.9454 23.4084 10.0724 24.2803 9.00109 24.2803C7.92983 24.2803 7.05906 23.4072 7.05906 22.336C7.05906 21.2647 7.92983 20.3917 9.00109 20.3917C10.0724 20.3917 10.9454 21.2636 10.9454 22.336Z" fill="white" stroke="white" stroke-width="0.4"/>
<path d="M5.39087 35.668C5.39087 37.657 7.00865 39.2771 8.99995 39.2771C10.9912 39.2771 12.609 37.657 12.609 35.668C12.609 33.6767 10.9912 32.0566 8.99995 32.0566C7.00865 32.0566 5.39087 33.6767 5.39087 35.668ZM10.9454 35.668C10.9454 36.7404 10.0724 37.6123 9.00109 37.6123C7.92983 37.6123 7.05906 36.7393 7.05906 35.668C7.05906 34.5967 7.92983 33.7237 9.00109 33.7237C10.0724 33.7237 10.9454 34.5967 10.9454 35.668Z" fill="white" stroke="white" stroke-width="0.4"/>
<path d="M5.39087 48.9987C5.39087 50.99 7.00865 52.6101 8.99995 52.6101C10.9912 52.6101 12.609 50.99 12.609 48.9987C12.609 47.0097 10.9912 45.3896 8.99995 45.3896C7.00865 45.3896 5.39087 47.0097 5.39087 48.9987ZM10.9454 48.9987C10.9454 50.0734 10.0724 50.943 9.00109 50.943C7.92983 50.943 7.05906 50.0723 7.05906 48.9987C7.05906 47.9263 7.92983 47.0567 9.00109 47.0567C10.0724 47.0567 10.9454 47.9275 10.9454 48.9987Z" fill="white" stroke="white" stroke-width="0.4"/>
<path d="M16.2239 8.1709C15.7633 8.1709 15.3887 8.54212 15.3887 9.00385C15.3887 9.46558 15.7622 9.8368 16.2239 9.8368H34.5534C35.0117 9.8368 35.3864 9.46558 35.3864 9.00385C35.3864 8.54212 35.0129 8.1709 34.5534 8.1709H16.2239Z" fill="white" stroke="white" stroke-width="0.4"/>
<path d="M20.1091 21.501H16.2239C15.7633 21.501 15.3887 21.8745 15.3887 22.3362C15.3887 22.7945 15.7622 23.1692 16.2239 23.1692H20.1091C20.5674 23.1692 20.9421 22.7957 20.9421 22.3362C20.9421 21.8745 20.5674 21.501 20.1091 21.501Z" fill="white" stroke="white" stroke-width="0.4"/>
<path d="M20.1091 34.834H16.2239C15.7633 34.834 15.3887 35.2075 15.3887 35.6692C15.3887 36.1275 15.7622 36.5022 16.2239 36.5022H20.1091C20.5674 36.5022 20.9421 36.1287 20.9421 35.6692C20.9421 35.2075 20.5674 34.834 20.1091 34.834Z" fill="white" stroke="white" stroke-width="0.4"/>
<path d="M15.3899 48.999C15.3899 49.4596 15.7634 49.8342 16.2251 49.8342H34.5547C35.0129 49.8342 35.3876 49.4607 35.3876 48.999C35.3876 48.5407 35.0141 48.166 34.5547 48.166H16.224C15.7634 48.166 15.3899 48.5407 15.3899 48.999Z" fill="white" stroke="white" stroke-width="0.4"/>
</svg>
