<svg width="58" height="58" viewBox="0 0 58 58" fill="none" xmlns="http://www.w3.org/2000/svg">
<path d="M35.6657 1.5H5.66731C3.36996 1.5 1.5 3.37111 1.5 5.66731V52.335C1.5 54.6312 3.36996 56.5 5.66731 56.5H35.6657C37.9642 56.5 39.8331 54.6312 39.8331 52.335V5.66731C39.8331 3.37111 37.9642 1.5 35.6657 1.5ZM11.5006 3.16715H29.8336V4.55702C29.8336 5.93543 28.7118 7.05718 27.3334 7.05718H14.0008C12.6224 7.05718 11.5006 5.93543 11.5006 4.55702V3.16715ZM38.1659 52.3338C38.1659 53.7122 37.0442 54.834 35.6657 54.834H5.66731C4.2889 54.834 3.16601 53.7122 3.16601 52.3338V5.66731C3.16601 4.2889 4.28776 3.16715 5.66731 3.16715H9.83347V4.55702C9.83347 6.85322 11.7023 8.72433 14.0008 8.72433H27.3346C29.6319 8.72433 31.5007 6.85322 31.5007 4.55702V3.16715H35.6669C37.0453 3.16715 38.167 4.2889 38.167 5.66731L38.1659 52.3338Z" fill="white" stroke="white" stroke-width="0.4"/>
<path d="M10.1117 27.0576C7.81437 27.0576 5.94556 28.9264 5.94556 31.2226C5.94556 33.5211 7.81437 35.3899 10.1117 35.3899C12.4091 35.3899 14.2779 33.5211 14.2779 31.2226C14.2779 28.9264 12.4091 27.0576 10.1117 27.0576ZM10.1117 33.7239C8.73331 33.7239 7.61156 32.601 7.61156 31.2215C7.61156 29.8419 8.73331 28.7213 10.1117 28.7213C11.4901 28.7213 12.613 29.8431 12.613 31.2215C12.613 32.5999 11.4901 33.7239 10.1117 33.7239Z" fill="white" stroke="white" stroke-width="0.4"/>
<path d="M10.1117 13.7236C7.81437 13.7236 5.94556 15.5924 5.94556 17.8909C5.94556 20.1871 7.81437 22.056 10.1117 22.056C12.4091 22.056 14.2779 20.1871 14.2779 17.8909C14.2779 15.5924 12.4091 13.7236 10.1117 13.7236ZM10.1117 20.3899C8.73331 20.3899 7.61156 19.2682 7.61156 17.8898C7.61156 16.5114 8.73331 15.3896 10.1117 15.3896C11.4901 15.3896 12.613 16.5114 12.613 17.8898C12.613 19.2682 11.4901 20.3899 10.1117 20.3899Z" fill="white" stroke="white" stroke-width="0.4"/>
<path d="M10.1117 40.3887C7.81437 40.3887 5.94556 42.2598 5.94556 44.556C5.94556 46.8545 7.81437 48.7233 10.1117 48.7233C12.4091 48.7233 14.2779 46.8545 14.2779 44.556C14.2779 42.2586 12.4091 40.3887 10.1117 40.3887ZM10.1117 47.055C8.73331 47.055 7.61156 45.9332 7.61156 44.5548C7.61156 43.1764 8.73331 42.0547 10.1117 42.0547C11.4901 42.0547 12.613 43.1764 12.613 44.5548C12.613 45.9332 11.4901 47.055 10.1117 47.055Z" fill="white" stroke="white" stroke-width="0.4"/>
<path d="M34.5553 27.0576H30.6527C30.1921 27.0576 29.8174 27.4289 29.8174 27.8906C29.8174 28.3524 30.1909 28.7236 30.6527 28.7236H34.5553C35.0136 28.7236 35.3883 28.3524 35.3883 27.8906C35.3883 27.4289 35.0148 27.0576 34.5553 27.0576Z" fill="white" stroke="white" stroke-width="0.4"/>
<path d="M17.8898 28.7226H26.2083C26.6667 28.7226 27.0413 28.3514 27.0413 27.8896C27.0413 27.4279 26.6678 27.0566 26.2083 27.0566H17.8898C17.4303 27.0566 17.0568 27.4279 17.0568 27.8896C17.0568 28.3514 17.4303 28.7226 17.8898 28.7226Z" fill="white" stroke="white" stroke-width="0.4"/>
<path d="M17.8899 35.3887H24.5413C25.0019 35.3887 25.3766 35.0151 25.3766 34.5557C25.3766 34.095 25.0031 33.7227 24.5413 33.7227H17.8899C17.4304 33.7227 17.0569 34.0939 17.0569 34.5557C17.058 35.0151 17.4304 35.3887 17.8899 35.3887Z" fill="white" stroke="white" stroke-width="0.4"/>
<path d="M34.5553 13.7236H28.4309C27.9703 13.7236 27.5968 14.0972 27.5968 14.5566C27.5968 15.0172 27.9692 15.3919 28.4309 15.3919H34.5564C35.0148 15.3919 35.3894 15.0184 35.3894 14.5566C35.3883 14.0972 35.0148 13.7236 34.5553 13.7236Z" fill="white" stroke="white" stroke-width="0.4"/>
<path d="M17.8898 15.391H23.9843C24.4438 15.391 24.8185 15.0174 24.8185 14.5557C24.8185 14.0973 24.4449 13.7227 23.9843 13.7227H17.8898C17.4303 13.7227 17.0568 14.0962 17.0568 14.5557C17.0579 15.0174 17.4303 15.391 17.8898 15.391Z" fill="white" stroke="white" stroke-width="0.4"/>
<path d="M22.8832 21.2227C22.8832 21.6833 23.2567 22.0557 23.7162 22.0557H31.2098C31.6692 22.0557 32.0439 21.6844 32.0439 21.2227C32.0439 20.7609 31.6704 20.3896 31.2098 20.3896H23.7162C23.2567 20.3896 22.8832 20.762 22.8832 21.2227Z" fill="white" stroke="white" stroke-width="0.4"/>
<path d="M17.8899 22.0557H19.2706C19.7312 22.0557 20.1047 21.6844 20.1047 21.2227C20.1047 20.7609 19.7323 20.3896 19.2706 20.3896H17.8899C17.4304 20.3896 17.0569 20.7609 17.0569 21.2227C17.0569 21.6844 17.4304 22.0557 17.8899 22.0557Z" fill="white" stroke="white" stroke-width="0.4"/>
<path d="M34.5557 40.3887H25.0959C24.6376 40.3887 24.2629 40.7622 24.2629 41.224C24.2629 41.6823 24.6365 42.057 25.0959 42.057H34.5557C35.0141 42.057 35.3887 41.6834 35.3887 41.224C35.3887 40.7622 35.0152 40.3887 34.5557 40.3887Z" fill="white" stroke="white" stroke-width="0.4"/>
<path d="M17.8899 42.056H20.6513C21.1119 42.056 21.4854 41.6825 21.4854 41.223C21.4854 40.7624 21.1131 40.3877 20.6513 40.3877H17.8899C17.4304 40.3877 17.0569 40.7612 17.0569 41.223C17.058 41.6813 17.4304 42.056 17.8899 42.056Z" fill="white" stroke="white" stroke-width="0.4"/>
<path d="M26.7642 47.0547H17.8899C17.4304 47.0547 17.0569 47.4282 17.0569 47.89C17.0569 48.3483 17.4293 48.723 17.8899 48.723H26.763C27.2237 48.723 27.5983 48.3495 27.5983 47.89C27.5983 47.4282 27.2248 47.0547 26.7642 47.0547Z" fill="white" stroke="white" stroke-width="0.4"/>
<path d="M51.4676 6.98677L50.4994 6.4872V2.8928C50.4994 2.57312 50.3172 2.28208 50.0307 2.14344L49.4246 1.85011C48.4621 1.3872 47.3163 1.3872 46.3527 1.85011L45.7477 2.14344C45.4601 2.28208 45.2779 2.57312 45.2779 2.8928V6.4872L44.1745 7.05781C43.8972 7.20104 43.7219 7.4852 43.7219 7.79801V46.5917C43.7219 46.594 43.7219 46.5963 43.7219 46.5963C43.7219 46.6925 43.7391 46.8002 43.7735 46.8942L47.1066 55.9529C47.2258 56.2795 47.5398 56.4972 47.8892 56.4972C48.2387 56.4972 48.5515 56.2806 48.6718 55.9529L52.005 46.8942C52.0405 46.8002 52.0565 46.6925 52.0565 46.5963C52.0565 46.5963 52.0565 46.594 52.0565 46.5917V8.72153C53.6458 9.03663 54.834 10.2271 54.834 11.6537V26.3658C54.834 26.8265 55.2075 27.2011 55.6681 27.2011C56.1288 27.2011 56.5023 26.8276 56.5023 26.3658V11.6537C56.5011 9.14204 54.2622 7.10365 51.4676 6.98677ZM46.9451 3.41758L47.0791 3.35226C47.5867 3.10592 48.1917 3.10592 48.697 3.35226L48.8334 3.41758V5.72524C48.2135 5.55337 47.5627 5.55337 46.9451 5.72524V3.41758ZM47.8892 53.2534L45.5919 47.0122L47.0367 46.2674C47.5718 45.9901 48.2078 45.9924 48.7417 46.2674L50.1866 47.0122L47.8892 53.2534ZM50.3894 45.2419L49.506 44.7859C48.4942 44.2645 47.2842 44.2645 46.2748 44.7859L45.3891 45.2419V33.8331L47.0367 32.9829C47.5695 32.7079 48.2066 32.7079 48.7417 32.9829L50.3894 33.8331V45.2419ZM50.3894 31.9574L49.506 31.5014C48.4942 30.9777 47.2842 30.98 46.2748 31.5014L45.3891 31.9574V8.30789L47.0367 7.4577C47.5718 7.18041 48.2078 7.18271 48.7417 7.4577L50.3894 8.30789V31.9574Z" fill="white" stroke="white" stroke-width="0.4"/>
</svg>
