<svg width="70" height="70" viewBox="0 0 70 70" fill="none" xmlns="http://www.w3.org/2000/svg">
<path d="M22.0725 47.6085H13.3685C12.259 47.6085 11.3589 46.7094 11.3589 45.5999V10.0096C11.3589 8.90114 12.2579 8 13.3685 8H55.3115C56.42 8 57.3201 8.9001 57.3201 10.0096V45.601C57.3201 46.7094 56.421 47.6095 55.3115 47.6095H46.4085" stroke="#040000" stroke-width="1.6" stroke-miterlimit="10" stroke-linecap="round" stroke-linejoin="round"/>
<path d="M11.3589 13.9199H56.6408" stroke="#040000" stroke-width="1.6" stroke-miterlimit="10" stroke-linecap="round" stroke-linejoin="round"/>
<path d="M32.8018 21.9482H51.5298" stroke="#040000" stroke-width="1.6" stroke-miterlimit="10" stroke-linecap="round" stroke-linejoin="round"/>
<path d="M40.0586 27.8037H51.5296" stroke="#040000" stroke-width="1.6" stroke-miterlimit="10" stroke-linecap="round" stroke-linejoin="round"/>
<path d="M44.1309 33.6602H51.5296" stroke="#040000" stroke-width="1.6" stroke-miterlimit="10" stroke-linecap="round" stroke-linejoin="round"/>
<path d="M44.1309 39.5166H51.5296" stroke="#040000" stroke-width="1.6" stroke-miterlimit="10" stroke-linecap="round" stroke-linejoin="round"/>
<path d="M29.4345 43.7227C24.4236 44.5915 20.5825 48.9847 20.5825 54.2321V57.0949H48.5136V54.2321C48.5136 49.1003 44.8393 44.7853 39.9919 43.7862" stroke="#040000" stroke-width="1.6" stroke-miterlimit="10" stroke-linecap="round" stroke-linejoin="round"/>
<path d="M34.5475 45.0345C39.7741 45.0345 44.011 40.7975 44.011 35.5709C44.011 30.3444 39.7741 26.1074 34.5475 26.1074C29.3209 26.1074 25.084 30.3444 25.084 35.5709C25.084 40.7975 29.3209 45.0345 34.5475 45.0345Z" stroke="#040000" stroke-width="1.6" stroke-miterlimit="10" stroke-linecap="round" stroke-linejoin="round"/>
<path d="M27.9058 51.7153V57.0951" stroke="#040000" stroke-width="1.6" stroke-miterlimit="10" stroke-linecap="round" stroke-linejoin="round"/>
<path d="M41.1904 51.7153V57.0951" stroke="#040000" stroke-width="1.6" stroke-miterlimit="10" stroke-linecap="round" stroke-linejoin="round"/>
<path d="M63.0968 62.5599H6V59.3856C6 58.1198 7.02407 57.0947 8.29087 57.0947H60.8059C62.0716 57.0947 63.0968 58.1198 63.0968 59.3856V62.5599Z" stroke="#040000" stroke-width="1.6" stroke-miterlimit="10" stroke-linecap="round" stroke-linejoin="round"/>
<path d="M16.7358 21.6992L18.9277 23.8901L22.8105 20.0063" stroke="#040000" stroke-width="1.6" stroke-miterlimit="10" stroke-linecap="round" stroke-linejoin="round"/>
<path d="M16.7358 29.4966L18.9277 31.6875L22.8105 27.8037" stroke="#040000" stroke-width="1.6" stroke-miterlimit="10" stroke-linecap="round" stroke-linejoin="round"/>
</svg>
