<svg width="70" height="70" viewBox="0 0 70 70" fill="none" xmlns="http://www.w3.org/2000/svg">
<path d="M62.9905 54.5701H7V12.1245C7 9.29414 9.29414 7 12.1245 7H57.866C60.6964 7 62.9905 9.29414 62.9905 12.1245V54.5701Z" stroke="#040000" stroke-width="1.6" stroke-miterlimit="10" stroke-linecap="round" stroke-linejoin="round"/>
<path d="M7.55078 14.0171H62.9908" stroke="#040000" stroke-width="1.6" stroke-miterlimit="10" stroke-linecap="round" stroke-linejoin="round"/>
<path d="M13.5935 10.7595C13.5935 11.4051 13.0696 11.9291 12.4239 11.9291C11.7783 11.9291 11.2554 11.4051 11.2554 10.7595C11.2554 10.1138 11.7783 9.58887 12.4239 9.58887C13.0696 9.58887 13.5935 10.1138 13.5935 10.7595Z" fill="#040000"/>
<path d="M17.0242 10.7595C17.0242 11.4051 16.5003 11.9291 15.8546 11.9291C15.2089 11.9291 14.686 11.4051 14.686 10.7595C14.686 10.1138 15.2089 9.58887 15.8546 9.58887C16.5003 9.58887 17.0242 10.1138 17.0242 10.7595Z" fill="#040000"/>
<path d="M31.866 43.5402C38.465 43.5402 43.8146 38.1906 43.8146 31.5916C43.8146 24.9926 38.465 19.6431 31.866 19.6431C25.267 19.6431 19.9175 24.9926 19.9175 31.5916C19.9175 38.1906 25.267 43.5402 31.866 43.5402Z" stroke="#040000" stroke-width="1.6" stroke-miterlimit="10" stroke-linecap="round" stroke-linejoin="round"/>
<path d="M31.865 40.0406C36.5313 40.0406 40.3141 36.2579 40.3141 31.5916C40.3141 26.9253 36.5313 23.1426 31.865 23.1426C27.1988 23.1426 23.416 26.9253 23.416 31.5916C23.416 36.2579 27.1988 40.0406 31.865 40.0406Z" stroke="#040000" stroke-width="1.6" stroke-miterlimit="10" stroke-linecap="round" stroke-linejoin="round"/>
<path d="M40.4786 39.92C41.2737 39.125 42.563 39.125 43.357 39.92L49.4761 46.0391C50.2712 46.8342 50.2712 48.1214 49.4761 48.9175C48.6821 49.7126 47.3928 49.7126 46.5977 48.9175L40.4786 42.7985C39.6836 42.0054 39.6836 40.7141 40.4786 39.92Z" stroke="#040000" stroke-width="1.6" stroke-miterlimit="10" stroke-linecap="round" stroke-linejoin="round"/>
<path d="M7.00014 56.8998L62.9907 56.8998L62.9907 60.5938C62.9907 62.0668 61.9865 63.2598 60.7442 63.2598L9.24663 63.2598C8.00539 63.2598 7.00014 62.0668 7.00014 60.5938L7.00014 56.8998Z" stroke="#040000" stroke-width="1.6" stroke-miterlimit="10" stroke-linecap="round" stroke-linejoin="round"/>
<path d="M29 60H40.0498" stroke="#040000" stroke-width="1.6" stroke-miterlimit="10" stroke-linecap="round" stroke-linejoin="round"/>
<path d="M27.2998 32.002L30.5393 35.24L36.2778 29.5" stroke="#040000" stroke-width="1.6" stroke-miterlimit="10" stroke-linecap="round" stroke-linejoin="round"/>
</svg>
