<svg width="70" height="70" viewBox="0 0 70 70" fill="none" xmlns="http://www.w3.org/2000/svg">
<path d="M40.4912 41.27L48.3359 48.6396" stroke="#040000" stroke-width="1.6" stroke-miterlimit="10" stroke-linecap="round" stroke-linejoin="round"/>
<path d="M20.8394 48.3222L28.5263 41.5864" stroke="#040000" stroke-width="1.6" stroke-miterlimit="10" stroke-linecap="round" stroke-linejoin="round"/>
<path d="M23.3745 15.5381H46.3647" stroke="#040000" stroke-width="1.6" stroke-miterlimit="10" stroke-linecap="round" stroke-linejoin="round"/>
<path d="M23.3745 55.1509H46.3647" stroke="#040000" stroke-width="1.6" stroke-miterlimit="10" stroke-linecap="round" stroke-linejoin="round"/>
<path d="M39.6987 29.3836L48.0974 21.6177" stroke="#040000" stroke-width="1.6" stroke-miterlimit="10" stroke-linecap="round" stroke-linejoin="round"/>
<path d="M20.8394 22.0142L28.683 29.1462" stroke="#040000" stroke-width="1.6" stroke-miterlimit="10" stroke-linecap="round" stroke-linejoin="round"/>
<path d="M14.8184 46.0258V24.3921" stroke="#040000" stroke-width="1.6" stroke-miterlimit="10" stroke-linecap="round" stroke-linejoin="round"/>
<path d="M54.1821 46.0258V24.3921" stroke="#040000" stroke-width="1.6" stroke-miterlimit="10" stroke-linecap="round" stroke-linejoin="round"/>
<path d="M14.8184 24.9075L7 20.6211V11.2529L14.8184 15.5392V24.9075Z" stroke="#040000" stroke-width="1.6" stroke-miterlimit="10" stroke-linecap="round" stroke-linejoin="round"/>
<path d="M14.8184 24.9075L22.6368 20.6211V11.2529L14.8184 15.5392V24.9075Z" stroke="#040000" stroke-width="1.6" stroke-miterlimit="10" stroke-linecap="round" stroke-linejoin="round"/>
<path d="M7 11.2519L14.8184 7L22.6358 11.2519L14.8184 15.5383L7 11.2519Z" stroke="#040000" stroke-width="1.6" stroke-miterlimit="10" stroke-linecap="round" stroke-linejoin="round"/>
<path d="M34.2935 44.3831L26.4751 40.0978V30.7275L34.2935 35.0139V44.3831Z" stroke="#040000" stroke-width="1.6" stroke-miterlimit="10" stroke-linecap="round" stroke-linejoin="round"/>
<path d="M34.2939 44.3831L42.1124 40.0978V30.7275L34.2939 35.0139V44.3831Z" stroke="#040000" stroke-width="1.6" stroke-miterlimit="10" stroke-linecap="round" stroke-linejoin="round"/>
<path d="M26.4751 30.7275L34.2935 26.4756L42.1119 30.7275L34.2935 35.0138L26.4751 30.7275Z" stroke="#040000" stroke-width="1.6" stroke-miterlimit="10" stroke-linecap="round" stroke-linejoin="round"/>
<path d="M46.3643 15.516V11.2529L54.1817 15.5382V24.9075L46.3643 20.6211V15.516Z" stroke="#040000" stroke-width="1.6" stroke-miterlimit="10" stroke-linecap="round" stroke-linejoin="round"/>
<path d="M54.1821 24.9075L61.9995 20.6211V11.2529L54.1821 15.5392V24.9075Z" stroke="#040000" stroke-width="1.6" stroke-miterlimit="10" stroke-linecap="round" stroke-linejoin="round"/>
<path d="M46.3643 11.2519L54.1817 7L62.0001 11.2519L54.1817 15.5383L46.3643 11.2519Z" stroke="#040000" stroke-width="1.6" stroke-miterlimit="10" stroke-linecap="round" stroke-linejoin="round"/>
<path d="M14.8184 63.7742L7 59.4869V50.1187L14.8184 54.405V63.7742Z" stroke="#040000" stroke-width="1.6" stroke-miterlimit="10" stroke-linecap="round" stroke-linejoin="round"/>
<path d="M14.8184 63.7742L22.6368 59.4869V50.1187L14.8184 54.405V63.7742Z" stroke="#040000" stroke-width="1.6" stroke-miterlimit="10" stroke-linecap="round" stroke-linejoin="round"/>
<path d="M7 50.1191L14.8184 45.8672L22.6358 50.1191L14.8184 54.4044L7 50.1191Z" stroke="#040000" stroke-width="1.6" stroke-miterlimit="10" stroke-linecap="round" stroke-linejoin="round"/>
<path d="M54.1826 63.7742L46.3652 59.4869V50.1187L54.1826 54.405V63.7742Z" stroke="#040000" stroke-width="1.6" stroke-miterlimit="10" stroke-linecap="round" stroke-linejoin="round"/>
<path d="M54.1821 63.7742L61.9995 59.4869V50.1187L54.1821 54.405V63.7742Z" stroke="#040000" stroke-width="1.6" stroke-miterlimit="10" stroke-linecap="round" stroke-linejoin="round"/>
<path d="M46.3643 50.1191L54.1817 45.8672L62.0001 50.1191L54.1817 54.4044L46.3643 50.1191Z" stroke="#040000" stroke-width="1.6" stroke-miterlimit="10" stroke-linecap="round" stroke-linejoin="round"/>
</svg>
