<svg width="70" height="70" viewBox="0 0 70 70" fill="none" xmlns="http://www.w3.org/2000/svg">
<path d="M22.0727 47.6085H13.3686C12.2591 47.6085 11.359 46.7094 11.359 45.5999V10.0096C11.359 8.90114 12.2581 8 13.3686 8H55.3116C56.4201 8 57.3202 8.9001 57.3202 10.0096V45.601C57.3202 46.7094 56.4211 47.6095 55.3116 47.6095H46.4086" stroke="white" stroke-width="1.6" stroke-miterlimit="10" stroke-linecap="round" stroke-linejoin="round"/>
<path d="M11.359 13.9199H56.641" stroke="white" stroke-width="1.6" stroke-miterlimit="10" stroke-linecap="round" stroke-linejoin="round"/>
<path d="M32.8018 21.9482H51.5298" stroke="white" stroke-width="1.6" stroke-miterlimit="10" stroke-linecap="round" stroke-linejoin="round"/>
<path d="M40.0588 27.8037H51.5299" stroke="white" stroke-width="1.6" stroke-miterlimit="10" stroke-linecap="round" stroke-linejoin="round"/>
<path d="M44.131 33.6602H51.5297" stroke="white" stroke-width="1.6" stroke-miterlimit="10" stroke-linecap="round" stroke-linejoin="round"/>
<path d="M44.131 39.5166H51.5297" stroke="white" stroke-width="1.6" stroke-miterlimit="10" stroke-linecap="round" stroke-linejoin="round"/>
<path d="M29.4348 43.7227C24.4238 44.5915 20.5828 48.9847 20.5828 54.2321V57.0949H48.5139V54.2321C48.5139 49.1003 44.8395 44.7853 39.9921 43.7862" stroke="white" stroke-width="1.6" stroke-miterlimit="10" stroke-linecap="round" stroke-linejoin="round"/>
<path d="M34.5476 45.0345C39.7742 45.0345 44.0111 40.7975 44.0111 35.5709C44.0111 30.3444 39.7742 26.1074 34.5476 26.1074C29.3211 26.1074 25.0841 30.3444 25.0841 35.5709C25.0841 40.7975 29.3211 45.0345 34.5476 45.0345Z" stroke="white" stroke-width="1.6" stroke-miterlimit="10" stroke-linecap="round" stroke-linejoin="round"/>
<path d="M27.9059 51.7148V57.0946" stroke="white" stroke-width="1.6" stroke-miterlimit="10" stroke-linecap="round" stroke-linejoin="round"/>
<path d="M41.1904 51.7148V57.0946" stroke="white" stroke-width="1.6" stroke-miterlimit="10" stroke-linecap="round" stroke-linejoin="round"/>
<path d="M63.0968 62.5599H6V59.3856C6 58.1198 7.02407 57.0947 8.29087 57.0947H60.8059C62.0716 57.0947 63.0968 58.1198 63.0968 59.3856V62.5599Z" stroke="white" stroke-width="1.6" stroke-miterlimit="10" stroke-linecap="round" stroke-linejoin="round"/>
<path d="M16.7358 21.6988L18.9277 23.8896L22.8105 20.0059" stroke="white" stroke-width="1.6" stroke-miterlimit="10" stroke-linecap="round" stroke-linejoin="round"/>
<path d="M16.7358 29.4966L18.9277 31.6875L22.8105 27.8037" stroke="white" stroke-width="1.6" stroke-miterlimit="10" stroke-linecap="round" stroke-linejoin="round"/>
</svg>
