<svg width="70" height="70" viewBox="0 0 70 70" fill="none" xmlns="http://www.w3.org/2000/svg">
<path d="M62.9905 54.5701H7V12.1245C7 9.29414 9.29414 7 12.1245 7H57.866C60.6964 7 62.9905 9.29414 62.9905 12.1245V54.5701Z" stroke="white" stroke-width="1.6" stroke-miterlimit="10" stroke-linecap="round" stroke-linejoin="round"/>
<path d="M7.55078 14.0176H62.9908" stroke="white" stroke-width="1.6" stroke-miterlimit="10" stroke-linecap="round" stroke-linejoin="round"/>
<path d="M13.5936 10.7595C13.5936 11.4051 13.0697 11.9291 12.4241 11.9291C11.7784 11.9291 11.2555 11.4051 11.2555 10.7595C11.2555 10.1138 11.7784 9.58887 12.4241 9.58887C13.0697 9.58887 13.5936 10.1138 13.5936 10.7595Z" fill="white"/>
<path d="M17.0244 10.7595C17.0244 11.4051 16.5005 11.9291 15.8548 11.9291C15.2092 11.9291 14.6863 11.4051 14.6863 10.7595C14.6863 10.1138 15.2092 9.58887 15.8548 9.58887C16.5005 9.58887 17.0244 10.1138 17.0244 10.7595Z" fill="white"/>
<path d="M31.866 43.5407C38.465 43.5407 43.8146 38.1911 43.8146 31.5921C43.8146 24.9931 38.465 19.6436 31.866 19.6436C25.267 19.6436 19.9175 24.9931 19.9175 31.5921C19.9175 38.1911 25.267 43.5407 31.866 43.5407Z" stroke="white" stroke-width="1.6" stroke-miterlimit="10" stroke-linecap="round" stroke-linejoin="round"/>
<path d="M31.8649 40.0406C36.5312 40.0406 40.3139 36.2579 40.3139 31.5916C40.3139 26.9253 36.5312 23.1426 31.8649 23.1426C27.1986 23.1426 23.4159 26.9253 23.4159 31.5916C23.4159 36.2579 27.1986 40.0406 31.8649 40.0406Z" stroke="white" stroke-width="1.6" stroke-miterlimit="10" stroke-linecap="round" stroke-linejoin="round"/>
<path d="M40.4789 39.9205C41.2739 39.1255 42.5632 39.1255 43.3573 39.9205L49.4764 46.0396C50.2714 46.8347 50.2714 48.1219 49.4764 48.918C48.6823 49.7131 47.393 49.7131 46.5979 48.918L40.4789 42.7989C39.6838 42.0059 39.6838 40.7146 40.4789 39.9205Z" stroke="white" stroke-width="1.6" stroke-miterlimit="10" stroke-linecap="round" stroke-linejoin="round"/>
<path d="M7.00014 56.8998L62.9907 56.8998L62.9907 60.5938C62.9907 62.0668 61.9865 63.2598 60.7442 63.2598L9.24663 63.2598C8.00539 63.2598 7.00014 62.0668 7.00014 60.5938L7.00014 56.8998Z" stroke="white" stroke-width="1.6" stroke-miterlimit="10" stroke-linecap="round" stroke-linejoin="round"/>
<path d="M29 60H40.0498" stroke="white" stroke-width="1.6" stroke-miterlimit="10" stroke-linecap="round" stroke-linejoin="round"/>
<path d="M27.2998 32.002L30.5393 35.24L36.2778 29.5" stroke="white" stroke-width="1.6" stroke-miterlimit="10" stroke-linecap="round" stroke-linejoin="round"/>
</svg>
