<svg width="70" height="70" viewBox="0 0 70 70" fill="none" xmlns="http://www.w3.org/2000/svg">
<path d="M40.4913 41.2705L48.336 48.6401" stroke="white" stroke-width="1.6" stroke-miterlimit="10" stroke-linecap="round" stroke-linejoin="round"/>
<path d="M20.8396 48.3227L28.5266 41.5869" stroke="white" stroke-width="1.6" stroke-miterlimit="10" stroke-linecap="round" stroke-linejoin="round"/>
<path d="M23.3746 15.5381H46.3649" stroke="white" stroke-width="1.6" stroke-miterlimit="10" stroke-linecap="round" stroke-linejoin="round"/>
<path d="M23.3746 55.1514H46.3649" stroke="white" stroke-width="1.6" stroke-miterlimit="10" stroke-linecap="round" stroke-linejoin="round"/>
<path d="M39.6985 29.3841L48.0972 21.6182" stroke="white" stroke-width="1.6" stroke-miterlimit="10" stroke-linecap="round" stroke-linejoin="round"/>
<path d="M20.8396 22.0137L28.6833 29.1457" stroke="white" stroke-width="1.6" stroke-miterlimit="10" stroke-linecap="round" stroke-linejoin="round"/>
<path d="M14.8184 46.0263V24.3926" stroke="white" stroke-width="1.6" stroke-miterlimit="10" stroke-linecap="round" stroke-linejoin="round"/>
<path d="M54.1821 46.0263V24.3926" stroke="white" stroke-width="1.6" stroke-miterlimit="10" stroke-linecap="round" stroke-linejoin="round"/>
<path d="M14.8184 24.9075L7 20.6211V11.2529L14.8184 15.5392V24.9075Z" stroke="white" stroke-width="1.6" stroke-miterlimit="10" stroke-linecap="round" stroke-linejoin="round"/>
<path d="M14.8184 24.9075L22.6368 20.6211V11.2529L14.8184 15.5392V24.9075Z" stroke="white" stroke-width="1.6" stroke-miterlimit="10" stroke-linecap="round" stroke-linejoin="round"/>
<path d="M7 11.2519L14.8184 7L22.6358 11.2519L14.8184 15.5383L7 11.2519Z" stroke="white" stroke-width="1.6" stroke-miterlimit="10" stroke-linecap="round" stroke-linejoin="round"/>
<path d="M34.2938 44.3831L26.4753 40.0978V30.7275L34.2938 35.0139V44.3831Z" stroke="white" stroke-width="1.6" stroke-miterlimit="10" stroke-linecap="round" stroke-linejoin="round"/>
<path d="M34.2937 44.3831L42.1121 40.0978V30.7275L34.2937 35.0139V44.3831Z" stroke="white" stroke-width="1.6" stroke-miterlimit="10" stroke-linecap="round" stroke-linejoin="round"/>
<path d="M26.4753 30.7275L34.2938 26.4756L42.1122 30.7275L34.2938 35.0138L26.4753 30.7275Z" stroke="white" stroke-width="1.6" stroke-miterlimit="10" stroke-linecap="round" stroke-linejoin="round"/>
<path d="M46.3641 15.516V11.2529L54.1815 15.5382V24.9075L46.3641 20.6211V15.516Z" stroke="white" stroke-width="1.6" stroke-miterlimit="10" stroke-linecap="round" stroke-linejoin="round"/>
<path d="M54.1821 24.9075L61.9995 20.6211V11.2529L54.1821 15.5392V24.9075Z" stroke="white" stroke-width="1.6" stroke-miterlimit="10" stroke-linecap="round" stroke-linejoin="round"/>
<path d="M46.3641 11.2519L54.1815 7L62 11.2519L54.1815 15.5383L46.3641 11.2519Z" stroke="white" stroke-width="1.6" stroke-miterlimit="10" stroke-linecap="round" stroke-linejoin="round"/>
<path d="M14.8184 63.7737L7 59.4864V50.1182L14.8184 54.4045V63.7737Z" stroke="white" stroke-width="1.6" stroke-miterlimit="10" stroke-linecap="round" stroke-linejoin="round"/>
<path d="M14.8184 63.7737L22.6368 59.4864V50.1182L14.8184 54.4045V63.7737Z" stroke="white" stroke-width="1.6" stroke-miterlimit="10" stroke-linecap="round" stroke-linejoin="round"/>
<path d="M7 50.1191L14.8184 45.8672L22.6358 50.1191L14.8184 54.4044L7 50.1191Z" stroke="white" stroke-width="1.6" stroke-miterlimit="10" stroke-linecap="round" stroke-linejoin="round"/>
<path d="M54.1825 63.7737L46.3651 59.4864V50.1182L54.1825 54.4045V63.7737Z" stroke="white" stroke-width="1.6" stroke-miterlimit="10" stroke-linecap="round" stroke-linejoin="round"/>
<path d="M54.1821 63.7737L61.9995 59.4864V50.1182L54.1821 54.4045V63.7737Z" stroke="white" stroke-width="1.6" stroke-miterlimit="10" stroke-linecap="round" stroke-linejoin="round"/>
<path d="M46.3641 50.1191L54.1815 45.8672L62 50.1191L54.1815 54.4044L46.3641 50.1191Z" stroke="white" stroke-width="1.6" stroke-miterlimit="10" stroke-linecap="round" stroke-linejoin="round"/>
</svg>
