<svg width="60" height="60" viewBox="0 0 60 60" fill="none" xmlns="http://www.w3.org/2000/svg">
<path d="M29.6923 52.9999H20.7659C19.9726 52.9999 19.3302 52.3571 19.3302 51.5642C19.3302 50.7708 19.9726 50.1284 20.7659 50.1284H28.2565V45.2345H9.46564C7.0031 45.2345 5 43.231 5 40.7685V31.7613C5 29.8013 6.27004 28.1317 8.02988 27.5324V23.7021C6.27004 23.1028 5 21.4336 5 19.4732V10.4656C5 8.00351 7.0031 6 9.46564 6H49.9186C52.3815 6 54.3846 8.0031 54.3846 10.4656V19.4736C54.3846 21.9357 52.3815 23.9393 49.9186 23.9393H16.8377V27.2961H49.9181C52.3811 27.2961 54.3842 29.2992 54.3842 31.7617V40.7693C54.3842 43.2318 52.3811 45.2353 49.9181 45.2353H35.2118C34.4184 45.2353 33.776 44.5929 33.776 43.7996C33.776 43.0062 34.4184 42.3638 35.2118 42.3638H49.9181C50.7981 42.3638 51.5127 41.6488 51.5127 40.7693V31.7613C51.5127 30.8822 50.7981 30.1672 49.9181 30.1672H15.4019C14.6086 30.1672 13.9662 29.5248 13.9662 28.7314V22.5035C13.9662 21.7105 14.6086 21.0677 15.4019 21.0677H49.9181C50.7981 21.0677 51.5127 20.3527 51.5127 19.4736V10.4656C51.5127 9.58654 50.7981 8.87153 49.9181 8.87153H9.46564C8.58654 8.87153 7.87153 9.58654 7.87153 10.4656V19.4736C7.87153 20.3527 8.58654 21.0677 9.46564 21.0677C10.2586 21.0677 10.9014 21.7105 10.9014 22.5035V28.7318C10.9014 29.5252 10.2586 30.1676 9.46564 30.1676C8.58654 30.1676 7.87153 30.8826 7.87153 31.7617V40.7693C7.87153 41.6488 8.58654 42.3638 9.46564 42.3638H29.6927C30.4853 42.3638 31.1285 43.0062 31.1285 43.7996V51.565C31.1285 52.3571 30.4848 52.9999 29.6923 52.9999Z" fill="white"/>
<path d="M39.7887 16.7171C40.7534 16.7171 41.5354 15.935 41.5354 14.9703C41.5354 14.0057 40.7534 13.2236 39.7887 13.2236C38.824 13.2236 38.042 14.0057 38.042 14.9703C38.042 15.935 38.824 16.7171 39.7887 16.7171Z" fill="white"/>
<path d="M46.1224 16.7169C47.0873 16.7169 47.8695 15.9347 47.8695 14.9698C47.8695 14.0049 47.0873 13.2227 46.1224 13.2227C45.1575 13.2227 44.3752 14.0049 44.3752 14.9698C44.3752 15.9347 45.1575 16.7169 46.1224 16.7169Z" fill="white"/>
<path d="M39.7887 38.012C40.7534 38.012 41.5354 37.2299 41.5354 36.2653C41.5354 35.3006 40.7534 34.5186 39.7887 34.5186C38.824 34.5186 38.042 35.3006 38.042 36.2653C38.042 37.2299 38.824 38.012 39.7887 38.012Z" fill="white"/>
<path d="M46.1224 38.0128C47.0873 38.0128 47.8695 37.2306 47.8695 36.2657C47.8695 35.3008 47.0873 34.5186 46.1224 34.5186C45.1575 34.5186 44.3752 35.3008 44.3752 36.2657C44.3752 37.2306 45.1575 38.0128 46.1224 38.0128Z" fill="white"/>
<path d="M38.6167 53.0004H35.3862C34.5928 53.0004 33.9504 52.3576 33.9504 51.5647C33.9504 50.7713 34.5928 50.1289 35.3862 50.1289H38.6167C39.41 50.1289 40.0524 50.7713 40.0524 51.5647C40.0524 52.3576 39.4096 53.0004 38.6167 53.0004Z" fill="white"/>
</svg>
