<svg width="60" height="60" viewBox="0 0 60 60" fill="none" xmlns="http://www.w3.org/2000/svg">
<path d="M32.0395 55.0002H27.9479C27.1449 55.0002 26.4939 54.3492 26.4939 53.5462V42.8431C26.4939 42.0397 27.1449 41.3891 27.9479 41.3891C28.751 41.3891 29.4019 42.0397 29.4019 42.8431V52.0922H30.5855V35.0289C30.5855 34.4365 30.9444 33.9043 31.4932 33.6816C33.0095 33.0664 33.9895 31.6132 33.9895 29.9798C33.9895 27.7767 32.1974 25.9846 29.9939 25.9846C27.7905 25.9846 25.9983 27.7767 25.9983 29.9793C25.9983 31.6132 26.9783 33.066 28.4946 33.6812C29.2391 33.9828 29.5972 34.8311 29.2956 35.5752C28.9936 36.3196 28.1444 36.6773 27.4016 36.3761C24.7832 35.3135 23.0903 32.803 23.0903 29.9793C23.0903 26.1732 26.1874 23.0762 29.9939 23.0762C33.8009 23.0762 36.8975 26.1732 36.8975 29.9793C36.8975 32.462 35.5893 34.7024 33.4939 35.9291V53.5458C33.4935 54.3492 32.8425 55.0002 32.0395 55.0002Z" fill="white"/>
<path d="M37.6007 39.0437C37.2285 39.0437 36.8562 38.9017 36.5721 38.6179C36.0046 38.05 36.0046 37.1299 36.5721 36.562C40.2009 32.9328 40.2009 27.0283 36.5721 23.3987C34.8144 21.6414 32.4768 20.6722 29.9909 20.6722C27.5049 20.6722 25.1677 21.641 23.4097 23.3987C21.6516 25.1568 20.6832 27.4936 20.6832 29.9807C20.6832 32.4667 21.6516 34.8035 23.4092 36.562C23.9771 37.1299 23.9771 38.05 23.4092 38.6179C22.8413 39.1858 21.9208 39.1858 21.3529 38.6179C19.0456 36.311 17.7748 33.2431 17.7748 29.9807C17.7748 26.7176 19.0456 23.6496 21.3529 21.3427C23.6597 19.0354 26.7277 17.7646 29.9905 17.7646C33.2532 17.7646 36.3208 19.0354 38.6281 21.3427C43.3909 26.1056 43.3909 33.855 38.6281 38.6179C38.3447 38.9017 37.9721 39.0437 37.6007 39.0437Z" fill="white"/>
<path d="M46.6363 48.0773C46.2641 48.0773 45.8923 47.9352 45.6081 47.6519C45.0403 47.084 45.0403 46.1634 45.6081 45.5955C49.779 41.4242 52.0764 35.8791 52.0764 29.9796C52.0764 24.0813 49.779 18.5358 45.6081 14.3644C36.9976 5.75385 22.9876 5.75385 14.3766 14.3644C10.2057 18.5362 7.90842 24.0813 7.90842 29.9796C7.90842 35.8791 10.2057 41.4242 14.3766 45.5955C14.9445 46.1634 14.9445 47.084 14.3766 47.6519C13.8087 48.2194 12.8882 48.2194 12.3203 47.6519C7.59975 42.9318 5 36.6555 5 29.9796C5 23.3045 7.59975 17.0286 12.3199 12.3081C22.065 2.56377 37.9198 2.56419 47.6641 12.3081C52.3842 17.0286 54.9839 23.3045 54.9839 29.9796C54.9839 36.6555 52.3842 42.9318 47.6637 47.6519C47.3804 47.9352 47.0086 48.0773 46.6363 48.0773Z" fill="white"/>
<path d="M41.9604 43.4038C41.5882 43.4038 41.2164 43.2617 40.9323 42.9784C40.3644 42.4105 40.3644 41.4899 40.9323 40.922C46.9655 34.8887 46.9655 25.0717 40.9323 19.038C34.899 13.0044 25.0816 13.0048 19.0483 19.038C13.015 25.0713 13.015 34.8883 19.0483 40.922C19.6162 41.4899 19.6162 42.4105 19.0483 42.9784C18.4804 43.5458 17.5598 43.5458 16.9919 42.9784C9.82496 35.811 9.82496 24.1491 16.9919 16.9817C24.1593 9.8147 35.8216 9.8147 42.989 16.9817C50.156 24.1491 50.156 35.811 42.989 42.9784C42.7045 43.2617 42.3327 43.4038 41.9604 43.4038Z" fill="white"/>
<path d="M27.8553 40.7299C28.6712 40.7299 29.3326 40.0685 29.3326 39.2527C29.3326 38.4368 28.6712 37.7754 27.8553 37.7754C27.0394 37.7754 26.3781 38.4368 26.3781 39.2527C26.3781 40.0685 27.0394 40.7299 27.8553 40.7299Z" fill="white"/>
</svg>
