<svg width="60" height="60" viewBox="0 0 60 60" fill="none" xmlns="http://www.w3.org/2000/svg">
<path d="M48.1288 55H12.4573C9.9994 55 8 53.0006 8 50.5427V30.0266C8 27.5687 9.9994 25.5693 12.4573 25.5693H19.6376V15.6557C19.6376 9.78046 24.418 5 30.2933 5C36.1686 5 40.949 9.78046 40.949 15.6557V21.8807C40.949 22.6839 40.2982 23.3344 39.4954 23.3344C38.6921 23.3344 38.0417 22.6839 38.0417 21.8807V15.6557C38.0417 11.3832 34.5658 7.90731 30.2933 7.90731C26.0208 7.90731 22.5449 11.3832 22.5449 15.6557V27.0229C22.5449 27.8262 21.8945 28.4766 21.0912 28.4766H12.4573C11.6022 28.4766 10.9073 29.1727 10.9073 30.0266V50.5423C10.9073 51.3974 11.6026 52.0923 12.4573 52.0923H48.1292C48.9844 52.0923 49.6793 51.397 49.6793 50.5423V30.0266C49.6793 29.1722 48.984 28.4766 48.1292 28.4766H32.0659C31.2627 28.4766 30.6123 27.8262 30.6123 27.0229C30.6123 26.2197 31.2627 25.5693 32.0659 25.5693H48.1292C50.5872 25.5693 52.5866 27.5687 52.5866 30.0266V50.5423C52.5866 53.0006 50.5868 55 48.1288 55Z" fill="white"/>
<path d="M30.2944 48.1281C27.4851 48.1281 25.2 45.8422 25.2 43.0337C25.2 40.729 26.7375 38.7774 28.8407 38.1502V34.9605C28.8407 34.1572 29.4911 33.5068 30.2944 33.5068C31.0972 33.5068 31.7481 34.1572 31.7481 34.9605V39.3921C31.7481 40.1953 31.0972 40.8457 30.2944 40.8457C29.0883 40.8457 28.1073 41.8272 28.1073 43.0337C28.1073 44.239 29.0879 45.2208 30.2944 45.2208C31.5001 45.2208 32.4815 44.2394 32.4815 43.0337C32.4815 42.2304 33.1319 41.58 33.9352 41.58C34.738 41.58 35.3888 42.2304 35.3888 43.0337C35.3888 45.8422 33.1033 48.1281 30.2944 48.1281Z" fill="white"/>
<path d="M26.7804 28.6831C27.575 28.6831 28.2191 28.0389 28.2191 27.2444C28.2191 26.4498 27.575 25.8057 26.7804 25.8057C25.9858 25.8057 25.3417 26.4498 25.3417 27.2444C25.3417 28.0389 25.9858 28.6831 26.7804 28.6831Z" fill="white"/>
</svg>
