<svg width="110" height="110" viewBox="0 0 110 110" fill="none" xmlns="http://www.w3.org/2000/svg">
<path fill-rule="evenodd" clip-rule="evenodd" d="M55.0005 13C78.1957 13 97 31.8043 97 55.0005C97 78.1957 78.1957 97 55.0005 97C31.8043 97 13 78.1957 13 55.0005C13 31.8043 31.8033 13 55.0005 13ZM55.0005 24.1661C72.0296 24.1661 85.8339 37.9713 85.8339 55.0005C85.8339 72.0296 72.0287 85.8348 55.0005 85.8348C37.9704 85.8348 24.1661 72.0287 24.1661 55.0005C24.1652 37.9713 37.9704 24.1661 55.0005 24.1661ZM33.7778 21.541L36.6346 19.891L39.7307 25.2535L36.8738 26.9034L33.7778 21.541ZM70.2693 84.7456L73.1271 83.0966L76.2232 88.459L73.3654 90.109L70.2693 84.7456ZM19.8919 36.6337L21.541 33.7768L26.9034 36.8729L25.2544 39.7298L19.8919 36.6337ZM83.0966 73.1243L84.7456 70.2665L90.109 73.3626L88.459 76.2204L83.0966 73.1243ZM15.4129 56.6486V53.3496H21.6059V56.6486H15.4129ZM88.3951 56.6486V53.3496H94.5881V56.6486H88.3951ZM21.541 76.2204L19.8919 73.3644L25.2544 70.2675L26.9034 73.1243L21.541 76.2204ZM84.7456 39.7298L83.0966 36.8719L88.459 33.7759L90.109 36.6337L84.7456 39.7298ZM36.6356 90.1071L33.7787 88.4581L36.8747 83.0956L39.7325 84.7438L36.6356 90.1071ZM73.1271 26.9025L70.2702 25.2535L73.3663 19.8901L76.2232 21.5401L73.1271 26.9025ZM53.3514 15.411H56.6514V21.604H53.3514V15.411ZM53.3514 88.3932H56.6514V94.5862H53.3514V88.3932Z" fill="#0F335E"/>
<path d="M55.0005 28.5654C40.4009 28.5654 28.5646 40.3999 28.5646 55.0004C28.5646 69.5991 40.399 81.4354 55.0005 81.4354C69.5991 81.4354 81.4345 69.6 81.4345 55.0004C81.4345 40.4008 69.5991 28.5654 55.0005 28.5654ZM55.1562 32.6774C67.4736 32.6774 77.495 42.6978 77.495 55.0152H73.8196C73.8196 44.7242 65.4473 36.3519 55.1562 36.3519V32.6774ZM53.3181 44.7659H56.9934V54.2338L64.6603 61.6059L62.114 64.2552L53.3171 55.7985L53.3181 44.7659ZM42.0713 36.3352L44.182 39.3432C43.395 39.8956 42.6432 40.513 41.9461 41.1785L39.4072 38.5228C40.2368 37.7303 41.1332 36.9933 42.0713 36.3352ZM37.1019 41.0858L40.0116 43.3319C39.423 44.0948 38.8881 44.9077 38.4209 45.7494L35.2081 43.9659C35.7633 42.9629 36.4002 41.9943 37.1019 41.0858ZM33.7667 47.0981L37.2122 48.3764C36.8775 49.2783 36.6096 50.2127 36.4159 51.1545L32.8165 50.4138C33.0473 49.2913 33.3671 48.1752 33.7667 47.0981ZM32.4587 57.2168C32.3873 56.4752 32.3512 55.7281 32.3512 54.9911C32.3512 54.6055 32.3605 54.2171 32.3809 53.8343L36.0507 54.0215C36.034 54.3413 36.0266 54.6676 36.0266 54.9911C36.0266 55.6104 36.0572 56.2388 36.1174 56.859L36.1248 56.9396L32.4634 57.2557L32.4587 57.2168ZM33.0622 60.6734L36.6235 59.7659C36.8608 60.6984 37.1723 61.6198 37.5487 62.5032L34.1662 63.9409C33.7175 62.886 33.3458 61.7867 33.0622 60.6734ZM35.7531 67.0054L38.8779 65.0709C39.3831 65.8885 39.9578 66.6745 40.5826 67.4087L37.785 69.791C37.0398 68.9168 36.3557 67.9797 35.7531 67.0054ZM42.9778 74.296C42.0092 73.6832 41.0785 72.9917 40.2127 72.24L42.62 69.4628C43.3477 70.095 44.1282 70.6753 44.9421 71.1897L42.9778 74.296ZM48.2374 33.2827L49.3498 36.7857C48.4321 37.0768 47.5301 37.4411 46.6681 37.8675L45.0366 34.5749C46.0655 34.0651 47.1427 33.6303 48.2374 33.2827ZM49.2728 77.0537C48.166 76.758 47.0713 76.3742 46.0201 75.9144L47.4949 72.5477C48.3764 72.9343 49.2932 73.2559 50.222 73.5034L49.2728 77.0537ZM55.1312 77.8212C54.309 77.8212 53.4784 77.7758 52.6646 77.6868L53.0622 74.0336C54.0142 74.1375 54.9829 74.1699 55.9543 74.1282L56.1101 77.8008C55.7838 77.8138 55.4547 77.8212 55.1312 77.8212ZM59.5324 77.3966L58.8279 73.7889C59.7743 73.6045 60.7096 73.3449 61.6106 73.0205L62.8602 76.4762C61.783 76.8664 60.6623 77.1751 59.5324 77.3966ZM66.0072 75.0533L64.2404 71.8312C65.0802 71.3696 65.8941 70.8384 66.6579 70.2507L68.8974 73.1651C67.9853 73.8668 67.012 74.5027 66.0072 75.0533ZM71.4642 70.8644L68.8131 68.3199C69.4796 67.6256 70.0997 66.8738 70.6587 66.0859L73.6564 68.2105C72.9937 69.1458 72.2558 70.0394 71.4642 70.8644ZM75.4343 65.2683L72.1603 63.6007C72.5979 62.7414 72.977 61.8414 73.2866 60.9237L76.7682 62.1018C76.4012 63.1864 75.9534 64.2515 75.4343 65.2683Z" fill="#007ADF"/>
</svg>
