<svg width="110" height="110" viewBox="0 0 110 110" fill="none" xmlns="http://www.w3.org/2000/svg">
<path d="M94.8431 77.989H15.3601V27.119C15.3601 22.911 18.7711 19.5 22.9801 19.5H87.2251C91.4321 19.5 94.8431 22.911 94.8431 27.119V77.989Z" stroke="black" stroke-width="3" stroke-miterlimit="10" stroke-linecap="round" stroke-linejoin="round"/>
<path d="M10 77.9893H100.203V82.2983C100.203 87.0713 96.331 90.9443 91.556 90.9443H18.646C13.872 90.9443 10 87.0713 10 82.2983V77.9893Z" stroke="black" stroke-width="3" stroke-miterlimit="10" stroke-linecap="round" stroke-linejoin="round"/>
<path d="M86.473 32.5254H23.73V77.9894H86.473V32.5254Z" fill="#4193DC" stroke="black" stroke-width="3" stroke-miterlimit="10" stroke-linecap="round" stroke-linejoin="round"/>
<path d="M55.102 28.7001C56.4236 28.7001 57.495 27.6287 57.495 26.3071C57.495 24.9854 56.4236 23.9141 55.102 23.9141C53.7804 23.9141 52.709 24.9854 52.709 26.3071C52.709 27.6287 53.7804 28.7001 55.102 28.7001Z" fill="black"/>
<path d="M48.9102 57.5286V41.6826L64.3582 49.6056L48.9102 57.5286Z" fill="white" stroke="black" stroke-width="3" stroke-miterlimit="10" stroke-linecap="round" stroke-linejoin="round"/>
<path d="M30.5249 68.1455H79.1749" stroke="black" stroke-width="3" stroke-miterlimit="10" stroke-linecap="round" stroke-linejoin="round"/>
<path d="M42.441 72.3156C44.7446 72.3156 46.612 70.4482 46.612 68.1446C46.612 65.8411 44.7446 63.9736 42.441 63.9736C40.1374 63.9736 38.27 65.8411 38.27 68.1446C38.27 70.4482 40.1374 72.3156 42.441 72.3156Z" fill="white" stroke="black" stroke-width="3" stroke-miterlimit="10" stroke-linecap="round" stroke-linejoin="round"/>
</svg>
