<svg width="110" height="110" viewBox="0 0 110 110" fill="none" xmlns="http://www.w3.org/2000/svg">
<path d="M94.5897 29.12C94.5897 26.1242 92.1608 23.6953 89.164 23.6953H21.4256C18.4289 23.6953 16 26.1242 16 29.12V70.7117H94.5897V29.12Z" fill="white" stroke="black" stroke-width="3" stroke-miterlimit="10" stroke-linecap="round" stroke-linejoin="round"/>
<path d="M16 70.71V79.6826C16 82.6793 18.4289 85.1073 21.4256 85.1073H89.164C92.1608 85.1073 94.5897 82.6793 94.5897 79.6826V70.71H16Z" stroke="black" stroke-width="3" stroke-miterlimit="10" stroke-linecap="round" stroke-linejoin="round"/>
<path d="M67.6228 85.3604H42.9663V97.0002H67.6228V85.3604Z" fill="white" stroke="black" stroke-width="3" stroke-miterlimit="10" stroke-linecap="round" stroke-linejoin="round"/>
<path d="M78.0232 96.999H32.5645" stroke="black" stroke-width="3" stroke-miterlimit="10" stroke-linecap="round" stroke-linejoin="round"/>
<path d="M82.1991 40.1682C81.4879 36.4295 80.0225 32.9607 77.9586 29.9258L81.2533 25.5885L75.0112 19.3454L70.6729 22.6401C67.6399 20.5771 64.1711 19.1118 60.4305 18.4005L59.6941 13H50.8631L50.1267 18.4005C46.3879 19.1118 42.9192 20.5771 39.8843 22.6401L35.5479 19.3454L29.303 25.5885L32.5976 29.9258C30.5356 32.9607 29.0693 36.4295 28.359 40.1682L22.9585 40.9056V49.7357L28.359 50.4731C29.0693 54.2109 30.5356 57.6815 32.5976 60.7146L29.303 65.0528L35.5479 71.2959L39.8843 68.0003C42.9192 70.0642 46.3879 71.5295 50.1267 72.2408L50.8631 77.6413H59.6941L60.4305 72.2408C64.1711 71.5295 67.6399 70.0642 70.6729 68.0003L75.0112 71.2959L81.2533 65.0528L77.9586 60.7146C80.0225 57.6815 81.4879 54.2109 82.1991 50.4731L87.5996 49.7357V40.9056L82.1991 40.1682ZM55.2795 53.7659C50.6154 53.7659 46.8348 49.9843 46.8348 45.3221C46.8348 40.6579 50.6154 36.8773 55.2795 36.8773C59.9418 36.8773 63.7233 40.6589 63.7233 45.3221C63.7233 49.9843 59.9408 53.7659 55.2795 53.7659Z" fill="#546DD2" stroke="black" stroke-width="3" stroke-miterlimit="10" stroke-linecap="round" stroke-linejoin="round"/>
<path d="M55.2789 28.7646C64.4228 28.7646 71.836 36.1779 71.836 45.3218C71.836 54.4657 64.4228 61.8789 55.2789 61.8789C46.1332 61.8789 38.72 54.4657 38.72 45.3218" stroke="black" stroke-width="3" stroke-miterlimit="10" stroke-linecap="round" stroke-linejoin="round"/>
</svg>
