<svg width="110" height="110" viewBox="0 0 110 110" fill="none" xmlns="http://www.w3.org/2000/svg">
<path fill-rule="evenodd" clip-rule="evenodd" d="M64.5294 21.6909C67.0911 22.4227 69.5291 23.4419 71.8112 24.7116L75.5296 21.4336C77.0935 20.0538 79.6826 20.2857 81.3196 21.9247C82.4431 23.0482 83.5705 24.1766 84.695 25.3001C85.8195 26.4246 86.9469 27.552 88.0714 28.6765C89.7094 30.3145 89.9471 32.9065 88.5674 34.4704L85.2884 38.1888C86.5571 40.4709 87.5764 42.9089 88.3082 45.4697L93.2524 45.7805C95.3357 45.9111 97 47.9067 97 50.2229C97 51.8122 97 53.4063 97 54.9956C97 56.5849 97 58.1791 97 59.7703C97 62.0855 95.3357 64.087 93.2524 64.2166L88.3082 64.5274C87.5764 67.0892 86.5581 69.5281 85.2884 71.8093L88.5674 75.5286C89.9471 77.0926 89.7142 79.6816 88.0762 81.3186C86.9527 82.4421 85.8244 83.5705 84.7009 84.695C83.5764 85.8185 82.449 86.9459 81.3235 88.0704C79.6855 89.7084 77.0935 89.9462 75.5296 88.5664L71.8102 85.2865C69.5291 86.5561 67.0901 87.5744 64.5294 88.3062L64.2185 93.2504C64.0879 95.3337 62.0865 96.998 59.7722 96.998C58.18 96.998 56.5859 96.998 54.9976 96.998C53.4073 96.998 51.8132 96.998 50.2248 96.998C47.9077 96.998 45.9121 95.3337 45.7825 93.2504L45.4716 88.3062C42.9108 87.5744 40.4719 86.5552 38.1917 85.2865L34.4714 88.5664C32.9074 89.9462 30.3145 89.7084 28.6775 88.0704C27.552 86.9459 26.4246 85.8185 25.3001 84.695C24.1766 83.5705 23.0492 82.4421 21.9247 81.3186C20.2867 79.6806 20.0538 77.0926 21.4336 75.5286L24.7125 71.8093C23.4429 69.5281 22.4246 67.0892 21.6928 64.5274L16.7476 64.2175C14.6643 64.087 13 62.0855 13 59.7713C13 58.1791 13 56.5859 13 54.9966C13 53.4073 13 51.8122 13 50.2239C13 47.9077 14.6643 45.9121 16.7476 45.7815L21.6918 45.4706C22.4236 42.9099 23.4429 40.4719 24.7116 38.1898L21.4326 34.4714C20.0529 32.9074 20.2906 30.3145 21.9286 28.6775C23.0531 27.553 24.1805 26.4256 25.305 25.3011C26.4285 24.1776 27.5569 23.0492 28.6804 21.9257C30.3184 20.2867 32.9065 20.0548 34.4704 21.4346L38.1888 24.7125C40.4699 23.4429 42.9089 22.4236 45.4706 21.6918L45.7815 16.7476C45.9111 14.6653 47.9077 13 50.2239 13C51.8132 13 53.4073 13 54.9966 13C56.5859 13 58.18 13 59.7713 13C62.0865 13 64.0879 14.6653 64.2175 16.7476L64.5294 21.6909ZM45.6831 34.1878C51.9476 34.1878 58.2112 34.1878 64.4758 34.1878C66.0475 34.1878 67.5004 35.0248 68.2848 36.3832C71.4438 41.8536 74.601 47.3259 77.762 52.7973C78.5542 54.1683 78.5435 55.8521 77.7532 57.2173C74.5932 62.6809 71.4419 68.1503 68.2848 73.6168C67.4721 75.0229 65.9325 75.8697 64.316 75.8112C58.0514 75.8112 51.7868 75.8112 45.5233 75.8112C43.9515 75.8112 42.4987 74.9752 41.7142 73.6158C38.5552 68.1454 35.3981 62.6741 32.237 57.2017C31.4448 55.8307 31.4555 54.1479 32.2448 52.7827C35.4049 47.3181 38.5581 41.8487 41.7142 36.3832C42.5269 34.9761 44.0655 34.1294 45.6831 34.1878Z" fill="#0F335E"/>
<path d="M46.2587 38.0406C52.1179 38.0406 57.9762 38.0406 63.8363 38.0416C64.4463 38.0416 64.9822 38.3719 65.2687 38.8649C65.2697 38.864 65.2678 38.8649 65.2687 38.8649C68.2144 43.966 71.1601 49.0681 74.1048 54.1702C74.4146 54.7061 74.3913 55.3434 74.098 55.8413C71.1542 60.9395 68.2115 66.0377 65.2678 71.1349C64.9442 71.6932 64.344 71.9924 63.7399 71.9582C57.8807 71.9582 52.0224 71.9573 46.1632 71.9573C45.5523 71.9573 45.0164 71.6269 44.7299 71.1349C44.7308 71.1339 44.7289 71.1349 44.7299 71.1349C41.7852 66.0328 38.8385 60.9307 35.8938 55.8287C35.584 55.2937 35.6073 54.6564 35.9006 54.1575C38.8444 49.0603 41.7871 43.9612 44.7308 38.864C45.0544 38.3047 45.6556 38.0075 46.2587 38.0406ZM50.0716 45.4384C49.7306 45.4179 49.3925 45.5865 49.2103 45.9022C47.5508 48.7758 45.8924 51.6503 44.2329 54.5249C44.0673 54.8055 44.0536 55.1651 44.228 55.4671C45.8894 58.3436 47.5498 61.2191 49.2103 64.0947C49.2112 64.0947 49.2103 64.0956 49.2103 64.0947C49.371 64.3724 49.6741 64.5595 50.0181 64.5595C53.3204 64.5595 56.6237 64.5595 59.9269 64.5595C60.267 64.5799 60.6051 64.4114 60.7883 64.0956C62.4468 61.2221 64.1062 58.3475 65.7657 55.473C65.9313 55.1924 65.945 54.8328 65.7696 54.5307C64.1092 51.6542 62.4488 48.7787 60.7883 45.9032C60.7893 45.9022 60.7874 45.9032 60.7883 45.9032C60.6276 45.6255 60.3255 45.4384 59.9805 45.4384C56.6773 45.4384 53.3749 45.4384 50.0716 45.4384ZM68.8975 52.5068C69.3857 52.2243 69.5552 51.5938 69.2736 51.1056L65.641 44.8157C65.3584 44.3266 64.7279 44.158 64.2397 44.4396L64.2388 44.4406C63.7506 44.7212 63.581 45.3526 63.8636 45.8418L67.4963 52.1327C67.7788 52.6209 68.4093 52.7885 68.8975 52.5068Z" fill="#007ADF"/>
<path fill-rule="evenodd" clip-rule="evenodd" d="M54.9995 48.0977C58.8114 48.0977 61.9013 51.1875 61.9013 54.9995C61.9013 58.8104 58.8114 61.9003 54.9995 61.9003C51.1885 61.9003 48.0986 58.8104 48.0986 54.9995C48.0986 51.1875 51.1875 48.0977 54.9995 48.0977Z" fill="#0F335E"/>
</svg>
