<svg width="110" height="110" viewBox="0 0 110 110" fill="none" xmlns="http://www.w3.org/2000/svg">
<rect x="14.814" y="16.8145" width="46.2484" height="10.882" fill="#007ADF"/>
<rect x="14.814" y="38.5771" width="16.323" height="10.882" fill="#007ADF"/>
<path d="M58.3933 15H17.6656C15.0921 15 13 17.0939 13 19.6675V24.7566C13 27.3302 15.0921 29.4232 17.6656 29.4232H36.7563V36.8502L32.2466 40.2336C31.6218 38.3963 29.897 37.0633 27.8494 37.0633H17.6656C15.0921 37.0633 13 39.1553 13 41.7289V46.8199C13 49.3935 15.0921 51.4865 17.6656 51.4865H21.4852V59.1238H17.6656C15.0921 59.1238 13 61.2177 13 63.7904V68.8813C13 71.4549 15.0921 73.547 17.6656 73.547H21.4852V81.1871H17.6656C15.0921 81.1871 13 83.2791 13 85.8527V90.9428C13 93.5173 15.0921 95.6103 17.6656 95.6103H27.8494C30.423 95.6103 32.515 93.5164 32.515 90.9428V85.8527C32.515 83.2791 30.423 81.1871 27.8494 81.1871H24.0307V73.5479H27.8494C30.423 73.5479 32.515 71.4558 32.515 68.8822V67.6091H43.6745C44.2793 70.9798 47.2175 73.5479 50.7559 73.5479H52.03V81.1871H50.7559C46.7795 81.1871 43.5439 84.4208 43.5439 88.3991C43.5439 92.3756 46.7795 95.6103 50.7559 95.6103H55.8487C59.8243 95.6103 63.0598 92.3756 63.0598 88.3991C63.0598 84.4208 59.8243 81.1871 55.8487 81.1871H54.5755V73.5479H55.8487C59.8243 73.5479 63.0598 70.3123 63.0598 66.3359C63.0598 62.3594 59.8243 59.1247 55.8487 59.1247H50.7559C47.2175 59.1247 44.2793 61.6947 43.6745 65.0627H32.515V63.7922C32.515 61.2186 30.423 59.1256 27.8494 59.1256H24.0307V51.4883H27.8494C30.423 51.4883 32.515 49.3944 32.515 46.8217V43.2152L38.0295 39.0782L43.5448 43.2152V46.8217C43.5448 49.3953 45.6405 51.4883 48.2141 51.4883H58.3942C60.9678 51.4883 63.0607 49.3944 63.0607 46.8217V41.7307C63.0607 39.1571 60.9669 37.0651 58.3942 37.0651H48.2141C46.1665 37.0651 44.4408 38.3981 43.8132 40.2354L39.3054 36.852V29.425H58.3933C60.9669 29.425 63.0598 27.3311 63.0598 24.7584V19.6675C63.0607 17.093 60.9669 15 58.3933 15ZM55.8487 83.7307C58.4232 83.7307 60.5153 85.8246 60.5153 88.3991C60.5153 90.9727 58.4232 93.0657 55.8487 93.0657H50.7559C48.1824 93.0657 46.093 90.9727 46.093 88.3991C46.093 85.8237 48.1824 83.7307 50.7559 83.7307H55.8487ZM50.7559 61.6711H55.8487C58.4232 61.6711 60.5153 63.7632 60.5153 66.3368C60.5153 68.9104 58.4232 71.0033 55.8487 71.0033H50.7559C48.1824 71.0033 46.093 68.9095 46.093 66.3368C46.093 63.7641 48.1824 61.6711 50.7559 61.6711ZM27.8494 83.7307C29.0192 83.7307 29.9686 84.6838 29.9686 85.8527V90.9428C29.9686 92.1135 29.0192 93.0657 27.8494 93.0657H17.6656C16.4986 93.0657 15.5446 92.1135 15.5446 90.9428V85.8527C15.5446 84.6838 16.4986 83.7307 17.6656 83.7307H27.8494ZM27.8494 61.6711C29.0192 61.6711 29.9686 62.6215 29.9686 63.7922V68.8832C29.9686 70.0512 29.0192 71.0033 27.8494 71.0033H17.6656C16.4986 71.0033 15.5446 70.0512 15.5446 68.8832V63.7922C15.5446 62.6215 16.4986 61.6711 17.6656 61.6711H27.8494ZM29.9686 46.8199C29.9686 47.9906 29.0192 48.941 27.8494 48.941H17.6656C16.4986 48.941 15.5446 47.9906 15.5446 46.8199V41.7289C15.5446 40.5591 16.4986 39.6078 17.6656 39.6078H27.8494C29.0192 39.6078 29.9686 40.5591 29.9686 41.7289V46.8199ZM46.093 41.7298C46.093 40.56 47.0425 39.6087 48.2132 39.6087H58.3933C59.5622 39.6087 60.5153 40.56 60.5153 41.7298V46.8208C60.5153 47.9915 59.5622 48.9419 58.3933 48.9419H48.2141C47.0434 48.9419 46.0939 47.9915 46.0939 46.8208L46.093 41.7298ZM60.5153 24.7566C60.5153 25.9273 59.5622 26.8786 58.3933 26.8786H17.6656C16.4986 26.8786 15.5446 25.9273 15.5446 24.7566V19.6675C15.5446 18.4968 16.4986 17.5446 17.6656 17.5446H58.3933C59.5622 17.5446 60.5153 18.4968 60.5153 19.6675V24.7566Z" fill="black"/>
<path d="M89.3626 33.2771V26.4187C89.3626 25.9662 89.1196 25.5436 88.7278 25.3169L82.7863 21.8882C82.3918 21.6597 81.9103 21.6597 81.5158 21.8882L75.5751 25.3169C75.1798 25.5436 74.9395 25.9662 74.9395 26.4187V33.2771C74.9395 33.7314 75.1807 34.1522 75.5751 34.3789L81.5158 37.8086C81.7126 37.9228 81.932 37.98 82.1515 37.98C82.3691 37.98 82.5904 37.9228 82.7863 37.8086L88.7278 34.3789C89.1205 34.1522 89.3626 33.7314 89.3626 33.2771ZM86.819 32.5426L82.1524 35.2377L77.4858 32.5426V27.1542L82.1524 24.4609L86.819 27.1542V32.5426Z" fill="black"/>
<path d="M91.0612 68.8886V41.7244C94.7928 38.9241 97 34.535 97 29.8494C97 21.6598 90.3403 15 82.1525 15C73.9647 15 67.3049 21.6598 67.3049 29.8494C67.3049 34.5341 69.5103 38.9241 73.242 41.7244V68.8886C69.5103 71.6889 67.3049 76.078 67.3049 80.7618C67.3049 86.4766 70.5015 91.5866 75.6541 94.0977C75.831 94.1856 76.0205 94.2291 76.2136 94.2291C76.4458 94.2291 76.6816 94.1639 76.8865 94.036C77.2592 93.8029 77.485 93.3949 77.485 92.9559V79.7651L82.1516 77.0709L86.8181 79.7651V92.955C86.8181 93.3939 87.043 93.8029 87.4166 94.0351C87.7866 94.269 88.2527 94.289 88.6472 94.0967C93.7971 91.5848 96.9982 86.4757 96.9982 80.7608C96.9991 76.078 94.7928 71.6889 91.0612 68.8886ZM89.3627 90.7179V79.0297C89.3627 78.5763 89.1197 78.1546 88.7279 77.9279L82.7864 74.4992C82.3919 74.2706 81.9104 74.2706 81.5159 74.4992L75.5752 77.9279C75.1799 78.1546 74.9395 78.5763 74.9395 79.0297V90.7179C71.7538 88.4299 69.8495 84.7754 69.8495 80.7618C69.8495 76.6928 71.8618 72.8895 75.2325 70.5898C75.578 70.354 75.7865 69.9623 75.7865 69.5406V41.0697C75.7865 40.6498 75.578 40.2553 75.2325 40.0177C71.859 37.7207 69.8495 33.9202 69.8495 29.8494C69.8495 23.0645 75.3685 17.5446 82.1516 17.5446C88.9338 17.5446 94.4518 23.0645 94.4518 29.8494C94.4518 33.9202 92.4396 37.7207 89.0698 40.0177C88.7216 40.2553 88.5148 40.6498 88.5148 41.0697V69.5406C88.5148 69.9623 88.7225 70.354 89.0698 70.5916C92.4396 72.8895 94.4518 76.6928 94.4518 80.7618C94.4528 84.7754 92.5466 88.4299 89.3627 90.7179Z" fill="black"/>
</svg>
