<svg width="110" height="110" viewBox="0 0 110 110" fill="none" xmlns="http://www.w3.org/2000/svg">
<rect x="14.8137" y="14.8135" width="80.7099" height="12.6959" fill="#007ADF"/>
<path d="M22.7576 88.5151H44.8122C45.5159 88.5151 46.0882 87.9465 46.0882 87.2419V79.9036C46.7919 79.987 47.5029 80.0306 48.2138 80.0306C57.6107 80.0306 65.4132 72.9888 66.3627 63.651C66.4316 62.9518 65.9238 62.3261 65.2246 62.2571C64.5327 62.1782 63.9006 62.6942 63.8289 63.3943C63.0137 71.4263 56.3021 77.4859 48.2138 77.4859C45.6139 77.4859 43.0284 76.8239 40.7368 75.5752C40.4621 75.4265 40.1401 75.3802 39.84 75.4528L32.9406 77.057L34.5285 70.1187C34.5974 69.8158 34.5521 69.5002 34.407 69.2281C33.1719 66.9465 32.5153 64.3728 32.5153 61.7892C32.5153 53.1333 39.557 46.0925 48.2147 46.0925C51.7868 46.0925 55.1531 47.2614 57.948 49.4741C58.4985 49.9112 59.3001 49.8169 59.7372 49.2665C60.1743 48.716 60.0809 47.9144 59.5296 47.4791C56.2803 44.9063 52.3672 43.546 48.2138 43.546C47.4938 43.546 46.7855 43.5995 46.0882 43.6803V36.3338C46.0882 35.631 45.5159 35.0615 44.8122 35.0615H22.7576C22.0575 35.0615 21.4871 35.631 21.4871 36.3338V57.5479C21.4871 58.2489 22.0575 58.8184 22.7576 58.8184H30.2355C30.075 59.7869 29.9707 60.7744 29.9707 61.7874C29.9707 62.7849 30.0849 63.7743 30.25 64.7573H22.7576C22.0575 64.7573 21.4871 65.3277 21.4871 66.0287V87.2409C21.4862 87.9465 22.0566 88.5151 22.7576 88.5151ZM24.0317 56.2737V37.6062H43.5417V44.1727C37.5193 45.7733 32.7066 50.3665 30.8267 56.2737H24.0317ZM24.0317 67.3029H30.8621C31.1577 68.2279 31.5014 69.1374 31.9395 70.0053L30.0024 78.4726C29.9054 78.8997 30.0332 79.3468 30.3434 79.6587C30.5873 79.8982 30.9093 80.0297 31.243 80.0297C31.3373 80.0297 31.4334 80.0197 31.5286 79.997L39.9506 78.0382C41.0978 78.6231 42.3021 79.0639 43.5399 79.3939V85.9695H24.0317V67.3029Z" fill="black"/>
<path d="M95.7268 13H14.2741C13.5704 13 13 13.5713 13 14.2732V95.7268C13 96.4278 13.5704 96.9991 14.2741 96.9991H95.7268C96.4278 96.9991 97 96.4278 97 95.7268V14.2741C97.0009 13.5713 96.4287 13 95.7268 13ZM94.4536 94.4563H15.5446V29.122H94.4536V94.4563ZM94.4536 26.5765H15.5446V15.5474H94.4536V26.5765Z" fill="black"/>
<path d="M88.939 22.3372C89.2781 22.3372 89.6019 22.2021 89.8386 21.9645C90.0743 21.7269 90.2131 21.3869 90.2131 21.0658C90.2131 20.7258 90.0743 20.4029 89.8386 20.1472C89.3643 19.6901 88.5145 19.6901 88.0403 20.1653C87.8018 20.4029 87.6685 20.7258 87.6685 21.0658C87.6685 21.405 87.8018 21.7269 88.0403 21.9645C88.2788 22.2021 88.6007 22.3372 88.939 22.3372Z" fill="black"/>
<path d="M80.167 22.3367C80.8798 22.3367 81.4375 21.7581 81.4375 21.0653C81.4375 20.3507 80.8798 19.793 80.167 19.793C79.4696 19.793 78.8938 20.3507 78.8938 21.0653C78.8938 21.759 79.4706 22.3367 80.167 22.3367Z" fill="black"/>
<path d="M71.4111 22.3372C71.7503 22.3372 72.0722 22.2021 72.308 21.9645C72.5465 21.7269 72.6825 21.4049 72.6825 21.0658C72.6825 20.7257 72.5465 20.4029 72.308 20.1653C71.8337 19.691 71.003 19.6729 70.4924 20.1653C70.273 20.4029 70.137 20.7257 70.137 21.0658C70.137 21.3868 70.2721 21.7269 70.5115 21.9645C70.7482 22.2021 71.0701 22.3372 71.4111 22.3372Z" fill="black"/>
<path d="M64.2853 52.3942L48.2077 68.4727L40.2891 60.5541C39.7912 60.0562 38.985 60.0562 38.489 60.5541C37.9929 61.051 37.9929 61.8563 38.489 62.3533L47.3072 71.1715C47.5575 71.42 47.8822 71.546 48.2086 71.546C48.5324 71.546 48.8598 71.42 49.1073 71.1715L66.0827 54.1943C66.5815 53.6964 66.5815 52.8912 66.0827 52.3942C65.5867 51.8972 64.7805 51.8972 64.2853 52.3942Z" fill="black"/>
<path d="M79.5493 43.9703H87.2412C87.9441 43.9703 88.5145 43.399 88.5145 42.698C88.5145 41.9952 87.9441 41.4248 87.2412 41.4248H79.5493C78.8483 41.4248 78.2788 41.9952 78.2788 42.698C78.2779 43.399 78.8474 43.9703 79.5493 43.9703Z" fill="black"/>
<path d="M61.7852 43.9703H72.7617C73.4655 43.9703 74.0359 43.399 74.0359 42.698C74.0359 41.9952 73.4655 41.4248 72.7617 41.4248H61.7852C61.0851 41.4248 60.512 41.9952 60.512 42.698C60.5111 43.399 61.0842 43.9703 61.7852 43.9703Z" fill="black"/>
<path d="M87.2413 49.9102H71.969C71.2662 49.9102 70.6958 50.4815 70.6958 51.1825C70.6958 51.8853 71.2662 52.4566 71.969 52.4566H87.2413C87.9442 52.4566 88.5146 51.8853 88.5146 51.1825C88.5146 50.4815 87.9442 49.9102 87.2413 49.9102Z" fill="black"/>
<path d="M87.2416 71.1211H70.1873C69.4872 71.1211 68.9141 71.6924 68.9141 72.3934C68.9141 73.0962 69.4872 73.6666 70.1873 73.6666H87.2416C87.9444 73.6666 88.5148 73.0962 88.5148 72.3934C88.5148 71.6924 87.9444 71.1211 87.2416 71.1211Z" fill="black"/>
<path d="M82.1492 79.6064H76.4387C75.7359 79.6064 75.1655 80.1769 75.1655 80.8797C75.1655 81.5816 75.7359 82.1529 76.4387 82.1529H82.1492C82.852 82.1529 83.4224 81.5816 83.4224 80.8797C83.4224 80.1769 82.852 79.6064 82.1492 79.6064Z" fill="black"/>
<path d="M69.6494 79.6064H61.7852C61.0851 79.6064 60.512 80.1769 60.512 80.8797C60.512 81.5816 61.0851 82.1529 61.7852 82.1529H69.6494C70.3522 82.1529 70.9226 81.5816 70.9226 80.8797C70.9226 80.1769 70.3522 79.6064 69.6494 79.6064Z" fill="black"/>
</svg>
