<svg width="110" height="110" viewBox="0 0 110 110" fill="none" xmlns="http://www.w3.org/2000/svg">
<path fill-rule="evenodd" clip-rule="evenodd" d="M24.7055 15H85.2954C91.7338 15 97 20.2681 97 26.7055V65.2631C97 71.7005 91.7328 76.9676 85.2954 76.9676H24.7055C18.2672 76.9676 13 71.7005 13 65.2631V26.7055C13 20.2681 18.2672 15 24.7055 15ZM24.7055 22.8486C22.5985 22.8486 20.8477 24.6003 20.8477 26.7055V65.2631C20.8477 67.3692 22.5994 69.1199 24.7055 69.1199H85.2954C87.4015 69.1199 89.1523 67.3682 89.1523 65.2631V26.7055C89.1523 24.5985 87.4006 22.8486 85.2954 22.8486H24.7055Z" fill="#0F335E"/>
<path fill-rule="evenodd" clip-rule="evenodd" d="M33.0118 87.4675H38.9702L44.7555 79.5928H65.2454L71.0308 87.4675H76.9882C78.9054 87.4675 80.4729 89.0377 80.4729 90.9541C80.4729 92.8714 78.9045 94.4388 76.9882 94.4388H33.0118C31.0945 94.4388 29.5261 92.8704 29.5261 90.9541C29.5271 89.0377 31.0955 87.4675 33.0118 87.4675Z" fill="#007ADF"/>
<path fill-rule="evenodd" clip-rule="evenodd" d="M27.2711 60.7871H82.7278C83.9474 60.7871 84.9437 61.7825 84.9437 63.0021C84.9437 64.2216 83.9474 65.217 82.7278 65.217H27.2711C26.0525 65.217 25.0562 64.2216 25.0562 63.0021C25.0571 61.7834 26.0534 60.7871 27.2711 60.7871Z" fill="#007ADF"/>
<path fill-rule="evenodd" clip-rule="evenodd" d="M46.8841 49.6396C45.5882 49.6396 44.2933 49.6396 42.9975 49.6396C42.2681 49.6396 41.6709 50.2369 41.6709 50.9671C41.6709 53.9672 41.6709 53.9989 41.6709 56.999C41.6709 57.7292 42.2681 58.3274 42.9975 58.3274C44.2933 58.3274 45.5892 58.3274 46.8841 58.3274C47.6144 58.3274 48.2106 57.7292 48.2106 56.999C48.2106 53.9989 48.2106 53.9672 48.2106 50.9671C48.2116 50.2359 47.6144 49.6396 46.8841 49.6396Z" fill="#007ADF"/>
<path fill-rule="evenodd" clip-rule="evenodd" d="M56.9439 44.1074C55.6481 44.1074 54.3531 44.1074 53.0573 44.1074C52.3279 44.1074 51.7307 44.7047 51.7307 45.434C51.7307 48.8443 51.7307 53.5887 51.7307 56.9981C51.7307 57.7283 52.3279 58.3246 53.0573 58.3246C54.3531 58.3246 55.649 58.3246 56.9439 58.3246C57.6732 58.3246 58.2714 57.7283 58.2714 56.9981C58.2714 53.5877 58.2714 48.8443 58.2714 45.434C58.2714 44.7047 57.6732 44.1074 56.9439 44.1074Z" fill="#0F335E"/>
<path fill-rule="evenodd" clip-rule="evenodd" d="M67.0027 47.1816C65.7068 47.1816 64.4119 47.1816 63.1161 47.1816C62.3858 47.1816 61.7886 47.7798 61.7886 48.5091C61.7886 52.3288 61.7886 53.1791 61.7886 56.9978C61.7886 57.728 62.3858 58.3262 63.1161 58.3262C64.4119 58.3262 65.7068 58.3262 67.0027 58.3262C67.733 58.3262 68.3302 57.728 68.3302 56.9978C68.3302 53.1781 68.3302 52.3288 68.3302 48.5091C68.3302 47.7798 67.7339 47.1816 67.0027 47.1816Z" fill="#007ADF"/>
<path fill-rule="evenodd" clip-rule="evenodd" d="M77.0625 38.7236C75.7667 38.7236 74.4708 38.7236 73.1749 38.7236C72.4456 38.7236 71.8484 39.3209 71.8484 40.0511C71.8484 44.2801 71.8484 52.7697 71.8484 56.9977C71.8484 57.728 72.4456 58.3243 73.1749 58.3243C74.4708 58.3243 75.7667 58.3243 77.0625 58.3243C77.7918 58.3243 78.39 57.728 78.39 56.9977C78.39 52.7697 78.39 44.2801 78.39 40.0511C78.39 39.3218 77.7918 38.7236 77.0625 38.7236Z" fill="#0F335E"/>
<path fill-rule="evenodd" clip-rule="evenodd" d="M36.825 39.9365C35.5292 39.9365 34.2333 39.9365 32.9384 39.9365C32.2081 39.9365 31.6118 40.5338 31.6118 41.264C31.6118 47.4977 31.6118 50.7639 31.6118 56.9985C31.6118 57.7287 32.209 58.325 32.9384 58.325C34.2342 58.325 35.5292 58.325 36.825 58.325C37.5553 58.325 38.1516 57.7287 38.1516 56.9985C38.1516 50.7639 38.1516 47.4986 38.1516 41.264C38.1525 40.5328 37.5553 39.9365 36.825 39.9365Z" fill="#0F335E"/>
<path fill-rule="evenodd" clip-rule="evenodd" d="M34.8816 30.0124C36.6872 30.0124 38.1515 31.4766 38.1515 33.2832C38.1515 33.8413 38.0119 34.366 37.7654 34.8246L43.4633 40.6499C43.907 40.4248 44.4084 40.2983 44.9405 40.2983C45.7313 40.2983 46.4559 40.5783 47.0206 41.0453L51.8487 37.9056C51.7715 37.6256 51.7296 37.3317 51.7296 37.0275C51.7296 35.2218 53.1938 33.7567 55.0004 33.7567C56.806 33.7567 58.2712 35.2209 58.2712 37.0275L58.2703 37.0842L62.4118 38.4657C63.0063 37.6461 63.9709 37.114 65.0603 37.114C65.7319 37.114 66.3571 37.3168 66.8761 37.6647L72.0726 33.485C71.9293 33.1157 71.8493 32.7148 71.8493 32.2952C71.8493 30.4886 73.3136 29.0244 75.1201 29.0244C76.9267 29.0244 78.3909 30.4877 78.3909 32.2952C78.3909 34.1009 76.9267 35.5651 75.1201 35.5651C74.4476 35.5651 73.8234 35.3623 73.3052 35.0153L68.1069 39.195C68.252 39.5634 68.3311 39.9652 68.3311 40.3848C68.3311 42.1904 66.8668 43.6547 65.0603 43.6547C63.2537 43.6547 61.7895 42.1914 61.7895 40.3848L61.7904 40.3271L57.6498 38.9457C57.0544 39.7652 56.0897 40.2983 55.0004 40.2983C54.2097 40.2983 53.485 40.0173 52.9194 39.5503L48.0913 42.69C48.1695 42.97 48.2104 43.264 48.2104 43.5682C48.2104 45.3738 46.7462 46.838 44.9405 46.838C43.134 46.838 41.6697 45.3747 41.6697 43.5682C41.6697 43.0109 41.8093 42.4863 42.0558 42.0267L36.3579 36.2014C35.9142 36.4265 35.4118 36.554 34.8807 36.554C33.0741 36.554 31.6099 35.0897 31.6099 33.2832C31.6099 31.4766 33.076 30.0124 34.8816 30.0124Z" fill="#007ADF"/>
</svg>
