<svg width="110" height="110" viewBox="0 0 110 110" fill="none" xmlns="http://www.w3.org/2000/svg">
<path d="M54.9999 88.9188C73.7314 88.9188 88.9163 73.7339 88.9163 55.0023C88.9163 36.2708 73.7314 21.0859 54.9999 21.0859C36.2684 21.0859 21.0835 36.2708 21.0835 55.0023C21.0835 73.7339 36.2684 88.9188 54.9999 88.9188Z" fill="#34B7CE"/>
<path d="M55 97C78.196 97 97 78.196 97 55C97 31.804 78.196 13 55 13C31.804 13 13 31.804 13 55C13 78.196 31.804 97 55 97Z" stroke="black" stroke-width="3" stroke-miterlimit="10" stroke-linecap="round" stroke-linejoin="round"/>
<path d="M55.9111 13.2812C39.8347 17.8685 27.8909 34.9289 27.8909 55.2876C27.8909 74.8676 38.9398 91.3996 54.0877 96.7149C70.165 92.1294 82.1079 75.0682 82.1079 54.7085C82.1088 35.1276 71.0608 18.5974 55.9111 13.2812Z" stroke="black" stroke-width="3" stroke-miterlimit="10" stroke-linecap="round" stroke-linejoin="round"/>
<path d="M55.9117 13.2812L54.0891 96.7149" stroke="black" stroke-width="3" stroke-miterlimit="10" stroke-linecap="round" stroke-linejoin="round"/>
<path d="M13.2834 54.0889L96.7171 55.9133" stroke="black" stroke-width="3" stroke-miterlimit="10" stroke-linecap="round" stroke-linejoin="round"/>
<path d="M32.5264 78.8784C35.6293 78.8784 38.1447 76.363 38.1447 73.26C38.1447 70.157 35.6293 67.6416 32.5264 67.6416C29.4234 67.6416 26.908 70.157 26.908 73.26C26.908 76.363 29.4234 78.8784 32.5264 78.8784Z" fill="white" stroke="black" stroke-width="3" stroke-miterlimit="10" stroke-linecap="round" stroke-linejoin="round"/>
<path d="M77.4746 42.3589C80.5776 42.3589 83.093 39.8434 83.093 36.7405C83.093 33.6375 80.5776 31.1221 77.4746 31.1221C74.3716 31.1221 71.8562 33.6375 71.8562 36.7405C71.8562 39.8434 74.3716 42.3589 77.4746 42.3589Z" fill="white" stroke="black" stroke-width="3" stroke-miterlimit="10" stroke-linecap="round" stroke-linejoin="round"/>
</svg>
