<svg width="110" height="110" viewBox="0 0 110 110" fill="none" xmlns="http://www.w3.org/2000/svg">
<rect x="66.5125" y="52.001" width="13.6049" height="14.5118" fill="#007ADF"/>
<rect x="52.0005" y="66.5127" width="13.6049" height="14.5118" fill="#007ADF"/>
<path d="M46.5178 94.464H19.3634C17.2592 94.464 15.545 92.7498 15.545 90.6456V19.3653C15.545 17.2601 17.2592 15.5468 19.3634 15.5468H27.4266V17.6665C27.4266 21.1756 30.2818 24.0299 33.7891 24.0299H59.2492C62.7575 24.0299 65.6109 21.1756 65.6109 17.6665V15.5468H73.6749C75.7782 15.5468 77.4915 17.2601 77.4915 19.3653V31.2486C77.4915 31.9507 78.0638 32.5221 78.765 32.5221C79.4679 32.5221 80.0384 31.9516 80.0384 31.2486V19.3653C80.0384 15.8561 77.1832 13 73.674 13H19.3634C15.8552 13 13 15.8561 13 19.3653V90.6456C13 94.1548 15.8543 97.0091 19.3634 97.0091H46.5169C47.2207 97.0091 47.7903 96.4404 47.7903 95.7375C47.7912 95.0345 47.2216 94.464 46.5178 94.464ZM29.9707 15.5468H63.0686V17.6665C63.0686 19.7707 61.3526 21.4849 59.2492 21.4849H33.7891C31.6858 21.4849 29.9707 19.7707 29.9707 17.6665V15.5468Z" fill="black"/>
<path d="M38.0349 31.6699C37.332 31.6699 36.7615 32.2386 36.7615 32.9415C36.7615 33.6444 37.332 34.2149 38.0349 34.2149H54.1557C54.8586 34.2149 55.4291 33.6444 55.4291 32.9415C55.4291 32.2386 54.8586 31.6699 54.1557 31.6699H38.0349Z" fill="black"/>
<path d="M46.5208 48.6426H38.0359C37.3329 48.6426 36.7625 49.2113 36.7625 49.9142C36.7625 50.6189 37.3329 51.1885 38.0359 51.1885H46.5208C47.2237 51.1885 47.7942 50.6189 47.7942 49.9142C47.7942 49.2113 47.2237 48.6426 46.5208 48.6426Z" fill="black"/>
<path d="M32.5175 28.6992C32.5175 27.9972 31.947 27.4258 31.244 27.4258H22.7582C22.0562 27.4258 21.4875 27.9963 21.4875 28.6992V37.1859C21.4875 37.8879 22.0562 38.4575 22.7582 38.4575H31.244C31.947 38.4575 32.5175 37.8879 32.5175 37.1859V28.6992ZM29.9706 35.9116H24.0317V29.9726H29.9706V35.9116Z" fill="black"/>
<path d="M32.5175 45.673C32.5175 44.971 31.947 44.4014 31.244 44.4014H22.7582C22.0562 44.4014 21.4875 44.971 21.4875 45.673V54.1588C21.4875 54.8608 22.0562 55.4322 22.7582 55.4322H31.244C31.947 55.4322 32.5175 54.8617 32.5175 54.1588V45.673ZM29.9706 52.8854H24.0317V46.9455H29.9706V52.8854Z" fill="black"/>
<path d="M46.5208 65.6152H38.0359C37.3329 65.6152 36.7625 66.1857 36.7625 66.8877C36.7625 67.5907 37.3329 68.1612 38.0359 68.1612H46.5208C47.2237 68.1612 47.7942 67.5907 47.7942 66.8877C47.7942 66.1857 47.2237 65.6152 46.5208 65.6152Z" fill="black"/>
<path d="M32.5175 62.6447C32.5175 61.9427 31.947 61.374 31.244 61.374H22.7582C22.0562 61.374 21.4875 61.9427 21.4875 62.6447V71.1305C21.4875 71.8334 22.0562 72.4039 22.7582 72.4039H31.244C31.947 72.4039 32.5175 71.8334 32.5175 71.1305V62.6447ZM29.9706 69.8571H24.0317V63.9172H29.9706V69.8571Z" fill="black"/>
<path d="M46.5208 82.5879H38.0359C37.3329 82.5879 36.7625 83.1593 36.7625 83.8613C36.7625 84.5633 37.3329 85.1338 38.0359 85.1338H46.5208C47.2237 85.1338 47.7942 84.5633 47.7942 83.8613C47.7942 83.1593 47.2237 82.5879 46.5208 82.5879Z" fill="black"/>
<path d="M31.244 78.3457H22.7582C22.0562 78.3457 21.4875 78.9162 21.4875 79.6182V88.1022C21.4875 88.8051 22.0562 89.3756 22.7582 89.3756H31.244C31.947 89.3756 32.5175 88.8051 32.5175 88.1022V79.6182C32.5175 78.9162 31.9479 78.3457 31.244 78.3457ZM29.9706 86.8315H24.0317V80.8907H29.9706V86.8315Z" fill="black"/>
<path d="M72.7462 44.2588C72.5267 44.4982 72.3906 44.8193 72.3906 45.1603C72.3906 45.4986 72.5258 45.8215 72.7625 46.0592C72.9838 46.2968 73.323 46.4319 73.6613 46.4319C73.9851 46.4319 74.3243 46.2968 74.5629 46.0592C74.7996 45.8215 74.9347 45.4986 74.9347 45.1603C74.9347 44.8202 74.7996 44.4991 74.5629 44.2588C74.0858 43.7835 73.2205 43.7835 72.7462 44.2588Z" fill="black"/>
<path d="M80.4863 43.8857C79.7897 43.8857 79.2319 44.4463 79.2319 45.1592C79.2319 45.8548 79.7897 46.4308 80.4863 46.4308C81.2001 46.4308 81.7769 45.8548 81.7769 45.1592C81.7769 44.4472 81.2001 43.8857 80.4863 43.8857Z" fill="black"/>
<path d="M86.4262 44.2588C86.1876 44.4982 86.0525 44.8193 86.0525 45.1603C86.0525 45.4814 86.1876 45.8215 86.4262 46.0592C86.6629 46.2968 87.0039 46.4319 87.3232 46.4319C87.6642 46.4319 87.9862 46.2968 88.2247 46.0592C88.4615 45.8215 88.5966 45.4986 88.5966 45.1603C88.5966 44.8202 88.4615 44.4991 88.2411 44.2588C87.7667 43.7835 86.9005 43.7835 86.4262 44.2588Z" fill="black"/>
<path d="M90.6345 36.7627H56.6922C53.183 36.7627 50.3269 39.6188 50.3269 43.128V90.6479C50.3269 94.157 53.1821 97.0113 56.6922 97.0113H90.6345C94.1436 97.0113 96.9997 94.1579 96.9997 90.6479V43.128C96.9988 39.6188 94.1436 36.7627 90.6345 36.7627ZM65.0455 94.4663H56.6922C54.5879 94.4663 52.8728 92.7521 52.8728 90.6479V82.3054H65.0455V94.4663ZM65.0455 79.7595H52.8728V67.5967H65.0455V79.7595ZM65.0455 65.049H52.8728V52.8881H65.0455V65.049ZM79.756 94.4663H67.5906V82.3054H79.756V94.4663ZM79.756 79.7595H67.5906V67.5967H79.756V79.7595ZM79.756 65.049H67.5906V52.8881H79.756V65.049ZM94.4538 90.6479C94.4538 92.7521 92.7387 94.4663 90.6345 94.4663H82.3019V67.5958H94.4529L94.4538 90.6479ZM94.4538 52.9017V65.049H82.3019V52.8881H94.4529L94.4538 52.9017ZM94.4538 50.3431H52.8728V43.128C52.8728 41.0219 54.5879 39.3095 56.6922 39.3095H90.6345C92.7387 39.3095 94.4538 41.0228 94.4538 43.128V50.3431Z" fill="black"/>
</svg>
