<svg width="110" height="110" viewBox="0 0 110 110" fill="none" xmlns="http://www.w3.org/2000/svg">
<path fill-rule="evenodd" clip-rule="evenodd" d="M47.2252 13C48.4382 13 49.6511 13 50.867 13C51.7616 13 52.496 13.7334 52.496 14.63V20.4593H45.5953V14.63C45.5943 13.7334 46.3287 13 47.2252 13ZM97 47.2233C97 48.4372 97 49.6501 97 50.865C97 51.7616 96.2675 52.495 95.371 52.495H89.5397V45.5953H95.371C96.2675 45.5943 97 46.3267 97 47.2233ZM13 47.2233C13 48.4372 13 49.6501 13 50.865C13 51.7616 13.7344 52.495 14.6309 52.495H20.4603V45.5953H14.6309C13.7344 45.5943 13 46.3267 13 47.2233ZM13 35.3116V38.9534C13 39.8499 13.7344 40.5833 14.6309 40.5833H20.4603V33.6836H14.6309C13.7344 33.6826 13 34.4151 13 35.3116ZM13 59.135C13 60.3479 13 61.5609 13 62.7748C13 63.6733 13.7344 64.4057 14.6309 64.4057H20.4603V57.505H14.6309C13.7344 57.504 13 58.2384 13 59.135ZM13 71.0457V74.6874C13 75.584 13.7344 76.3164 14.6309 76.3164H20.4603V69.4177H14.6309C13.7344 69.4167 13 70.1491 13 71.0457ZM97 35.3116V38.9534C97 39.8499 96.2675 40.5833 95.371 40.5833H89.5397V33.6836H95.371C96.2675 33.6826 97 34.4151 97 35.3116ZM97 59.135C97 60.3479 97 61.5609 97 62.7748C97 63.6733 96.2675 64.4057 95.371 64.4057H89.5397V57.505H95.371C96.2675 57.504 97 58.2384 97 59.135ZM97 71.0457V74.6874C97 75.584 96.2675 76.3164 95.371 76.3164H89.5397V69.4177H95.371C96.2675 69.4167 97 70.1491 97 71.0457ZM47.2252 97C48.4382 97 49.6511 97 50.867 97C51.7616 97 52.496 96.2656 52.496 95.3691V89.5397H45.5953V95.3691C45.5943 96.2656 46.3287 97 47.2252 97ZM35.3135 97H38.9553C39.8518 97 40.5862 96.2656 40.5862 95.3691V89.5397H33.6855V95.3691C33.6846 96.2656 34.417 97 35.3135 97ZM59.135 97C60.3479 97 61.5628 97 62.7767 97C63.6733 97 64.4077 96.2656 64.4077 95.3691V89.5397H57.507V95.3691C57.506 96.2656 58.2384 97 59.135 97ZM71.0476 97H74.6894C75.5859 97 76.3184 96.2656 76.3184 95.3691V89.5397H69.4177V95.3691C69.4167 96.2656 70.1511 97 71.0476 97ZM35.3135 13H38.9553C39.8518 13 40.5862 13.7334 40.5862 14.63V20.4593H33.6855V14.63C33.6846 13.7334 34.417 13 35.3135 13ZM59.135 13C60.3479 13 61.5628 13 62.7767 13C63.6733 13 64.4077 13.7334 64.4077 14.63V20.4593H57.507V14.63C57.506 13.7334 58.2384 13 59.135 13ZM71.0476 13H74.6894C75.5859 13 76.3184 13.7334 76.3184 14.63V20.4593H69.4177V14.63C69.4167 13.7334 70.1511 13 71.0476 13Z" fill="#007ADF"/>
<path d="M76.4649 23.085H33.5352C27.7878 23.085 23.0845 27.7864 23.0845 33.5356V76.4654C23.0845 82.2127 27.7878 86.9161 33.5352 86.9161H76.4639C82.2132 86.9161 86.9146 82.2127 86.9146 76.4654V33.5356C86.9156 27.7864 82.2132 23.085 76.4649 23.085ZM40.0941 64.2558C40.0941 67.8839 40.0941 69.3703 40.0941 71.9671C40.0941 72.7894 40.0941 73.7201 40.0941 74.8686C40.0941 75.7808 39.3479 76.5279 38.4348 76.5279C36.8146 76.5279 35.1954 76.5279 33.5762 76.5279C32.663 76.5279 31.9169 75.7798 31.9169 74.8686C31.9169 73.7201 31.9169 72.7894 31.9169 71.9671C31.9169 69.3703 31.9169 67.8829 31.9169 64.2558C31.9169 63.4335 31.9169 62.5028 31.9169 61.3543C31.9169 60.4422 32.664 59.6951 33.5762 59.6951C35.1954 59.6951 36.8146 59.6951 38.4348 59.6951C39.3479 59.6951 40.0941 60.4431 40.0941 61.3543C40.0941 62.5028 40.0941 63.4335 40.0941 64.2558ZM52.6689 60.4099C52.6689 63.7744 52.6689 68.1652 52.6689 71.9671C52.6689 72.9838 52.6689 73.9682 52.6689 74.8686C52.6689 75.7808 51.9218 76.5279 51.0096 76.5279C49.3894 76.5279 47.7702 76.5279 46.15 76.5279C45.2378 76.5279 44.4917 75.7798 44.4917 74.8686C44.4917 73.9682 44.4917 72.9838 44.4917 71.9671C44.4917 68.1652 44.4917 63.7744 44.4917 60.4099C44.4917 59.3933 44.4917 58.4089 44.4917 57.5084C44.4917 56.5963 45.2388 55.8511 46.15 55.8511C47.7702 55.8511 49.3894 55.8511 51.0096 55.8511C51.9218 55.8511 52.6689 56.5963 52.6689 57.5084C52.6689 58.4089 52.6689 59.3933 52.6689 60.4099ZM65.2456 53.6811C65.2456 58.1247 65.2456 66.3243 65.2456 71.9671C65.2456 73.0375 65.2456 74.0258 65.2456 74.8686C65.2456 75.7808 64.4985 76.5279 63.5873 76.5279C61.9681 76.5279 60.347 76.5279 58.7268 76.5279C57.8146 76.5279 57.0675 75.7798 57.0675 74.8686C57.0675 74.0268 57.0675 73.0375 57.0675 71.9671C57.0675 66.3243 57.0675 58.1247 57.0675 53.6811C57.0675 52.6108 57.0675 51.6224 57.0675 50.7796C57.0675 49.8665 57.8156 49.1204 58.7268 49.1204C60.346 49.1204 61.9671 49.1204 63.5873 49.1204C64.4995 49.1204 65.2456 49.8684 65.2456 50.7796C65.2456 51.6224 65.2456 52.6108 65.2456 53.6811ZM76.4864 39.6463H74.3554V76.1236H70.4187V39.6463L68.2887 39.6473C67.6119 39.6473 67.2242 38.8884 67.5944 38.3415L71.6707 31.5854C72.0018 31.0365 72.7948 31.0551 73.1102 31.5971L77.2022 38.3777C77.5401 38.9392 77.1261 39.6473 76.4864 39.6463Z" fill="#0F335E"/>
</svg>
