<svg width="20" height="20" viewBox="0 0 20 20" fill="none" xmlns="http://www.w3.org/2000/svg">
<path d="M9.5405 20C7.01129 17.8228 5.12224 15.8006 3.87334 13.9333C2.62445 12.066 2 10.3377 2 8.74851C2 6.36472 2.75798 4.46563 4.27393 3.05125C5.78989 1.63687 7.54541 0.929678 9.5405 0.929678C9.96465 0.929678 10.3849 0.965435 10.8012 1.03695C11.2175 1.10846 11.622 1.20779 12.0147 1.33492L10.4831 2.90822C10.326 2.87644 10.1728 2.85658 10.0236 2.84863C9.87432 2.84068 9.7133 2.83671 9.5405 2.83671C7.95385 2.83671 6.61463 3.38896 5.52283 4.49344C4.43103 5.59793 3.88513 7.01629 3.88513 8.74851C3.88513 9.87684 4.34855 11.1681 5.2754 12.6222C6.20226 14.0763 7.62396 15.6933 9.5405 17.4732C11.457 15.6933 12.8787 14.0763 13.8056 12.6222C14.7324 11.1681 15.1959 9.87684 15.1959 8.74851C15.1959 8.55781 15.188 8.3671 15.1723 8.1764C15.1566 7.9857 15.133 7.80294 15.1016 7.62813L16.6568 6.05483C16.7982 6.46802 16.9043 6.8971 16.975 7.34207C17.0457 7.78705 17.081 8.25586 17.081 8.74851C17.081 10.3377 16.4566 12.066 15.2077 13.9333C13.9588 15.8006 12.0697 17.8228 9.5405 20ZM15.5258 2.69368L14.4418 1.59714L8.59794 7.50894V9.51132H10.5773L16.4212 3.59952L15.5258 2.69368ZM17.081 2.93206L17.7408 2.2646C17.9136 2.08979 18 1.8673 18 1.59714C18 1.32698 17.9136 1.10449 17.7408 0.929678L17.081 0.262217C16.9082 0.0874056 16.6883 0 16.4212 0C16.1541 0 15.9342 0.0874056 15.7614 0.262217L15.1016 0.929678L17.081 2.93206Z" fill="white"/>
</svg>
