<svg width="75" height="79" viewBox="0 0 75 79" fill="none" xmlns="http://www.w3.org/2000/svg">
<path fill-rule="evenodd" clip-rule="evenodd" d="M0.863482 37.0677C0.863482 16.6283 17.4918 0 37.9312 0C58.3687 0 74.998 16.6283 75 37.0687C75 50.672 67.567 63.1608 55.6029 69.6595C54.2982 70.3694 52.664 69.8858 51.954 68.58C51.2441 67.2733 51.7277 65.6401 53.0335 64.9321C63.2642 59.3747 69.6188 48.6984 69.6188 37.0677C69.6188 19.5953 55.4037 5.38122 37.9332 5.38122C20.4608 5.38122 6.2457 19.5953 6.2457 37.0677C6.2457 43.6746 8.26742 50.0101 12.0915 55.3923C12.6954 56.2405 12.7404 57.3309 12.2788 58.2061L7.42329 70.788L21.2078 65.2756C21.9388 64.9301 22.8099 64.9201 23.574 65.3096C28.057 67.5947 32.8885 68.7533 37.9332 68.7533C39.4192 68.7533 40.6238 69.9579 40.6238 71.4439C40.6238 72.9299 39.4182 74.1345 37.9332 74.1345C32.4489 74.1345 27.1788 72.9639 22.2512 70.6518L3.69128 78.0768C3.36684 78.207 3.02739 78.27 2.69194 78.27C1.996 78.27 1.31409 78.0007 0.800397 77.493C0.0383748 76.741 -0.204952 75.6095 0.180566 74.6111L6.86554 57.2809C2.93426 51.2568 0.863482 44.3004 0.863482 37.0677ZM22.8368 41.2586C25.4323 41.2586 27.5364 39.1545 27.5364 36.559C27.5364 33.9635 25.4323 31.8594 22.8368 31.8594C20.2413 31.8594 18.1372 33.9635 18.1372 36.559C18.1372 39.1545 20.2413 41.2586 22.8368 41.2586ZM37.607 41.2586C40.2025 41.2586 42.3066 39.1545 42.3066 36.559C42.3066 33.9635 40.2025 31.8594 37.607 31.8594C35.0115 31.8594 32.9074 33.9635 32.9074 36.559C32.9074 39.1545 35.0115 41.2586 37.607 41.2586ZM57.0764 36.559C57.0764 39.1545 54.9724 41.2586 52.3769 41.2586C49.7813 41.2586 47.6773 39.1545 47.6773 36.559C47.6773 33.9635 49.7813 31.8594 52.3769 31.8594C54.9724 31.8594 57.0764 33.9635 57.0764 36.559Z" fill="white"/>
</svg>
