<svg width="106" height="39" viewBox="0 0 106 39" fill="none" xmlns="http://www.w3.org/2000/svg">
<path d="M31.8638 5.49008C30.2403 1.09403 26.6935 0.546545 25.1992 0.519838V0.518555H23.9632C22.5614 0.51496 18.8381 0.952536 17.1623 5.48983C17.1623 5.48983 15.782 11.9739 17.1623 18.5221C17.1623 18.5221 18.0611 23.2086 24.2562 23.658H24.513H24.7698C30.965 23.2086 31.8638 18.5221 31.8638 18.5221C33.244 11.9741 31.8638 5.49008 31.8638 5.49008ZM27.3642 17.0887C27.3642 17.0887 26.8178 19.5557 24.6733 19.7912L24.6735 19.8279H24.513C22.2127 19.7208 21.6349 17.1103 21.6349 17.1103C21.0142 14.7136 21.5065 7.97277 21.5065 7.97277C21.8062 4.63445 24.267 4.29214 24.267 4.29214H24.4858L24.4861 4.27083H24.7321C24.7321 4.27083 27.1929 4.61313 27.4926 7.95145C27.4926 7.9512 27.9849 14.692 27.3642 17.0887Z" fill="white"/>
<path d="M14.787 6.30318H9.82236C9.82236 6.30318 9.26589 4.20595 7.31863 4.20595C7.31863 4.20595 5.41398 4.33435 4.98617 6.1319C4.98617 6.1319 4.79357 6.8594 4.98617 7.92946C4.98617 7.92946 5.34311 9.16875 7.40979 9.85773C7.42905 9.86415 7.44856 9.87057 7.46834 9.87699C7.46834 9.87699 11.0848 10.3264 12.7539 11.589C12.7539 11.589 15.279 13.3224 15.3005 15.7619C15.3005 15.7619 15.7071 20.1703 12.6255 22.246C12.6255 22.246 10.3573 23.9796 5.60658 23.4447C5.60658 23.4447 1.69047 22.995 0.256794 19.7425C0.256794 19.7425 0 19.5928 0 17.3029H5.09299C5.09299 17.3029 5.41039 19.9993 7.65913 19.9564C7.65913 19.9564 9.09461 19.8709 9.97208 18.6082C9.97208 18.6082 11.2347 15.8048 9.18038 14.4995C9.18038 14.4995 8.32423 13.9431 6.86924 13.7291C6.86924 13.7291 0.773207 12.5307 0.23548 8.95715C0.23548 8.95715 -0.513588 6.19662 1.04875 3.54316C1.04875 3.54316 2.9105 0.533541 6.84792 0.51916C6.84792 0.51839 13.8669 -0.138232 14.787 6.30318Z" fill="white"/>
<path d="M105.393 5.49008C103.769 1.09403 100.222 0.546545 98.728 0.519838V0.518555H97.4921C96.0902 0.51496 92.3667 0.952536 90.6911 5.48983C90.6911 5.48983 89.3109 11.9739 90.6911 18.5221C90.6911 18.5221 91.5899 23.2086 97.785 23.658H98.0418H98.2986C104.494 23.2086 105.393 18.5221 105.393 18.5221C106.773 11.9741 105.393 5.49008 105.393 5.49008ZM100.893 17.0887C100.893 17.0887 100.347 19.5557 98.2021 19.7912L98.2026 19.8279H98.0421C95.7415 19.7208 95.1637 17.1103 95.1637 17.1103C94.543 14.7136 95.0353 7.97277 95.0353 7.97277C95.3352 4.63445 97.7958 4.29214 97.7958 4.29214H98.0146L98.0151 4.27083H98.2609C98.2609 4.27083 100.722 4.61313 101.021 7.95145C101.021 7.9512 101.514 14.692 100.893 17.0887Z" fill="white"/>
<path d="M88.3158 6.30318H83.3509C83.3509 6.30318 82.7945 4.20595 80.8472 4.20595C80.8472 4.20595 78.9428 4.33435 78.5147 6.1319C78.5147 6.1319 78.3221 6.8594 78.5147 7.92946C78.5147 7.92946 78.8717 9.16875 80.9383 9.85773C80.9576 9.86415 80.9771 9.87057 80.9972 9.87699C80.9972 9.87699 84.6136 10.3264 86.2827 11.589C86.2827 11.589 88.8078 13.3224 88.8294 15.7619C88.8294 15.7619 89.2359 20.1703 86.1543 22.246C86.1543 22.246 83.8861 23.9796 79.1354 23.4447C79.1354 23.4447 75.2193 22.995 73.7854 19.7425C73.7854 19.7425 73.5286 19.5928 73.5286 17.3029H78.6218C78.6218 17.3029 78.9392 19.9993 81.1877 19.9564C81.1877 19.9564 82.6232 19.8709 83.5009 18.6082C83.5009 18.6082 84.7633 15.8048 82.7089 14.4995C82.7089 14.4995 81.8528 13.9431 80.3978 13.7291C80.3978 13.7291 74.3018 12.5307 73.764 8.95715C73.764 8.95715 73.015 6.19662 74.5773 3.54316C74.5773 3.54316 76.4391 0.533541 80.3765 0.51916C80.3765 0.51839 87.3954 -0.138232 88.3158 6.30318Z" fill="white"/>
<path d="M32.4772 0.996094L37.9947 23.3693H40.4663C40.4663 23.3693 42.0392 23.273 42.4886 22.0532L45.6022 10.979L49.0368 23.3693H51.5406C51.5406 23.3693 52.8887 23.273 53.4986 21.9248L58.6987 0.996094H53.5628L50.8344 13.4506L47.5603 0.996094H43.5158L40.37 13.5148L37.4169 0.996094H32.4772Z" fill="white"/>
<path d="M54.3653 23.3693L61.8765 0.996094H66.0494L73.5285 23.1125H68.4569L63.947 8.9567L59.437 23.3693H54.3653Z" fill="white"/>
<path d="M1.11473 36.6792C1.48863 36.9393 2.13498 37.1452 2.80701 37.1452C3.69577 37.1452 4.25866 36.7223 4.40067 36.1047C4.53728 35.5084 4.2186 35.1507 3.38916 34.7499C2.25644 34.208 1.65529 33.4276 1.90386 32.3437C2.21741 30.9781 3.53168 29.9268 5.33078 29.9268C6.12196 29.9268 6.68639 30.1111 7.03204 30.3063L6.39519 31.6175C6.13762 31.466 5.67539 31.2598 4.99258 31.2598C4.14721 31.2598 3.66341 31.7151 3.55659 32.1812C3.41972 32.7769 3.76947 33.0483 4.68134 33.5142C5.87775 34.1104 6.29709 34.8798 6.04595 35.9745C5.71263 37.4267 4.37396 38.489 2.43388 38.489C1.61035 38.489 0.828153 38.2613 0.492523 38.0232L1.11473 36.6792Z" fill="white"/>
<path d="M12.8199 35.3131C12.2925 37.6112 10.6146 38.4999 9.27051 38.4999C7.64475 38.4999 6.73801 37.3508 7.18843 35.3891C7.65348 33.3623 9.14186 32.2134 10.7784 32.2134C12.4694 32.2134 13.2403 33.4817 12.8199 35.3131ZM10.4749 33.3949C9.58611 33.3949 9.03272 34.4357 8.82138 35.3568C8.57511 36.4299 8.78337 37.3187 9.56377 37.3187C10.3223 37.3187 10.9404 36.4191 11.1867 35.346C11.4029 34.4031 11.2984 33.3949 10.4749 33.3949Z" fill="white"/>
<path d="M15.0849 32.3436L15.1421 32.0942C15.5599 30.2733 16.7887 29.5474 17.9702 29.5474C18.3713 29.5474 18.6707 29.6121 18.8916 29.6881L18.4889 30.9238C18.3497 30.8696 18.1754 30.8262 17.926 30.8262C17.0265 30.8262 16.8174 31.7368 16.6783 32.3436H17.8813L17.6102 33.5251H16.4179L15.3036 38.3808H13.6997L14.8139 33.5251H14.012L14.2831 32.3436H15.0849Z" fill="white"/>
<path d="M19.1928 32.3438L19.4465 31.238L21.1359 30.7725L20.7751 32.3438H22.1082L21.837 33.5253H20.504L19.902 36.1482C19.7354 36.8744 19.8933 37.1779 20.381 37.1779C20.6087 37.1779 20.7435 37.1564 20.9138 37.1237L20.6542 38.3487C20.4177 38.4354 20.015 38.4896 19.5489 38.4896C17.8148 38.4896 18.1278 36.983 18.2822 36.311L18.9213 33.5255H18.1302L18.4013 32.344H19.1928V32.3438Z" fill="white"/>
<path d="M29.587 32.3438H31.1586L28.0065 38.381H26.5543L26.4773 36.0724C26.4624 35.4764 26.4749 34.9017 26.5224 34.1755H26.5006C26.2256 34.9017 25.9585 35.498 25.6642 36.0724L24.4735 38.381H23.0213L22.7268 32.3438H24.3849L24.2873 34.9885C24.2598 35.6279 24.2298 36.2778 24.1697 36.918H24.2023C24.4573 36.2781 24.785 35.6066 25.0626 35.01L26.3465 32.3438H27.6146L27.6595 34.9343C27.6739 35.6279 27.668 36.2673 27.6272 36.918H27.6595C27.8822 36.2781 28.1505 35.6281 28.4507 34.9343L29.587 32.3438Z" fill="white"/>
<path d="M32.1865 32.7338C32.6424 32.4953 33.4525 32.2246 34.3955 32.2246C36.2703 32.2246 36.5061 33.4172 36.2028 34.7391L35.6954 36.9501C35.5734 37.4809 35.4733 38.0122 35.4537 38.3807H34.0124L34.0591 37.7521H34.0267C33.5704 38.2287 32.923 38.5001 32.2507 38.5001C31.1345 38.5001 30.6324 37.6653 30.8564 36.6897C31.212 35.1397 32.7553 34.4138 34.6733 34.4138C34.8102 33.8178 34.7088 33.3625 33.8308 33.3625C33.2782 33.3625 32.6965 33.5358 32.2515 33.7744L32.1865 32.7338ZM34.4805 35.4433C33.6136 35.4433 32.6668 35.6492 32.4652 36.5272C32.3332 37.1016 32.6336 37.351 33.0347 37.351C33.414 37.351 34.1048 37.0801 34.2815 36.3102L34.4805 35.4433Z" fill="white"/>
<path d="M39.6007 33.3949C40.0614 32.6145 40.804 32.2134 41.3674 32.2134C41.5192 32.2134 41.6142 32.2244 41.7174 32.2457L41.3667 33.7744C41.2524 33.7523 41.1248 33.7418 40.9622 33.7418C40.236 33.7418 39.5714 34.2292 39.3352 35.259L38.6187 38.3805H37.0148L37.9675 34.2292C38.139 33.4814 38.2541 32.8857 38.3568 32.3433H39.7332L39.5568 33.3946L39.6007 33.3949Z" fill="white"/>
<path d="M43.2009 35.8447C43.0081 36.8744 43.6503 37.2861 44.5173 37.2861C45.1133 37.2861 45.6045 37.1777 46.0485 37.0367L46.0223 38.1422C45.4738 38.3592 44.7394 38.4894 43.9916 38.4894C42.1276 38.4894 41.3341 37.3187 41.7644 35.4438C42.1625 33.7097 43.5029 32.2139 45.2694 32.2139C46.7324 32.2139 47.4475 33.2544 46.9997 35.2053C46.945 35.4438 46.8818 35.6711 46.8097 35.8447H43.2009ZM45.6248 34.7281C45.7799 34.0998 45.7073 33.3304 44.9161 33.3304C44.1465 33.3304 43.6375 34.1321 43.4572 34.7281H45.6248Z" fill="white"/>
<path d="M54.3014 34.0455C54.6442 34.6307 55.0492 35.3675 55.3709 35.8556C55.8365 35.292 56.2155 34.49 56.4738 33.7422H57.8934C57.4304 34.9561 56.7892 36.0508 55.9513 36.8202C56.2368 37.2754 56.5619 37.7957 56.9371 38.3809H55.1054C54.9767 38.1858 54.854 38.0122 54.6994 37.7415C54.0482 38.2184 53.2575 38.5004 52.3793 38.5004C50.6236 38.5004 50.015 37.3728 50.2936 36.1592C50.5399 35.0858 51.3018 34.3164 52.3341 33.7854L52.3441 33.7422C52.0634 33.2654 51.9694 32.6365 52.1063 32.0404C52.35 30.9781 53.363 29.9165 54.8481 29.9165C55.9967 29.9165 56.6973 30.6425 56.4338 31.7914C56.2422 32.6259 55.6578 33.3306 54.3137 33.9916L54.3014 34.0455ZM54.185 36.8202C53.8158 36.2567 53.3137 35.4219 52.8474 34.6199C52.4496 34.8909 51.9972 35.3028 51.8577 35.9098C51.681 36.6792 52.0657 37.3186 52.9003 37.3186C53.3443 37.3186 53.8153 37.156 54.185 36.8202ZM53.5559 31.9102C53.4465 32.3869 53.552 32.7769 53.8019 33.1999C54.5276 32.7769 54.9313 32.3869 55.0533 31.8558C55.1503 31.4331 55.0538 30.9563 54.5446 30.9563C54.0133 30.9565 53.663 31.4442 53.5559 31.9102Z" fill="white"/>
<path d="M60.938 36.6792C61.3118 36.9393 61.9585 37.1452 62.6305 37.1452C63.5193 37.1452 64.0819 36.7223 64.2239 36.1047C64.3605 35.5084 64.0418 35.1507 63.2126 34.7499C62.0799 34.208 61.4785 33.4276 61.7273 32.3437C62.0409 30.9781 63.3552 29.9268 65.1543 29.9268C65.9454 29.9268 66.5099 30.1111 66.8553 30.3063L66.2184 31.6175C65.9608 31.466 65.4986 31.2598 64.8158 31.2598C63.9704 31.2598 63.4866 31.7151 63.3798 32.1812C63.2429 32.7769 63.5924 33.0483 64.5043 33.5142C65.7007 34.1104 66.1203 34.8798 65.8689 35.9745C65.5356 37.4267 64.1969 38.489 62.2571 38.489C61.4336 38.489 60.6511 38.2613 60.3155 38.0232L60.938 36.6792Z" fill="white"/>
<path d="M72.6434 35.3131C72.1159 37.6112 70.438 38.4999 69.0942 38.4999C67.4685 38.4999 66.5617 37.3508 67.0122 35.3891C67.4772 33.3623 68.9653 32.2134 70.6019 32.2134C72.2929 32.2134 73.0638 33.4817 72.6434 35.3131ZM70.2981 33.3949C69.4093 33.3949 68.8562 34.4357 68.6449 35.3568C68.3986 36.4299 68.6068 37.3187 69.3872 37.3187C70.1458 37.3187 70.7639 36.4191 71.0102 35.346C71.2264 34.4031 71.1216 33.3949 70.2981 33.3949Z" fill="white"/>
<path d="M76.9206 29.6665L74.9206 38.3808H73.3167L75.3166 29.6665H76.9206Z" fill="white"/>
<path d="M83.0584 32.3435L82.0957 36.538C81.9314 37.2532 81.8225 37.871 81.7272 38.3807H80.329L80.4373 37.5788H80.4047C80.066 37.9691 79.3914 38.5002 78.4593 38.5002C77.3104 38.5002 76.7015 37.7521 77.117 35.9422L77.9428 32.3435H79.547L78.7759 35.7034C78.5671 36.614 78.6953 37.1884 79.3562 37.1884C79.8765 37.1884 80.4443 36.7442 80.6014 36.0609L81.4545 32.3433L83.0584 32.3435Z" fill="white"/>
<path d="M84.9888 32.3438L85.2425 31.238L86.9317 30.7725L86.5711 32.3438H87.9041L87.633 33.5253H86.2999L85.6978 36.1482C85.5311 36.8744 85.689 37.1779 86.1767 37.1779C86.4045 37.1779 86.5393 37.1564 86.7093 37.1237L86.4497 38.3487C86.2132 38.4354 85.8108 38.4896 85.3447 38.4896C83.6105 38.4896 83.9236 36.983 84.0777 36.311L84.7171 33.5255H83.9256L84.1971 32.344H84.9888V32.3438Z" fill="white"/>
<path d="M90.7227 32.3436L89.337 38.3808H87.7331L89.1188 32.3436H90.7227ZM90.0915 31.5521C89.582 31.5521 89.3196 31.1839 89.4318 30.696C89.5461 30.1976 89.9859 29.8398 90.4846 29.8398C91.0046 29.8398 91.2697 30.1976 91.1551 30.696C91.0355 31.2165 90.5902 31.5521 90.0915 31.5521Z" fill="white"/>
<path d="M96.9671 35.3131C96.4397 37.6112 94.7618 38.4999 93.418 38.4999C91.7922 38.4999 90.8855 37.3508 91.3359 35.3891C91.801 33.3623 93.2891 32.2134 94.9256 32.2134C96.6164 32.2134 97.3873 33.4817 96.9671 35.3131ZM94.6219 33.3949C93.7331 33.3949 93.18 34.4357 92.9686 35.3568C92.7223 36.4299 92.9306 37.3187 93.711 37.3187C94.4696 37.3187 95.0877 36.4191 95.3339 35.346C95.5502 34.4031 95.4454 33.3949 94.6219 33.3949Z" fill="white"/>
<path d="M100.289 33.1676C100.662 32.7233 101.372 32.2246 102.25 32.2246C103.356 32.2246 104.036 32.994 103.647 34.685L102.799 38.381H101.195L102.003 34.8583C102.172 34.1213 102.069 33.5361 101.386 33.5361C100.952 33.5361 100.279 33.8722 100.067 34.7933L99.2441 38.381H97.6402L98.6078 34.1647C98.7696 33.4603 98.8797 32.8861 98.9799 32.3548H100.367L100.256 33.1676H100.289Z" fill="white"/>
</svg>
