<svg width="220" height="35" viewBox="0 0 220 35" fill="none" xmlns="http://www.w3.org/2000/svg">
<path d="M132.019 2.40395V4.80789L130.699 6.02957L129.359 7.27095L130.679 7.29065H132L132.059 14.7389L132.118 22.1872L132.63 23.1527C133.379 24.6503 134.325 25.0838 136.926 25.1823C141.714 25.3793 143.389 24.0394 143.605 19.8424L143.704 17.9311H142.285H140.886L140.847 18.7586C140.847 19.2316 140.807 19.6848 140.788 19.803C140.748 19.9015 140.729 20.335 140.709 20.7291C140.689 21.2414 140.512 21.6749 140.118 22.1084C139.546 22.7389 139.507 22.7587 137.852 22.7587C135.921 22.7587 135.468 22.5025 135.172 21.1626C135.073 20.7488 134.975 17.4384 134.975 13.8325V7.29065H138.916H142.857V5.99016C142.857 4.88671 142.817 4.70937 142.522 4.74878C142.325 4.76848 140.551 4.76848 138.581 4.74878L134.975 4.72907V2.36454V1.13352e-06H133.497H132.019V2.40395Z" fill="white"/>
<path d="M78.7778 4.72917C76.9453 4.94592 76.1374 5.26119 75.2507 6.04937C74.2852 6.91637 73.8517 8.21686 73.832 10.3055C73.8123 12.0986 74.0882 13.1824 74.8172 14.1479C75.8222 15.4878 77.3394 15.8819 82.7581 16.1381C86.6399 16.3154 87.2901 16.5124 87.6645 17.5568C88.0586 18.6799 87.9404 20.5519 87.428 21.3006C86.6596 22.4632 86.2261 22.5617 82.364 22.5617C79.2704 22.542 78.8172 22.5026 77.9896 22.1282C76.9847 21.675 76.8862 21.478 76.8074 19.744L76.7483 18.7193L75.231 19.6257C73.832 20.4533 73.6941 20.5913 73.6941 21.1627C73.6941 22.0691 74.4626 23.4681 75.2507 24.0001C76.5906 24.8868 77.6744 25.0839 81.8911 25.1627C85.1029 25.2415 86.0881 25.2021 87.1128 24.9459C89.7729 24.276 90.8566 22.8573 90.9945 19.8819C91.1325 16.8868 90.4428 15.1725 88.6891 14.2858C87.4872 13.6947 85.9305 13.4582 81.9699 13.3006C80.2951 13.2415 78.6202 13.0839 78.2655 12.9853C77.3591 12.6898 76.9847 11.8622 76.965 10.0691C76.9453 8.68977 76.9847 8.61095 77.5759 8.07893C78.3837 7.34987 79.2113 7.23164 83.0143 7.33016C85.7532 7.38927 86.1473 7.42868 86.6399 7.80307C87.0537 8.11834 87.2113 8.43361 87.2901 9.08386L87.3886 9.95085L88.9453 10.01L90.4822 10.0691L90.4034 8.808C90.2458 6.34494 88.7876 5.14297 85.5167 4.72917C83.6448 4.51242 80.7483 4.51242 78.7778 4.72917Z" fill="white"/>
<path d="M115.743 4.7292C113.241 5.00507 111.625 6.10852 111.113 7.92133C110.778 9.04448 110.778 11.9213 111.113 12.8671C111.645 14.4435 112.886 15.3696 114.995 15.744C115.625 15.8622 117.753 16.0396 119.704 16.1381C123.349 16.3154 124.059 16.4731 124.532 17.2021C124.965 17.9115 125.004 20.276 124.591 21.0839C123.901 22.4041 123.31 22.5617 119.408 22.542C115.349 22.5223 114.561 22.345 114.049 21.2809C113.852 20.9066 113.694 20.1775 113.694 19.6652V18.7194L112.374 19.5273C110.482 20.6701 110.561 20.5716 110.758 21.6159C111.093 23.3696 112.275 24.3548 114.817 24.946C115.881 25.1824 116.985 25.2415 120.098 25.1824C123.704 25.1036 124.118 25.0642 125.064 24.6504C126.266 24.1184 127.33 23.0346 127.704 21.9509C127.862 21.4977 127.98 20.3745 127.98 19.212C127.98 17.4583 127.921 17.1233 127.428 16.0987C126.423 14.0691 124.807 13.5371 119.113 13.3006C115.625 13.1627 114.679 12.9657 114.305 12.2366C113.95 11.5864 113.812 9.5962 114.088 8.78832C114.482 7.60605 115.073 7.40901 118.601 7.33019C120.275 7.29078 122.029 7.31049 122.522 7.3893C123.704 7.56664 124.335 8.19719 124.335 9.26123V10.0494H125.931H127.546L127.428 8.76862C127.31 7.05433 126.699 6.12822 125.28 5.43856C123.586 4.63068 119.605 4.33511 115.743 4.7292Z" fill="white"/>
<path d="M152.019 4.72915C148.432 5.16264 146.698 6.64048 146.009 9.8523C145.674 11.4878 145.536 16.3942 145.792 18.4434C146.127 21.2021 146.501 22.2267 147.565 23.271C149.043 24.7489 150.166 25.0641 154.107 25.1824C156.117 25.2415 157.91 25.1824 158.738 25.0444C161.694 24.5321 163.132 23.0937 163.309 20.4139L163.408 18.9558L161.792 19.3499C160.216 19.7439 160.196 19.7636 160.196 20.3745C160.196 21.2415 159.802 21.8917 159.014 22.3449C158.403 22.7193 157.989 22.7587 155.073 22.7587C150.245 22.7587 149.437 22.3252 148.984 19.5075C148.866 18.7981 148.767 17.6356 148.767 16.8868V15.5666H156.058H163.349V13.4385C163.349 8.63063 162.423 6.40402 159.979 5.33998C158.462 4.67003 154.856 4.39417 152.019 4.72915ZM158.048 7.31043C159.467 7.74393 159.96 8.72915 160.137 11.4681L160.255 13.2021H154.482H148.708L148.846 11.7636C149.122 8.92619 149.694 7.90156 151.29 7.40895C152.432 7.05427 156.964 6.99516 158.048 7.31043Z" fill="white"/>
<path d="M175.902 4.74895C173.872 5.04452 172.296 5.97063 171.409 7.38935L171.035 7.98048V6.44354C171.035 5.61595 170.995 4.92629 170.936 4.92629C170.877 4.92629 170.168 5.3795 169.36 5.95092L167.882 6.97556V16.0002V25.0248H169.439H171.015L171.074 17.7736C171.133 10.7588 171.153 10.5224 171.567 9.73418C172.611 7.78344 174.365 7.01497 177.498 7.13319C180.217 7.23171 181.123 7.82285 181.498 9.67507C181.577 10.148 181.655 13.7933 181.675 17.7736V25.0248H183.133H184.611L184.67 17.7736C184.729 10.9164 184.749 10.5027 185.143 9.65536C185.99 7.82285 187.567 7.09378 190.739 7.09378C192.986 7.09378 194.128 7.52728 194.779 8.67014C195.153 9.32039 195.173 9.75389 195.232 17.1825L195.291 25.0248H196.867H198.424L198.404 18.0692C198.385 8.82778 198.207 7.64551 196.552 6.12826C195.389 5.04452 193.99 4.65043 191.33 4.65043C188.138 4.65043 185.813 5.49772 184.651 7.11349L184.079 7.88196L183.843 7.31053C183.33 6.02974 181.754 5.10363 179.508 4.74895C178.069 4.5125 177.537 4.5125 175.902 4.74895Z" fill="white"/>
<path d="M207.784 4.72919C206.72 4.84742 205.853 5.10357 205.124 5.45825C204.217 5.93116 203.961 6.18732 203.468 7.17254C202.936 8.19717 202.877 8.51245 202.858 10.2267C202.858 12.2957 203.114 13.2809 203.882 14.207C204.986 15.5272 206.424 15.8819 211.725 16.1381C215.37 16.3154 216.079 16.473 216.552 17.2021C216.986 17.9115 217.025 20.276 216.611 21.0839C215.922 22.4041 215.33 22.5617 211.429 22.542C207.37 22.5223 206.582 22.345 206.069 21.2809C205.872 20.9066 205.715 20.1775 205.715 19.6652V18.7391L204.138 19.6652C203.114 20.276 202.601 20.6898 202.641 20.8868C202.7 21.0445 202.779 21.5174 202.858 21.9115C203.114 23.4681 204.808 24.6504 207.311 25.0445C208.158 25.1627 210.247 25.2218 212.394 25.1824C215.705 25.1036 216.158 25.0642 217.084 24.6504C218.286 24.1184 219.35 23.0346 219.724 21.9509C219.882 21.4977 220 20.3942 220 19.3105C220 17.0248 219.626 15.8819 218.523 14.8967C217.38 13.8721 216.197 13.5962 211.922 13.3794C207.725 13.1824 206.838 13.0051 206.385 12.3154C205.971 11.6652 205.793 9.69471 206.109 8.78831C206.503 7.60604 207.094 7.409 210.621 7.33018C212.296 7.29077 214.05 7.31047 214.542 7.38929C215.724 7.56663 216.355 8.19717 216.355 9.26122V10.0494H217.951H219.547L219.468 8.90653C219.311 6.75875 218.286 5.57648 216.099 4.98535C214.818 4.65037 209.892 4.49274 207.784 4.72919Z" fill="white"/>
<path d="M92.0203 5.00497C92.0203 5.28083 98.7986 24.0198 98.8774 23.9607C98.8971 23.9213 99.1927 22.9163 99.5079 21.7144L100.099 19.5469L98.0301 13.5567C96.8873 10.2858 95.7247 6.936 95.4488 6.14782L94.9365 4.7094L93.4784 4.74881C92.572 4.76851 92.0203 4.86703 92.0203 5.00497Z" fill="white"/>
<path d="M106.089 4.88678C105.951 4.9656 104.828 9.10354 103.547 14.0888C100.789 25.0247 99.3896 30.0888 98.9955 30.6799C98.5423 31.3893 97.9315 31.606 96.4143 31.606L94.9758 31.6257V32.7489V33.8721L95.6852 34.01C97.3601 34.3253 99.7049 33.5174 100.789 32.2563C101.163 31.8228 101.734 30.8376 102.05 30.0691C102.523 28.9065 108.966 5.49762 108.966 4.90648C108.966 4.68973 106.404 4.67003 106.089 4.88678Z" fill="white"/>
<path d="M23.1139 4.03951C18.641 5.04443 17.5375 7.52719 17.7937 16.1577C17.8725 19.3499 17.971 20.2366 18.3257 21.3597C18.9169 23.2119 20.0794 24.3942 21.9907 25.0445C23.2518 25.478 23.6262 25.5174 27.5868 25.5174C32.4735 25.5174 33.5572 25.3006 34.8774 24.1183C36.2567 22.877 36.5129 21.8326 36.6114 17.1824L36.6902 13.2021L32.8872 13.2415L29.0843 13.3006L28.237 15.2513C27.7641 16.3351 27.3897 17.2415 27.3897 17.2809C27.3897 17.3006 28.237 17.34 29.2616 17.34H31.1336V18.1282C31.1336 18.5617 30.9956 19.2316 30.838 19.6257C30.4439 20.5715 29.5966 20.8868 27.4488 20.8868C25.3996 20.8868 24.5523 20.5518 23.9415 19.5075C23.5868 18.877 23.5474 18.4829 23.5474 14.6799C23.5474 11.074 23.5868 10.4435 23.9021 9.81291C24.4341 8.74887 25.2814 8.4336 27.5868 8.4139C29.8331 8.39419 30.7001 8.74887 31.0153 9.81291L31.1927 10.4435H33.9513H36.7099L36.5917 9.00503C36.5326 8.23656 36.3355 7.21192 36.1582 6.73902C35.7641 5.75379 34.4242 4.51241 33.3602 4.13803C32.237 3.74394 24.7296 3.66512 23.1139 4.03951Z" fill="white"/>
<path d="M15.0738 20.9117V25.5669H0V3.76886H15.0738V8.49793H5.54185V13.3009H13.596L11.8965 17.3649H5.54185V20.9117H15.0738Z" fill="white"/>
<path d="M45.4448 25.567V9.23691L49.6566 19.6556L52.2428 11.9709L49.0655 3.84282H40.4202V25.567H45.4448Z" fill="white"/>
<path d="M57.783 3.84283L50.4678 25.567H55.5663L60.6648 9.5325V25.567H65.8372V3.84283H57.783Z" fill="white"/>
</svg>
