<svg width="60" height="56" viewBox="0 0 60 56" fill="none" xmlns="http://www.w3.org/2000/svg">
<g clip-path="url(#clip0_608_301)">
<path d="M51.973 0.348633H8.02656C3.59368 0.348633 0 3.94232 0 8.37477V34.4566C0 38.8899 3.59368 42.4832 8.02656 42.4832H23.5482L28.8275 54.9219C28.8275 54.9219 29.1907 56.0001 30.071 56.0001C30.9513 56.0001 31.3145 54.9219 31.3145 54.9219L36.5938 42.4832H51.9734C56.4063 42.4832 60 38.8899 60 34.4566V8.37477C59.9996 3.94232 56.4059 0.348633 51.973 0.348633Z" fill="#2CB24A"/>
<path d="M25.1703 17.793V27.9307H21.6563V17.8939C21.6563 16.5287 19.9626 16.1498 19.9626 16.1498V12.6104C25.5751 12.8371 25.1703 17.793 25.1703 17.793Z" fill="white"/>
<path d="M7.32212 13.0987V13.0898C7.30602 13.0932 7.30771 13.0962 7.32212 13.0987Z" fill="#EC2123"/>
<path d="M14.1984 17.3371C14.1984 17.3371 11.7562 17.3133 10.9119 18.7531V13.0898C10.9119 13.0898 7.54459 13.1339 7.32166 13.0987V27.9045H10.9119V27.0454C10.9119 27.0454 11.9885 28.3093 13.8949 28.3093C13.8949 28.3093 18.8249 28.172 18.8495 23.4051C18.8495 23.4051 19.5141 17.8325 14.1984 17.3371ZM13.093 25.0157C11.9525 25.0157 11.0277 24.0904 11.0277 22.9495C11.0277 21.8085 11.9525 20.8833 13.093 20.8833C14.234 20.8833 15.1592 21.8085 15.1592 22.9495C15.1592 24.0904 14.234 25.0157 13.093 25.0157Z" fill="white"/>
<path d="M33.5003 17.4697C30.247 17.4697 27.6099 19.8979 27.6099 22.8927C27.6099 25.8866 30.2474 28.3152 33.5003 28.3152C36.7532 28.3152 39.3903 25.8871 39.3903 22.8927C39.3907 19.8979 36.7537 17.4697 33.5003 17.4697ZM33.5003 25.117C32.272 25.117 31.2756 24.1209 31.2756 22.8927C31.2756 21.664 32.272 20.6676 33.5003 20.6676C34.7286 20.6676 35.725 21.664 35.725 22.8927C35.725 24.1209 34.729 25.117 33.5003 25.117Z" fill="white"/>
<path d="M49.1869 17.615V18.7022C48.0239 17.1348 46.1281 17.3366 46.1281 17.3366C41.3247 17.6913 41.2239 22.1149 41.2239 22.1149V23.7327C41.2239 27.9998 45.597 28.3151 45.597 28.3151C48.6812 28.3151 49.111 26.9436 49.111 26.9436C49.1364 30.3313 46.9372 30.1291 46.9372 30.1291H45.9763V33.4664H47.5691C52.8022 33.4664 52.7517 28.3156 52.7517 28.3156V17.615H49.1869ZM47.1648 25.0665C45.964 25.0665 44.9909 24.0933 44.9909 22.8926C44.9909 21.6915 45.964 20.7183 47.1648 20.7183C48.3655 20.7183 49.339 21.6915 49.339 22.8926C49.339 24.0933 48.3655 25.0665 47.1648 25.0665Z" fill="white"/>
</g>
<defs>
<clipPath id="clip0_608_301">
<rect width="60" height="56" fill="white"/>
</clipPath>
</defs>
</svg>
